<svg width="995" height="359" viewBox="0 0 995 359" fill="none" xmlns="http://www.w3.org/2000/svg">
	<g clip-path="url(#clip0_75_289)">
	<path d="M240.66 29.7C240.66 44.4 223.46 65.43 206.26 76.6C205.67 77.04 205.38 77.33 205.38 77.63C205.38 77.93 205.82 77.92 206.7 77.92C207.14 77.92 214.05 77.48 218.02 77.48C220.23 77.48 222.28 77.48 224.05 77.63C225.67 77.78 226.99 78.95 227.28 80.42C228.01 83.51 228.9 89.24 229.49 93.65C229.49 95.12 228.46 96.15 226.84 96.3C217.58 96.89 188.03 98.65 178.62 99.09C177 99.09 175.24 98.5 174.5 97.03C173.03 93.8 170.53 84.68 170.53 83.5C170.53 82.18 171.27 80.85 172.29 80.12C200.52 62.62 220.07 34.98 220.37 24.84C220.22 20.43 216.84 18.81 213.61 18.81C208.46 18.81 200.38 24.25 194.35 33.81C193.91 34.54 193.17 34.99 192.29 34.99C191.41 34.99 190.53 34.4 190.53 34.4C187.15 32.2 183.18 28.96 180.97 26.46C180.24 25.73 179.79 24.7 179.79 23.52C179.79 23.08 179.94 22.34 180.08 21.9C182.87 14.99 193.9 -0.00999451 208.31 -0.00999451C221.69 -0.00999451 240.66 14.55 240.66 29.69V29.7Z" fill="#CC4334"/>
	<path d="M247.13 84.69C243.6 78.81 242.57 69.84 242.57 62.34C242.57 42.93 253.01 0.589996 280.5 0.589996C286.38 0.589996 302.7 7.06 308.29 16.62C311.52 22.21 312.7 29.26 312.7 36.03C312.7 57.94 301.53 99.25 274.47 99.25C268.74 99.25 253.59 94.1 247.12 84.69H247.13ZM263.45 65.57C263.45 77.19 267.42 80.57 271.39 80.57C282.27 80.57 291.39 52.19 291.39 31.61C291.39 21.47 288.16 18.67 284.63 18.67C274.04 18.67 263.46 45.28 263.46 65.57H263.45Z" fill="#CC4334"/>
	<path d="M380.04 29.7C380.04 44.4 362.84 65.43 345.64 76.6C345.05 77.04 344.76 77.33 344.76 77.63C344.76 77.93 345.2 77.92 346.08 77.92C346.52 77.92 353.43 77.48 357.4 77.48C359.61 77.48 361.66 77.48 363.43 77.63C365.05 77.78 366.37 78.95 366.66 80.42C367.39 83.51 368.28 89.24 368.87 93.65C368.87 95.12 367.84 96.15 366.22 96.3C356.96 96.89 327.41 98.65 318 99.09C316.38 99.09 314.62 98.5 313.88 97.03C312.41 93.8 309.91 84.68 309.91 83.5C309.91 82.18 310.65 80.85 311.67 80.12C339.9 62.62 359.45 34.98 359.75 24.84C359.6 20.43 356.22 18.81 352.99 18.81C347.84 18.81 339.76 24.25 333.73 33.81C333.29 34.54 332.55 34.99 331.67 34.99C330.79 34.99 329.91 34.4 329.91 34.4C326.53 32.2 322.56 28.96 320.35 26.46C319.62 25.73 319.17 24.7 319.17 23.52C319.17 23.08 319.32 22.34 319.46 21.9C322.25 14.99 333.28 -0.00999451 347.69 -0.00999451C361.07 -0.00999451 380.04 14.55 380.04 29.69V29.7Z" fill="#CC4334"/>
	<path d="M440.32 55.72C442.08 55.72 442.82 56.9 443.11 58.37C443.7 61.75 444.43 68.22 444.43 72.19C444.43 73.51 443.55 74.84 441.93 74.84C441.2 74.84 435.46 74.99 434.73 74.99C432.97 74.99 432.08 76.31 431.79 77.78C430.91 84.1 429.88 90.42 429.14 96.6C428.99 98.07 427.96 98.95 426.64 98.95C424.14 98.95 415.32 96.3 412.38 95.13C410.62 94.54 409.73 92.92 409.73 91.45C409.88 88.07 410.76 79.1 410.76 78.51C410.76 77.33 409.88 76.6 408.85 76.6C405.47 76.6 385.77 78.51 384.59 78.51C382.83 78.51 381.5 77.78 380.91 76.45C379.44 73.51 376.21 64.39 376.21 62.19C376.21 60.87 376.65 59.4 377.39 58.51C387.98 44.4 410.76 11.61 417.67 2.64C418.4 1.76 419.29 1.17 420.46 1.17C421.78 1.17 424.58 3.08 425.61 3.08C426.2 3.08 426.64 2.79 426.93 2.2C427.37 1.32 428.4 0.580002 429.58 0.580002C431.34 0.580002 441.34 3.37 445.16 4.7C446.34 5.14 446.78 6.17 446.78 7.2C446.78 7.49 446.63 8.23 446.63 8.23C443.98 16.17 439.87 32.49 436.04 52.63C436.04 52.63 435.89 53.51 435.89 53.95C435.89 54.83 436.48 55.71 437.51 55.71H440.3L440.32 55.72ZM399.75 57.19C399.75 57.63 400.19 58.07 400.93 58.07C401.22 58.07 407.99 57.34 411.52 57.04C412.99 56.89 413.87 56.16 414.17 54.69C415.79 45.57 418.73 31.31 418.73 30.28C418.73 29.84 418.73 29.55 418.58 29.55C418.29 29.55 417.85 30.14 417.85 30.14C416.09 32.49 401.68 53.96 400.21 56.16C399.92 56.6 399.77 56.89 399.77 57.19H399.75Z" fill="#CC4334"/>
	<path d="M428.37 357.61C424.11 355.26 416.31 347.61 412.05 343.2C411.02 342.17 410.58 340.85 410.58 339.52C410.58 328.49 418.23 291.15 421.9 278.21C422.05 277.62 422.05 276.89 422.05 276.3C422.05 273.21 421.46 268.36 421.46 267.48C421.46 266.3 422.05 265.28 423.22 264.83C431.45 261.3 441.45 258.95 447.77 258.95C470.41 258.95 488.5 283.36 488.5 301.88C488.5 330.84 463.21 356.43 433.81 358.48C431.9 358.48 429.99 358.33 428.37 357.6V357.61ZM468.21 295.42C468.21 284.39 458.95 277.78 448.95 277.78C447.92 277.78 447.04 277.78 446.01 277.93C444.25 278.22 443.36 278.96 443.07 280.43C439.54 294.84 434.84 315.28 431.9 334.68C431.9 334.68 431.75 335.56 431.75 335.86C431.75 337.04 432.48 337.48 433.81 337.48C444.84 337.48 468.21 323.22 468.21 295.43V295.42Z" fill="#CC4334"/>
	<path d="M565.98 268.66V272.34C565.98 297.48 557.6 358.64 526.58 358.64C514.38 358.64 502.17 350.41 497.91 344.38C494.68 339.82 493.21 332.32 493.21 325.41C493.21 301.3 502.47 271.75 507.18 262.92C508.06 261.45 509.09 260.57 511 260.57C513.79 260.57 521.59 263.07 525.26 264.39C526.44 264.83 527.02 266.15 527.02 267.33C527.02 268.07 526.73 268.95 526.73 268.95C520.85 284.83 514.23 312.47 514.23 326.29C514.23 333.94 515.7 339.23 521.58 339.23C529.96 339.23 534.67 326.73 538.49 311.44C542.9 293.94 545.55 271.3 546.28 263.66C546.43 262.19 547.46 261.31 548.78 261.31C550.99 261.31 559.81 263.52 563.34 264.84C565.1 265.57 565.84 267.19 565.99 268.66H565.98Z" fill="#CC4334"/>
	<path d="M615.24 322.76C615.24 323.49 615.68 324.08 615.68 324.08C620.68 331.87 626.56 340.25 631.41 344.52C632 345.11 632.29 345.84 632.29 346.58C632.29 347.17 632 347.76 631.56 348.34C628.33 351.43 622.15 355.99 617.89 357.9C617.89 357.9 617.3 358.19 616.42 358.19C615.1 358.19 613.92 357.6 613.19 357.01C605.1 350.1 598.63 335.4 596.13 326.72C595.54 325.25 594.95 324.22 593.78 324.22H592.02C590.55 324.22 589.96 324.95 589.81 326.43C588.05 336.28 586.58 346.42 585.55 355.98C585.26 357.45 584.23 358.33 582.9 358.33C579.81 358.33 569.08 354.95 568.05 354.51C565.84 353.63 565.55 352.3 565.4 350.83C565.69 334.07 572.6 298.34 578.19 276.73C578.48 275.55 578.48 274.97 578.48 274.38C578.48 271.88 577.75 268.79 577.75 267.62C577.75 266.3 578.78 265.12 579.81 264.68C585.54 262.33 595.39 259.39 607.6 259.39C626.57 259.39 641.71 279.39 641.71 292.03C641.71 304.67 630.98 316 616.86 320.99C615.83 321.43 615.24 321.87 615.24 322.75V322.76ZM599.51 280.42C598.92 282.48 593.63 304.53 593.63 306C593.63 307.03 594.22 307.47 595.25 307.47C608.92 307.47 619.8 297.33 619.8 288.5C619.8 280.85 613.62 277.62 606.42 277.62C605.24 277.62 604.07 277.62 602.89 277.77C600.98 277.92 599.95 278.95 599.51 280.42Z" fill="#CC4334"/>
	<path d="M706.25 259.98C708.6 259.98 718.6 262.77 722.28 264.1C723.31 264.54 724.04 265.57 724.04 266.75C724.04 267.19 723.89 267.63 723.89 267.63C719.19 281.01 709.92 321.15 705.95 355.99C705.8 357.46 704.77 358.2 703.6 358.2C700.66 358.2 690.22 355.11 688.6 354.52C686.69 353.79 686.1 352.46 685.95 350.7C685.95 344.23 688.01 330.26 688.01 329.38C688.01 328.2 687.13 327.32 685.66 327.32C680.66 327.61 674.19 327.76 668.6 327.91C666.98 327.91 665.95 329.23 665.66 330.56C664.19 339.09 662.87 347.62 661.98 356C661.83 357.47 660.66 358.21 659.48 358.21C656.39 358.21 646.25 355.27 644.48 354.53C643.01 353.94 642.13 352.47 641.98 350.71C642.27 343.36 644.19 328.95 644.19 328.36C644.19 327.48 643.9 327.04 643.45 326.6C643.16 326.16 642.72 325.72 642.42 324.84C641.83 322.64 641.39 318.67 641.24 315.72C641.24 313.81 641.68 313.07 644.33 312.34C646.39 311.75 647.27 310.72 647.56 309.4C651.09 289.4 656.09 269.56 659.17 262.06C659.76 260.88 660.79 260.15 662.11 260.15C664.76 260.15 674.9 262.8 678.28 264.12C679.31 264.41 680.04 265.74 680.04 266.91C680.04 267.35 679.75 268.23 679.75 268.23C677.1 275.29 673.72 288.81 670.05 306.16C670.05 306.16 669.9 306.89 669.9 307.34C669.9 308.37 670.78 309.25 671.96 309.25C672.55 309.25 685.93 308.81 688.87 308.81C690.34 308.81 691.66 307.78 691.96 306.31C695.64 287.49 700.19 269.26 703.28 262.06C703.72 260.88 704.9 260 706.22 260L706.25 259.98Z" fill="#CC4334"/>
	<path d="M721.39 332.76C721.39 331 718.89 324.82 718.89 322.17C718.89 320.7 719.62 319.67 721.24 319.38C722.86 319.09 724.77 318.65 724.77 318.65C726.83 318.21 727.42 317.47 728.3 315.71C736.09 300.27 748.74 270.72 755.35 262.93C756.23 261.9 757.26 261.61 758.29 261.61C759.76 261.61 762.41 262.64 763.29 262.64C764.47 262.64 765.64 261.91 765.79 260.73C765.94 259.7 766.52 258.82 767.7 258.82C769.76 258.82 780.2 262.5 782.55 263.67C784.17 264.41 785.2 265.88 785.49 267.64C787.11 276.02 787.84 300.87 787.84 322.92C787.84 336.89 787.4 349.53 786.66 356.15C786.51 357.33 785.48 358.36 783.72 358.36C781.22 358.36 770.78 356.74 768.14 355.86C766.67 355.42 765.79 354.1 765.79 352.04C765.79 348.66 766.23 337.93 766.23 335.57C766.23 334.25 765.35 333.36 763.88 333.36C757.26 333.36 746.68 333.95 744.91 334.1C743.15 334.25 742.41 334.98 741.53 336.75C738.74 342.92 736.24 350.86 734.03 356.01C733.44 357.19 732.41 357.77 731.38 357.77C729.03 357.77 720.35 353.65 718 352.04C716.97 351.31 716.24 350.42 716.24 349.1C716.24 348.36 716.39 347.92 716.39 347.92L721.09 334.54C721.38 333.81 721.38 333.36 721.38 332.78L721.39 332.76ZM750.21 314.53C750.21 315.41 750.8 315.71 752.27 315.71C755.95 315.71 761.97 315.56 763.88 315.56C765.5 315.56 766.38 314.83 766.67 312.77C766.82 309.54 766.82 306.15 766.82 302.77C766.82 294.68 766.53 286.89 766.38 282.19C766.38 281.31 766.09 280.87 765.79 280.87C765.49 280.87 765.2 281.16 764.91 281.75C761.23 289.69 756.09 301.3 750.5 313.65C750.5 313.65 750.21 314.24 750.21 314.53Z" fill="#CC4334"/>
	<path d="M813.28 358.34C810.19 358.34 801.08 355.55 798.72 354.66C796.81 353.92 796.22 352.45 796.07 350.84C796.81 329.52 807.98 276 814.01 262.48C814.6 261.16 816.22 260.27 817.98 260.27C820.04 260.27 835.33 263.36 841.65 266C843.27 266.73 843.41 268.35 843.41 269.82C843.56 275.55 843.56 297.46 843.41 310.99C843.41 311.58 843.56 312.17 843.85 312.17C844.14 312.17 844.58 311.14 844.58 311.14C850.75 295.7 857.67 276 864.72 261.89C865.46 260.71 866.63 259.83 868.25 259.83C872.81 259.83 889.27 264.24 894.13 266.45C895.45 266.89 896.04 268.07 896.04 269.24C896.04 269.68 895.89 270.12 895.89 270.12C891.04 285.12 882.36 322.61 878.54 356.13C878.39 357.45 877.22 358.34 875.89 358.34C873.54 358.34 863.83 355.99 861.04 354.66C859.28 353.78 858.54 352.45 858.39 350.84C858.39 336.43 867.51 297.47 867.51 295.71C867.51 295.42 867.36 295.12 867.22 295.12C867.08 295.12 866.78 295.41 866.48 296C860.75 309.09 855.75 325.11 848.98 342.9C848.54 344.08 847.22 345.11 845.89 345.11C843.69 345.11 835.01 342.32 831.19 340.55C829.43 339.67 828.69 337.9 828.54 336.43C826.92 324.96 827.36 307.61 826.92 295.41C826.77 294.67 826.63 294.38 826.48 294.38C826.33 294.38 826.04 294.67 825.89 295.26C822.07 312.02 818.39 334.66 816.04 356.13C815.75 357.45 814.57 358.34 813.25 358.34H813.28Z" fill="#CC4334"/>
	<path d="M80.19 91.61C83.83 91.61 98.77 96.05 101.4 97.47C102.81 98.28 103.82 99.69 103.82 101.31C103.82 101.71 103.62 102.52 103.62 102.52C96.75 121.91 83.22 177.86 76.96 228.36C76.76 230.38 75.14 231.59 73.32 231.59C70.09 231.59 59.99 228.76 56.96 227.55C55.14 226.74 53.73 225.13 53.53 222.3L53.13 215.63C53.13 214.62 52.73 213.61 52.12 213.61C51.72 213.61 51.31 213.81 50.71 214.62C44.25 224.11 36.57 232.19 30.11 232.19C15.97 232.19 0.0100098 213.81 0.0100098 195.63C0.0100098 162.5 16.98 128.57 42.43 128.57C47.08 128.57 53.34 130.99 59.8 134.43C59.8 134.43 60.81 135.04 61.42 135.04C62.63 135.04 63.44 134.23 63.84 132.41C68.08 114.84 72.12 101.71 75.56 94.43C76.37 92.81 78.19 91.6 80.21 91.6L80.19 91.61ZM52.52 189.18C54.74 178.68 58.58 159.69 58.58 158.07C58.58 156.66 57.97 155.44 56.36 154.84C53.53 153.83 50.91 153.22 49.29 153.22C36.16 153.22 28.89 180.89 28.89 194.83C28.89 200.69 30.3 204.73 32.12 204.73C36.36 204.73 44.04 199.28 49.9 193.82C51.52 192.41 52.32 190.59 52.53 189.17L52.52 189.18Z" fill="#CC4334"/>
	<path d="M125.64 121.11C137.76 121.11 145.23 113.43 145.23 102.73C145.23 90.81 133.51 85.96 123.82 85.96C121.8 85.96 118.77 86.97 117.36 87.98C113.12 91.41 108.67 96.87 108.67 103.94C108.67 113.23 113.92 121.11 125.64 121.11Z" fill="#CC4334"/>
	<path d="M191.9 222.71L191.29 214.23C191.29 213.22 190.89 212.61 190.48 212.61C190.07 212.61 189.67 213.01 189.27 213.62C182.2 224.93 174.12 232.2 167.86 232.2C153.52 232.2 137.56 214.63 137.56 195.64C137.56 161.91 153.72 128.58 181.6 128.58C191.5 128.58 211.7 136.46 226.24 145.95C227.65 146.76 228.66 148.37 228.66 150.19C228.66 150.8 228.26 152.41 228.26 152.41C220.18 181.09 217.35 212.4 216.95 228.56C216.75 230.38 215.33 231.79 213.52 231.79C208.27 231.79 197.16 228.76 195.54 227.95C192.91 226.54 192.11 224.72 191.9 222.7V222.71ZM190.08 189.18C192.3 178.68 196.14 159.69 196.14 158.07C196.14 156.66 195.53 155.44 193.92 154.84C191.09 153.83 188.47 153.22 186.85 153.22C173.72 153.22 166.45 180.89 166.45 194.83C166.45 200.69 167.86 204.73 169.68 204.73C173.92 204.73 181.6 199.28 187.46 193.82C189.08 192.41 189.88 190.59 190.09 189.17L190.08 189.18Z" fill="#CC4334"/>
	<path d="M298.14 128.98C308.24 128.98 322.78 143.73 322.78 153.83C322.78 162.92 315.1 205.14 308.84 228.77C308.23 230.39 306.42 232 304.6 232C299.95 232 288.04 227.56 283.59 225.13C281.97 224.12 281.17 222.3 281.17 220.48C281.17 219.67 281.37 218.66 281.37 218.66C281.37 218.66 291.67 176.24 291.67 163.31C291.67 159.88 291.06 157.65 289.65 157.65C286.62 157.65 277.93 162.5 270.46 170.17C268.44 172.19 267.43 174.61 267.03 176.63C263.39 194.81 258.95 217.43 256.53 228.54C256.13 230.36 254.51 231.77 252.69 231.77C248.25 231.77 234.91 227.33 232.09 225.91C230.27 224.9 229.46 223.28 229.46 221.47C229.46 220.06 241.58 148.55 244 131.99C244.4 129.97 246.22 128.56 248.04 128.56C250.26 128.56 263.59 130.98 267.43 132.6C269.65 133.61 271.07 135.83 271.07 138.05C271.07 140.07 271.27 143.1 271.27 146.13C271.27 147.34 271.67 147.95 272.08 147.95C272.69 147.95 273.49 146.94 273.49 146.94C281.57 136.64 290.86 128.96 298.13 128.96L298.14 128.98Z" fill="#CC4334"/>
	<path d="M371.87 128.58C380.96 128.58 403.18 137.27 416.11 145.55C417.52 146.56 418.33 148.38 418.33 150.2C418.33 151.01 418.13 151.82 418.13 151.82C413.89 169.19 408.43 202.72 403.59 227.16C401.17 239.68 391.47 268.97 361.58 268.97C354.31 268.97 341.38 264.93 335.12 260.28C333.3 259.07 332.7 257.65 332.7 256.04C332.7 253.62 335.53 243.92 336.54 241.7C337.15 240.29 338.36 239.48 339.77 239.48C340.17 239.48 340.98 239.68 341.39 239.88C347.45 242.51 352.7 243.52 356.54 243.52C373.1 243.52 378.15 225.14 378.15 216.65C378.15 215.64 377.75 215.03 377.34 215.03C376.93 215.03 376.73 215.23 376.13 216.04C370.07 224.52 363 230.79 357.14 230.79C342.8 230.79 327.45 214.02 327.45 194.43C327.45 160.49 344.62 128.58 371.89 128.58H371.87ZM379.95 189.18C382.17 178.68 386.01 159.69 386.01 158.07C386.01 156.66 385.4 155.44 383.79 154.84C380.96 153.83 378.34 153.22 376.72 153.22C363.59 153.22 356.32 180.89 356.32 194.83C356.32 200.69 357.73 204.73 359.55 204.73C363.79 204.73 371.47 199.28 377.33 193.82C378.95 192.41 379.75 190.59 379.95 189.17V189.18Z" fill="#CC4334"/>
	<path d="M508.63 169.38C508.63 187.36 497.72 232.2 465.2 232.2C456.11 232.2 438.94 227.15 429.65 217.25C423.99 211.19 421.17 201.9 421.17 190.59C421.17 167.56 434.7 128.38 462.58 128.38C473.08 128.38 492.07 136.26 500.76 144.94C506.01 150.39 508.44 160.09 508.64 168.37V169.38H508.63ZM479.13 166.96C479.13 157.87 476.3 151.81 470.85 151.81C459.74 151.81 450.25 178.27 450.25 194.43C450.25 202.51 452.88 208.37 458.73 208.37C471.05 208.37 479.13 182.31 479.13 166.96Z" fill="#CC4334"/>
	<path d="M563.97 173.42C563.97 171.8 566.6 162.11 566.6 158.27C566.6 154.43 565.59 152.01 562.76 152.01C553.87 152.01 542.56 173.22 542.56 189.58C542.56 199.48 547 205.54 554.48 205.54C561.55 205.54 569.23 202.71 574.88 199.48C574.88 199.48 575.69 199.08 576.5 199.08C577.91 199.08 578.72 199.69 579.53 201.1C580.94 203.73 584.78 212.01 584.78 214.84C584.78 217.06 583.97 218.68 582.76 219.89C575.49 226.35 565.99 232.21 554.68 232.21C548.01 232.21 529.43 226.76 521.75 217.06C516.3 210.19 513.47 201.51 513.47 190.4C513.47 162.12 532.05 128.39 555.08 128.39C562.96 128.39 594.06 139.1 594.06 155.46C594.06 160.31 590.22 170 588.2 173.24C587.19 174.86 585.57 176.07 583.35 176.27C580.12 176.47 571.63 176.47 566.99 176.47C565.17 176.27 563.96 175.06 563.96 173.44L563.97 173.42Z" fill="#CC4334"/>
	<path d="M684.56 169.38C684.56 187.36 673.65 232.2 641.13 232.2C632.04 232.2 614.87 227.15 605.58 217.25C599.92 211.19 597.1 201.9 597.1 190.59C597.1 167.56 610.63 128.38 638.51 128.38C649.01 128.38 668 136.26 676.69 144.94C681.94 150.39 684.37 160.09 684.57 168.37V169.38H684.56ZM655.07 166.96C655.07 157.87 652.24 151.81 646.79 151.81C635.68 151.81 626.19 178.27 626.19 194.43C626.19 202.51 628.82 208.37 634.67 208.37C646.99 208.37 655.07 182.31 655.07 166.96Z" fill="#CC4334"/>
	<path d="M755.47 128.98C765.57 128.98 780.11 143.73 780.11 153.83C780.11 162.92 772.43 205.14 766.17 228.77C765.56 230.39 763.75 232 761.93 232C757.28 232 745.37 227.56 740.92 225.13C739.3 224.12 738.5 222.3 738.5 220.48C738.5 219.67 738.7 218.66 738.7 218.66C738.7 218.66 749 176.24 749 163.31C749 159.88 748.39 157.65 746.98 157.65C743.95 157.65 735.26 162.5 727.79 170.17C725.77 172.19 724.76 174.61 724.36 176.63C720.72 194.81 716.28 217.43 713.86 228.54C713.46 230.36 711.84 231.77 710.02 231.77C705.58 231.77 692.24 227.33 689.42 225.91C687.6 224.9 686.79 223.28 686.79 221.47C686.79 220.06 698.91 148.55 701.33 131.99C701.73 129.97 703.55 128.56 705.37 128.56C707.59 128.56 720.92 130.98 724.76 132.6C726.98 133.61 728.4 135.83 728.4 138.05C728.4 140.07 728.6 143.1 728.6 146.13C728.6 147.34 729 147.95 729.41 147.95C730.02 147.95 730.82 146.94 730.82 146.94C738.9 136.64 748.19 128.96 755.46 128.96L755.47 128.98Z" fill="#CC4334"/>
	<path d="M811.82 215.44C811.82 225.34 805.56 232.61 795.26 232.61C784.96 232.61 780.31 224.93 780.31 216.65C780.31 209.58 782.94 205.94 787.38 201.9C788.59 200.69 791.02 199.68 793.04 199.68C802.13 199.68 811.83 204.73 811.83 215.44H811.82Z" fill="#CC4334"/>
	<path d="M914.84 139.08C914.84 139.89 914.44 141.1 914.44 141.1C905.35 170.79 900.5 210.59 899.9 228.56C899.9 230.38 898.49 231.99 896.67 231.99C892.43 231.99 882.93 229.36 880.11 228.15C878.09 227.34 876.68 225.52 876.07 222.7C875.67 221.08 875.46 216.24 875.26 213C875.26 211.59 874.86 210.78 874.25 210.78C873.64 210.78 873.04 211.99 873.04 211.99C865.77 224.11 856.68 232.39 849.2 232.39C837.28 232.39 821.53 216.23 821.53 200.27C821.53 175.63 830.22 145.53 835.27 133.01C835.88 131.39 837.49 129.98 839.31 129.98C842.14 129.98 855.07 135.03 859.71 137.66C861.12 138.47 862.13 139.88 862.13 141.5C862.13 142.91 861.73 144.13 861.73 144.13C857.69 156.05 850.01 187.16 850.01 199.07C850.01 202.1 850.41 203.92 851.63 203.92C856.68 203.92 866.17 197.05 872.84 188.37C874.05 186.75 874.66 185.34 875.06 182.92C877.69 164.94 882.94 143.33 886.57 132.83C887.18 131.01 888.99 129.6 891.01 129.6C894.04 129.6 905.76 132.83 911.82 135.46C913.44 136.07 914.85 137.48 914.85 139.1L914.84 139.08Z" fill="#CC4334"/>
	<path d="M950.39 128.58C961.5 128.58 994.83 138.88 994.83 153.83C994.83 159.08 990.79 167.16 989.17 169.38C987.55 171.6 985.53 172.21 983.72 172.41H968.57C966.55 172.41 965.54 171 965.54 169.78C965.54 168.16 967.56 162.91 967.56 158.87C967.56 153.42 965.14 150.59 962.11 150.59C955.24 150.59 949.18 161.9 949.18 167.36C949.18 181.3 987.56 178.07 987.56 201.3C987.56 215.84 973.22 232.41 952.61 232.41C940.49 232.41 922.71 226.55 916.25 220.69C914.43 219.07 914.03 217.66 914.03 216.65C914.03 214.02 916.45 205.14 918.27 201.3C919.08 199.48 919.89 198.88 921.1 198.88C922.31 198.88 923.12 199.69 923.52 199.69C930.59 203.53 940.49 208.78 948.77 208.78C953.42 208.78 957.66 207.16 958.06 203.93C958.06 195.45 919.07 194.44 919.07 168.18C919.07 152.02 933.82 128.59 950.38 128.59L950.39 128.58Z" fill="#CC4334"/>
	<path d="M135.94 137.26C135.94 145.34 122.41 214.63 119.58 227.76C119.43 228.42 119.27 229.11 119.1 229.8C119.07 229.8 119.04 229.8 119.01 229.81C115.81 243.38 105.51 268.96 77.57 268.96C70.3 268.96 57.37 264.92 51.11 260.28C49.29 259.07 48.69 257.65 48.69 256.04C48.69 253.61 51.52 243.92 52.53 241.69C53.13 240.28 54.34 239.47 55.76 239.47C56.16 239.47 56.97 239.67 57.37 239.88C63.43 242.5 68.69 243.51 72.52 243.51C76.77 243.51 80.89 242.19 84.22 239.53C85.73 238.33 87.04 236.9 88.17 235.34C90.49 232.14 91.07 228.16 91.76 224.37C92.56 219.98 93.36 215.58 94.14 211.18C95.44 203.87 96.69 196.56 97.94 189.25C99.28 181.39 100.6 173.53 101.93 165.67C103.12 158.61 104.31 151.56 105.54 144.51C106.23 140.55 106.86 136.56 107.66 132.61C108.07 130.59 109.88 129.17 112.11 129.17C114.93 129.17 127.26 131.19 132.71 132.61C134.53 133.21 135.94 135.23 135.94 137.25V137.26Z" fill="#CC4334"/>
	</g>
	<defs>
	<clipPath id="clip0_75_289">
	<rect width="994.83" height="358.64" fill="white"/>
	</clipPath>
	</defs>
</svg>
