<svg viewBox="0 0 100 100" fill="none" xmlns="http://www.w3.org/2000/svg">
<g clip-path="url(#clip0_154_5270)">
<path fill-rule="evenodd" clip-rule="evenodd" d="M63.7823 15.0315C64.1314 11.9111 61.7573 9.13946 58.615 9.08716C56.0488 9.03486 53.1859 9 49.9913 9C46.7967 9 43.9337 9.03486 41.3675 9.08716C38.2253 9.15689 35.8511 11.9111 36.2003 15.0315L36.6018 18.6224C36.916 21.3593 39.2203 23.4162 41.9785 23.4162H57.9866C60.7448 23.4162 63.0491 21.3418 63.3633 18.6224L63.7648 15.0315H63.7823ZM69.159 15.6416C69.2288 15.0663 69.2463 14.4911 69.2114 13.9332C71.9347 14.0727 74.2041 14.2296 76.037 14.3865C81.5011 14.8571 85.6209 18.9711 86.0922 24.4273C86.5287 29.6918 86.9826 38.4252 86.9826 52.2313C86.9826 66.0374 86.5287 74.7708 86.0922 80.0353C85.6384 85.4915 81.5011 89.6054 76.037 90.0761C70.9222 90.5119 62.6301 90.9651 49.9738 90.9651C37.3175 90.9651 29.0429 90.5119 23.9106 90.0761C18.4466 89.6054 14.3267 85.4915 13.8554 80.0353C13.419 74.7708 12.9651 66.0374 12.9651 52.2313C12.9651 38.4252 13.419 29.6918 13.8554 24.4273C14.3093 18.9711 18.4466 14.8571 23.9106 14.3865C25.761 14.2296 28.013 14.0727 30.7363 13.9332C30.7188 14.4911 30.7363 15.0663 30.7886 15.6416L31.1901 19.2326C31.8011 24.7062 36.4447 28.8376 41.9436 28.8376H57.9516C63.468 28.8376 68.0941 24.7062 68.7051 19.2326L69.1066 15.6416H69.159ZM32.8486 48.6403C30.8585 48.6403 29.235 50.2615 29.235 52.2487C29.235 54.236 30.8585 55.8571 32.8486 55.8571H65.3359C67.326 55.8571 68.9495 54.236 68.9495 52.2487C68.9495 50.2615 67.326 48.6403 65.3359 48.6403H32.8486ZM29.235 68.4779C29.235 66.4906 30.8585 64.8695 32.8486 64.8695H49.0835C51.0736 64.8695 52.6971 66.4906 52.6971 68.4779C52.6971 70.4651 51.0736 72.0863 49.0835 72.0863H32.8486C30.8585 72.0863 29.235 70.4651 29.235 68.4779Z" fill="#DB433B"/>
</g>
<defs>
<clipPath id="clip0_154_5270">
<rect width="74" height="82" fill="white" transform="translate(13 9)"/>
</clipPath>
</defs>
</svg>
