<svg viewBox="0 0 100 100" fill="none" xmlns="http://www.w3.org/2000/svg">
<g clip-path="url(#clip0_154_5278)">
<path fill-rule="evenodd" clip-rule="evenodd" d="M66.55 62.34C78.48 50.67 79.41 32.3 69.33 19.59C67.73 17.58 66.72 14.89 68.05 12.69C68.96 11.16 70.09 10.19 71.16 9.56C73.31 8.27 75.92 9.34 77.54 11.24C92.34 28.5 91.47 54.25 74.87 70.47C69.23 76.01 62.16 79.97 54.41 81.93C59.55 83.57 64.62 85.58 67.02 86.57C67.94 86.94 68.49 87.83 68.43 88.82C68.36 90.06 67.24 90.98 66 90.98H19.87C18.56 90.98 17.51 89.94 17.51 88.67C17.51 87.76 18.06 86.92 18.92 86.56C21.32 85.57 26.48 83.52 31.67 81.88C25.29 80.24 19.36 77.24 14.29 73.08C12.35 71.5 11.26 68.94 12.58 66.84C13.23 65.8 14.24 64.7 15.78 63.8C18.03 62.5 20.77 63.48 22.83 65.05C35.82 74.91 54.59 74.01 66.54 62.33H66.56L66.55 62.34ZM43.8 12.71C59.06 12.71 71.43 24.81 71.43 39.73C71.43 54.65 59.06 66.75 43.8 66.75C28.54 66.75 16.18 54.66 16.18 39.74C16.18 24.82 28.54 12.71 43.8 12.71ZM51.04 19.9C49.87 18.31 45.68 18.31 43.8 18.31C31.7 18.31 21.89 27.91 21.89 39.74C21.89 42.97 22.64 46.19 24.08 49.09C24.78 50.5 25.64 51.82 26.62 53.05C27.98 54.74 28.57 55.25 30.05 53.42C31.43 51.71 32.25 49.21 32.9 47.13C34.25 42.81 30.73 38.92 31.54 34.68C32.27 30.88 36.04 31.43 38.98 31.27C39.32 31.25 39.86 31.21 40.45 31.07C41.92 30.72 45.23 29.62 48.53 26.47C49.68 25.37 51.76 22.31 51.3 20.47C51.25 20.27 51.16 20.09 51.04 19.92V19.9ZM65.44 40.52C65.62 40.75 65.77 41.04 65.86 41.38C66.4 43.41 64.64 46.68 63.81 48.48C61.34 53.87 56.63 58.05 51.03 59.97C50.37 60.2 49.64 60.06 49.06 59.64C48.7 59.36 48.32 59.08 47.94 58.8C43.82 55.59 41 49.69 44.28 44.56C44.91 43.55 45.63 42.62 46.45 41.75C48.95 39.09 52.58 38.54 55.69 38.92C57.06 39.08 58.43 39.27 59.8 39.45C61.53 39.68 64.28 39.07 65.43 40.52H65.44Z" fill="#DB433B"/>
</g>
<defs>
<clipPath id="clip0_154_5278">
<rect width="76.02" height="81.99" fill="white" transform="translate(12 9)"/>
</clipPath>
</defs>
</svg>
