<svg viewBox="0 0 100 100" fill="none" xmlns="http://www.w3.org/2000/svg">
<g clip-path="url(#clip0_154_5315)">
<path fill-rule="evenodd" clip-rule="evenodd" d="M80.3138 53.1114C82.7653 55.8209 85.1378 58.5501 87.4311 61.2989C88.044 62.0253 89.1116 62.1628 89.8629 61.5738C91.5236 60.2975 93.1843 59.0213 94.8648 57.7058C95.6358 57.0972 96.1499 56.2136 96.2883 55.2515C96.5848 52.9936 97.0198 47.712 97.0198 35.8137C97.0198 23.1496 96.5255 17.2397 96.229 14.7658C96.1499 14.0786 95.3195 13.7645 94.7857 14.1964C91.3852 16.9256 89.3093 19.2817 86.0472 22.1679C83.7934 24.1706 79.0089 29.4915 75.5887 29.138C73.9675 28.981 72.2079 28.1563 70.5867 27.8029C68.1945 27.2728 65.7825 26.8605 63.3508 26.6249C63.1135 26.6052 62.8961 26.5856 62.6588 26.5856C60.227 26.5267 57.8546 27.3906 55.9171 28.8828C55.7589 29.0006 55.6008 29.138 55.4426 29.2559L55.4822 29.2951C48.4043 34.9498 43.1059 40.1332 40.0612 43.3336C38.2028 45.2774 38.1633 48.4974 40.0612 50.4019C41.6033 51.9334 43.0663 52.8758 44.213 53.4648C45.5574 54.1324 47.0797 53.8772 48.345 53.0918C50.8756 51.5014 55.5415 48.3599 60.7608 43.9619C61.3737 43.4514 62.2634 43.4514 62.8565 44.0011C65.3871 46.318 69.3214 48.3599 74.3431 46.7696C75.9445 46.2591 77.6448 45.3952 79.4637 44.0404L80.9267 42.9605C82.0733 42.1163 83.6945 42.0377 84.8017 42.9213C86.4426 44.2564 86.324 46.6321 84.7424 47.8102L83.1805 48.9686C82.3501 49.5773 81.5198 50.127 80.6894 50.6179C79.78 51.148 79.6218 52.3653 80.3336 53.1311L80.3138 53.1114ZM6.15497 57.7255C21.1607 69.506 35.9885 79.6569 44.1339 85.0366C48.0089 87.6087 53.0504 87.6676 56.9649 85.1544C62.7577 81.4436 71.9311 75.3766 82.3699 67.68C83.141 67.1106 83.2793 66.0111 82.6862 65.2846C79.6218 61.5738 76.3795 57.9218 72.9987 54.3091C72.4649 53.7397 71.7137 53.4648 70.9426 53.4845C67.8189 53.5237 65.0708 52.6598 62.7972 51.4425C62.2634 51.1676 61.6307 51.2069 61.1563 51.5799C57.1626 54.7018 53.7424 56.9794 51.6665 58.2948C49.0765 59.9245 45.1818 60.8669 41.4056 58.9624C39.646 58.0789 37.4713 56.6456 35.2966 54.3876C30.7098 49.6165 31.9554 42.882 35.5733 39.073C37.7481 36.7954 40.9904 33.5754 45.1422 29.9234C45.4388 29.6485 45.4388 29.1773 45.1225 28.9221L45.0829 28.8828C42.8884 27.1943 40.1403 26.3893 37.3922 26.6641C32.6869 27.1354 28.5153 28.2152 26.2615 28.8828C25.1148 29.2166 23.889 28.9613 22.9994 28.176C20.1722 25.7413 13.6084 20.1063 6.23406 14.1964C5.70026 13.7645 4.8699 14.0786 4.79082 14.7658C4.49426 17.2201 4 23.13 4 35.8137C4 47.6924 4.43495 52.9936 4.73151 55.2515C4.8699 56.2333 5.38393 57.1168 6.15497 57.7255Z" fill="#DB433B"/>
</g>
<defs>
<clipPath id="clip0_154_5315">
<rect width="93" height="73" fill="white" transform="translate(4 14)"/>
</clipPath>
</defs>
</svg>
