<svg viewBox="0 0 100 100" fill="none" xmlns="http://www.w3.org/2000/svg">
<g clip-path="url(#clip0_154_5330)">
<path fill-rule="evenodd" clip-rule="evenodd" d="M14.6596 33.1795C14.6596 19.5128 26.0133 8.49538 39.8315 9C51.7328 9.46256 62.602 20.2908 63.0865 32.1703C63.4024 40.2441 59.7583 47.4769 53.9446 52.1026C53.1231 52.7544 53.2495 54.0579 54.1973 54.4785C63.255 58.5364 70.2694 65.8744 73.2395 74.9364C75.5987 82.1692 70.2483 88.4349 63.5499 89.4231C58.031 90.2431 49.7107 91 37.8936 91C26.0765 91 17.7772 90.2431 12.2373 89.4231C5.5388 88.4349 0.188468 82.1692 2.54767 74.9364C5.64412 65.4749 13.1641 57.8846 22.8115 53.9528C23.7805 53.5533 23.9701 52.2708 23.1696 51.5769C17.9457 47.1405 14.6386 40.5385 14.6386 33.1585L14.6596 33.1795ZM79.2639 72.981C81.3492 79.3518 79.6852 85.0497 76.1885 89.1708C75.7251 89.7174 76.1674 90.5374 76.8625 90.4744C80.8437 90.18 84.1087 89.8226 86.7417 89.4231C93.4401 88.4349 98.7905 82.1692 96.4313 74.9364C93.4612 65.8744 86.4468 58.5364 77.3892 54.4785C76.4413 54.0579 76.3149 52.7544 77.1364 52.1026C83.3925 47.1405 87.1209 39.1508 86.1308 30.362C84.8038 18.7559 74.9246 9.56769 63.2129 9.02102C62.0543 8.95795 60.8958 9 59.7794 9.10513C59.0632 9.1682 58.7683 10.0303 59.316 10.5138C65.5299 16.0856 69.4268 24.1805 69.4268 33.1795C69.4268 39.7815 67.3204 45.879 63.7605 50.8831C63.2971 51.5349 63.4446 52.4179 64.0976 52.8805C71.133 57.8215 76.5676 64.76 79.2639 73.0021V72.981Z" fill="#DB433B"/>
</g>
<defs>
<clipPath id="clip0_154_5330">
<rect width="95" height="82" fill="white" transform="translate(2 9)"/>
</clipPath>
</defs>
</svg>
