<svg viewBox="0 0 100 100" fill="none" xmlns="http://www.w3.org/2000/svg">
<g clip-path="url(#clip0_154_5358)">
<path d="M71.1874 34.0716C59.603 36.9589 58.6217 -1.37031 49.4548 11.7189C44.5003 19.0334 45.6013 35.5153 35.9317 37.9454C21.4752 41.338 -12.2966 43.2629 24.85 55.4137C35.453 58.8063 33.0595 63.1854 31.5756 67.0593C25.8313 83.5411 25.8313 87.9202 26.6211 89.8451C31.9107 97.6168 49.7898 62.6802 59.4355 68.5029C81.1203 80.6537 82.6042 82.5786 85.979 80.6538C89.3538 78.7048 83.059 69.4654 78.2481 60.7553C71.6182 47.6661 112.666 24.375 71.1635 34.0716H71.1874Z" fill="#DB433B"/>
</g>
<defs>
<clipPath id="clip0_154_5358">
<rect width="82" height="82" fill="white" transform="translate(8 9)"/>
</clipPath>
</defs>
</svg>
