<svg width="257" height="213" viewBox="0 0 257 213" fill="none" xmlns="http://www.w3.org/2000/svg">
<g clip-path="url(#clip0_296_4094)">
<mask id="mask0_296_4094" style="mask-type:luminance" maskUnits="userSpaceOnUse" x="0" y="0" width="257" height="213">
<path d="M257 0H0V213H257V0Z" fill="white"/>
</mask>
<g mask="url(#mask0_296_4094)">
<path d="M73.28 100.93C70.24 101.72 71.89 104.13 73.28 108.91C73.71 110.46 75.32 111.35 76.87 110.92C78.42 110.49 79.32 108.88 78.88 107.33C77.58 103.09 77.35 99.89 73.29 100.93H73.28Z" fill="black"/>
<path d="M111.18 171.16C110.09 168.22 106.24 170.4 107.17 173.83C108.33 178 111.16 183.87 113.41 190.06C115.35 195.19 116.91 200.46 118.05 205.83C118.05 207.22 114.24 208.03 111.25 208.5C108.72 208.89 106.89 208.04 106.31 206.39C101.82 195.65 98.14 184.59 95.29 173.3C94.5 170.19 88.12 168.66 89.4 173.81C90.68 178.96 93.46 184.31 97.89 198.36C101.11 208.68 102.79 213.27 107.17 212.97C113.25 212.58 126.15 215.29 122.86 204.41C119.59 193.12 115.69 182.02 111.19 171.16H111.18Z" fill="black"/>
<path d="M92.41 109.69C95.8 109.02 93.85 105.63 93.73 102.73C93.61 98.95 87.79 99.04 88.07 102.73C88.35 106.42 88.51 110.45 92.41 109.69Z" fill="black"/>
<path d="M197.03 1.71C173.01 -8.47 160.36 29.98 186.17 34.17C184.59 42.82 193.41 43.26 192 34.42C207.78 32.98 213.7 9.96 197.04 1.7L197.03 1.71ZM200.84 19.42C199.03 35.65 170.67 28.69 178.72 12.46C184.87 1.01 203.62 6.04 200.84 19.51V19.42Z" fill="black"/>
<path d="M256.51 203.14C254.93 197 251.31 184.03 246.34 170.38C244.37 164.95 240.7 167.39 240.84 168.87C241.35 173.81 245.13 180.46 247.27 189.07C249.41 197.67 252.17 205.3 251.91 206C251.14 208.06 242.63 209.94 240.14 207.65C237.66 205.35 235.13 194.41 231.34 180.57C229.69 174.56 228 168.58 224.91 168.56C222.59 168.56 222.59 169.81 222.96 171.16C224.77 178.23 233.54 202.35 234.56 208.12C235.4 212.62 240.52 212.99 246.37 212.99C252.22 212.99 258.83 212.34 256.49 203.16L256.51 203.14Z" fill="black"/>
<path d="M226.06 110.43C231.1 110.43 227.22 105.47 225.88 100.53C224.88 96.89 219.36 98.84 220.38 102.48C221.89 107.86 223.03 110.43 226.07 110.43H226.06Z" fill="black"/>
<path d="M49.17 88.11C46.15 97.13 35.57 141.81 24.69 174.71C21.21 185.24 19.49 195.93 17.33 203.86C16.68 206.18 13.55 206.53 10.18 206.53C7.86 206.53 5.96 206.53 5.21 204.4C4.75 203.01 6.86 191.07 12.75 169.62C16.02 157.7 21.57 143.81 25.82 129.71C27.82 123.1 40.3 80.32 44.25 68.15C44.83 66.64 44.25 64.53 42.63 64.35C41.01 64.17 39.45 64.35 35.88 75.94C33.28 84.38 30.72 92.84 28.51 101.39C27.43 105.55 26.47 109.64 25.04 113.69C23.62 117.74 22.28 122.02 21.11 126.24C20.7 127.71 20.31 129.18 19.93 130.65C19.93 130.46 19.93 130.27 19.92 130.09C19.86 131.03 19.33 131.83 19.04 132.71C18.66 133.88 18.29 135.05 17.92 136.22C16.73 139.99 15.78 143.79 14.6 147.57C14.98 146.66 15.23 145.69 15.36 144.71C13.96 148.92 12.7 153.18 11.44 157.43C10.26 161.38 9.11 165.33 8.01 169.3C6.18 175.84 4.44 182.4 2.89 189C1.78 193.68 0.549997 198.48 0.109997 203.29C-0.490003 209.78 2.01 210.25 8.95 210.36C13.27 210.36 21.46 211.59 22.23 207.07C24.96 193.03 28.46 179.17 32.72 165.52C38.55 146.53 50.31 102.17 53.03 90.74C54.05 86.5 50.31 84.83 49.2 88.12L49.17 88.11Z" fill="black"/>
<path d="M51.29 26.79C53.57 30.83 58.45 33.57 62.84 34.45C61.28 42.8 70.38 43.28 68.69 34.68C68.78 35.17 74.04 33.13 74.51 32.89C76.29 31.95 77.89 30.68 79.21 29.17C81.92 26.07 83.33 22.07 83.26 17.97C83.26 17.6 83.24 17.22 83.22 16.84C82.95 12.02 81.46 6.97 77.58 3.89C77.06 3.54 76.47 3.21 75.79 2.85C75.17 2.52 74.57 2.15 73.97 1.78C71.42 0.170002 67.19 0.200002 64.32 0.560002C61.02 0.970002 57.78 2.16 55.05 4.08C52.33 6 50.19 8.6 49.09 11.72C47.71 15.61 48.15 19.48 49.71 23.21L50.75 25.68C50.91 26.07 51.1 26.44 51.31 26.81H51.29V26.79ZM71.33 27.89C59.73 34.38 46.85 14.65 59.42 8.02C73.04 -1.32 85.97 21.21 71.33 27.89Z" fill="black"/>
<path d="M206.61 99.56C204.82 100.09 205.06 102.41 206.61 107.68C207.65 110.9 213.43 109.44 212.23 106.27C210.35 101.01 211 98.25 206.61 99.57V99.56Z" fill="black"/>
<path d="M45.8 47.43C42.18 51.37 46.17 58 50.3 69.36C53.87 79.17 57.05 93.92 61.53 96.81C66.01 99.71 90.05 96.81 139.65 97.14C180.45 97.44 225.38 98.44 229.16 95.08C232.94 91.72 228.35 84.25 224.84 73.68C221.33 63.11 218.81 49.5 213.61 46.74C208.41 43.98 165.43 45.67 126.67 45.53C85.89 45.39 49.34 43.65 45.79 47.43H45.8Z" fill="#E7BB43"/>
<path d="M68.64 115.63C65.72 118.85 69.45 126.04 73.61 137.4C77.18 147.21 78.85 160.36 83.33 163.25C87.81 166.15 114.78 164.08 164.37 164.43C205.17 164.73 243.67 164.43 248.69 163.71C258.79 162.16 253.82 153.62 250.29 143.05C246.76 132.48 243.33 116.55 238.24 113.79C233.16 111.03 187.18 111.63 148.38 111.47C107.53 111.35 72.05 111.82 68.64 115.62V115.63Z" fill="#E7BB43"/>
<path d="M222.19 78C218.76 68.73 217.92 55.28 213.26 52.49C209.36 50.17 205.93 59.45 202.42 69.86C200.1 76.51 193.14 88.06 194.9 92.14C196.11 95.15 212.51 93.21 216.28 92.67C220.04 92.14 223.82 82.28 222.2 77.99L222.19 78Z" fill="black"/>
<path d="M163.24 50.4C160.52 52.51 158.37 60.16 157.58 62.9C154.91 72.17 145.23 89.22 147.76 91.7C151.8 95.64 164.42 93.67 168.44 93.76C172.46 93.85 174.47 84.49 176.7 78.83C179.93 70.71 187.82 52.95 185.56 50.87C183.31 48.78 165.95 48.34 163.23 50.41L163.24 50.4Z" fill="black"/>
<path d="M128.66 49.13C125.62 49.13 121.7 48.41 118.91 50.08C116.12 51.75 112.88 60.05 112.11 62.76C109.42 72.04 98 88.85 99.79 92.67C101.58 96.49 115.22 95.41 121.33 94.99C126.37 94.55 129.15 84.86 131.49 79.36C135.64 69.57 141.96 54.78 140.77 50.12C140.17 47.45 134.27 48.89 128.66 49.12V49.13Z" fill="black"/>
<path d="M94.4 50.4C93.59 47.25 81.61 48.34 76.88 49.36C71.56 50.52 69.04 57.29 66.83 62.86C64.63 68.43 58.08 79.83 58.82 84.91C59.66 88.71 61.63 92.18 64.46 94.86C65.85 95.79 69.96 96.23 75.23 96C78.9 95.84 83.12 83.92 83.96 81.02C86.51 72.05 95.15 53.33 94.4 50.41V50.4Z" fill="black"/>
<path d="M235 116.72C228.57 114.66 224.39 133.72 219.64 142.23C216.6 147.63 214.37 156.47 215.79 159.02C217.83 162.68 233.43 161.01 237.58 160.6C241.73 160.18 246.65 151.07 244.84 142.91C243.08 135.05 239.32 118.1 235 116.73V116.72Z" fill="black"/>
<path d="M143.42 115.19C139.89 116.53 136.13 127.83 135.23 131.03C132.91 139.47 122.53 157 126.97 160.2C129.82 162.24 142.47 161.71 147.53 160.8C152.59 159.9 152.54 152.08 154.49 147.61C159.55 135.62 167.88 118.39 163.89 116.56C159.9 114.73 149.97 112.69 143.42 115.19Z" fill="black"/>
<path d="M110.46 147.51C113.18 137.96 119.74 120.89 120.56 117.11C121.37 113.33 101.2 113.66 97.98 114.93C94.75 116.2 93.78 123.74 91.23 130.19C89.26 135.22 83.01 148.21 83.01 152.87C83.37 155.54 84.65 157.99 86.63 159.83C87.98 161.2 98.51 161.87 102.87 161.13C107.23 160.39 109.76 149.91 110.46 147.52V147.51Z" fill="black"/>
<path d="M199.28 147.79C202.71 139.02 212.69 119.32 208.93 116.79C205.17 114.26 192.68 114.87 188.67 116.49C184.65 118.11 180.52 127.32 179.62 130.4C177.3 138.79 166.81 153.91 169.59 158.69C171.19 161.43 185.84 161.31 191.57 160.75C197.3 160.19 197.49 152.43 199.28 147.79Z" fill="black"/>
<path d="M190.9 7.92001C182.85 7.92001 182.41 21.49 190.5 24.87C203.78 30.44 198.97 7.92001 190.9 7.92001Z" fill="#F39745"/>
<path d="M67.81 10.29C58.34 10.87 56.67 22.83 67.41 24.53C78.16 26.22 77.27 9.71 67.81 10.29Z" fill="#F39745"/>
</g>
<path d="M29.05 170.04C29.32 169.78 29.64 169.66 29.98 169.63C30.03 169.3 30.08 168.97 30.13 168.64C30.12 167.78 30.22 166.92 30.37 166.06C30.24 166.03 30.1 166.01 29.94 165.99C29.84 165.98 29.73 165.99 29.62 165.99C28.41 165.89 28.43 165.88 28.13 164.81C28.02 164.41 27.88 164.01 27.69 163.64C27.38 163.04 26.11 163.02 25.78 163.62C25.53 164.08 25.36 164.58 25.22 165.08C25.09 165.55 24.79 165.81 24.36 165.89C23.74 166 23.09 166 22.48 166.14C22.22 166.2 21.9 166.48 21.81 166.74C21.48 167.67 22.1 168.8 22.98 168.94C23.4 169 23.83 168.99 24.24 169.04C24.62 169.09 25.02 169.5 25.07 169.89C25.17 170.62 25.24 171.36 25.35 172.09C25.4 172.44 26.03 172.75 26.38 172.6C26.67 172.48 27 172.39 27.21 172.18C27.66 171.75 28.06 171.25 28.47 170.78C28.68 170.54 28.84 170.26 29.06 170.04H29.05ZM27.76 168.7C27.61 168.93 27.3 169.18 27.05 169.2C26.26 169.25 25.66 168.86 25.32 168.13C25.11 167.67 25.3 167 25.75 166.77C26.02 166.63 26.32 166.52 26.62 166.47C27.32 166.36 27.81 166.77 27.91 167.49C27.93 167.59 27.94 167.7 27.96 167.88C27.91 168.11 27.92 168.45 27.76 168.7Z" fill="black"/>
<path d="M29.07 176.5C29.07 176.5 29.07 176.49 29.07 176.48C29.2 175.26 29.35 174.03 29.51 172.82C29.42 172.85 29.33 172.87 29.25 172.9C28.84 173.07 28.57 173.4 28.48 173.84C28.31 174.76 28.29 175.68 28.45 176.6C28.66 176.57 28.86 176.53 29.07 176.5Z" fill="black"/>
<path d="M116.36 199.97C116.76 199.99 117.14 200.19 117.43 200.5C117.8 198.31 118.27 195.88 118.69 194.73C118.63 194.68 118.56 194.63 118.5 194.58C118.34 194.88 118.02 195.15 117.69 195.2C117.11 195.3 116.53 195.38 116.12 195.44C115.71 195.42 115.47 195.41 115.24 195.4C114.97 195.39 114.62 194.92 114.7 194.63C114.79 194.29 114.86 193.93 115.03 193.63C115.38 193 116.2 192.65 116.98 192.67C116.78 192.39 116.57 192.11 116.3 191.89C115.73 191.43 115.01 191.45 114.44 191.12C114.11 191.64 113.61 191.94 112.98 191.94C112.31 191.94 111.82 191.63 111.58 191.02C111.36 190.47 111.2 189.89 111.06 189.31C110.96 188.89 111.37 188.34 111.82 188.24C112.17 188.16 112.52 188.12 112.76 188.08C112.98 188.1 113.15 188.12 113.31 188.14C113.3 187.98 113.29 187.81 113.28 187.66C113.17 186.42 113.13 185.18 113.08 183.94C112.26 184.12 111.43 183.7 111.17 182.89C111.13 182.78 111.14 182.66 111.12 182.55C111.18 182.33 111.22 182.09 111.32 181.9C111.55 181.47 111.91 181.19 112.38 181.05C112.56 181 112.72 180.99 112.88 180.97C112.83 180.42 112.78 179.86 112.69 179.31C112.47 177.87 112.15 176.67 111.37 175.75C110.59 175.51 109.91 175.13 109.5 174.48C109.44 174.38 109.46 174.11 109.52 173.75C108.16 173.54 106.8 173.34 105.45 173.13C104.22 172.94 102.99 172.75 101.76 172.56C101.43 172.68 101.09 172.69 100.75 172.5C100.7 172.47 100.66 172.42 100.61 172.38C99.65 172.23 98.69 172.09 97.73 171.94C97.09 171.84 96.45 171.71 95.81 171.59C95.85 171.67 95.9 171.76 95.94 171.84C96.29 172.51 96.78 172.96 97.56 173.1C97.9 173.16 98.23 173.33 98.52 173.53C98.94 173.82 99.07 174.28 99.09 174.78C99.09 175.5 98.61 176.07 97.82 176.3C97.29 176.46 96.58 176.21 96.24 175.74C96.1 175.55 95.93 175.35 95.87 175.13C95.65 174.39 95.24 173.88 94.5 173.62C94.17 173.5 93.9 173.23 93.61 173.02C92.94 172.52 92.75 171.76 93.04 171.07C92.31 170.95 91.59 170.86 90.86 170.8C90.71 171.54 90.55 172.34 90.48 172.34C90.14 172.34 89.81 172.36 89.47 172.37C89.59 172.63 89.72 172.87 89.84 173.12C89.9 173.1 89.96 173.08 90.03 173.07C90.49 173 90.99 173.01 91.45 173.1C91.93 173.19 92.31 173.48 92.45 174.01C92.76 175.19 92.41 176.04 91.49 176.45C91.64 176.75 91.8 177.04 91.94 177.34C93.08 179.76 93.99 182.29 94.63 184.89C94.76 184.82 94.89 184.74 95.02 184.67C95.99 184.2 96.5 183.51 96.37 182.4C96.33 182.05 96.33 181.67 96.41 181.33C96.49 180.98 96.72 180.7 97.13 180.64C98.3 180.47 99 180.88 99.38 181.92C99.56 182.43 99.42 182.86 99.1 183.24C98.95 183.42 98.78 183.63 98.57 183.72C97.03 184.36 95.98 185.52 95.05 186.81C95.21 187.62 95.33 188.44 95.44 189.26C95.72 189.52 96.02 189.76 96.29 190.02C96.16 189.62 96.16 189.19 96.36 188.92C96.75 188.38 97.34 188.3 97.95 188.32C98.79 188.35 99.28 188.93 99.16 189.73C99.09 190.38 98.74 190.82 98.15 191.08C97.91 191.18 97.63 191.18 97.36 191.1C99.89 193.77 101.86 196.78 102.56 200.08C102.73 200.24 102.79 200.49 102.81 200.73C102.83 200.96 102.81 201.17 102.76 201.36C102.87 202.32 102.87 203.31 102.73 204.32C102.57 205.52 102.39 206.72 102.2 207.91C102.8 208.71 103.48 209.46 104.19 210.14C104.61 210.55 105.05 210.94 105.51 211.32C107.52 211.69 109.56 211.83 111.62 211.89C111.7 211.8 111.79 211.72 111.88 211.66C112.5 211.3 113.49 211.43 114.03 211.92C114.29 211.92 114.56 211.92 114.82 211.92C114.98 211.11 115.19 210.29 115.41 209.47C115.26 209.06 115.14 208.64 115.01 208.22C114.85 207.7 114.47 207.45 113.98 207.35C113.51 207.26 113.03 207.22 112.57 207.1C112.04 206.96 111.63 206.33 111.6 205.72C111.57 205.11 111.98 204.58 112.61 204.42C113.73 204.13 114.31 204.35 114.85 205.53C115.16 206.2 115.6 206.53 116.23 206.63C116.43 205.95 116.61 205.29 116.74 204.68C116.78 204.47 116.87 203.94 116.98 203.24C116.91 203.28 116.85 203.33 116.77 203.35C116.66 203.39 116.53 203.37 116.41 203.37C116.2 203.27 115.95 203.21 115.78 203.06C115.08 202.42 114.98 201.62 115.23 200.74C115.35 200.32 115.89 199.97 116.35 200L116.36 199.97ZM94.98 180.23C94.74 180.5 93.97 180.42 93.65 180.19C93.25 179.9 92.98 179.51 92.94 179.03C92.89 178.31 93.06 177.64 93.55 177.07C93.72 176.87 94.31 176.86 94.51 177.07C95.11 177.7 95.37 178.46 95.42 179.43C95.31 179.64 95.2 179.98 94.98 180.23ZM106.55 182.28C106.44 182.54 106.37 182.93 106.14 183.17C105.92 183.4 105.51 183.61 105.22 183.57C104.92 183.53 104.56 183.24 104.41 182.96C104.03 182.25 104.2 181.49 104.74 180.99C105.35 180.43 106.26 180.69 106.43 181.48C106.48 181.71 106.5 181.95 106.54 182.28H106.55ZM104.33 173.86C104.4 173.54 104.58 173.22 105.01 173.18C105.46 173.14 106.01 173.39 106.15 173.77C106.23 173.98 106.25 174.22 106.31 174.46C106.29 175.07 106.02 175.54 105.48 175.87C104.96 176.19 104.23 175.86 104.21 175.24C104.2 174.78 104.21 174.31 104.32 173.87L104.33 173.86ZM101.64 195.57C101.37 195.65 100.92 195.51 100.7 195.31C100.23 194.86 100.23 194.27 100.51 193.69C100.61 193.48 100.72 193.22 100.9 193.12C101.18 192.95 101.57 192.76 101.84 192.83C102.12 192.9 102.35 193.26 102.52 193.55C102.63 193.73 102.58 194.01 102.6 194.24C102.49 194.84 102.26 195.41 101.64 195.58V195.57ZM102.73 185.77C102.53 186.92 101.64 187.6 100.34 187.55C100.2 187.37 99.86 187.15 99.82 186.87C99.68 185.89 100.26 184.86 101.09 184.59C101.53 184.45 102.01 184.51 102.42 184.82C102.77 185.08 102.78 185.44 102.73 185.77ZM101.4 179.75C100.57 179.7 99.87 178.8 100.08 178C100.14 177.79 100.28 177.57 100.46 177.43C101.22 176.85 101.98 176.82 102.72 177.41C102.95 177.6 103.15 178.02 103.12 178.3C103.01 179.21 102.26 179.78 101.41 179.73L101.4 179.75ZM103.63 190.8C103.63 190.46 103.6 190.09 103.73 189.79C103.9 189.39 104.55 189.17 104.94 189.38C105.22 189.53 105.44 189.8 105.65 189.99C105.57 190.31 105.58 190.58 105.45 190.73C105.07 191.19 104.39 191.29 103.87 191.03C103.77 190.98 103.62 190.88 103.62 190.8H103.63ZM105.42 206.42C105.23 205.97 104.96 205.65 105.02 205.42C105.11 205.07 105.53 205 105.86 205.15C106.01 205.22 106.21 205.55 106.16 205.64C106.01 205.9 105.76 206.09 105.42 206.43V206.42ZM104.71 199.01C104.44 198.87 104.2 198.46 104.15 198.15C104.1 197.82 104.25 197.43 104.41 197.11C104.83 196.23 105.57 195.75 106.04 196.03C106.75 196.45 106.94 197.12 106.9 197.85C106.81 198.89 105.67 199.52 104.72 199.02L104.71 199.01ZM108.93 210.2C108.43 210.34 107.86 210.09 107.86 209.65C107.86 209.34 107.99 208.92 108.21 208.73C108.6 208.4 109.57 208.75 109.7 209.18C109.81 209.53 109.41 210.07 108.93 210.2ZM109.35 203.13C109.25 203.18 109.14 203.23 109.03 203.28C108.92 203.24 108.81 203.2 108.71 203.14C107.89 202.65 107.7 201.76 108.29 201.11C108.57 200.8 109.27 200.6 109.55 200.85C109.79 201.06 110.05 201.39 110.08 201.69C110.15 202.29 109.94 202.83 109.34 203.14L109.35 203.13ZM110.56 193.71C110.2 194.59 109.04 195.12 108.22 194.75C108.04 194.67 107.89 194.4 107.83 194.19C107.6 193.24 108.18 192.54 109.27 192.58C109.46 192.64 109.79 192.74 110.13 192.84C110.39 192.92 110.65 193.48 110.55 193.7L110.56 193.71ZM109.06 185.15C109.28 185 109.83 185.13 109.93 185.4C110.04 185.7 110.09 186.03 110.16 186.29C109.97 186.54 109.84 186.86 109.71 186.86C109.41 186.86 109.02 186.8 108.82 186.61C108.41 186.21 108.58 185.48 109.07 185.15H109.06ZM110.03 180.17C109.86 180.3 109.6 180.31 109.38 180.37C108.52 180.33 107.89 179.32 108.26 178.58C108.67 177.76 109.31 177.3 110.23 177.31C110.42 177.31 110.72 177.48 110.77 177.63C111.09 178.62 110.89 179.51 110.04 180.16L110.03 180.17ZM113.22 198.5C112.78 198.69 112.22 198.37 112.16 197.9C112.09 197.26 112.39 196.71 112.95 196.48C113.38 196.31 113.97 196.63 114.01 197.07C114.07 197.69 113.75 198.27 113.22 198.5Z" fill="black"/>
<path d="M97.86 142.71C98.11 142.81 98.37 143.11 98.45 143.37C98.58 143.76 98.56 144.2 98.61 144.62C98.68 145.21 99.04 145.59 99.59 145.73C100.3 145.91 101.03 145.99 101.75 146.12C101.99 146.16 102.19 146.61 102.14 146.9C101.98 147.89 101.54 148.7 100.6 149.14C100.41 149.23 100.2 149.27 100 149.35C99.22 149.68 98.93 150.32 98.93 151.12C98.93 151.33 98.93 151.54 98.96 151.75C99.03 152.31 99.25 152.74 99.88 152.84C100.19 152.89 100.5 152.97 100.79 153.09C101.44 153.36 101.71 153.93 101.86 154.56C101.98 155.04 101.62 155.74 101.17 155.85C100.47 156.02 99.76 156.15 99.06 156.3C98.71 157.33 99 158.35 99.08 159.38C99.47 159.38 99.86 159.38 100.25 159.41C100.94 159.47 101.43 159.84 101.68 160.49C101.76 160.69 101.85 160.88 101.9 161.09C102.13 161.99 102.67 162.53 103.61 162.75C104.11 162.87 104.56 163.18 105.08 163.43C105.2 163.85 105.31 164.25 105.43 164.65C105.48 164.84 105.56 165.01 105.64 165.17C107.1 165.28 108.57 165.38 110.04 165.44C110.04 165.43 110.01 165.42 110.01 165.4C109.77 164.9 109.75 164.4 109.95 163.88C110.13 163.43 110.77 163.16 111.27 163.34C111.6 163.46 111.9 163.95 111.86 164.35C111.85 164.83 111.64 165.2 111.29 165.48C111.97 165.49 112.64 165.5 113.32 165.48C114.09 165.46 114.85 165.39 115.61 165.3C115.56 165.19 115.51 165.09 115.48 164.98C115.39 164.69 115.39 164.35 115.4 164.04C115.41 163.24 115.68 162.88 116.42 162.66C116.82 162.54 117.26 162.49 117.63 162.32C118.24 162.03 118.57 161.5 118.66 160.82C118.75 160.13 118.32 159.49 117.7 159.42C117.28 159.38 116.86 159.41 116.43 159.38C115.86 159.35 115.52 159.17 115.49 158.74C115.4 157.15 114.57 156.22 113.07 155.8C112.88 155.75 112.71 155.58 112.54 155.46C111.88 154.97 111.86 153.78 112.5 153.21C113.19 152.61 114 152.42 114.86 152.71C115.12 152.8 115.41 153.06 115.52 153.31C115.72 153.79 115.76 154.33 115.92 154.83C116.12 155.47 116.75 155.76 117.45 155.59C118 155.46 118.42 155.15 118.6 154.61C118.74 154.21 118.77 153.78 118.9 153.38C119.09 152.77 119.83 152.5 120.46 152.81C120.65 152.9 120.84 153.01 121 153.15C121.77 153.83 121.63 155.15 120.76 155.55C120.57 155.64 120.35 155.65 120.15 155.73C119.24 156.1 118.86 156.67 118.88 157.68C118.9 158.43 119.41 158.8 120.03 159.02C120.42 159.16 120.84 159.22 121.25 159.3C121.53 159.36 121.87 159.09 121.93 158.79C121.97 158.58 122.02 158.37 122.02 158.16C122 156.94 122.47 156.13 123.76 155.92C124.07 155.87 124.37 155.73 124.64 155.58C124.81 155.49 124.99 155.32 125.06 155.15C125.37 154.45 125.43 153.72 125.2 152.99C125.14 152.81 124.95 152.59 124.78 152.56C124.37 152.48 123.94 152.52 123.52 152.48C122.69 152.39 122.1 151.95 122.04 151.1C121.96 149.96 121.47 149.33 120.31 149.27C120.2 149.27 120.1 149.25 119.99 149.24C119.3 149.16 118.81 148.82 118.61 148.13C118.52 147.83 118.44 147.52 118.35 147.21C118.15 146.56 117.76 146.1 117.05 145.98C116.16 145.83 115.52 145.34 115.08 144.53C114.88 144.16 114.61 143.83 114.35 143.5C113.77 142.77 112.99 142.56 112.09 142.64C111.7 142.67 111.33 143.14 111.44 143.56C111.6 144.16 111.69 144.81 112.35 145.25C112.78 145.32 113.31 145.37 113.82 145.49C114.36 145.61 114.76 145.95 114.99 146.46C115.08 146.65 115.14 146.85 115.2 147.06C115.26 147.26 115.31 147.47 115.33 147.68C115.38 148.57 115.94 148.98 116.73 149.16C118.12 149.46 118.55 150.47 118.64 151.73C118.65 151.9 118.55 152.16 118.41 152.26C117.59 152.85 116.01 152.47 115.66 151.58C115.39 150.9 115.24 150.17 115.02 149.43C114.71 149.35 114.41 149.2 114.12 149.2C112.87 149.22 112.14 148.61 111.86 147.41C111.84 147.31 111.81 147.2 111.76 147.11C111.26 146.21 109.82 145.96 108.99 146.65C108.84 146.78 108.69 146.97 108.66 147.16C108.54 147.79 108.54 148.44 108.85 149.02C108.98 149.27 109.29 149.52 109.57 149.59C110.07 149.7 110.62 149.65 111.13 149.72C111.31 149.75 111.51 149.91 111.64 150.06C112.2 150.71 111.66 152.17 110.88 152.44C110.08 152.72 109.27 152.14 108.5 152.53C108.54 152.83 108.6 153.13 108.62 153.43C108.7 154.68 109.17 155.65 110.37 156.22C110.74 156.39 111.08 156.69 111.35 157C111.71 157.41 111.81 157.93 111.68 158.48C111.56 159.01 110.93 159.4 110.48 159.14C109.94 158.83 109.43 158.45 108.91 158.1C108.49 157 107.61 156.5 106.54 156.2C105.85 156.01 105.55 155.46 105.42 154.8C105.32 154.29 105.21 153.78 105.13 153.34C104.74 153.14 104.47 152.98 104.19 152.84C103.82 152.65 103.41 152.51 103.07 152.27C102.29 151.73 102.28 150.4 102.99 149.77C103.41 149.4 103.93 149.33 104.42 149.14C104.94 148.94 105.23 148.49 105.3 147.92C105.38 147.23 105.12 146.66 104.55 146.29C104.21 146.07 103.76 146.02 103.38 145.84C102.57 145.47 102.15 144.7 102.29 143.76C102.33 143.48 102.53 143.14 102.76 142.98C103.1 142.75 103.53 142.66 103.93 142.51C104.48 142.3 104.76 141.89 104.81 141.32C104.84 141.01 104.87 140.69 104.85 140.37C104.82 139.8 104.58 139.32 103.96 139.25C103.09 139.16 102.66 138.64 102.41 137.88C102.35 137.68 102.33 137.46 102.27 137.26C102.03 136.44 101.453 135.98 100.54 135.88C100.23 135.85 99.9 135.88 99.59 135.81C99.16 135.72 98.82 135.49 98.71 135.02C98.69 134.92 98.64 134.82 98.63 134.71C98.55 133.5 97.93 132.77 96.72 132.54C96.24 132.45 95.77 132.3 95.3 132.18C95.31 132.87 95.3 133.56 95.35 134.25C95.4 135.08 95.84 135.6 96.65 135.83C97.05 135.94 97.47 136.07 97.79 136.31C98.21 136.64 98.44 137.12 98.36 137.7C98.3 138.19 97.95 138.44 97.56 138.59C97.07 138.77 96.54 138.85 96.04 139C95.63 139.12 95.38 139.46 95.36 139.94C95.34 140.36 95.32 140.79 95.38 141.2C95.43 141.63 95.64 142.02 96.09 142.15C96.69 142.33 97.33 142.42 97.91 142.65L97.86 142.71ZM113.27 159.82C113.7 159.73 114.11 159.79 114.45 160.05C114.6 160.17 114.76 160.35 114.8 160.53C114.93 161.2 114.17 161.97 113.46 161.93C112.95 161.9 112.52 161.49 112.42 160.94C112.33 160.43 112.71 159.93 113.27 159.82ZM106.18 159.75C106.49 159.46 106.91 159.38 107.34 159.46C107.89 159.55 108.32 159.84 108.47 160.38C108.58 160.77 108.58 161.19 108.6 161.38C108.52 162.3 108.11 162.65 107.31 162.64C106.79 162.64 106.26 162.63 105.99 162.07C105.56 161.17 105.61 160.3 106.18 159.76V159.75ZM102.36 157.39C102.46 156.59 102.84 156.14 103.46 156.09C104.31 156.02 105 156.4 105.2 157.1C105.31 157.49 105.35 157.92 105.35 158.33C105.35 158.51 105.21 158.73 105.07 158.86C104.5 159.36 103.31 159.5 102.72 159.13C102.56 159.03 102.45 158.81 102.39 158.63C102.32 158.44 102.34 158.22 102.31 158.01C102.33 157.8 102.34 157.59 102.36 157.38V157.39ZM99.4 140.08C99.56 139.85 99.9 139.73 100.11 139.59C100.38 139.65 100.61 139.66 100.78 139.76C101.57 140.22 101.89 140.99 101.71 141.92C101.64 142.26 101.41 142.48 101.08 142.54C100.4 142.66 99.82 142.45 99.43 141.87C99.05 141.3 99 140.66 99.4 140.09V140.08Z" fill="black"/>
<path d="M101.88 164.95C101.97 164.59 101.94 164.2 101.77 163.79C101.47 163.09 100.57 162.75 99.93 163.08C99.24 163.43 98.74 163.92 98.51 164.69C98.49 164.77 98.45 164.84 98.42 164.92C99.57 164.88 100.73 164.9 101.88 164.95Z" fill="black"/>
<path d="M80.5 152.63C81.41 152.35 81.51 151.63 81.57 150.88C81.64 150.04 81.3 149.53 80.38 149.33C79.47 149.13 78.81 148.75 78.62 147.78C78.58 147.57 78.54 147.36 78.46 147.17C78.22 146.54 77.84 146.08 77.1 146.02C76.88 146 76.66 145.95 76.45 145.88C76.87 147.03 77.12 148.22 77.14 149.53C77.51 149.7 77.78 150.02 77.92 150.43C78.09 150.95 77.96 151.46 77.59 151.85C77.77 152.16 77.96 152.47 78.17 152.76C78.46 153.16 78.73 153.51 78.94 153.88C79.06 153.66 79.21 153.46 79.42 153.28C79.74 153.01 80.11 152.75 80.5 152.63Z" fill="black"/>
<path d="M72.78 136.37C72.78 136.49 72.79 136.62 72.8 136.74C73.25 137.34 73.71 137.91 74.02 138.44C74.08 138.55 73.91 139.02 73.89 139.16C74.01 139.16 74.12 139.18 74.24 139.16C74.86 139.09 75.11 138.65 75.24 138.1C75.34 137.69 75.43 137.27 75.57 136.87C75.78 136.26 76.32 135.93 77.06 135.92C77.58 135.91 77.96 136.25 78.14 136.89C78.52 138.26 78.26 138.85 77.02 139.41C76.73 139.54 76.43 139.64 76.14 139.77C75.73 139.97 75.43 140.33 75.44 140.76C75.45 141.55 75.25 142.15 74.83 142.59C74.85 142.62 74.87 142.65 74.88 142.68C75.16 143.15 75.42 143.63 75.66 144.1C75.96 143.51 76.46 143.14 77.11 143.06C77.38 143.03 77.78 143.17 77.95 143.37C78.21 143.68 78.39 144.1 78.48 144.5C78.64 145.18 78.98 145.74 79.65 145.85C81.31 146.12 82.03 147.07 81.94 148.71C81.94 148.81 81.94 148.97 82.01 149.01C82.26 149.18 82.54 149.47 82.79 149.45C83.3 149.41 83.85 149.29 84.3 149.05C85.32 148.52 85.46 147.03 84.46 146.44C84.1 146.23 83.7 146.07 83.33 145.86C82.64 145.46 82.3 144.81 82.12 144.07C81.96 143.41 82.12 142.81 82.65 142.35C82.97 142.08 83.31 141.83 83.63 141.55C83.83 141.37 83.79 140.92 83.57 140.71C83.35 140.5 82.93 140.46 82.71 140.65C82.47 140.85 82.22 141.05 82.03 141.3C81.84 141.54 81.76 141.9 81.54 142.1C81.13 142.46 80.63 142.63 80.07 142.46C79.29 142.23 78.81 141.72 78.71 140.89C78.59 139.97 78.8 139.45 79.58 139.08C80.25 138.76 80.92 138.47 81.36 137.81C81.7 137.3 81.63 136.41 81.14 136.1C80.69 135.82 80.24 135.53 79.75 135.34C78.97 135.03 78.69 134.42 78.48 133.66C78.24 132.8 77.71 132.57 76.77 132.67C76.21 132.73 75.75 132.97 75.56 133.53C75.42 133.93 75.4 134.36 75.24 134.75C75.13 135.03 74.93 135.32 74.69 135.5C74.15 135.91 73.39 135.92 72.78 135.65C72.78 135.89 72.77 136.13 72.78 136.36V136.37Z" fill="black"/>
<path d="M93.56 162.72C92.68 162.38 92.24 161.71 91.92 160.89C91.68 160.26 91.23 159.83 90.64 159.55C89.79 159.14 88.91 159.52 88.67 160.41C88.59 160.72 88.57 161.04 88.47 161.34C88.24 162.08 87.46 162.43 86.68 162.16C86.14 161.98 85.76 161.65 85.7 161.05C85.63 160.46 85.9 160.02 86.38 159.72C86.64 159.56 86.97 159.5 87.26 159.38C88.17 159.02 88.53 158.44 88.48 157.44C88.45 156.92 88.01 156.42 87.49 156.37C86.97 156.32 86.44 156.32 85.92 156.24C85.75 156.21 85.54 156.02 85.45 155.85C84.97 154.89 85.18 153.54 85.93 152.93C86.75 152.26 87.67 151.71 88.42 150.97C89.17 150.22 89.83 149.41 90.92 149.09C91.18 149.01 91.41 148.68 91.56 148.42C91.75 148.05 91.87 147.64 91.99 147.23C92.18 146.55 92.6 146.16 93.29 146C93.59 145.93 93.9 145.8 94.16 145.64C94.84 145.22 95.03 144.06 94.62 143.36C94.38 142.95 94 142.77 93.59 142.7C92.76 142.54 92.23 142.08 92.11 141.26C91.92 140.04 91.21 139.4 90.04 139.17C89.84 139.13 89.63 139.04 89.46 138.93C88.76 138.48 88.59 137.75 88.54 137C88.5 136.38 88.93 136.08 89.46 135.87C89.75 135.76 90.04 135.61 90.3 135.43C91.03 134.93 91.15 134 90.58 133.2C90.38 132.91 90.03 132.83 89.74 132.98C89.38 133.16 88.94 133.38 88.76 133.71C88.4 134.35 88.19 135.07 87.94 135.73C87.34 136.19 86.73 136.61 86.18 137.1C85.71 137.51 85.83 138.48 86.37 138.75C86.83 138.98 87.36 139.07 87.84 139.28C88.35 139.49 88.72 139.87 88.76 140.46C88.8 140.99 88.83 141.52 88.84 142.04C88.85 142.48 88.48 142.89 88.09 142.88C87.56 142.87 87.04 142.8 86.51 142.8C85.95 142.8 85.35 143.47 85.33 144.08C85.3 144.84 85.73 145.64 86.34 145.91C86.92 146.17 87.51 146.38 88.08 146.67C88.63 146.95 88.68 147.9 88.19 148.31C87.63 148.78 86.89 149.02 86.46 149.66C86.25 150.26 86.05 150.86 85.84 151.46C85.6 152.14 85.08 152.46 84.4 152.51C83.77 152.56 83.13 152.53 82.5 152.6C82.19 152.64 81.93 152.87 81.88 153.22C81.83 153.53 81.83 153.85 81.77 154.16C81.54 155.45 80.98 155.92 79.6 155.96C79.49 155.96 79.4 155.93 79.3 155.9C79.28 155.99 79.26 156.09 79.23 156.2C79.67 157.21 80.1 158.22 80.63 159.19C81.11 159.04 81.48 158.73 81.74 158.23C81.88 157.95 81.91 157.62 82.04 157.33C82.42 156.51 83.35 156.24 84.17 156.7C84.65 156.97 84.85 157.56 84.64 158.05C84.43 158.56 84.13 159.07 83.61 159.18C82.6 159.4 82.04 159.99 81.65 160.87C82.1 161.58 82.54 162.29 82.86 163.09C82.91 163.22 82.98 163.37 83.03 163.51C83.19 163.44 83.36 163.38 83.54 163.34C83.87 163.28 84.26 163.37 84.55 163.55C86.15 163.52 87.73 163.62 89.31 163.78C89.32 163.59 89.37 163.4 89.45 163.21C89.51 163.06 89.78 162.89 89.93 162.91C90.62 163 91.02 163.45 91.32 164.01C92.48 164.16 93.64 164.34 94.8 164.51C94.72 164.3 94.63 164.09 94.55 163.89C94.35 163.38 94.07 162.89 93.56 162.7V162.72ZM89.26 143.71C89.42 143.29 89.77 143.09 90.19 143C90.39 142.96 90.6 142.95 90.78 142.93C91.55 142.89 91.94 143.26 91.94 144.03C91.94 144.44 91.92 144.86 91.59 145.17C91.14 145.6 89.99 145.6 89.61 145.13C89.29 144.73 89.05 144.25 89.25 143.71H89.26Z" fill="black"/>
<path d="M2.37 205.18C2.24 204.93 2.17 204.57 2.24 204.31C2.41 203.71 3.04 203.33 3.66 203.33C4.28 203.33 4.82 203.95 4.71 204.72C4.66 205.16 4.23 205.43 3.73 205.6C3.63 205.63 3.52 205.65 3.41 205.65C4.27 205.96 5.13 206.25 6.01 206.52C7.94 207.12 9.97 207.73 12.03 208.18C12.13 207.74 12.4 207.32 12.77 207.1C13.64 206.57 14.72 207.16 14.79 208.2C14.8 208.36 14.77 208.51 14.74 208.66C15.63 208.77 16.52 208.84 17.41 208.85C17.58 208.14 17.75 207.43 17.92 206.72C17.92 206.67 17.9 206.62 17.89 206.56C17.83 206.67 17.76 206.78 17.72 206.9C17.77 206.68 17.81 206.46 17.86 206.23C17.75 204.79 18.05 203.05 18.46 201.31C18.45 201.24 18.43 201.18 18.42 201.11C18.31 200.15 17.83 199.56 16.84 199.45C16.63 199.43 16.42 199.41 16.21 199.35C15.85 199.25 15.53 198.76 15.59 198.36C15.66 197.95 15.75 197.53 15.94 197.17C16.24 196.59 17.11 196.46 17.57 196.89C17.8 197.1 18.12 197.31 18.2 197.58C18.39 198.2 18.71 198.59 19.12 198.82C19.44 197.68 19.75 196.63 19.98 195.73C19.91 195.71 19.84 195.68 19.78 195.64C19.61 195.52 19.45 195.38 19.29 195.24C18.72 194.71 18.78 194.09 19.47 193.72C19.79 193.54 20.13 193.39 20.46 193.23C20.62 192.16 20.8 191.01 21.1 189.94C20.92 189.77 20.7 189.62 20.45 189.51C19.97 189.3 19.45 189.17 18.99 188.92C18.37 188.59 18.3 187.35 18.84 186.98C20.17 186.09 21.35 186.44 21.81 187.86C21.83 187.93 21.84 187.99 21.86 188.06C22.12 187.6 22.42 187.17 22.8 186.82C23.05 186.6 23.34 186.4 23.65 186.22C23.47 186.13 23.29 186.04 23.12 185.95C21.98 185.31 21.96 184.21 23.08 183.43C23.34 183.25 23.64 183.13 23.91 182.96C25.09 182.21 25.37 180.93 24.63 179.66C24.53 179.49 24.36 179.31 24.18 179.25C23.78 179.13 23.36 179.02 22.95 179.04C22.67 179.06 22.37 179.26 22.15 179.46C22.01 179.58 21.98 179.84 21.93 180.04C21.84 180.35 21.8 180.67 21.69 180.96C21.25 182.2 20.35 182.68 18.92 182.44C18.73 182.41 18.53 182.26 18.42 182.1C18.31 181.94 18.25 181.71 18.25 181.51C18.27 180.38 17.71 179.74 16.64 179.47C15.72 179.24 15.26 178.59 15.07 177.67C14.92 176.94 14.31 176.7 13.63 176.67C13.32 176.65 12.99 176.67 12.69 176.73C12.49 176.77 12.25 176.86 12.14 177.01C11.77 177.55 11.58 178.2 11.78 178.81C11.91 179.23 12.42 179.29 12.86 179.3C13.17 179.3 13.5 179.34 13.79 179.44C14.22 179.58 14.49 179.91 14.56 180.36C14.68 181.13 14.55 181.85 13.94 182.39C13.55 182.74 13.09 183.02 12.69 183.36C12.46 183.57 12.28 183.84 12.1 184.1C11.89 184.38 11.86 185.11 12.1 185.3C12.33 185.49 12.64 185.72 12.91 185.72C13.53 185.7 14.15 185.56 14.85 185.45C14.96 185.01 15.05 184.61 15.17 184.22C15.51 183.12 16.54 182.61 17.67 182.98C17.85 183.04 18.06 183.2 18.15 183.37C18.55 184.1 18.28 185.26 17.6 185.63C17.05 185.93 16.44 186.12 15.8 186.38C15.69 186.75 15.51 187.15 15.48 187.56C15.41 188.34 15.57 189.02 16.44 189.35C16.82 189.49 17.16 189.78 17.45 190.07C17.84 190.46 17.79 191.37 17.42 191.84C17.06 192.29 16.23 192.28 15.71 191.78C15.49 191.57 15.24 191.28 15.22 191.01C15.13 189.86 14.6 189.26 13.4 189.34C13.19 189.35 12.98 189.31 12.77 189.28C12.3 189.23 12.05 188.93 11.85 188.53C11.48 187.79 11.62 186.83 10.91 186.23C10.39 186.1 9.87 186.01 9.38 185.83C8.84 185.63 8.56 185.19 8.55 184.6C8.54 183.79 8.84 183.16 9.64 182.86C9.94 182.75 10.25 182.66 10.53 182.52C11.05 182.25 11.26 181.79 11.25 181.21C11.24 180.66 11.08 180.15 10.62 179.82C10.19 179.52 9.69 179.3 9.27 178.99C8.26 178.26 8.41 176.58 9.52 176.09C9.91 175.92 10.34 175.86 10.71 175.67C11.31 175.36 11.65 174.83 11.72 174.15C11.82 173.21 10.98 172.51 10.09 172.78C9.35 173.01 8.74 173.39 8.51 174.19C8.3 174.92 8.01 175.53 7.39 175.89C7.19 177.01 7 178.14 6.78 179.26C6.78 179.26 6.8 179.26 6.81 179.27C7.1 179.4 7.4 179.51 7.66 179.68C8.38 180.13 8.43 181.28 7.86 181.91C7.35 182.46 6.65 182.65 6.02 182.97C5.85 183.75 5.68 184.53 5.51 185.31C5.6 185.39 5.71 185.45 5.83 185.49C6.53 185.73 7.23 185.95 7.89 186.17C8.21 187.31 8.28667 188.253 8.12 189C8 189.53 7.56 189.84 6.94 189.83C6.38 189.82 5.9 189.67 5.62 189.13C5.39 188.69 5.18 188.25 4.94 187.81C4.76 188.6 4.58 189.38 4.4 190.16C4.77 190.38 4.98 190.8 4.87 191.25C4.77 191.67 4.59 192.05 4.22 192.28C4.12 192.34 4.01 192.37 3.89 192.4C3.63 193.51 3.38 194.61 3.12 195.71C3.43 195.76 3.74 195.79 4.05 195.82C4.58 195.87 5 196.25 4.81 196.93C4.58 197.75 4.41 198.68 3.67 199.14C2.9 199.62 2.37 200.25 1.94 200.97C1.92 201.08 1.89 201.18 1.87 201.29C1.62 202.43 1.39 203.58 1.16 204.73C1.61 204.91 2.07 205.08 2.52 205.25C2.48 205.21 2.44 205.18 2.41 205.13L2.37 205.18ZM16.61 203.88C16.72 204 16.82 204.12 16.93 204.24C16.83 204.34 16.72 204.44 16.61 204.54C16.54 204.39 16.46 204.24 16.42 204.08C16.41 204.03 16.54 203.95 16.61 203.88ZM9.81 205.75C9.44 205.72 9.03 205.34 8.94 204.96C8.83 204.48 9.26 203.96 9.82 203.91C10.17 203.88 10.68 204.25 10.66 204.66C10.63 205.27 10.27 205.79 9.81 205.75ZM14.18 193.23C14.66 193.3 15.03 193.83 14.98 194.35C14.93 194.83 14.46 195.15 13.86 195.13C13.32 195.11 12.79 194.63 12.85 194.22C12.93 193.66 13.62 193.15 14.19 193.23H14.18ZM12 199.93C12.04 199.77 12.02 199.59 12 199.42C12.64 199.7 13.3 199.94 13.9 200.28C14.13 200.41 14.34 200.77 14.35 201.03C14.37 201.29 14.18 201.62 13.98 201.81C13.76 202.03 13.42 202.08 13.11 201.92C12.29 201.51 11.76 200.94 11.99 199.93H12ZM9.65 190.62C9.98 190.4 10.38 190.22 10.77 190.14C11.39 190.02 11.89 190.75 11.69 191.41C11.57 191.56 11.47 191.77 11.31 191.86C10.82 192.13 10.3 192.09 9.81 191.86C9.64 191.78 9.5 191.6 9.41 191.43C9.25 191.1 9.41 190.78 9.65 190.61V190.62ZM9.34 197.07C9.51 196.96 9.7 196.86 9.89 196.79C10.65 196.51 11.44 196.87 11.61 197.59C11.74 198.16 11.82 198.74 11.93 199.31C11.45 199.33 10.96 199.39 10.48 199.38C9.94 199.36 9.52 199.07 9.15 198.68C8.71 198.2 8.79 197.43 9.34 197.08V197.07ZM6.71 202.18C6.14 202.11 5.68 201.61 5.76 201.13C5.85 200.59 6.39 200.16 6.89 200.23C7.42 200.31 7.83 200.77 7.83 201.31C7.83 201.79 7.25 202.23 6.71 202.17V202.18ZM6.13 193.09C6.51 192.77 7.19 192.64 7.56 192.86C7.93 193.08 8.12 193.44 8.14 193.88C8.17 194.47 7.95 194.93 7.47 195.13C7.1 195.29 6.7 195.39 6.6 195.42C5.94 195.47 5.47 195.07 5.45 194.71C5.42 194.06 5.62 193.51 6.13 193.08V193.09Z" fill="black"/>
<path d="M121.63 164.47C121.87 164.45 122.1 164.43 122.34 164.41C122.27 164.06 122.43 163.62 122.78 163.47C123.57 163.11 124.71 163.36 124.97 164.26C125.57 164.24 126.17 164.22 126.77 164.22C126.8 164.1 126.82 163.98 126.85 163.86C126.8 164.08 126.89 163.59 127.04 162.8C125.98 162.47 125.55 161.71 125.62 160.51C125.63 160.31 125.58 160.08 125.48 159.91C125.38 159.75 125.2 159.58 125.02 159.53C124.16 159.27 123.35 159.47 122.56 159.83C122 160.09 121.99 160.67 121.84 161.17C121.78 161.37 121.7 161.57 121.62 161.76C121.45 162.17 121.19 162.48 120.74 162.6C120.33 162.7 119.91 162.76 119.51 162.9C118.81 163.15 118.51 164.2 118.91 164.85C119.81 164.71 120.72 164.57 121.64 164.48L121.63 164.47Z" fill="black"/>
<path d="M94.62 159.4C94.31 159.45 94 159.55 93.69 159.55C92.56 159.55 92.17 159.27 91.8 158.28C91.32 157.01 91.64 156.39 92.81 156.19C94.15 155.96 94.79 155.1 95.03 153.87C95.08 153.61 94.92 153.27 94.75 153.02C94.53 152.69 93.94 152.56 93.62 152.75C93.17 153.01 92.7 153.28 92.35 153.65C92 154.02 91.82 154.55 91.52 154.97C91.04 155.64 90.38 155.85 89.58 155.65C89.13 155.54 88.84 155.27 88.73 154.83C88.66 154.53 88.61 154.21 88.61 153.9C88.6 153.34 88.92 152.88 89.42 152.69C89.61 152.62 89.82 152.57 90.03 152.53C90.97 152.34 91.45 151.71 91.7 150.84C91.84 150.35 92 149.86 92.13 149.44C93.3 148.98 94.33 149.4 95.37 149.42L95.26 149.31C95.26 149.93 95.26 150.54 95.29 151.16C95.33 151.84 95.66 152.32 96.34 152.52C96.93 152.69 97.52 152.87 98.2 153.08C98.61 154.12 98.83 155.22 99.03 156.33L99.1 156.24C98.89 156.24 98.68 156.25 98.48 156.24C95.83 156.06 95.37 156.59 94.72 158.9C94.66 159.1 94.61 159.3 94.56 159.5L94.63 159.41L94.62 159.4Z" fill="black"/>
<path d="M29.08 161.96C29.91 162.35 30.67 162.31 31.25 161.89C31.56 160.35 31.82 158.73 32.1 157.08C31.92 157.37 31.8 157.71 31.78 158.12C31.77 158.33 31.75 158.54 31.7 158.75C31.6 159.23 31.33 159.49 30.86 159.54C30.34 159.59 29.8 159.58 29.29 159.68C28.85 159.77 28.61 160.15 28.52 160.59C28.41 161.12 28.68 161.78 29.07 161.96H29.08Z" fill="black"/>
<path d="M70.71 129.41C71.42 129.96 71.95 130.68 72.38 131.5C72.63 131.97 73.16 132.22 73.7 132.28C73.99 132.31 74.34 132.26 74.59 132.11C75.24 131.74 75.24 131.08 75.18 130.44C75.13 129.9 74.73 129.48 74.18 129.38C73.66 129.28 73.14 129.23 72.63 129.11C72.15 129 71.74 128.45 71.73 127.94C71.73 127.39 71.89 126.89 72.41 126.61C72.69 126.46 72.98 126.34 73.28 126.22C74.22 125.84 74.86 125.19 75.13 124.2C75.19 124 75.25 123.8 75.32 123.6C75.47 123.17 75.79 122.9 76.2 122.77C76.6 122.64 77.03 122.6 77.43 122.48C77.87 122.36 78.09 122.01 78.23 121.59C78.44 120.94 78.34 120.33 78.03 119.76C77.87 119.47 77.58 119.35 77.24 119.36C76.79 119.38 76.45 119.6 76.16 119.92C75.64 120.5 75.51 121.23 75.31 121.94C75.2 122.33 74.78 122.56 74.3 122.53C73.88 122.5 73.46 122.43 73.05 122.38C72.56 122.29 72.16 122.51 72.09 122.9C71.94 123.73 71.83 124.56 71.68 125.39C71.6 125.82 71.38 126.17 70.98 126.39C70.9 126.44 70.82 126.49 70.73 126.53C70.72 127.26 70.68 128 70.64 128.75C70.67 128.95 70.69 129.18 70.71 129.41Z" fill="black"/>
<path d="M28.53 152.25C29.39 152.76 30.27 152.87 30.87 153.54C31.42 154.15 31.49 155.1 30.81 155.47C29.66 156.1 28.72 156.86 28.29 158.15C28.24 158.31 27.99 158.43 27.81 158.52C27.41 158.71 26.5 158.44 26.1 157.98C25.99 157.85 25.93 157.52 26.01 157.41C26.32 157 26.66 156.59 27.06 156.27C27.76 155.71 28.12 154.98 28.29 154.13C28.42 153.45 28.08 152.86 27.41 152.68C27.21 152.62 26.99 152.63 26.79 152.57C25.57 152.25 24.97 151.04 25.47 149.89C25.55 149.71 25.72 149.5 25.88 149.45C26.38 149.31 26.9 149.21 27.42 149.16C27.78 149.12 28.3 149.55 28.33 149.89C28.4 150.62 28.45 151.36 28.52 152.26L28.53 152.25Z" fill="black"/>
<path d="M131.41 152.3C132.07 151.51 131.7 150.44 132.2 149.52C132.43 149.44 132.72 149.26 133 149.26C134.22 149.25 134.91 148.63 135.38 147.54C135.76 146.65 136.5 146.47 137.47 146.84C137.99 147.04 138.39 147.56 138.37 148.01C138.34 148.52 137.95 149.05 137.46 149.17C137.05 149.27 136.63 149.3 136.22 149.38C135.76 149.48 135.49 149.8 135.42 150.24C135.34 150.76 135.34 151.29 135.28 151.81C135.21 152.33 134.7 152.74 134.14 152.67C133.2 152.55 132.27 152.37 131.34 152.21L131.42 152.3H131.41Z" fill="black"/>
<path d="M177.23 139.5C177.49 139.58 177.7 139.61 177.88 139.7C178.75 140.15 178.74 141.87 177.75 142.36C177.38 142.54 176.96 142.64 176.56 142.73C175.89 142.89 175.46 143.26 175.2 143.91C175.05 144.29 174.79 144.64 174.54 144.97C174.2 145.42 173.27 145.43 172.83 145.02C172.22 144.46 172.12 143.76 172.32 143C172.37 142.82 172.55 142.68 172.69 142.54C172.76 142.48 172.88 142.44 172.98 142.45C174.28 142.57 175.22 142.15 175.68 140.83C175.81 140.46 176.13 140.12 176.44 139.85C176.66 139.66 177 139.6 177.23 139.5Z" fill="black"/>
<path d="M168.09 130.36C168.17 131.14 167.59 131.92 166.9 132.07C166.32 132.2 165.78 131.97 165.61 131.47C165.47 131.08 165.39 130.67 165.29 130.26C165.19 129.8 164.88 129.54 164.45 129.43C164.05 129.32 163.63 129.28 163.22 129.17C162.67 129.02 162.37 128.6 162.19 128.08C162.07 127.71 162.22 127.17 162.5 126.94C163.01 126.54 164.42 126.45 164.89 126.8C164.97 126.86 165.08 126.92 165.11 127C165.55 128.29 166.58 128.98 167.67 129.64C167.9 129.78 167.98 130.16 168.08 130.35L168.09 130.36Z" fill="black"/>
<path d="M24.88 145.86C25.06 145.11 25.18 144.39 25.39 143.7C25.62 142.96 26.69 142.82 27.22 143.44C27.42 143.68 27.63 143.92 27.79 144.19C28.11 144.73 28.4 145.29 28.65 145.74C29.57 146.09 30.36 146.38 31.14 146.7C31.47 146.84 31.69 147.38 31.63 147.78C31.48 148.75 30.81 149.3 29.88 149.24C29.3 149.2 28.88 148.94 28.63 148.42C28.58 148.33 28.52 148.23 28.51 148.13C28.35 146.5 27.34 146.02 25.86 146.12C25.57 146.14 25.26 145.98 24.87 145.87L24.88 145.86Z" fill="black"/>
<path d="M13.13 163.44C12.69 163.43 12.26 163.55 12.02 163.92C11.69 164.45 11.45 165.04 11.06 165.83C11.05 165.83 11.04 165.83 11.02 165.83C10.76 166.94 10.46 168.03 10.07 169.1C10.06 169.13 10.04 169.17 10.03 169.2C10.13 169.15 10.23 169.09 10.33 169.01C10.65 168.77 11.02 168.39 11.07 168.03C11.27 166.56 11.95 165.7 13.51 165.73C13.61 165.73 13.71 165.67 13.81 165.63C14.24 165.47 14.5 164.78 14.33 164.28C14.15 163.77 13.69 163.44 13.13 163.43V163.44Z" fill="black"/>
<path d="M20.48 169.49C20.7 169.67 21.06 169.88 21.32 170.19C21.86 170.84 21.61 171.91 22.36 172.41C23.05 172.87 23.86 173.12 24.59 173.53C24.82 173.66 25.01 173.99 25.09 174.27C25.35 175.14 24.81 175.69 23.91 175.52C23.6 175.46 23.3 175.38 22.99 175.33C22.41 175.24 22.07 174.88 21.9 174.34C21.81 174.04 21.8 173.72 21.7 173.42C21.56 173 21.28 172.73 20.81 172.66C20.4 172.6 19.99 172.52 19.6 172.39C19.05 172.2 18.74 171.51 18.85 170.82C18.96 170.13 19.4 169.63 20.02 169.53C20.12 169.51 20.23 169.51 20.49 169.5L20.48 169.49Z" fill="black"/>
<path d="M171.43 158.95C172.25 159.05 173.08 159.11 173.91 159.17C174.23 159.07 174.55 158.93 174.86 158.8C175.03 158.73 175.2 158.55 175.29 158.38C175.65 157.72 175.45 156.54 174.5 156.36C174.09 156.28 173.67 156.24 173.53 156.23C172.44 156.23 171.82 156.58 171.89 157.2C171.97 157.98 171.8 158.54 171.43 158.95Z" fill="black"/>
<path d="M18.41 158.25C18.43 158.04 18.43 157.72 18.5 157.41C18.62 156.88 18.89 156.43 19.39 156.18C20.05 155.86 20.76 155.62 21.36 155.21C21.87 154.87 22.25 154.33 22.72 153.92C23 153.68 23.31 153.83 23.57 154.03C23.83 154.23 23.91 154.66 23.76 154.87C23.64 155.04 23.55 155.27 23.39 155.36C22.4 155.89 21.85 156.73 21.54 157.79C21.24 158.81 20.48 159.3 19.47 159.48C18.88 159.59 18.45 159.26 18.44 158.66C18.44 158.56 18.44 158.45 18.42 158.24L18.41 158.25Z" fill="black"/>
<path d="M34.46 129.12C34.62 130.04 34.77 130.97 34.93 131.88C35.63 132.18 36.31 132.46 36.97 132.78C37.47 133.02 37.82 133.9 37.64 134.42C37.45 134.94 37.09 135.31 36.5 135.39C36.11 135.45 35.51 135.23 35.39 134.95C35.27 134.66 35.13 134.36 35.08 134.05C34.87 132.86 34.11 132.56 33.01 132.64C32.44 132.68 32.12 132.21 32.11 131.59C32.11 131.04 32.23 130.55 32.55 130.1C32.89 129.62 33.35 129.46 33.91 129.42C34.11 129.41 34.3 129.27 34.49 129.19L34.45 129.12H34.46Z" fill="black"/>
<path d="M191.68 153.98C191.59 154.17 191.55 154.4 191.41 154.54C191.03 154.9 190.66 155.32 190.21 155.53C189.38 155.92 188.84 156.44 188.69 157.38C188.56 158.15 188.05 158.68 187.33 159.01C186.49 159.4 185.54 158.83 185.57 157.9C185.57 157.61 185.67 157.22 185.87 157.05C186.26 156.71 186.73 156.45 187.2 156.22C188 155.83 188.55 155.26 188.89 154.43C189.18 153.71 189.77 153.27 190.56 153.13C190.95 153.06 191.4 153.29 191.59 153.68C191.63 153.77 191.66 153.88 191.69 153.98H191.68Z" fill="black"/>
<path d="M110.94 133.4C111.5 133.37 111.89 133.84 111.87 134.44C111.85 134.88 111.71 135.29 111.36 135.54C111.03 135.78 110.64 135.96 110.26 136.13C109.48 136.48 108.82 136.92 108.39 137.71C107.99 138.44 107.22 138.52 106.45 138.46C105.95 138.42 105.54 138.14 105.5 137.81C105.44 137.35 105.62 136.98 105.94 136.7C106.25 136.43 106.6 136.11 106.98 136.03C107.9 135.85 108.42 135.31 108.86 134.53C109.3 133.75 110.05 133.37 110.94 133.4Z" fill="black"/>
<path d="M30.26 141.77C29.76 141.69 29.35 141.23 29.37 140.87C29.4 140.32 29.57 139.77 30.06 139.54C31.04 139.05 31.71 138.32 32.25 137.38C32.49 136.95 32.93 136.59 33.34 136.29C33.93 135.85 34.94 136.29 35.07 137.03C35.13 137.43 35.12 137.86 35.07 138.27C35 138.71 34.7 139.02 34.27 139.14C33.97 139.22 33.65 139.23 33.33 139.23C32.49 139.24 31.99 139.68 31.67 140.43C31.51 140.81 31.29 141.18 31.01 141.47C30.82 141.66 30.47 141.7 30.29 141.77H30.26Z" fill="black"/>
<path d="M41.1 106.59C41.47 106.94 41.83 107.3 42.14 107.71C42.37 108.01 42.84 108.16 43.22 108.29C43.77 108.48 44.52 108.11 44.83 107.61C43.59 107.27 42.34 106.93 41.09 106.59H41.1Z" fill="black"/>
<path d="M101.56 122.33C101.85 121.65 102.1 120.97 102.42 120.32C102.62 119.92 103.43 119.93 103.83 120.3C104.11 120.56 104.21 121.19 104.01 121.45C103.88 121.62 103.76 121.79 103.61 121.93C103.46 122.07 103.28 122.2 103.09 122.28C102.56 122.51 102.27 122.9 102.21 123.48C102.19 123.69 102.15 123.9 102.09 124.1C101.78 125.2 101.06 125.57 99.92 125.21C99.34 125.03 98.96 124.6 98.96 124.1C98.96 123.52 99.24 123.04 99.74 122.83C100.31 122.58 100.94 122.49 101.57 122.33H101.56Z" fill="black"/>
<path d="M143.97 148.91C143.29 148.93 142.37 148.5 142.28 147.74C142.17 146.84 142.36 146.31 143.19 146.04C144.25 145.7 144.99 145.1 145.5 144.11C145.83 143.47 146.53 143.42 147.05 143.87C147.34 144.13 147.46 144.79 147.19 144.98C145.98 145.86 145.19 147.03 144.63 148.4C144.53 148.64 144.16 148.77 143.97 148.9V148.91Z" fill="black"/>
<path d="M98.99 159.38C99.13 160.32 99.07 161.23 98.63 162.1C98.4 162.55 97.87 162.91 97.39 162.84C96.98 162.78 96.55 162.74 96.19 162.56C95.84 162.39 95.44 162.1 95.3 161.77C94.99 161.01 94.84 160.19 94.62 159.4L94.55 159.49C96.07 159.36 97.58 159.32 99.1 159.51L98.99 159.39V159.38Z" fill="black"/>
<path d="M95.36 149.42C95.34 148.8 95.25 148.18 95.3 147.56C95.38 146.63 96.37 145.95 97.36 146.13C97.78 146.21 98.11 146.47 98.29 146.88C98.52 147.38 98.51 147.88 98.31 148.39C98.15 148.81 97.85 149.12 97.42 149.18C96.7 149.27 95.97 149.27 95.25 149.3L95.36 149.42Z" fill="black"/>
<path d="M17.83 143.33C18.63 142.65 19.57 142.65 20.53 142.76C21.67 142.89 22.06 143.76 21.84 144.85C21.79 145.09 21.45 145.35 21.18 145.44C20.56 145.64 19.93 145.49 19.33 145.24C18.69 144.96 18.45 144.39 18.27 143.76C18.22 143.59 18 143.47 17.85 143.32H17.82L17.83 143.33Z" fill="black"/>
<path d="M16.53 175.93C16.37 175.83 15.98 175.66 15.71 175.38C15.16 174.82 15.04 174.09 15.17 173.34C15.22 173.02 15.4 172.76 15.76 172.71C17.16 172.51 18.08 173.19 18.09 174.88C18.09 175.48 17.41 176.01 16.54 175.93H16.53Z" fill="black"/>
<path d="M108.49 152.52C107.97 152.53 107.44 152.55 106.92 152.57C105.42 152.62 105.17 151.99 105.49 150.55C105.62 149.99 106.39 149.48 106.94 149.54C107.79 149.64 108.49 150.15 108.56 150.77C108.63 151.38 108.83 152.02 108.41 152.6L108.49 152.52Z" fill="black"/>
<path d="M163.29 155.94C162.81 155.97 162.27 155.46 162.3 154.97C162.36 153.97 162.73 153.17 163.71 152.76C164.15 152.57 164.85 152.86 165.01 153.29C165.5 154.58 164.68 155.85 163.29 155.95V155.94Z" fill="black"/>
<path d="M102.24 132.57C101.27 132.66 100.36 132.51 99.55 131.93C99.07 131.59 98.89 130.79 99.2 130.24C99.52 129.67 100.21 129.44 100.82 129.69C101.23 129.86 101.58 130.13 101.7 130.53C101.9 131.23 102.01 131.96 102.16 132.67L102.25 132.58L102.24 132.57Z" fill="black"/>
<path d="M181.02 155.83C181.18 155.94 181.56 156.05 181.64 156.26C181.84 156.84 181.99 157.47 182 158.08C182.01 158.67 181.51 158.97 181 159.17C180.58 159.34 180.15 159.27 179.84 158.96C179.63 158.76 179.43 158.46 179.39 158.18C179.35 157.77 179.42 157.34 179.51 156.94C179.67 156.23 180.23 155.96 181.02 155.83Z" fill="black"/>
<path d="M131.33 152.21C131.44 152.92 131.6 153.63 131.64 154.35C131.68 155.16 131.1 155.85 130.43 155.9C129.81 155.95 129.09 155.56 128.9 155.07C128.64 154.42 128.9 153.51 129.46 153.13C129.71 152.96 129.99 152.82 130.28 152.71C130.65 152.56 131.04 152.45 131.42 152.31L131.34 152.22L131.33 152.21Z" fill="black"/>
<path d="M123.2 149.26C122.74 149.26 122.21 148.72 122.3 147.89C122.34 147.49 122.47 147.08 122.64 146.7C122.93 146.04 123.98 145.88 124.51 146.39C124.99 146.86 125.13 147.44 125.1 148.1C125.06 148.81 124.66 149.21 123.91 149.26C123.81 149.26 123.7 149.26 123.22 149.26H123.2Z" fill="black"/>
<path d="M108.57 131.28C108.58 132.26 107.82 132.77 106.85 132.54C106.19 132.38 105.51 131.25 105.61 130.53C105.65 130.24 106.13 129.71 106.44 129.64C107.61 129.35 108.56 130.08 108.58 131.28H108.57Z" fill="black"/>
<path d="M163.78 149.19C162.7 149.04 162.15 148.34 162.27 147.24C162.31 146.83 162.38 146.42 162.78 146.17C163.13 145.94 163.73 146.05 164.21 146.44C164.37 146.57 164.53 146.71 164.66 146.86C165.22 147.48 165.09 148.45 164.36 149.02C164.21 149.13 163.98 149.13 163.78 149.18V149.19Z" fill="black"/>
<path d="M121.82 144.43C121.76 145.15 121.01 145.93 120.39 145.91C119.66 145.89 118.93 145.31 118.78 144.63C118.68 144.19 118.78 143.79 119.12 143.48C119.94 142.75 121.35 143.09 121.75 144.12C121.79 144.22 121.79 144.33 121.81 144.43H121.82Z" fill="black"/>
<path d="M151.5 139.33C152.01 139 151.9 138.42 152.05 137.94C152.18 137.55 152.36 137.17 152.58 136.83C152.92 136.32 153.69 136.16 154.26 136.43C154.77 136.67 155.02 137.27 154.8 137.72C154.12 139.11 153.15 139.58 151.49 139.32L151.5 139.33Z" fill="black"/>
<path d="M103.21 126.34C104.2 126.32 104.97 126.93 105.23 127.92C105.33 128.3 105.08 128.83 104.75 128.94C104.14 129.15 103.54 129.15 102.95 128.85C102.27 128.51 101.98 127.73 102.26 127.02C102.4 126.68 102.87 126.34 103.21 126.34Z" fill="black"/>
<path d="M21.65 177.92C21.54 178.09 21.47 178.33 21.32 178.43C20.78 178.81 20.15 178.95 19.52 178.71C19.26 178.61 18.99 178.35 18.86 178.1C18.6 177.6 18.69 177.06 18.96 176.58C19.05 176.41 19.23 176.23 19.41 176.17C20.76 175.73 21.67 176.42 21.65 177.91V177.92Z" fill="black"/>
<path d="M128.59 150.8C128.52 151.43 128.22 151.96 127.6 152.26C126.99 152.56 126.19 152.42 125.88 151.98C125.45 151.38 125.53 150.47 126.1 149.99C126.34 149.79 126.62 149.63 126.91 149.52C127.77 149.19 128.66 149.85 128.59 150.8Z" fill="black"/>
<path d="M19.96 162.76C20.06 162.76 20.18 162.75 20.27 162.78C21.14 163.11 21.68 164.61 21.18 165.44C21.04 165.67 20.68 165.82 20.39 165.87C19.36 166.05 18.74 165.56 18.74 164.56C18.74 164.15 18.85 163.74 18.95 163.35C19.04 163.01 19.54 162.75 19.95 162.76H19.96Z" fill="black"/>
<path d="M171.66 141.15C171.56 141.41 171.51 141.87 171.25 142.12C170.74 142.6 170.09 142.5 169.5 142.21C169.07 142 168.85 141.45 168.91 140.87C168.99 140.17 169.38 139.73 170.02 139.49C170.41 139.34 171.17 139.7 171.34 140.1C171.46 140.39 171.52 140.7 171.66 141.15Z" fill="black"/>
<path d="M34.8 144.17C34.83 145.08 34.45 145.66 33.84 145.86C33.65 145.92 33.42 145.94 33.22 145.9C32.5 145.77 32.12 144.88 32.31 143.83C32.43 143.19 33.06 142.66 33.66 142.79C33.94 142.85 34.27 143.02 34.43 143.25C34.66 143.58 34.74 144 34.81 144.17H34.8Z" fill="black"/>
<path d="M177.15 149.2C176.62 149.18 176.12 148.79 176.02 148.3C175.81 147.36 176.42 146.4 177.39 146.18C177.57 146.14 177.83 146.2 177.97 146.31C178.73 146.93 178.6 148.47 177.74 149.04C177.58 149.15 177.35 149.15 177.15 149.2Z" fill="black"/>
<path d="M108.59 124.06C108.57 124.77 108.2 125.23 107.52 125.4C106.78 125.59 106 125.21 105.73 124.52C105.69 124.42 105.67 124.31 105.68 124.21C105.74 123.35 106.77 122.54 107.67 122.64C108.04 122.68 108.45 123.06 108.52 123.44C108.56 123.64 108.57 123.85 108.59 124.05V124.06Z" fill="black"/>
<path d="M83.77 132.67C84.77 132.67 85.22 133.37 84.85 134.13C84.57 134.7 84.21 135.24 83.51 135.23C82.83 135.22 82.42 134.7 82.14 134.14C82.01 133.87 82.03 133.53 82.28 133.3C82.5 133.1 82.75 132.9 83.02 132.79C83.3 132.68 83.62 132.69 83.76 132.67H83.77Z" fill="black"/>
<path d="M165.25 134.13C165.15 134.41 165.13 134.64 165 134.79C164.44 135.47 163.69 135.79 162.82 135.84C162.57 135.85 162.16 135.57 162.12 135.34C162.01 134.66 162.22 134.07 162.77 133.68C163.38 133.25 164.09 132.96 164.81 133.44C165.03 133.59 165.13 133.92 165.25 134.13Z" fill="black"/>
<path d="M21.41 151.19C21.43 151.92 20.84 152.38 19.89 152.36C19.36 152.35 18.85 151.93 18.78 151.45C18.67 150.65 19.22 149.91 19.94 149.9C20.78 149.9 21.38 150.42 21.41 151.19Z" fill="black"/>
<path d="M34.67 124.22C34.69 124.63 34.44 125 34.01 125.2C33.54 125.41 32.88 125.29 32.57 124.9C32.23 124.46 32.1 123.97 32.27 123.42C32.37 123.1 32.57 122.86 32.92 122.82C33.82 122.72 34.63 123.38 34.67 124.22Z" fill="black"/>
<path d="M28.43 130.83C28.43 130.94 28.43 131.04 28.43 131.15C28.41 131.86 28.13 132.33 27.69 132.4C27.09 132.5 26.4 132.16 26.16 131.55C26.05 131.29 26.04 130.9 26.16 130.65C26.39 130.17 26.79 129.83 27.35 129.7C27.77 129.6 28.27 129.83 28.35 130.21C28.39 130.42 28.41 130.63 28.44 130.83H28.43Z" fill="black"/>
<path d="M93.57 138.51C93.33 138.46 93.03 138.4 92.73 138.31C92.4 138.21 92.15 137.62 92.32 137.28C92.5 136.92 92.7 136.56 92.97 136.26C93.38 135.81 94.23 135.93 94.57 136.46C94.73 136.71 94.86 137 94.96 137.29C95.13 137.8 94.78 138.34 94.24 138.42C94.04 138.45 93.83 138.47 93.57 138.5V138.51Z" fill="black"/>
<path d="M28.4 176.61C28.39 177.02 28.4 177.44 28.36 177.85C28.33 178.2 28.06 178.44 27.76 178.48C27.26 178.55 26.73 178.56 26.23 178.5C25.79 178.44 25.53 178.07 25.4 177.65C25.21 177.05 25.73 176.25 26.32 176.31C27.04 176.38 27.75 176.55 28.46 176.68L28.4 176.61Z" fill="black"/>
<path d="M221.6 157.44C221.65 158.03 221.13 158.72 220.55 158.83C219.76 158.98 218.98 158.48 218.88 157.76C218.78 157.04 219.38 156.25 220.09 156.16C220.82 156.07 221.52 156.67 221.59 157.44H221.6Z" fill="black"/>
<path d="M185.03 148.26C184.99 148.61 184.6 149.12 184.25 149.15C183.84 149.19 183.41 149.2 183.02 149.1C182.43 148.95 182.13 148.22 182.29 147.56C182.41 147.04 182.87 146.72 183.46 146.71C184.51 146.69 185.08 147.36 185.04 148.25L185.03 148.26Z" fill="black"/>
<path d="M106.88 142.76C107.52 142.81 107.95 143.37 107.9 144.11C107.85 144.97 107.21 145.52 106.44 145.37C105.8 145.25 105.4 144.72 105.39 143.99C105.39 143.2 106 142.69 106.88 142.76Z" fill="black"/>
<path d="M185.05 154.37C185 154.54 184.94 154.97 184.74 155.32C184.39 155.95 183.59 156.04 182.78 155.61C182.25 155.33 182.08 154.54 182.42 153.96C182.77 153.36 183.3 153.08 183.98 153.1C184.47 153.12 184.98 153.63 185.04 154.36L185.05 154.37Z" fill="black"/>
<path d="M203.92 139.76C204.36 139.76 204.73 139.91 205.04 140.22C205.39 140.57 205.47 141.23 205.21 141.66C204.98 142.05 204.6 142.23 204.17 142.19C203.87 142.16 203.56 142.07 203.29 141.93C202.83 141.68 202.6 141.04 202.74 140.59C202.89 140.1 203.38 139.76 203.93 139.75L203.92 139.76Z" fill="black"/>
<path d="M167.28 145.42C166.67 145.35 166.2 144.76 166.22 144.11C166.25 143.32 166.84 142.77 167.63 142.8C168.26 142.82 168.73 143.41 168.65 144.09C168.54 145 168 145.52 167.27 145.43L167.28 145.42Z" fill="black"/>
<path d="M175.4 151.75C175.45 152.15 175.11 152.51 174.66 152.47C174.26 152.43 173.84 152.4 173.47 152.25C172.82 151.99 172.59 151.07 172.93 150.39C173.1 150.05 173.61 149.83 173.97 149.94C174.85 150.21 175.34 150.79 175.4 151.74V151.75Z" fill="black"/>
<path d="M37.96 114.08C37.97 114.68 37.47 115.25 36.78 115.34C36.59 115.36 36.3 115.31 36.21 115.18C35.97 114.85 35.75 114.47 35.66 114.08C35.5 113.34 35.98 112.59 36.5 112.65C37.27 112.74 37.95 113.39 37.96 114.07V114.08Z" fill="black"/>
<path d="M140.43 152.19C139.91 152.1 139.46 151.56 139.48 151.05C139.51 150.38 139.82 149.84 140.4 149.54C140.63 149.42 141.03 149.46 141.26 149.59C141.95 149.99 142.11 150.85 141.66 151.47C141.35 151.9 140.96 152.23 140.43 152.18V152.19Z" fill="black"/>
<path d="M166.24 150.08C167.11 150.12 167.83 150.44 168.31 151.2C168.57 151.62 168.25 152.31 167.76 152.42C166.53 152.69 165.71 152.15 165.51 150.94C165.45 150.61 165.91 150.07 166.24 150.08Z" fill="black"/>
<path d="M156.4 155.52C156.25 155.42 155.9 155.31 155.79 155.08C155.62 154.74 155.55 154.31 155.55 153.92C155.55 153.41 156.01 152.99 156.53 152.91C157.05 152.83 157.52 153.11 157.79 153.57C158.24 154.32 157.45 155.62 156.41 155.53L156.4 155.52Z" fill="black"/>
<path d="M175.96 154.26C176.05 154.04 176.12 153.74 176.29 153.49C176.38 153.36 176.67 153.23 176.8 153.28C177.18 153.41 177.56 153.59 177.87 153.84C178.17 154.1 178.44 154.44 178.33 154.91C178.2 155.48 177.79 155.75 177.26 155.88C176.58 156.05 176.01 155.63 175.97 154.96C175.96 154.76 175.97 154.55 175.97 154.27L175.96 154.26Z" fill="black"/>
<path d="M190.17 148.6C189.95 148.51 189.55 148.4 189.22 148.18C188.67 147.82 188.79 146.92 189.36 146.65C190.1 146.31 190.78 146.38 191.38 146.91C191.59 147.1 191.72 147.42 191.78 147.7C191.84 148.02 191.39 148.42 190.98 148.49C190.78 148.52 190.57 148.54 190.18 148.59L190.17 148.6Z" fill="black"/>
<path d="M154.78 150.55C154.7 151.49 153.84 152.01 152.94 151.64C152.31 151.38 152.09 150.55 152.54 150.07C152.75 149.85 153.02 149.66 153.3 149.52C154.03 149.15 154.84 149.73 154.78 150.55Z" fill="black"/>
<path d="M194.17 152.43C193.59 152.53 192.86 151.93 192.76 151.36C192.65 150.69 193.04 149.87 193.69 149.56C193.83 149.49 194.13 149.54 194.25 149.65C194.93 150.27 195.14 151.14 194.77 151.87C194.64 152.12 194.34 152.28 194.17 152.42V152.43Z" fill="black"/>
<path d="M218.9 150.41C218.88 149.91 219.26 149.46 219.63 149.39C220.22 149.28 220.66 149.51 220.99 149.98C221.3 150.44 221.23 151.08 220.87 151.43C220.41 151.86 219.64 151.75 219.23 151.16C219.06 150.91 218.98 150.59 218.9 150.41Z" fill="black"/>
<path d="M27.74 124.31C27.71 124.51 27.7 124.72 27.64 124.91C27.52 125.29 27.11 125.64 26.72 125.6C26.44 125.57 26.12 125.44 25.91 125.25C25.7 125.05 25.57 124.73 25.48 124.44C25.3 123.84 25.73 123.19 26.35 123.02C26.8 122.9 27.42 123.22 27.6 123.7C27.67 123.89 27.68 124.1 27.72 124.3L27.74 124.31Z" fill="black"/>
<path d="M81.5 117.97C81.57 118.42 81.11 119.08 80.67 119.16C80.13 119.26 79.34 118.9 79.05 118.41C79 118.33 79 118.21 79.01 118.12C79.08 117.56 79.7 117.08 80.37 117.05C80.86 117.03 81.42 117.49 81.49 117.97H81.5Z" fill="black"/>
<path d="M163.46 142.56C163.06 142.59 162.63 142.24 162.62 141.81C162.62 141.4 162.63 140.97 162.75 140.59C162.93 139.97 163.77 139.76 164.3 140.17C164.78 140.53 165.01 141.07 164.87 141.52C164.67 142.15 164.18 142.52 163.46 142.57V142.56Z" fill="black"/>
<path d="M16.89 159.99C17.23 160.03 17.34 160.04 17.44 160.05C17.93 160.12 18.25 160.43 18.27 160.83C18.29 161.29 18.11 161.66 17.74 161.89C17.14 162.26 16.24 162.12 15.7 161.64C15.37 161.35 15.49 160.48 15.92 160.28C16.29 160.11 16.7 160.05 16.88 160L16.89 159.99Z" fill="black"/>
<path d="M158.59 121.46C158.44 121.59 158.32 121.8 158.15 121.85C157.21 122.17 156.4 121.68 156.3 120.73C156.27 120.42 156.31 120.08 156.61 119.88C156.88 119.7 157.17 119.62 157.5 119.76C158.01 119.97 158.42 120.29 158.59 120.83C158.65 121.02 158.59 121.24 158.59 121.45V121.46Z" fill="black"/>
<path d="M106.84 116.06C107.24 116.04 107.73 116.29 107.87 116.59C108.07 117.02 107.92 117.7 107.53 117.98C107.36 118.1 107.18 118.2 106.99 118.27C106.35 118.5 105.61 118.18 105.47 117.65C105.29 116.96 105.58 116.41 106.24 116.2C106.43 116.14 106.64 116.11 106.84 116.07V116.06Z" fill="black"/>
<path d="M100.11 116.03C100.79 116.01 101.29 116.45 101.35 117.11C101.42 117.84 100.75 118.47 99.98 118.41C99.36 118.37 98.89 117.81 98.91 117.14C98.93 116.44 99.36 116.04 100.1 116.02L100.11 116.03Z" fill="black"/>
<path d="M151.3 146.57C151.39 147.39 151.22 147.95 150.7 148.36C150.56 148.47 150.33 148.54 150.15 148.53C149.56 148.5 149.29 148.06 149.08 147.58C148.96 147.29 149.2 146.83 149.6 146.58C149.85 146.42 150.13 146.29 150.41 146.19C150.77 146.06 151.28 146.38 151.3 146.57Z" fill="black"/>
<path d="M16.51 168.92C15.86 168.88 15.41 167.95 15.8 167.3C16.2 166.63 16.95 166.48 17.63 166.94C18.1 167.25 18.19 167.81 17.87 168.25C17.55 168.7 17.12 168.92 16.5 168.92H16.51Z" fill="black"/>
<path d="M95.25 132.1C94.62 132.06 93.98 132.05 93.36 131.96C93.06 131.92 92.78 131.74 92.49 131.61C92.24 131.5 92.05 131.06 92.19 130.81C92.28 130.64 92.4 130.43 92.56 130.35C93.05 130.09 93.58 130.11 94.1 130.23C94.73 130.37 95.1 130.83 95.19 131.59C95.21 131.8 95.16 132.01 95.15 132.22L95.26 132.11L95.25 132.1Z" fill="black"/>
<path d="M80.14 132.58C80.04 132.58 79.93 132.58 79.83 132.56C79.06 132.45 78.61 131.97 78.71 131.39C78.83 130.65 79.6 130.13 80.28 130.32C80.98 130.51 81.4 131.35 81.13 132.02C80.99 132.37 80.59 132.6 80.14 132.58Z" fill="black"/>
<path d="M197.03 153.3C197.68 153.17 198.4 153.8 198.49 154.56C198.55 155.09 198.18 155.56 197.64 155.64C196.88 155.76 196.29 155.25 196.19 154.41C196.13 153.89 196.5 153.4 197.02 153.29L197.03 153.3Z" fill="black"/>
<path d="M181.97 150.95C181.89 151.67 181.32 152.27 180.61 152.39C180.18 152.47 179.56 151.97 179.53 151.52C179.47 150.72 180.22 149.94 181.04 149.95C181.52 149.95 182.03 150.5 181.98 150.95H181.97Z" fill="black"/>
<path d="M195.05 157.65C194.95 158.55 194.69 158.82 194.3 159.01C193.93 159.19 193.38 159.02 193.26 158.69C193.01 157.97 193.04 157.29 193.53 156.67C193.75 156.39 194.34 156.41 194.6 156.68C194.97 157.09 195.06 157.57 195.05 157.65Z" fill="black"/>
<path d="M161.11 150.7C160.97 151.36 160.4 151.81 159.79 151.73C159.18 151.64 158.72 150.98 158.84 150.37C158.95 149.79 159.66 149.39 160.28 149.55C160.79 149.68 161.2 150.26 161.1 150.7H161.11Z" fill="black"/>
<path d="M138.21 127.36C138.12 128.23 137.27 128.93 136.46 128.8C135.81 128.7 135.45 127.88 135.8 127.36C136.18 126.78 136.71 126.52 137.39 126.53C137.71 126.53 138.25 127.08 138.22 127.36H138.21Z" fill="black"/>
<path d="M30.09 126.57C30.62 126.45 31.38 126.93 31.56 127.53C31.61 127.7 31.57 127.96 31.48 128.12C31.18 128.6 30.69 128.79 30.15 128.84C29.64 128.88 29.18 128.34 29.25 127.8C29.32 127.24 29.58 126.82 30.1 126.58L30.09 126.57Z" fill="black"/>
<path d="M175.01 137.83C175.06 138.27 174.68 138.76 174.32 138.83C173.72 138.95 173.06 138.57 172.86 137.99C172.69 137.49 172.9 136.88 173.33 136.66C173.76 136.44 174.37 136.62 174.66 137.09C174.82 137.35 174.92 137.64 175 137.83H175.01Z" fill="black"/>
<path d="M146.68 136.01C147.3 136.01 147.77 136.49 147.84 137.21C147.91 137.83 147.45 138.46 146.84 138.54C146.66 138.56 146.41 138.5 146.28 138.38C145.78 137.93 145.64 137.35 145.78 136.7C145.86 136.31 146.24 136 146.67 136.01H146.68Z" fill="black"/>
<path d="M180.65 131.91C180.12 131.95 179.46 131.34 179.41 130.77C179.37 130.3 179.86 129.76 180.33 129.74C180.93 129.71 181.59 130.3 181.57 130.84C181.55 131.33 181.08 131.88 180.65 131.91Z" fill="black"/>
<path d="M102.15 132.66C102.75 133.1 103.63 132.8 104.14 133.43C104.33 133.66 104.51 133.95 104.54 134.23C104.57 134.6 103.88 135.08 103.4 135.12C103.04 135.15 102.79 134.95 102.64 134.68C102.5 134.41 102.42 134.1 102.37 133.8C102.3 133.4 102.28 132.98 102.24 132.57L102.15 132.66Z" fill="black"/>
<path d="M143.29 132.81C143.48 132.85 143.77 132.83 143.85 132.95C144.13 133.37 144.39 133.82 144.57 134.29C144.75 134.78 144.16 135.3 143.64 135.16C142.68 134.91 142.33 133.66 143.01 132.94C143.08 132.87 143.19 132.85 143.29 132.81Z" fill="black"/>
<path d="M214.25 149.97C214.39 150.05 214.68 150.15 214.9 150.33C215.31 150.67 215.32 151.31 214.9 151.65C214.68 151.83 214.38 151.97 214.09 152.01C213.44 152.1 212.88 151.59 212.87 150.97C212.87 150.31 213.36 149.9 214.23 149.97H214.25Z" fill="black"/>
<path d="M135.04 144.09C134.93 144.73 134.32 145.35 133.76 145.34C133.52 145.34 133.21 145.08 133.07 144.86C132.81 144.44 133.02 143.84 133.46 143.52C133.81 143.27 134.23 143.19 134.59 143.45C134.81 143.61 134.92 143.91 135.03 144.08L135.04 144.09Z" fill="black"/>
<path d="M179.71 145.49C179.13 145.48 178.66 144.74 179.02 143.99C179.22 143.59 179.5 143.27 179.91 143.15C180.19 143.07 180.61 143.07 180.81 143.24C181.23 143.59 181.35 144.12 181.19 144.68C181.06 145.13 180.75 145.38 180.32 145.49C180.22 145.52 180.11 145.49 179.71 145.49Z" fill="black"/>
<path d="M94.33 124.35C94.36 124.87 93.71 125.47 93.09 125.5C92.57 125.52 92.11 125.11 92.06 124.57C91.99 123.86 92.81 123.27 93.55 123.49C93.98 123.62 94.32 123.98 94.34 124.34L94.33 124.35Z" fill="black"/>
<path d="M121.15 124.6C121.01 125.23 120.42 125.69 119.84 125.61C119.23 125.53 118.72 124.86 118.86 124.31C119.01 123.74 119.73 123.33 120.29 123.49C120.83 123.65 121.23 124.18 121.14 124.59L121.15 124.6Z" fill="black"/>
<path d="M155.3 124.54C155.21 125.09 154.71 125.52 154.23 125.46C153.58 125.38 153.06 124.71 153.23 124.16C153.37 123.7 154 123.31 154.45 123.4C154.94 123.49 155.37 124.07 155.29 124.54H155.3Z" fill="black"/>
<path d="M34.5 129.19C35.08 128.84 35.14 128.14 35.54 127.68C35.73 127.46 36.01 127.29 36.27 127.15C36.62 126.96 37.18 127.21 37.28 127.58C37.39 127.99 37.41 128.39 37.16 128.76C36.78 129.32 36.19 129.51 35.57 129.6C35.14 129.66 34.77 129.45 34.48 129.12L34.51 129.18L34.5 129.19Z" fill="black"/>
<path d="M34.71 117.11C34.67 117.3 34.69 117.57 34.57 117.68C33.92 118.27 33.16 118.53 32.28 118.31C32.03 118.25 31.84 117.77 31.95 117.52C32.31 116.69 33.49 116.24 34.32 116.64C34.48 116.72 34.58 116.95 34.7 117.11H34.71Z" fill="black"/>
<path d="M123.98 122.33C123.39 122.37 122.77 121.75 122.83 121.18C122.88 120.67 123.28 120.21 123.76 120.1C124.33 119.97 124.96 120.45 125.05 121.09C125.14 121.68 124.62 122.28 123.98 122.33Z" fill="black"/>
<path d="M126.84 158.67C126.74 158.64 126.63 158.63 126.54 158.59C126.01 158.33 125.81 157.8 125.96 157.01C126.05 156.5 126.5 156.16 127.07 156.21C127.25 156.23 127.48 156.34 127.57 156.48C128.01 157.14 127.93 157.85 127.37 158.42C127.24 158.55 127.01 158.59 126.83 158.67H126.84Z" fill="black"/>
<path d="M168.11 123.99C168.16 124.59 167.81 125.17 167.17 125.48C166.85 125.63 166.55 125.51 166.34 125.27C165.81 124.67 165.85 123.85 166.48 123.34C166.69 123.17 167.05 123.1 167.34 123.11C167.68 123.12 168.09 123.66 168.12 124L168.11 123.99Z" fill="black"/>
<path d="M188.44 124.62C188.42 124.71 188.4 124.81 188.37 124.9C188.22 125.29 187.78 125.53 187.38 125.44C186.66 125.27 186.22 124.72 186.35 124.17C186.43 123.84 186.92 123.43 187.23 123.43C187.77 123.42 188.39 124.03 188.44 124.63V124.62Z" fill="black"/>
<path d="M92.76 117.79C92.73 117.27 93.12 116.72 93.57 116.63C94.14 116.52 94.72 117.01 94.83 117.7C94.91 118.24 94.55 118.74 94.03 118.81C93.36 118.89 92.8 118.45 92.76 117.79Z" fill="black"/>
<path d="M113.3 131.95C113.11 131.9 112.88 131.9 112.73 131.79C112.28 131.46 112.14 130.98 112.19 130.45C112.26 129.81 113.05 129.49 113.6 129.88C114.12 130.24 114.32 130.7 114.17 131.17C114.06 131.51 113.65 131.88 113.3 131.96V131.95Z" fill="black"/>
<path d="M173.85 129.97C174.51 129.97 174.86 130.41 174.84 130.83C174.82 131.29 174.57 131.61 174.24 131.88C173.81 132.23 173.08 132.16 172.84 131.77C172.54 131.3 172.56 130.66 172.98 130.36C173.3 130.13 173.71 130.02 173.85 129.96V129.97Z" fill="black"/>
<path d="M24.49 133.67C24.35 133.99 24.26 134.29 24.1 134.54C23.88 134.89 23.25 135.03 23.01 134.83C22.59 134.47 22.54 133.73 22.89 133.1C23.07 132.79 23.7 132.64 23.99 132.9C24.2 133.09 24.32 133.39 24.49 133.66V133.67Z" fill="black"/>
<path d="M186.74 136.1C187.27 136.16 187.71 136.4 188 136.87C188.2 137.2 188.16 137.74 187.9 138.02C187.55 138.41 186.89 138.45 186.51 138.1C186.03 137.65 185.92 137.03 186.25 136.41C186.33 136.26 186.56 136.2 186.74 136.1Z" fill="black"/>
<path d="M44.22 112.71C44.38 112.83 44.61 112.92 44.7 113.08C45.08 113.8 44.82 114.62 44.09 114.9C43.83 115 43.47 114.95 43.19 114.87C42.86 114.77 42.68 114.17 42.89 113.78C43.08 113.43 43.36 113.11 43.65 112.83C43.77 112.71 44.03 112.75 44.23 112.71H44.22Z" fill="black"/>
<path d="M88.45 117.34C88.45 117.46 88.48 117.57 88.45 117.66C88.22 118.39 87.32 118.72 86.66 118.33C86.31 118.12 86.15 117.66 86.28 117.23C86.43 116.77 86.98 116.49 87.57 116.57C87.99 116.63 88.37 116.96 88.45 117.34Z" fill="black"/>
<path d="M148.6 150.86C148.45 151.11 148.38 151.36 148.23 151.44C147.48 151.84 146.58 151.41 146.28 150.54C146.19 150.28 146.3 150.15 146.57 150.07C147.1 149.92 147.62 149.98 148.08 150.23C148.31 150.35 148.44 150.66 148.6 150.87V150.86Z" fill="black"/>
<path d="M137.7 153.92C137.77 154.4 137.38 154.93 136.86 155.07C136.35 155.2 135.74 154.88 135.61 154.42C135.45 153.87 135.95 153.19 136.58 153.08C137.08 152.99 137.62 153.4 137.69 153.92H137.7Z" fill="black"/>
<path d="M198.19 141.03C198.07 141.19 197.94 141.51 197.71 141.63C197.48 141.75 197.09 141.76 196.86 141.64C196.26 141.34 196.03 140.78 196.03 140.12C196.03 139.76 196.54 139.34 196.87 139.42C197.65 139.62 198.16 140.19 198.2 141.03H198.19Z" fill="black"/>
<path d="M118.56 140.67C118.53 140.77 118.52 140.88 118.48 140.97C118.21 141.57 117.76 141.95 117.14 142.17C116.77 142.3 116.31 142 116.23 141.57C116.09 140.78 116.45 140.08 117.15 139.8C117.65 139.59 118.59 140.17 118.56 140.67Z" fill="black"/>
<path d="M224.15 139.65C224.73 139.68 225.2 140.08 225.22 140.55C225.25 141.26 224.55 141.84 223.77 141.75C223.3 141.69 222.86 141.17 222.87 140.67C222.87 140.06 223.45 139.61 224.15 139.65Z" fill="black"/>
<path d="M123.53 139.76C123.72 139.81 123.96 139.81 124.09 139.93C124.84 140.57 124.57 141.88 123.63 142.18C123.47 142.23 123.2 142.16 123.07 142.04C122.45 141.44 122.54 140.41 123.24 139.89C123.32 139.83 123.43 139.81 123.52 139.77L123.53 139.76Z" fill="black"/>
<path d="M169.97 135.44C169.71 135.27 169.42 135.15 169.21 134.94C169.01 134.74 169.21 134.05 169.53 133.85C169.78 133.69 170.07 133.56 170.36 133.5C170.75 133.43 171.12 133.73 171.28 134.15C171.42 134.52 171.24 135.05 170.88 135.2C170.6 135.32 170.29 135.36 169.97 135.44Z" fill="black"/>
<path d="M183.16 135.35C182.74 135.32 182.36 134.96 182.32 134.56C182.26 133.98 182.62 133.49 183.16 133.46C183.37 133.45 183.58 133.48 183.78 133.52C184.13 133.58 184.57 134.11 184.58 134.41C184.58 134.71 184.16 135.21 183.78 135.28C183.57 135.32 183.36 135.34 183.16 135.36V135.35Z" fill="black"/>
<path d="M16.54 148.17C16.29 148.04 16.08 147.99 15.95 147.85C15.82 147.71 15.72 147.5 15.71 147.31C15.69 146.91 15.62 146.47 16.07 146.22C16.5 145.98 17.3 146.07 17.49 146.37C17.68 146.68 17.6 147.54 17.29 147.81C17.08 147.99 16.77 148.07 16.54 148.17Z" fill="black"/>
<path d="M184.64 140.78C184.55 141.26 184.16 141.6 183.75 141.68C183.18 141.78 182.62 141.52 182.49 141.07C182.39 140.73 182.59 140.2 182.89 139.98C183.3 139.69 183.94 139.71 184.29 140.09C184.48 140.3 184.55 140.61 184.63 140.78H184.64Z" fill="black"/>
<path d="M77.38 128.26C76.94 128.24 76.57 128.09 76.38 127.69C76.3 127.53 76.28 127.26 76.37 127.13C76.73 126.59 77.38 126.41 77.96 126.72C78.19 126.84 78.43 127.18 78.43 127.42C78.43 127.66 78.16 127.94 77.95 128.12C77.82 128.24 77.57 128.21 77.38 128.25V128.26Z" fill="black"/>
<path d="M40.53 125.12C39.98 125.14 39.6 124.82 39.23 124.45C39.03 124.24 39.04 123.87 39.26 123.65C39.85 123.07 40.7 123.21 41.01 123.95C41.09 124.13 41.1 124.35 41.11 124.55C41.13 124.87 40.82 125.18 40.53 125.12Z" fill="black"/>
<path d="M17.7 154.04C17.7 154.52 17.52 155.02 17.08 155.33C16.86 155.48 16.46 155.55 16.22 155.45C15.99 155.35 15.76 155.01 15.72 154.74C15.63 154.04 16.01 153.58 16.63 153.28C17.12 153.04 17.71 153.42 17.69 154.04H17.7Z" fill="black"/>
<path d="M137.43 139.89C137.7 140.04 138.05 140.13 138.19 140.35C138.33 140.57 138.32 140.92 138.28 141.21C138.25 141.39 138.07 141.56 137.94 141.71C137.5 142.19 137 142.21 136.62 141.79C136.25 141.37 136.23 140.81 136.64 140.41C136.85 140.2 137.14 140.09 137.44 139.9L137.43 139.89Z" fill="black"/>
<path d="M110.77 141.89C110.56 141.88 110.35 141.9 110.16 141.84C109.75 141.71 109.41 141.48 109.32 141.02C109.23 140.6 109.62 140.12 110.21 139.89C110.62 139.73 111.07 140 111.14 140.43C111.23 140.98 111.11 141.46 110.78 141.89H110.77Z" fill="black"/>
<path d="M134.14 132.1C133.91 132.06 133.8 132.07 133.71 132.03C133.3 131.86 132.94 131.58 132.91 131.14C132.89 130.88 133.09 130.52 133.31 130.36C133.73 130.05 134.35 130.2 134.72 130.6C135.04 130.94 135.12 131.44 134.82 131.72C134.61 131.92 134.3 132.01 134.13 132.1H134.14Z" fill="black"/>
<path d="M181.44 137.49C181.5 137.84 181.16 138.32 180.8 138.4C180.17 138.54 179.47 138.08 179.46 137.52C179.45 137.09 179.98 136.55 180.43 136.53C180.88 136.51 181.36 136.96 181.44 137.49Z" fill="black"/>
<path d="M19.65 138.54C19.19 138.51 18.81 138.14 18.84 137.75C18.88 137.24 19.32 136.73 19.81 136.65C20.26 136.58 20.77 137.14 20.76 137.68C20.76 138.2 20.27 138.58 19.66 138.53L19.65 138.54Z" fill="black"/>
<path d="M141.07 145.36C140.37 145.33 139.88 144.93 139.83 144.46C139.79 144.11 140.21 143.63 140.58 143.61C141.22 143.58 141.79 144.22 141.59 144.83C141.51 145.07 141.21 145.23 141.08 145.36H141.07Z" fill="black"/>
<path d="M168.44 137.36C168.32 137.62 168.26 137.83 168.13 137.99C167.77 138.45 167.16 138.51 166.79 138.13C166.53 137.86 166.46 137.28 166.65 136.99C166.92 136.58 167.64 136.37 168.01 136.66C168.22 136.83 168.31 137.15 168.43 137.37L168.44 137.36Z" fill="black"/>
<path d="M120.42 138.32C120.27 138.19 120 138.03 119.84 137.79C119.62 137.47 119.9 137.2 120.07 136.95C120.34 136.57 120.75 136.48 121.17 136.45C121.58 136.42 121.97 136.87 121.88 137.28C121.74 137.98 121.24 138.36 120.41 138.32H120.42Z" fill="black"/>
<path d="M113.78 138.81C113.05 138.54 112.6 137.78 112.8 137.09C112.85 136.91 113.04 136.66 113.18 136.65C113.46 136.62 113.86 136.63 114.03 136.8C114.52 137.29 114.56 137.91 114.28 138.55C114.18 138.77 114.04 138.87 113.78 138.82V138.81Z" fill="black"/>
<path d="M191.19 140.46C191.24 140.99 190.79 141.57 190.32 141.58C189.98 141.58 189.54 141.17 189.48 140.76C189.4 140.23 189.84 139.66 190.33 139.66C190.7 139.66 191.17 140.09 191.19 140.45V140.46Z" fill="black"/>
<path d="M131.36 141.3C131.28 141.81 130.79 142.2 130.24 142.18C129.7 142.16 129.26 141.66 129.33 141.16C129.41 140.63 129.92 140.22 130.43 140.27C131 140.33 131.43 140.81 131.35 141.31L131.36 141.3Z" fill="black"/>
<path d="M23.46 148.63C23.36 148.62 23.25 148.62 23.15 148.58C22.68 148.4 22.53 147.56 22.85 146.9C23.01 146.57 23.63 146.31 23.93 146.48C24.02 146.53 24.11 146.59 24.18 146.66C24.53 147.01 24.46 147.42 24.34 147.83C24.22 148.28 23.9 148.53 23.45 148.62L23.46 148.63Z" fill="black"/>
<path d="M96.7 122.23C96.61 122.19 96.49 122.16 96.42 122.1C95.92 121.6 95.85 121.06 96.19 120.41C96.33 120.14 96.73 120.03 97 120.19C97.38 120.41 97.63 120.72 97.62 121.18C97.61 121.64 97.38 121.96 96.98 122.17C96.9 122.21 96.8 122.22 96.7 122.24V122.23Z" fill="black"/>
<path d="M117.83 120.08C117.69 120.08 118.05 120.29 118.25 120.69C118.33 120.85 118.34 121.11 118.26 121.26C118.05 121.65 117.56 121.84 117.19 121.69C116.79 121.53 116.45 121.29 116.36 120.82C116.3 120.48 116.78 120.07 117.82 120.07L117.83 120.08Z" fill="black"/>
<path d="M197.95 133.97C197.99 134.49 197.63 134.95 197.09 135.05C196.71 135.12 196.26 134.78 196.21 134.39C196.14 133.86 196.49 133.43 197.07 133.33C197.51 133.26 197.92 133.56 197.95 133.97Z" fill="black"/>
<path d="M164.42 121.2C164.34 121.77 163.93 122.13 163.38 122.13C162.92 122.13 162.52 121.51 162.63 120.97C162.71 120.6 163.16 120.19 163.49 120.18C163.98 120.16 164.48 120.72 164.42 121.2Z" fill="black"/>
<path d="M156.86 146.77C157.05 146.83 157.25 146.87 157.43 146.95C157.67 147.05 157.79 147.51 157.66 147.75C157.45 148.14 157.09 148.32 156.69 148.44C156.25 148.57 155.78 148.4 155.64 148.06C155.44 147.6 155.74 146.99 156.25 146.86C156.45 146.81 156.65 146.8 156.85 146.78L156.86 146.77Z" fill="black"/>
<path d="M33.86 110.37C34.3 110.37 34.73 110.48 34.93 110.88C35.05 111.12 35.03 111.47 34.99 111.76C34.95 112.02 34.55 112.13 34.19 111.95C33.83 111.77 33.48 111.55 33.16 111.3C32.91 111.11 33 110.61 33.27 110.53C33.47 110.47 33.66 110.42 33.86 110.37Z" fill="black"/>
<path d="M126.93 138.22C126.25 138.17 125.75 137.65 125.82 137.05C125.86 136.66 126.26 136.26 126.61 136.24C127.18 136.21 127.74 136.81 127.71 137.43C127.69 137.8 127.25 138.24 126.93 138.22Z" fill="black"/>
<path d="M30.84 121.79C30.25 121.76 29.88 121.45 29.69 120.91C29.56 120.53 29.84 120.06 30.25 119.94C30.63 119.84 31.06 120.02 31.34 120.38C31.6 120.73 31.64 121.19 31.37 121.52C31.26 121.66 31.02 121.7 30.85 121.79H30.84Z" fill="black"/>
<path d="M187.73 151C187.68 151.44 187.37 151.75 186.91 151.81C186.45 151.87 186.02 151.67 185.9 151.27C185.85 151.1 185.89 150.82 186 150.7C186.41 150.28 186.96 150.2 187.43 150.49C187.58 150.58 187.63 150.83 187.73 151.01V151Z" fill="black"/>
<path d="M201.48 151.32C201.24 151.58 201.07 151.85 200.83 151.99C200.5 152.19 200.22 151.95 200.01 151.71C199.57 151.21 199.64 150.63 200.13 150.38C200.45 150.22 200.76 150.27 200.99 150.5C201.19 150.71 201.3 151.01 201.48 151.31V151.32Z" fill="black"/>
<path d="M157.66 127.54C157.72 128.27 156.93 128.87 156.22 128.62C155.89 128.5 155.66 127.94 155.81 127.6C156.06 127.04 156.77 126.77 157.34 127.07C157.49 127.15 157.56 127.38 157.66 127.54Z" fill="black"/>
<path d="M141.63 137.72C141.53 137.88 141.46 138.1 141.31 138.2C140.77 138.58 140.08 138.31 139.89 137.67C139.73 137.16 140.2 136.61 140.69 136.71C141.25 136.83 141.66 137.28 141.63 137.71V137.72Z" fill="black"/>
<path d="M160.11 138.28C159.71 138.19 159.46 137.75 159.58 137.33C159.72 136.8 160.29 136.48 160.77 136.66C161.03 136.76 161.24 137.15 161.18 137.41C161.04 137.99 160.56 138.39 160.1 138.28H160.11Z" fill="black"/>
<path d="M29.94 135.24C29.84 135.1 29.63 134.89 29.53 134.64C29.41 134.36 29.67 134 29.98 133.96C30.38 133.91 30.79 133.93 31.19 133.96C31.44 133.98 31.6 134.52 31.44 134.72C31.09 135.14 30.65 135.36 29.95 135.23L29.94 135.24Z" fill="black"/>
<path d="M24.45 141.14C24.5 141.37 24.41 141.55 24.16 141.6C23.45 141.75 22.85 141.42 22.76 140.79C22.73 140.61 22.82 140.37 22.95 140.24C23.06 140.12 23.33 140.03 23.47 140.08C24.14 140.32 24.29 140.52 24.46 141.14H24.45Z" fill="black"/>
<path d="M160.83 131.61C160.53 131.48 160.23 131.4 160 131.22C159.88 131.13 159.8 130.81 159.87 130.68C160.2 130.05 161.29 130.04 161.71 130.65C161.79 130.77 161.77 131.11 161.67 131.19C161.44 131.38 161.14 131.47 160.84 131.61H160.83Z" fill="black"/>
<path d="M193.5 130.39C193.83 130.36 194.3 130.75 194.34 131.11C194.4 131.6 193.99 132.07 193.45 132.11C193.06 132.14 192.61 131.78 192.61 131.43C192.61 130.94 193.04 130.44 193.5 130.39Z" fill="black"/>
<path d="M178.32 134.29C178.32 134.73 177.76 135.24 177.28 135.23C176.8 135.23 176.24 134.71 176.25 134.28C176.25 133.85 176.82 133.34 177.29 133.33C177.76 133.33 178.32 133.84 178.32 134.28V134.29Z" fill="black"/>
<path d="M224.36 135.07C223.78 135.07 223.35 134.66 223.36 134.12C223.36 133.76 223.82 133.39 224.25 133.39C224.65 133.39 225.06 133.79 225.08 134.19C225.1 134.61 224.73 135.09 224.37 135.07H224.36Z" fill="black"/>
<path d="M24.48 161.38C24.33 161.81 23.92 162.02 23.5 161.88C23.05 161.73 22.81 161.34 22.92 160.93C23.06 160.39 23.71 160.04 24.12 160.29C24.45 160.49 24.62 161 24.49 161.38H24.48Z" fill="black"/>
<path d="M212.82 157.7C212.84 157.28 213.19 156.91 213.57 156.91C214.15 156.91 214.65 157.27 214.67 157.71C214.69 158.14 214.21 158.62 213.7 158.69C213.24 158.75 212.8 158.25 212.82 157.7Z" fill="black"/>
<path d="M136.16 133.38C136.91 133.31 137.4 133.68 137.64 134.41C137.73 134.69 137.4 135.04 137.08 135C136.51 134.93 136.07 134.63 135.9 134.1C135.83 133.89 136.08 133.59 136.16 133.38Z" fill="black"/>
<path d="M190.61 135.17C189.98 135.17 189.41 134.5 189.62 133.94C189.67 133.8 189.93 133.64 190.09 133.65C190.67 133.67 190.99 133.98 191.14 134.56C191.21 134.83 190.91 135.17 190.6 135.17H190.61Z" fill="black"/>
<path d="M217.05 133.84C217.46 133.79 217.87 134.1 217.9 134.47C217.94 134.93 217.67 135.26 217.24 135.28C216.77 135.3 216.37 135.03 216.37 134.67C216.37 134.23 216.65 133.89 217.05 133.84Z" fill="black"/>
<path d="M158.38 134.77C158.43 135.16 158.1 135.62 157.74 135.68C157.23 135.76 156.85 135.39 156.78 134.75C156.74 134.4 156.94 134.16 157.24 134.05C157.73 133.87 158.32 134.26 158.39 134.77H158.38Z" fill="black"/>
<path d="M130.3 120.11C130.84 120.15 131.24 120.68 131.12 121.17C131.01 121.61 130.69 121.82 130.2 121.81C129.84 121.81 129.52 121.36 129.54 120.92C129.56 120.49 129.94 120.08 130.3 120.11Z" fill="black"/>
<path d="M110.16 121.86C109.96 121.77 109.66 121.69 109.44 121.51C109.33 121.42 109.34 121.12 109.39 120.94C109.52 120.53 109.91 120.34 110.36 120.46C110.65 120.54 110.95 120.67 110.97 121.05C110.99 121.38 110.84 121.63 110.54 121.77C110.45 121.81 110.34 121.82 110.15 121.86H110.16Z" fill="black"/>
<path d="M89.98 120.01C90.56 119.96 90.98 120.21 91.23 120.72C91.4 121.07 91.1 121.6 90.71 121.64C90.2 121.69 89.71 121.4 89.47 120.91C89.29 120.55 89.58 120.04 89.98 120V120.01Z" fill="black"/>
<path d="M134.09 124.14C134.16 124.54 133.82 124.99 133.46 124.98C132.96 124.96 132.39 124.51 132.48 124.1C132.53 123.85 132.77 123.58 133 123.45C133.42 123.21 134 123.62 134.09 124.15V124.14Z" fill="black"/>
<path d="M171.11 127.61C171.19 128.15 170.82 128.64 170.32 128.65C169.96 128.65 169.59 128.26 169.57 127.86C169.55 127.45 169.86 127.04 170.24 127.01C170.7 126.97 171.05 127.21 171.11 127.61Z" fill="black"/>
<path d="M84.61 127.7C84.48 128.05 84.41 128.36 84.26 128.62C84.07 128.96 83.44 128.95 83.18 128.62C82.88 128.25 82.87 127.85 83.03 127.44C83.18 127.05 83.76 126.79 84.06 127C84.29 127.16 84.42 127.45 84.6 127.68L84.61 127.7Z" fill="black"/>
<path d="M170.53 146.9C171.06 146.83 171.45 147.12 171.5 147.52C171.55 147.91 171.18 148.34 170.82 148.31C170.45 148.28 170.05 147.88 170.12 147.51C170.17 147.27 170.41 147.06 170.52 146.9H170.53Z" fill="black"/>
<path d="M223.74 154.86C223.39 154.84 223.02 154.41 223.01 154.01C223 153.61 223.35 153.16 223.7 153.14C224.23 153.11 224.61 153.54 224.56 154.13C224.52 154.57 224.16 154.89 223.74 154.86Z" fill="black"/>
<path d="M217.03 148.99C216.64 148.95 216.33 148.53 216.36 148.09C216.39 147.69 216.8 147.36 217.23 147.39C217.63 147.42 217.93 147.82 217.89 148.28C217.86 148.67 217.42 149.03 217.03 148.99Z" fill="black"/>
<path d="M207.67 158.09C207.65 158.64 207 159.03 206.57 158.72C206.43 158.62 206.33 158.38 206.32 158.2C206.3 157.86 206.51 157.63 206.83 157.5C207.24 157.34 207.7 157.65 207.68 158.08L207.67 158.09Z" fill="black"/>
<path d="M161.41 144.38C161.34 144.92 160.95 145.28 160.55 145.28C160.26 145.28 159.95 144.93 160 144.65C160.08 144.2 160.48 143.78 160.83 143.88C161.07 143.95 161.25 144.24 161.4 144.38H161.41Z" fill="black"/>
<path d="M113.58 125.21C113.49 125.04 113.27 124.8 113.24 124.54C113.19 124.11 113.61 123.83 114.11 123.87C114.44 123.9 114.65 124.21 114.55 124.53C114.38 125.09 114.07 125.36 113.57 125.21H113.58Z" fill="black"/>
<path d="M147.74 117.84C147.76 118.19 147.29 118.65 146.94 118.59C146.6 118.53 146.4 118.3 146.32 117.98C146.21 117.57 146.54 117.09 146.92 117.07C147.26 117.05 147.72 117.48 147.74 117.84Z" fill="black"/>
<path d="M80.64 124.17C80.64 124.68 80.16 125.1 79.8 124.98C79.48 124.88 79.29 124.62 79.28 124.29C79.27 123.86 79.78 123.41 80.1 123.59C80.34 123.73 80.5 124.01 80.64 124.16V124.17Z" fill="black"/>
<path d="M226.81 150.58C227 150.66 227.26 150.7 227.34 150.85C227.41 150.97 227.31 151.25 227.2 151.38C227.08 151.52 226.84 151.62 226.66 151.62C226.48 151.62 226.22 151.5 226.14 151.36C226.07 151.24 226.14 150.95 226.26 150.83C226.38 150.7 226.62 150.67 226.81 150.59V150.58Z" fill="black"/>
<path d="M122.61 133.87C122.65 133.47 123.03 133.04 123.36 133.04C123.68 133.04 124.09 133.5 124.12 133.87C124.14 134.25 123.76 134.63 123.35 134.65C122.94 134.67 122.58 134.28 122.62 133.87H122.61Z" fill="black"/>
<path d="M171.04 153.94C170.87 154.21 170.75 154.48 170.55 154.67C170.49 154.73 170.2 154.55 170.02 154.46C169.94 154.42 169.85 154.34 169.81 154.25C169.73 154.07 169.59 153.86 169.63 153.69C169.69 153.43 169.85 153.16 170.03 152.96C170.08 152.91 170.43 153.03 170.55 153.16C170.74 153.37 170.86 153.64 171.03 153.93L171.04 153.94Z" fill="black"/>
<path d="M224.37 146.7C224.58 146.96 224.81 147.15 224.93 147.39C225.06 147.65 224.8 147.94 224.47 148.06C224.14 148.18 223.87 148.06 223.6 147.9C223.34 147.76 223.26 147.33 223.51 147.13C223.73 146.95 224.03 146.87 224.37 146.7Z" fill="black"/>
<path d="M150.63 127.03C151.12 127.11 151.57 127.52 151.61 127.83C151.65 128.13 151.11 128.61 150.76 128.59C150.24 128.56 149.77 127.9 150.02 127.48C150.15 127.26 150.46 127.14 150.62 127.02L150.63 127.03Z" fill="black"/>
<path d="M96.81 127.12C97.2 127.16 97.54 127.62 97.43 128.02C97.35 128.33 97.15 128.59 96.81 128.62C96.45 128.66 96.03 128.24 96.01 127.85C95.98 127.46 96.41 127.08 96.81 127.12Z" fill="black"/>
<path d="M91.15 128.18C91 128.37 90.86 128.64 90.63 128.78C90.41 128.91 90.06 128.62 90 128.28C89.96 128.09 89.99 127.87 90.05 127.69C90.15 127.37 90.61 127.29 90.8 127.56C90.92 127.73 91 127.92 91.16 128.19L91.15 128.18Z" fill="black"/>
<path d="M153.62 131.2C153.24 131.15 153.01 130.76 153.1 130.31C153.17 129.94 153.71 129.54 153.96 129.73C154.17 129.89 154.34 130.19 154.37 130.45C154.41 130.84 153.94 131.24 153.62 131.2Z" fill="black"/>
<path d="M217.88 141C217.78 141.14 217.67 141.45 217.46 141.55C217 141.78 216.5 141.39 216.42 140.81C216.39 140.56 216.7 140.22 216.99 140.21C217.41 140.19 217.78 140.47 217.88 141Z" fill="black"/>
<path d="M207.39 149.98C207.75 150 208.22 150.42 208.21 150.73C208.21 151.02 207.72 151.47 207.38 151.5C207.03 151.52 206.6 151.1 206.6 150.73C206.6 150.36 207.01 149.96 207.39 149.98Z" fill="black"/>
<path d="M203.69 127.99C203.52 127.85 203.24 127.71 203.11 127.48C202.94 127.17 203.26 126.62 203.62 126.47C203.85 126.38 204.23 126.63 204.31 126.92C204.41 127.3 204.15 127.82 203.69 127.98V127.99Z" fill="black"/>
<path d="M190.01 127.91C189.48 127.86 189.12 127.26 189.35 126.8C189.39 126.72 189.51 126.6 189.58 126.61C189.86 126.66 190.22 126.66 190.37 126.84C190.53 127.02 190.54 127.39 190.51 127.66C190.5 127.76 190.19 127.83 190.01 127.91Z" fill="black"/>
<path d="M210.67 147.07C210.76 147.33 210.91 147.57 210.93 147.83C210.95 148.14 210.75 148.4 210.42 148.4C210.26 148.4 209.97 148.25 209.96 148.14C209.93 147.87 209.98 147.57 210.1 147.33C210.16 147.2 210.43 147.17 210.67 147.07Z" fill="black"/>
<path d="M131 147.71C130.79 147.81 130.54 148 130.26 148.04C129.88 148.09 129.57 147.55 129.69 147.12C129.77 146.84 130.14 146.6 130.41 146.65C130.76 146.7 131.12 147.27 130.99 147.72L131 147.71Z" fill="black"/>
<path d="M87.01 131.15C86.88 131.02 86.67 130.9 86.63 130.74C86.54 130.41 86.77 130.17 87.02 129.99C87.23 129.84 87.42 129.89 87.55 130.08C87.78 130.43 87.65 130.96 87.31 131.13C87.23 131.17 87.11 131.13 87 131.13L87.01 131.15Z" fill="black"/>
<path d="M133.71 137.3C133.84 137.44 134.02 137.56 134.09 137.73C134.25 138.11 134.02 138.67 133.72 138.78C133.52 138.86 133.14 138.62 133 138.32C132.81 137.92 132.97 137.51 133.41 137.33C133.5 137.29 133.61 137.31 133.72 137.3H133.71Z" fill="black"/>
<path d="M151.49 139.33C151.6 139.62 151.74 139.9 151.8 140.2C151.92 140.76 151.56 141.23 150.98 141.24C150.82 141.24 150.63 141.09 150.5 140.97C150.33 140.8 150.4 140.62 150.58 140.43C150.91 140.08 151.57 140.02 151.5 139.34L151.49 139.33Z" fill="black"/>
<path d="M154.51 144.1C154.4 144.27 154.33 144.5 154.18 144.59C154.02 144.68 153.77 144.69 153.58 144.65C153.32 144.59 153.09 144.11 153.22 143.9C153.32 143.74 153.5 143.58 153.68 143.53C154.19 143.38 154.62 143.7 154.51 144.1Z" fill="black"/>
<path d="M127.01 144.91C126.7 144.94 126.38 144.64 126.49 144.39C126.6 144.15 126.79 143.91 127 143.75C127.09 143.68 127.42 143.74 127.49 143.84C127.81 144.3 127.55 144.85 127.01 144.91Z" fill="black"/>
<path d="M221.26 144.13C221.26 144.56 220.88 144.95 220.53 144.86C220.23 144.79 219.99 144.65 219.96 144.28C219.92 143.78 220.09 143.51 220.53 143.39C220.88 143.3 221.26 143.69 221.26 144.12V144.13Z" fill="black"/>
<path d="M150.05 121.74C149.95 121.57 149.69 121.31 149.72 121.11C149.75 120.89 150.05 120.58 150.26 120.56C150.45 120.54 150.79 120.8 150.88 121.01C151.01 121.33 150.55 121.76 150.05 121.75V121.74Z" fill="black"/>
<path d="M133.89 118.57C133.42 118.59 132.97 118.16 132.96 117.8C132.95 117.43 133.42 116.97 133.76 117.02C134.12 117.07 134.51 117.58 134.38 117.94C134.29 118.2 134.03 118.4 133.89 118.56V118.57Z" fill="black"/>
<path d="M129.46 126.96C130.14 126.99 130.48 127.29 130.34 127.63C130.23 127.92 130.04 128.13 129.71 128.15C129.25 128.17 128.85 127.82 128.97 127.44C129.04 127.22 129.33 127.08 129.46 126.96Z" fill="black"/>
<path d="M13.46 171.84C13.18 171.61 12.89 171.47 12.76 171.24C12.6 170.94 13.13 170.41 13.47 170.56C13.71 170.66 14.01 170.95 14.02 171.17C14.03 171.36 13.69 171.58 13.45 171.84H13.46Z" fill="black"/>
<path d="M127.4 124.16C127.3 124.32 127.23 124.56 127.08 124.63C126.8 124.76 126.42 124.5 126.41 124.17C126.41 124 126.57 123.81 126.68 123.65C126.7 123.62 126.89 123.66 126.97 123.72C127.13 123.85 127.26 124.01 127.4 124.16Z" fill="black"/>
<path d="M227.33 137.98C227.1 138.1 226.87 138.22 226.63 138.34C226.56 138.18 226.41 138.01 226.43 137.85C226.47 137.5 226.8 137.28 227.03 137.43C227.16 137.51 227.2 137.74 227.33 137.98Z" fill="black"/>
<path d="M161.15 124.19C160.93 124.46 160.79 124.71 160.58 124.84C160.36 124.98 160.07 124.67 160.07 124.3C160.07 124.01 160.12 123.65 160.44 123.66C160.66 123.66 160.87 123.96 161.15 124.18V124.19Z" fill="black"/>
<path d="M13.15 158.07C12.97 157.95 12.7 157.84 12.55 157.64C12.39 157.43 12.6 157.02 12.85 156.92C13.21 156.77 13.68 157.01 13.72 157.39C13.76 157.76 13.51 157.89 13.15 158.07Z" fill="black"/>
<path d="M197.02 128.23C196.67 128.19 196.45 127.86 196.64 127.64C196.75 127.51 196.95 127.4 197.12 127.38C197.37 127.35 197.66 127.81 197.51 127.99C197.4 128.12 197.19 128.15 197.02 128.22V128.23Z" fill="black"/>
<path d="M177.57 127.66C177.43 127.75 177.21 127.96 176.96 128.03C176.84 128.06 176.61 127.87 176.5 127.73C176.31 127.47 176.46 127.14 176.79 127.08C176.98 127.05 177.19 127.05 177.37 127.1C177.62 127.16 177.69 127.33 177.56 127.66H177.57Z" fill="black"/>
<path d="M84.04 114.63C83.9 114.77 83.73 115.02 83.49 115.15C83.27 115.27 82.92 114.86 83 114.55C83.05 114.36 83.19 114.16 83.34 114.04C83.54 113.89 84.02 114.23 84.04 114.63Z" fill="black"/>
<path d="M143.04 121.03C143.21 120.7 143.3 120.42 143.48 120.21C143.65 120.02 144.16 120.24 144.14 120.51C144.12 120.78 144.05 121.16 143.86 121.28C143.71 121.37 143.36 121.14 143.03 121.03H143.04Z" fill="black"/>
<path d="M116.91 135.05C116.79 134.81 116.65 134.58 116.58 134.34C116.57 134.3 116.89 134.11 117.06 134.09C117.37 134.06 117.55 134.37 117.41 134.69C117.35 134.82 117.14 134.89 116.91 135.05Z" fill="black"/>
<path d="M173.47 124.83C173.31 124.74 173.09 124.68 173.01 124.55C172.85 124.28 173.01 123.91 173.29 123.82C173.57 123.72 173.92 123.92 173.98 124.21C174.05 124.51 173.82 124.79 173.47 124.84V124.83Z" fill="black"/>
<path d="M26.74 137.03C27.04 137.04 27.32 137.37 27.21 137.64C27.14 137.81 26.97 137.98 26.8 138.04C26.54 138.13 26.12 137.81 26.09 137.55C26.07 137.3 26.42 137.01 26.74 137.02V137.03Z" fill="black"/>
<path d="M194.36 137.31C194.26 137.46 194.19 137.69 194.04 137.75C193.69 137.91 193.21 137.38 193.38 137.02C193.45 136.88 193.67 136.74 193.84 136.72C194.17 136.68 194.38 136.94 194.36 137.3V137.31Z" fill="black"/>
<path d="M228.08 130.87C228.17 131.16 227.99 131.39 227.59 131.47C227.27 131.54 226.98 131.35 226.94 131.04C226.9 130.72 227.08 130.48 227.43 130.39C227.74 130.31 227.95 130.47 228.08 130.87Z" fill="black"/>
<path d="M214.05 130.77C213.98 131.12 213.64 131.37 213.44 131.18C213.25 131 213.16 130.72 213.02 130.48C213.19 130.4 213.35 130.26 213.52 130.25C213.89 130.23 214.11 130.47 214.05 130.78V130.77Z" fill="black"/>
<path d="M220.7 131.09C220.58 131.24 220.48 131.45 220.33 131.52C220.05 131.64 219.67 131.32 219.79 131.08C219.87 130.92 220.09 130.75 220.24 130.75C220.4 130.75 220.55 130.97 220.7 131.1V131.09Z" fill="black"/>
<path d="M120.85 131.18C120.67 131.25 120.49 131.32 120.31 131.4C120.24 131.22 120.11 131.05 120.12 130.87C120.13 130.59 120.35 130.49 120.56 130.67C120.7 130.79 120.76 131.01 120.85 131.18Z" fill="black"/>
<path d="M217.19 154.3C217.28 154.15 217.33 153.92 217.46 153.86C217.75 153.72 218.09 153.93 218.08 154.24C218.08 154.41 217.97 154.63 217.83 154.74C217.63 154.89 217.27 154.63 217.2 154.3H217.19Z" fill="black"/>
<path d="M204.56 154.12C204.41 154.23 204.27 154.41 204.12 154.42C203.95 154.42 203.69 154.3 203.64 154.16C203.6 154.04 203.74 153.78 203.87 153.68C204 153.58 204.28 153.52 204.39 153.6C204.51 153.69 204.51 153.94 204.56 154.13V154.12Z" fill="black"/>
<path d="M214.15 144.09C214.05 144.22 213.97 144.41 213.85 144.45C213.64 144.51 213.34 144.07 213.42 143.84C213.45 143.76 213.55 143.69 213.64 143.67C213.97 143.57 214.18 143.75 214.15 144.09Z" fill="black"/>
<path d="M84.37 120.83C84.12 120.99 83.98 121.16 83.84 121.16C83.46 121.17 83.26 120.87 83.41 120.58C83.46 120.49 83.59 120.37 83.63 120.38C83.87 120.5 84.1 120.65 84.38 120.82L84.37 120.83Z" fill="black"/>
<path d="M230.73 128.05C230.38 128.14 230.17 127.98 230.12 127.68C230.09 127.52 230.17 127.23 230.28 127.19C230.59 127.07 230.78 127.29 230.9 127.56C231 127.79 230.95 127.95 230.74 128.05H230.73Z" fill="black"/>
<path d="M184.48 127.59C184.41 127.94 184.05 128.18 183.84 127.99C183.72 127.88 183.64 127.6 183.69 127.46C183.74 127.32 184 127.19 184.16 127.2C184.27 127.2 184.37 127.45 184.47 127.59H184.48Z" fill="black"/>
<path d="M143.82 141.25L143.74 141.05L143.93 141.07L143.82 141.25Z" fill="black"/>
<path d="M230.16 134.62C230 134.51 229.83 134.4 229.67 134.29C229.84 134.18 230 134 230.17 133.99C230.32 133.99 230.48 134.19 230.63 134.3C230.56 134.38 230.51 134.49 230.43 134.54C230.36 134.59 230.25 134.59 230.16 134.62Z" fill="black"/>
<path d="M200.67 137.96C200.64 138.03 200.63 138.15 200.59 138.16C200.4 138.22 200.31 138.12 200.37 137.9C200.39 137.83 200.49 137.79 200.55 137.73C200.59 137.8 200.63 137.88 200.67 137.95V137.96Z" fill="black"/>
<path d="M110.02 126.94C110.16 127.03 110.36 127.08 110.42 127.21C110.52 127.41 110.4 127.61 110.15 127.66C110.08 127.68 109.91 127.55 109.92 127.49C109.92 127.32 109.99 127.14 110.03 126.95L110.02 126.94Z" fill="black"/>
<path d="M217.16 127.7L217.05 127.89L217 127.67L217.16 127.7Z" fill="black"/>
<path d="M140.28 124.57C140.25 124.65 140.23 124.79 140.18 124.8C139.97 124.86 139.87 124.74 139.94 124.49C139.96 124.43 140.06 124.39 140.13 124.34C140.18 124.42 140.23 124.49 140.28 124.57Z" fill="black"/>
<path d="M40.19 110.06C40.26 110.24 40.34 110.43 40.38 110.62C40.38 110.68 40.24 110.76 40.16 110.83C40.09 110.65 40 110.46 39.97 110.27C39.97 110.21 40.11 110.13 40.19 110.06Z" fill="black"/>
<path d="M113.82 117.77L113.57 117.83L113.61 117.64L113.82 117.77Z" fill="black"/>
<path d="M127.04 117.64C127.06 117.7 127.08 117.75 127.1 117.81C127.03 117.83 126.91 117.89 126.88 117.86C126.74 117.71 126.8 117.63 127.04 117.65V117.64Z" fill="black"/>
<path d="M140.25 117.44C140.2 117.51 140.15 117.59 140.09 117.66C139.93 117.48 139.95 117.32 140.14 117.19C140.18 117.27 140.21 117.36 140.25 117.44Z" fill="black"/>
<path d="M200.77 130.62C200.77 130.69 200.81 130.79 200.78 130.88C200.71 131.12 200.53 131.23 200.43 131.09C200.33 130.96 200.33 130.75 200.33 130.57C200.33 130.51 200.48 130.39 200.55 130.4C200.62 130.4 200.69 130.53 200.77 130.62Z" fill="black"/>
<path d="M187.07 130.97C187.18 131.08 187.39 131.21 187.37 131.29C187.34 131.44 187.17 131.55 187.06 131.68C186.99 131.61 186.9 131.54 186.86 131.46C186.77 131.23 186.86 131.06 187.07 130.98V130.97Z" fill="black"/>
<path d="M203.72 147.5C203.77 147.56 203.88 147.66 203.87 147.69C203.75 147.93 203.62 147.92 203.54 147.66C203.54 147.63 203.66 147.55 203.72 147.5Z" fill="black"/>
<path d="M147.15 124.04L147.22 124.27L147.01 124.23L147.15 124.04Z" fill="black"/>
<path d="M126.96 131.17C126.88 131.24 126.77 131.39 126.73 131.37C126.43 131.23 126.44 131.06 126.75 130.95C126.79 130.94 126.89 131.09 126.96 131.17Z" fill="black"/>
<path d="M210.62 134.12C210.68 134.12 210.76 134.1 210.8 134.14C210.96 134.27 210.92 134.41 210.68 134.51C210.65 134.52 210.54 134.39 210.52 134.31C210.51 134.26 210.58 134.19 210.62 134.13V134.12Z" fill="black"/>
<path d="M187.19 144.37L187.27 144.6L187.05 144.57L187.19 144.37Z" fill="black"/>
<path d="M37.02 120.82L37.08 120.99L36.92 120.97L37.02 120.82Z" fill="black"/>
</g>
<defs>
<clipPath id="clip0_296_4094">
<rect width="257" height="213" fill="white"/>
</clipPath>
</defs>
</svg>
