<?xml version="1.0" encoding="utf-8"?>
<!-- Generator: Adobe Illustrator 27.0.0, SVG Export Plug-In . SVG Version: 6.00 Build 0)  -->
<svg version="1.1" id="Layer_1" xmlns="http://www.w3.org/2000/svg" xmlns:xlink="http://www.w3.org/1999/xlink" x="0px" y="0px"
	 viewBox="0 0 772 259" style="enable-background:new 0 0 772 259;" xml:space="preserve">
<style type="text/css">
	.st0{fill:#140A44;}
	.st1{fill:#4975C3;}
</style>
<path class="st0" d="M55.6,162.5v-5.2c-5.5,4.7-9.8,7.1-18.5,7.1c-9.9,0-20.3-5.1-24.1-9.4c-5-6-7.6-16.6-7.6-25.9
	c0-21,13-35.9,31.6-35.9c7.1,0,12.8,1.7,18.1,5.8l0.5-29.7h20.7v93.4L55.6,162.5L55.6,162.5z M53.8,116.7c-2.4-4.5-6.8-7.6-13.9-7.6
	c-7.6,0-14,9.8-14,20.4c0,8.6,5.4,17,12.8,17c10.5,0,16.8-6.6,16.8-14.1C55.5,127.6,55.6,120,53.8,116.7z"/>
<path class="st0" d="M102.1,187c-5.6,5.8-17.4,7.5-30,4.3l4.6-17.9c8.5,2.2,11.4,1.6,11.4-9.4l-0.7-66.7l19.5,0.4V169
	C107,177.3,104.5,184.5,102.1,187L102.1,187z M86,77.4c0-5.8,5.8-11.5,11.3-11.5c5.5,0,11.8,5.8,11.8,11.5c0,5.8-4.7,12.4-11.7,12.4
	C90.8,89.9,86,83,86,77.4L86,77.4z"/>
<path class="st0" d="M166,162.5l-0.5-5.2c-5.1,4.7-9.6,7.6-16.9,7.6c-8.4,0-17.7-3.1-21.3-6.8c-6.5-6.5-9.7-17.7-9.7-29.1
	c0-19,11.7-33.1,30.9-33.1c5.8,0,12.2,1.3,16.9,5.9l0.1-4.5h21.7c0,21.7-0.8,43.5,0,65.2L166,162.5L166,162.5z M162.2,115.3
	c-3-2.7-8-3.8-12.2-3.8c-9.4,0-13.2,8.1-13.2,17.7c0,9.6,5.1,17.3,13.4,18.2c8.9,1,16.1-8.2,16.1-18.5
	C166.3,122.2,164.6,117.2,162.2,115.3L162.2,115.3z"/>
<path class="st0" d="M217.1,102.6c4.7-4.6,7.9-6.8,21-6.8c10.5,0,20.6,12.4,20.6,25.7v41.1c-6.4-0.3-13.2,0.1-20.4,0.3v-40.3
	c0-8.1-4.5-11.7-7.7-11.7c-8.5,0-13.4,5-13.4,13.4l-0.4,37.7l-19.4,0.7V97.3h19.8V102.6L217.1,102.6z"/>
<path class="st0" d="M302.5,176.6c7.3-0.9,13.9-4.7,13.9-14.9v-2.1c-5.5,4.3-11.5,5.4-16.8,5.4c-8.1,0-14.8-1.6-20.2-6
	c-7.6-6.3-12.3-16.4-12.3-34.2c0-13.9,14-28.9,29.6-28.9c7.2,0,13.9,2.1,19.3,6.2l0.4-5.9l20.4,1.3v62.7c0,19.3-15.6,33.5-28.6,33.8
	c-20,1-29.6-5.1-35.2-11.8l14.7-11.4C290.5,175,296.8,177.5,302.5,176.6L302.5,176.6z M301.5,148.7c9.4,0,16.5-6.7,16.5-13.9
	c0-7.2-1-12.3-3.1-15.3c-2.7-4.1-7.9-6.7-13.2-6.7s-8.9,2.9-11.4,6.2c-2.9,3.7-3,8.4-3,11.9C287.2,141.5,292.3,148.7,301.5,148.7z"
	/>
<path class="st0" d="M354,106.2c7.1-6.8,16.5-11.4,27.2-11.4c9.6,0,19.6,2.4,25.7,7.1c4.1,3.7,10.4,17.9,10.4,28.3
	c0,19.8-15.7,35.2-36.3,35.2c-6.2,0-15.5-1.4-18.5-3.3c-11.1-6-17.3-18.7-17.3-32.6C345.2,120.9,349.9,110.3,354,106.2z
	 M380.8,148.4c5,0,10.9-2,13-3.9c3.4-2.9,4.5-8.8,4.5-14.4c0-11-7.2-18.2-17.3-18.2s-16,7.2-16,17.8
	C365,140.3,370.9,148.4,380.8,148.4z"/>
<path class="st0" d="M434.2,102.2c4.7-4.1,16.1-7.6,25.5-7.6c8.5,0,17.4,3.8,22.8,9.8c-3.8,4.1-7.5,7.7-10.2,12.3
	c-5-4.8-7.5-6.2-16.2-5.6c-7.3,0.3-13.1,6.9-13.1,19.1c0,10.1,5.2,16.4,14.7,16.4c6.8,0,9.6-2,15.2-7.6l10.1,9.9
	c-6.7,9.2-14.4,15.1-23.2,15.5c-10.1,0.5-21.9-2.9-26.5-7.1c-6.9-6.2-10.1-17.2-10.1-27C423.1,118.5,426.7,108.4,434.2,102.2
	L434.2,102.2z"/>
<path class="st0" d="M497.4,106.2c7.1-6.8,16.5-11.4,27.2-11.4c9.6,0,19.6,2.4,25.7,7.1c4.1,3.7,10.4,17.9,10.4,28.3
	c0,19.8-15.7,35.2-36.3,35.2c-6.2,0-15.5-1.4-18.5-3.3c-11.1-6-17.3-18.7-17.3-32.6C488.6,120.9,493.4,110.3,497.4,106.2z
	 M524.3,148.4c5,0,10.9-2,13-3.9c3.4-2.9,4.5-8.8,4.5-14.4c0-11-7.2-18.2-17.3-18.2c-10.1,0-16,7.2-16,17.8
	C508.4,140.3,514.3,148.4,524.3,148.4z"/>
<path class="st0" d="M588.7,102.6c4.7-4.6,7.9-6.8,21-6.8c10.5,0,20.6,12.4,20.6,25.7v41.1c-6.4-0.3-13.2,0.1-20.4,0.3v-40.3
	c0-8.1-4.5-11.7-7.7-11.7c-8.5,0-13.4,5-13.4,13.4l-0.4,37.7l-19.4,0.7V97.3h19.8V102.6L588.7,102.6z"/>
<path class="st0" d="M650,142.4c7.6,0,12.4,7.2,11.5,12.2c-1.3,6.5-6.2,10.9-12.8,10.9c-5,0-9.4-5.2-9.4-11.7
	C639.3,149.3,643.6,142.4,650,142.4L650,142.4z"/>
<path class="st0" d="M684.3,112.1v29.8c0,6.7,3.4,10.9,9.4,10.9c4.9,0,6.8-4.4,6.8-8.4v-32.5l15.4,0.1v27.5
	c0,17.9-7.5,25.3-23.1,25.3c-8.4,0-14.3-1.7-18.2-5.8c-2.5-2.6-4.9-9.6-4.9-16.1v-30.3L684.3,112.1L684.3,112.1z"/>
<path class="st0" d="M720.1,153.3l12.3-5.8c3.4,4.4,5.5,5.4,11.1,5.7c2.9,0.1,6.5-2,6.5-5.3c0-4.4-5.4-4.1-11.5-5.7
	c-10.9-2.9-16.1-8-16.1-15.1c0-9.5,8.1-16.4,21.9-16.4c3.2,0,8.9,0.7,12,2c3.6,1.4,6.7,5.2,8,7.8l-10.2,6c-2.6-4-5.7-5.4-9.4-5.4
	c-4.3,0-6.8,3.1-6.8,5.6c0,2.5,2,3.4,9,4.6c14.3,2.9,18.6,7.8,18.6,16.4c0,10.2-7.7,16.8-22.6,16.8
	C733.5,164.6,724.6,162.1,720.1,153.3L720.1,153.3z"/>
<path class="st1" d="M402.1,219c0,18.8-14.5,31.4-34.8,31.4h-18.9v-63h19C392.9,187.4,402.2,200.1,402.1,219L402.1,219z
	 M389.7,215.7c0-10.9-7.1-16.8-17.3-17l-7.4-0.2v37.2l8-0.6C383.2,234.7,389.7,228,389.7,215.7L389.7,215.7z"/>
<path class="st1" d="M408.9,227.2c0-12.7,0-27.4,0.8-39.7c5.7,0.6,11.2,0.8,17.7,0.7l-0.4,30.1c-0.4,16.8,3.9,19.6,10.4,19.6
	c7.1,0,10.8-2.7,10.6-12.4c-0.3-12.7-0.3-25.5-1-38.2l14.6-0.3v40.3c0,7-1.1,12-3.2,14.7c-4.2,5.4-13.9,10.2-22.9,10.2
	s-17.3-3.4-21.5-8.8C410.9,239.6,408.9,234.3,408.9,227.2z"/>
<path class="st1" d="M517.2,206.3c0,8.6-3.4,12.5-9.7,15.8l16,24.1l-14.1,4.2L491.9,225h-7v25.4h-15.3v-63h24.9
	C508.6,187.5,517.2,193.7,517.2,206.3L517.2,206.3z M501.5,205.6c0-6.2-3.8-8.4-9.6-7.5l-8.1,0.4v15.6l7.6-0.1
	C498.1,213.6,501.5,210.9,501.5,205.6L501.5,205.6z"/>
<path class="st1" d="M544.5,210.7h20.9l0.9-23.2h14.8c0.6,20.7,0.8,41.7,0.6,63l-14.7,0.3l-1.8-29l-20.2,0.4l0.8,28.3h-17l1-63h13.8
	L544.5,210.7z"/>
<path class="st1" d="M627,187l18.7,63.4h-12.5l-4.9-12.7h-19.8l-5.5,12.7H585c8.3-21.7,17-42.7,26.5-63L627,187L627,187z M619,206.8
	l-7.5,20.6l13.8-0.3L619,206.8z"/>
<path class="st1" d="M715.9,250.4h-14.9l-1.3-36.6l-12.1,28.9l-7.9-0.3L664.3,216v35.1l-14.4-0.6l0.4-63l12.3-0.1l17.3,33.7
	l19.6-33.6c4.9-0.3,9.7-0.5,14.6-0.4C714.3,208.1,714.9,229.2,715.9,250.4L715.9,250.4z"/>
<g>
	<path class="st1" d="M134.1,74.8V64.6l17-17.5c3.3-3.5,5.9-6.2,7.6-8.2c1.7-2,2.9-3.7,3.6-5.1c0.7-1.4,1-2.7,1-4
		c0-2.3-0.8-4.2-2.3-5.5c-1.5-1.3-3.4-2-5.7-2c-2.3,0-4.4,0.7-6.2,2c-1.8,1.3-3.1,3.4-4,6.1l-11.5-3.7c0.7-3.3,2.1-6.2,4.3-8.6
		c2.2-2.4,4.8-4.3,7.8-5.7c3.1-1.3,6.3-2,9.6-2c4.2,0,7.9,0.7,11.1,2.2c3.2,1.5,5.6,3.5,7.4,6.2c1.8,2.7,2.6,5.8,2.6,9.4
		c0,2.3-0.4,4.5-1.2,6.7c-0.8,2.2-2,4.4-3.6,6.6c-1.6,2.2-3.7,4.7-6.3,7.3l-14.6,15h26.2v11.1H134.1z"/>
	<path class="st1" d="M208.5,75.9c-5,0-9.5-1.4-13.3-4.1c-3.8-2.7-6.8-6.6-9-11.5c-2.2-4.9-3.2-10.7-3.2-17.2
		c0-6.6,1.1-12.3,3.2-17.2c2.1-4.9,5.1-8.7,8.9-11.4s8.3-4.1,13.3-4.1c5.2,0,9.7,1.4,13.5,4.1c3.8,2.7,6.8,6.5,8.9,11.4
		c2.1,4.9,3.2,10.6,3.2,17.1c0,6.5-1.1,12.2-3.2,17.1c-2.1,4.9-5.1,8.7-8.9,11.5C218.1,74.5,213.6,75.9,208.5,75.9z M208.5,63.9
		c2.7,0,4.9-0.8,6.7-2.5c1.8-1.6,3.2-4,4.2-7.1c1-3.1,1.4-6.9,1.4-11.2c0-4.4-0.5-8.1-1.4-11.2c-1-3.1-2.4-5.5-4.2-7.1
		c-1.8-1.6-4.1-2.5-6.8-2.5c-2.6,0-4.8,0.8-6.6,2.5c-1.8,1.6-3.2,4-4.2,7.1c-1,3.1-1.4,6.8-1.4,11.2c0,4.3,0.5,8,1.4,11.1
		c1,3.1,2.4,5.5,4.2,7.2C203.7,63.1,205.9,63.9,208.5,63.9z"/>
	<path class="st1" d="M239.3,74.8V64.6l17-17.5c3.3-3.5,5.9-6.2,7.6-8.2c1.7-2,2.9-3.7,3.6-5.1c0.7-1.4,1-2.7,1-4
		c0-2.3-0.8-4.2-2.3-5.5c-1.5-1.3-3.4-2-5.7-2c-2.3,0-4.4,0.7-6.2,2c-1.8,1.3-3.1,3.4-4,6.1l-11.5-3.7c0.7-3.3,2.1-6.2,4.3-8.6
		c2.2-2.4,4.8-4.3,7.8-5.7c3.1-1.3,6.3-2,9.6-2c4.2,0,7.9,0.7,11.1,2.2c3.2,1.5,5.6,3.5,7.4,6.2c1.8,2.7,2.6,5.8,2.6,9.4
		c0,2.3-0.4,4.5-1.2,6.7c-0.8,2.2-2,4.4-3.6,6.6c-1.6,2.2-3.7,4.7-6.3,7.3l-14.6,15h26.2v11.1H239.3z"/>
	<path class="st1" d="M313.8,74.8V61.2h-28.1V50.2L313,11.4h14v38.7h9.8v11.1H327v13.6H313.8z M295.4,54.9l-2.5-4.8h20.9V21.7l3.3,1
		L295.4,54.9z"/>
</g>
</svg>
