<?xml version="1.0" encoding="UTF-8"?>
<svg id="Layer_1" data-name="Layer 1" xmlns="http://www.w3.org/2000/svg" xmlns:xlink="http://www.w3.org/1999/xlink" viewBox="0 0 587 238">
  <defs>
    <style>
      .cls-1 {
        fill: none;
      }

      .cls-2 {
        clip-path: url(#clippath);
      }

      .cls-3 {
        fill: #140a44;
      }

      .cls-4 {
        fill: #4975c3;
      }
    </style>
    <clipPath id="clippath">
      <rect class="cls-1" x="207.19" y="12.05" width="33.14" height="214.28"/>
    </clipPath>
  </defs>
  <path class="cls-3" d="M94.53,60.71c0,27.72-21.46,46.33-51.53,46.33H15V14.26h28.12c37.67,0,51.4,18.61,51.4,46.47v-.02Zm-18.44-4.82c0-16.01-10.59-24.73-25.63-24.99l-11-.26v54.79l11.9-.92c15.17-.65,24.71-10.53,24.71-28.64l.02,.02Z"/>
  <path class="cls-3" d="M110.83,33.57c9.72-12.15,24.37-21.52,38.23-21.52,17.86,0,27.04,4.23,32.63,21.26l-13.72,7.66c-3.33-6.07-9.87-10.3-16.92-10.3-12.78,0-25.85,11.23-25.04,30.5,.27,12.15,9.2,23.51,21.98,23.51,7.2,0,13.44-3.43,19.44-9.51l15.44,18.37c-9.6,10.3-20.52,15.73-29.97,15.73-26.91,0-49.56-18.49-49.56-47.94,0-10.3,1.46-20.35,7.45-27.74h.02Z"/>
  <path class="cls-3" d="M15,189.12c0-18.93,0-40.78,1.21-59.19,8.55,.93,16.95,1.19,26.68,1.05l-.67,44.85c-.67,24.99,5.88,29.21,15.74,29.21,10.8,0,16.28-4.07,16.01-18.42-.54-18.93-.54-38-1.46-56.95l22.01-.54v59.98c0,10.4-1.61,17.88-4.79,21.97-6.27,8.01-20.95,15.25-34.54,15.25s-26.14-4.99-32.41-13.15c-4.67-5.65-7.73-13.42-7.73-24.07l-.04,.02Z"/>
  <path class="cls-3" d="M107.78,205.74l17.55-10.6c1.43,3.81,5.11,7.98,7.73,9.05,3.01,1.43,7.08,1.96,10.47,1.96,6.16,0,12.56-4.05,12.56-9.44,0-2.35-.78-4.71-2.09-5.89-3.15-2.5-9.94-6.55-17.67-8.64-17.94-4.58-25.14-13.36-25.14-25.81,0-6.55,1.31-10.87,4.46-14.41,6.01-6.94,17.94-12.83,28.8-12.83,11.66,0,27.23,6.43,32.58,17.81-4.71,3.01-12.05,6.28-18.59,9.43-1.31-4.05-4.71-6.82-6.42-7.86-2.74-1.58-5.11-2.09-8.51-2.09-5.62,0-9.82,2.35-9.82,8.78s5.62,9.56,15.18,12.32c8.24,2.23,13.87,4.46,19.51,7.98,6.01,3.93,10.08,13.1,10.08,21.08,0,19.77-16.75,29.74-36.39,29.74-13.36,0-28.92-5.63-34.3-20.57v-.02Z"/>
  <g class="cls-2">
    <path class="cls-4" d="M239.33,12.05l.23,42.83-1.74,42.81,.43,42.79,.82,42.83,.11,42.71-31.99,.32,.23-43.03,.93-42.81,1.25-42.81-.66-42.81-1.17-42.65,31.55-.18Z"/>
  </g>
  <g>
    <path class="cls-3" d="M366.41,137.5c7.99-8.17,14.52-15.76,19.58-22.78,5.06-7.01,8.83-13.94,11.32-20.78,2.48-6.83,3.73-13.81,3.73-20.91,0-11.19-2.76-20.95-8.26-29.3-5.51-8.35-13.23-14.83-23.18-19.45-9.95-4.62-21.49-6.93-34.63-6.93-10.48,0-20.51,2.09-30.1,6.26-9.59,4.18-17.76,10.08-24.51,17.72-6.75,7.64-11.19,16.61-13.32,26.91l35.96,11.72c2.66-8.52,6.83-14.87,12.52-19.05,5.68-4.17,12.16-6.26,19.45-6.26s13.01,2.09,17.72,6.26c4.7,4.17,7.06,9.9,7.06,17.18,0,4.09-1.02,8.26-3.06,12.52-2.04,4.26-5.77,9.55-11.19,15.85-5.42,6.31-13.37,14.88-23.84,25.71l-53.28,54.88v31.97h134.53v-34.63h-82.05l45.56-46.89Z"/>
    <path class="cls-3" d="M541.36,141.77V20.55h-43.96l-85.25,121.21v34.63h87.91v42.62h41.29v-42.62h30.64v-34.63h-30.64Zm-89.02,0l47.73-70.67v70.67h-47.73Z"/>
  </g>
</svg>