<svg width="426" height="211" viewBox="0 0 426 211" fill="none" xmlns="http://www.w3.org/2000/svg">
<g clip-path="url(#clip0_296_4363)">
<path d="M2.66 208.02C2.66 208.02 2.66 208.03 2.67 208.03H2.68L2.66 208.02ZM30.25 180.23C30.25 180.23 30.18 180.14 30.15 180.09C30.11 180.04 30.08 180 30.04 179.95V179.97C29.98 179.89 29.92 179.8 29.86 179.72C29.86 179.84 29.87 179.96 29.87 180.09V180.4L30 180.26L30.26 180.57V180.23H30.25ZM106.08 70.26L105.58 70.14L104.58 69.91L102.85 69.5L100.71 69C94.98 67.8 89.1 67.09 83.23 67.37C82.5 67.39 81.76 67.35 81.03 67.44L78.84 67.64C77.39 67.8 75.91 67.85 74.48 68.16L70.14 68.92L65.88 70.02C60.25 71.66 54.77 73.88 49.68 76.82C48.24 77.67 46.83 78.56 45.46 79.51C49.74 76.6 54.37 74.18 59.22 72.35C70.32 68.11 82.47 66.54 94.28 67.99C97.22 68.4 100.16 68.88 103.03 69.65L104.9 70.1L106 70.36C106 70.36 106.06 70.4 106.09 70.4L106.11 70.35C106.11 70.35 106.15 70.26 106.08 70.26ZM222.13 136.68C222.09 136.73 222.06 136.79 222.04 136.86C222.04 136.88 222.02 136.9 222.01 136.92C221.99 136.96 221.98 137.01 221.96 137.05C222.05 136.89 222.13 136.74 222.22 136.59C222.18 136.61 222.16 136.64 222.13 136.68ZM217.54 143.99C217.4 144.09 217.26 144.19 217.11 144.29C217.33 144.18 217.53 144.04 217.73 143.87C217.67 143.91 217.6 143.95 217.54 143.99ZM222.13 136.68C222.09 136.73 222.06 136.79 222.04 136.86C222.04 136.88 222.02 136.9 222.01 136.92C221.99 136.96 221.98 137.01 221.96 137.05C222.05 136.89 222.13 136.74 222.22 136.59C222.18 136.61 222.16 136.64 222.13 136.68ZM217.54 143.99C217.4 144.09 217.26 144.19 217.11 144.29C217.33 144.18 217.53 144.04 217.73 143.87C217.67 143.91 217.6 143.95 217.54 143.99ZM222.13 136.68C222.09 136.73 222.06 136.79 222.04 136.86C222.04 136.88 222.02 136.9 222.01 136.92C221.99 136.96 221.98 137.01 221.96 137.05C222.05 136.89 222.13 136.74 222.22 136.59C222.18 136.61 222.16 136.64 222.13 136.68ZM217.54 143.99C217.4 144.09 217.26 144.19 217.11 144.29C217.33 144.18 217.53 144.04 217.73 143.87C217.67 143.91 217.6 143.95 217.54 143.99ZM203.56 134.05L202.19 133.94C202.14 134.1 202.07 134.29 202.05 134.33C202.04 134.35 202.04 134.36 202.04 134.36C202.04 134.36 202.04 134.38 201.93 134.39L201.31 134.44C201.19 134.45 201.03 134.48 200.9 134.5L200.57 134.57C200.43 134.6 200.3 134.62 200.07 134.7C199.87 134.78 199.54 134.93 199.23 135.25C198.94 135.58 198.81 135.96 198.76 136.17C198.71 136.41 198.7 136.57 198.69 136.71C198.69 136.83 198.68 137.04 198.69 137.23C198.7 137.42 198.74 137.61 198.8 137.79C198.91 138.13 198.97 138.23 199.03 138.37C199.06 138.44 199.05 138.44 199.1 138.52C199.14 138.58 199.17 138.65 199.2 138.71L200.07 137.81L200.49 138.21C200.42 137.85 200.15 137.42 200.15 137.09C200.15 136.17 200.31 136.12 201.17 135.98C201.62 135.9 202.07 135.94 202.47 135.84C202.96 135.73 203.38 135.42 203.62 134.45C203.63 134.44 203.63 134.42 203.63 134.41C203.61 134.29 203.59 134.17 203.56 134.05ZM204.94 133.58C204.91 133.33 204.88 133.08 204.87 132.83C204.87 132.81 204.87 132.79 204.86 132.77C204.85 132.61 204.84 132.44 204.83 132.28C204.22 132.22 203.66 132.41 203.47 132.8C203.39 132.97 203.4 133.16 203.43 133.34C203.46 133.58 203.51 133.82 203.56 134.05L205.01 134.16C204.98 133.97 204.96 133.78 204.94 133.58ZM210.06 144.16C210 144.04 209.83 143.89 209.6 143.68C209.46 143.55 209.3 143.41 209.12 143.25L209.14 143.14L209.09 143.12C209.01 143.13 208.94 143.14 208.87 143.14C208.86 143.16 208.85 143.19 208.85 143.21C208.77 143.39 208.7 143.57 208.66 143.76L209.27 144.01C209.43 144.09 209.66 144.12 209.76 144.25L209.93 144.76L210.03 145.03L210.49 144.99L210.07 144.16H210.06ZM222.13 136.68C222.09 136.73 222.06 136.79 222.04 136.86C222.04 136.88 222.02 136.9 222.01 136.92C221.99 136.96 221.98 137.01 221.96 137.05C222.05 136.89 222.13 136.74 222.22 136.59C222.18 136.61 222.16 136.64 222.13 136.68ZM221.94 134.4C221.94 134.4 221.85 134.48 221.75 134.52C221.54 134.61 221.18 134.68 220.71 134.62V134.67L220.69 134.65C220.63 134.66 220.58 134.66 220.52 134.67C220.52 134.67 220.48 134.67 220.47 134.67C220.54 135.07 220.77 135.42 221.1 135.65C220.51 136.57 220.04 137.5 219.62 138.39L220.15 137.39C220.35 137.02 220.55 136.65 220.77 136.29L220.85 136.15L220.99 135.92L221.3 135.44L221.61 134.96L221.76 134.72C221.76 134.72 221.92 134.7 222 134.7L221.94 134.4ZM217.54 143.99C217.4 144.09 217.26 144.19 217.11 144.29C217.33 144.18 217.53 144.04 217.73 143.87C217.67 143.91 217.6 143.95 217.54 143.99ZM222.13 136.68C222.09 136.73 222.06 136.79 222.04 136.86C222.04 136.88 222.02 136.9 222.01 136.92C221.99 136.96 221.98 137.01 221.96 137.05C222.05 136.89 222.13 136.74 222.22 136.59C222.18 136.61 222.16 136.64 222.13 136.68ZM221.94 134.4C221.94 134.4 221.85 134.48 221.75 134.52C221.54 134.61 221.18 134.68 220.71 134.62V134.67L220.69 134.65C220.63 134.66 220.58 134.66 220.52 134.67C220.52 134.67 220.48 134.67 220.47 134.67C220.54 135.07 220.77 135.42 221.1 135.65C220.51 136.57 220.04 137.5 219.62 138.39L220.15 137.39C220.35 137.02 220.55 136.65 220.77 136.29L220.85 136.15L220.99 135.92L221.3 135.44L221.61 134.96L221.76 134.72C221.76 134.72 221.92 134.7 222 134.7L221.94 134.4ZM217.54 143.99C217.4 144.09 217.26 144.19 217.11 144.29C217.33 144.18 217.53 144.04 217.73 143.87C217.67 143.91 217.6 143.95 217.54 143.99ZM210.06 144.16C210 144.04 209.83 143.89 209.6 143.68C209.46 143.55 209.3 143.41 209.12 143.25L209.14 143.14L209.09 143.12C209.01 143.13 208.94 143.14 208.87 143.14C208.86 143.16 208.85 143.19 208.85 143.21C208.77 143.39 208.7 143.57 208.66 143.76L209.27 144.01C209.43 144.09 209.66 144.12 209.76 144.25L209.93 144.76L210.03 145.03L210.49 144.99L210.07 144.16H210.06ZM204.94 133.58C204.91 133.33 204.88 133.08 204.87 132.83C204.87 132.81 204.87 132.79 204.86 132.77C204.85 132.61 204.84 132.44 204.83 132.28C204.22 132.22 203.66 132.41 203.47 132.8C203.39 132.97 203.4 133.16 203.43 133.34C203.46 133.58 203.51 133.82 203.56 134.05L205.01 134.16C204.98 133.97 204.96 133.78 204.94 133.58ZM203.56 134.05L202.19 133.94C202.14 134.1 202.07 134.29 202.05 134.33C202.04 134.35 202.04 134.36 202.04 134.36C202.04 134.36 202.04 134.38 201.93 134.39L201.31 134.44C201.19 134.45 201.03 134.48 200.9 134.5L200.57 134.57C200.43 134.6 200.3 134.62 200.07 134.7C199.87 134.78 199.54 134.93 199.23 135.25C198.94 135.58 198.81 135.96 198.76 136.17C198.71 136.41 198.7 136.57 198.69 136.71C198.69 136.83 198.68 137.04 198.69 137.23C198.7 137.42 198.74 137.61 198.8 137.79C198.91 138.13 198.97 138.23 199.03 138.37C199.06 138.44 199.05 138.44 199.1 138.52C199.14 138.58 199.17 138.65 199.2 138.71L200.07 137.81L200.49 138.21C200.42 137.85 200.15 137.42 200.15 137.09C200.15 136.17 200.31 136.12 201.17 135.98C201.62 135.9 202.07 135.94 202.47 135.84C202.96 135.73 203.38 135.42 203.62 134.45C203.63 134.44 203.63 134.42 203.63 134.41C203.61 134.29 203.59 134.17 203.56 134.05ZM267.9 83.47C267.34 83.94 266.76 84.36 266.24 84.86C265.22 85.77 264.24 86.71 263.28 87.69C264.05 86.95 265 86.1 265.87 85.32C266.77 84.41 267.72 83.78 268.64 82.87L267.9 83.47ZM292.16 205.31C292.16 205.31 292.24 205.34 292.29 205.35C292.3 205.35 292.32 205.36 292.34 205.36V205.33C292.29 205.33 292.23 205.33 292.16 205.31ZM306.67 163.7C306.34 163.7 306.07 163.96 306.06 164.3H306.66H306.69H307.28C307.28 163.96 307.01 163.69 306.67 163.69V163.7ZM306.22 207.82L306.45 207.84L307.04 207.91C307.21 207.92 307.46 208.02 307.45 207.82H306.22ZM307.43 206.4V206.48C307.43 206.48 307.52 206.43 307.58 206.41C307.53 206.41 307.48 206.41 307.43 206.4ZM312.79 207.82C313.55 207.86 314.39 207.88 315.3 207.88C315.82 207.87 316.35 207.85 316.88 207.82H312.79ZM336.55 71.25C336.38 71.19 336.22 71.14 336.05 71.09C336.27 71.16 336.49 71.23 336.71 71.31C336.66 71.29 336.6 71.27 336.55 71.25ZM337.71 71.67C339.19 72.23 340.65 72.83 342.09 73.48C340.65 72.82 339.19 72.22 337.71 71.67ZM255.96 28.21C255.96 28.21 255.89 28.23 255.82 28.22H255.77L255.73 28.21C255.73 28.21 255.73 28.25 255.72 28.27C255.68 28.25 255.64 28.22 255.64 28.22C255.65 28.24 255.68 28.29 255.68 28.34H255.7C255.7 28.34 255.67 28.42 255.66 28.45L255.47 29.06L253.92 33.93L250.82 43.67L250.04 46.1L249.73 47.07L249.58 47.56H249.59L255.73 28.35C255.76 28.35 255.79 28.36 255.8 28.37C255.8 28.37 255.82 28.33 255.87 28.29C255.88 28.27 255.96 28.22 255.96 28.22C255.98 28.2 256 28.2 255.96 28.21ZM114.17 51.86L114.09 51.77L113.54 51.19L113.33 50.98L113.19 51.45L113.02 51.97L112.62 52.01L112.26 52.04C112.26 52.04 112.21 52.04 112.21 52.05L112.25 52.09L112.81 52.68L112.99 52.11L114.29 51.98L114.17 51.86ZM199.79 125.87C198.06 126.36 196.31 126.82 194.54 127.16L193.84 127.27L192.65 127.43C191.7 127.55 190.77 127.66 189.84 127.77L189.56 127.81L187.77 128.04L187.61 128.06L187.66 128.1H187.82L187.99 128.25L189.81 128.05H189.84L190.03 128.03C190.5 127.98 190.97 127.92 191.43 127.85C192.37 127.72 193.3 127.56 194.22 127.38C197 126.85 199.74 126.12 202.42 125.2C202.43 125.2 202.45 125.19 202.46 125.18C201.58 125.44 200.67 125.63 199.79 125.87ZM216.27 48.69C215.59 48.69 214.92 48.69 214.24 48.7C218.36 48.7 222.48 48.71 226.6 48.72C227.19 48.72 227.79 48.71 228.38 48.7H216.27V48.69ZM238.26 48.63C234.97 48.66 231.67 48.68 228.38 48.7L243.01 48.72C241.52 48.62 239.85 48.62 238.26 48.63ZM222.13 136.68C222.09 136.73 222.06 136.79 222.04 136.86C222.04 136.88 222.02 136.9 222.01 136.92C221.99 136.96 221.98 137.01 221.96 137.05C222.05 136.89 222.13 136.74 222.22 136.59C222.18 136.61 222.16 136.64 222.13 136.68ZM221.94 134.4C221.94 134.4 221.85 134.48 221.75 134.52C221.54 134.61 221.18 134.68 220.71 134.62V134.67L220.69 134.65C220.63 134.66 220.58 134.66 220.52 134.67C220.52 134.67 220.48 134.67 220.47 134.67C220.54 135.07 220.77 135.42 221.1 135.65C220.51 136.57 220.04 137.5 219.62 138.39L220.15 137.39C220.35 137.02 220.55 136.65 220.77 136.29L220.85 136.15L220.99 135.92L221.3 135.44L221.61 134.96L221.76 134.72C221.76 134.72 221.92 134.7 222 134.7L221.94 134.4ZM217.54 143.99C217.4 144.09 217.26 144.19 217.11 144.29C217.33 144.18 217.53 144.04 217.73 143.87C217.67 143.91 217.6 143.95 217.54 143.99ZM210.06 144.16C210 144.04 209.83 143.89 209.6 143.68C209.46 143.55 209.3 143.41 209.12 143.25L209.14 143.14L209.09 143.12C209.01 143.13 208.94 143.14 208.87 143.14C208.86 143.16 208.85 143.19 208.85 143.21C208.77 143.39 208.7 143.57 208.66 143.76L209.27 144.01C209.43 144.09 209.66 144.12 209.76 144.25L209.93 144.76L210.03 145.03L210.49 144.99L210.07 144.16H210.06ZM204.94 133.58C204.91 133.33 204.88 133.08 204.87 132.83C204.87 132.81 204.87 132.79 204.86 132.77C204.85 132.61 204.84 132.44 204.83 132.28C204.22 132.22 203.66 132.41 203.47 132.8C203.39 132.97 203.4 133.16 203.43 133.34C203.46 133.58 203.51 133.82 203.56 134.05L205.01 134.16C204.98 133.97 204.96 133.78 204.94 133.58ZM203.56 134.05L202.19 133.94C202.14 134.1 202.07 134.29 202.05 134.33C202.04 134.35 202.04 134.36 202.04 134.36C202.04 134.36 202.04 134.38 201.93 134.39L201.31 134.44C201.19 134.45 201.03 134.48 200.9 134.5L200.57 134.57C200.43 134.6 200.3 134.62 200.07 134.7C199.87 134.78 199.54 134.93 199.23 135.25C198.94 135.58 198.81 135.96 198.76 136.17C198.71 136.41 198.7 136.57 198.69 136.71C198.69 136.83 198.68 137.04 198.69 137.23C198.7 137.42 198.74 137.61 198.8 137.79C198.91 138.13 198.97 138.23 199.03 138.37C199.06 138.44 199.05 138.44 199.1 138.52C199.14 138.58 199.17 138.65 199.2 138.71L200.07 137.81L200.49 138.21C200.42 137.85 200.15 137.42 200.15 137.09C200.15 136.17 200.31 136.12 201.17 135.98C201.62 135.9 202.07 135.94 202.47 135.84C202.96 135.73 203.38 135.42 203.62 134.45C203.63 134.44 203.63 134.42 203.63 134.41C203.61 134.29 203.59 134.17 203.56 134.05ZM197.59 154.02L197.57 154.07H197.62C197.62 154.07 197.6 154.04 197.59 154.02ZM194.87 140.71L194.93 140.77C194.93 140.77 194.94 140.71 194.95 140.68C194.92 140.69 194.9 140.7 194.87 140.71ZM204.94 133.58C204.91 133.33 204.88 133.08 204.87 132.83C204.87 132.81 204.87 132.79 204.86 132.77C204.85 132.61 204.84 132.44 204.83 132.28C204.22 132.22 203.66 132.41 203.47 132.8C203.39 132.97 203.4 133.16 203.43 133.34C203.46 133.58 203.51 133.82 203.56 134.05L205.01 134.16C204.98 133.97 204.96 133.78 204.94 133.58ZM222.13 136.68C222.09 136.73 222.06 136.79 222.04 136.86C222.04 136.88 222.02 136.9 222.01 136.92C221.99 136.96 221.98 137.01 221.96 137.05C222.05 136.89 222.13 136.74 222.22 136.59C222.18 136.61 222.16 136.64 222.13 136.68ZM221.94 134.4C221.94 134.4 221.85 134.48 221.75 134.52C221.54 134.61 221.18 134.68 220.71 134.62V134.67L220.69 134.65C220.63 134.66 220.58 134.66 220.52 134.67C220.52 134.67 220.48 134.67 220.47 134.67C220.54 135.07 220.77 135.42 221.1 135.65C220.51 136.57 220.04 137.5 219.62 138.39L220.15 137.39C220.35 137.02 220.55 136.65 220.77 136.29L220.85 136.15L220.99 135.92L221.3 135.44L221.61 134.96L221.76 134.72C221.76 134.72 221.92 134.7 222 134.7L221.94 134.4ZM217.54 143.99C217.4 144.09 217.26 144.19 217.11 144.29C217.33 144.18 217.53 144.04 217.73 143.87C217.67 143.91 217.6 143.95 217.54 143.99ZM222.13 136.68C222.09 136.73 222.06 136.79 222.04 136.86C222.04 136.88 222.02 136.9 222.01 136.92C221.99 136.96 221.98 137.01 221.96 137.05C222.05 136.89 222.13 136.74 222.22 136.59C222.18 136.61 222.16 136.64 222.13 136.68ZM221.94 134.4C221.94 134.4 221.85 134.48 221.75 134.52C221.54 134.61 221.18 134.68 220.71 134.62V134.67L220.69 134.65C220.63 134.66 220.58 134.66 220.52 134.67C220.52 134.67 220.48 134.67 220.47 134.67C220.54 135.07 220.77 135.42 221.1 135.65C220.51 136.57 220.04 137.5 219.62 138.39L220.15 137.39C220.35 137.02 220.55 136.65 220.77 136.29L220.85 136.15L220.99 135.92L221.3 135.44L221.61 134.96L221.76 134.72C221.76 134.72 221.92 134.7 222 134.7L221.94 134.4ZM217.54 143.99C217.4 144.09 217.26 144.19 217.11 144.29C217.33 144.18 217.53 144.04 217.73 143.87C217.67 143.91 217.6 143.95 217.54 143.99ZM217.54 143.99C217.4 144.09 217.26 144.19 217.11 144.29C217.33 144.18 217.53 144.04 217.73 143.87C217.67 143.91 217.6 143.95 217.54 143.99ZM222.13 136.68C222.09 136.73 222.06 136.79 222.04 136.86C222.04 136.88 222.02 136.9 222.01 136.92C221.99 136.96 221.98 137.01 221.96 137.05C222.05 136.89 222.13 136.74 222.22 136.59C222.18 136.61 222.16 136.64 222.13 136.68ZM217.54 143.99C217.4 144.09 217.26 144.19 217.11 144.29C217.33 144.18 217.53 144.04 217.73 143.87C217.67 143.91 217.6 143.95 217.54 143.99ZM222.13 136.68C222.09 136.73 222.06 136.79 222.04 136.86C222.04 136.88 222.02 136.9 222.01 136.92C221.99 136.96 221.98 137.01 221.96 137.05C222.05 136.89 222.13 136.74 222.22 136.59C222.18 136.61 222.16 136.64 222.13 136.68ZM217.54 143.99C217.4 144.09 217.26 144.19 217.11 144.29C217.33 144.18 217.53 144.04 217.73 143.87C217.67 143.91 217.6 143.95 217.54 143.99ZM222.13 136.68C222.09 136.73 222.06 136.79 222.04 136.86C222.04 136.88 222.02 136.9 222.01 136.92C221.99 136.96 221.98 137.01 221.96 137.05C222.05 136.89 222.13 136.74 222.22 136.59C222.18 136.61 222.16 136.64 222.13 136.68ZM187.77 128.04L187.61 128.06L187.66 128.1H187.82L187.77 128.04ZM306.67 163.7C306.34 163.7 306.07 163.96 306.06 164.3H306.66H306.69H307.28C307.28 163.96 307.01 163.69 306.67 163.69V163.7Z" fill="black"/>
<path d="M424.82 207.33C424.82 207.33 424.79 207.29 424.77 207.27C424.57 207.01 424.27 206.84 423.92 206.82H423.05C423.05 206.82 422.96 206.8 422.92 206.79C422.59 206.71 422.26 206.64 421.94 206.57C421.28 206.43 420.61 206.3 419.89 206.19C418.44 205.98 416.76 205.82 414.51 205.7C410.01 205.46 403.2 205.38 391.26 205.31C385.32 205.31 379.27 205.29 373.27 205.28H340.49L340.46 205.29H340.49L341.04 205.07L341.32 204.96L341.41 204.92L341.76 204.76L342.47 204.43C344.36 203.56 346.27 202.72 348.07 201.67C348.98 201.17 349.91 200.7 350.81 200.16L353.44 198.49L354.76 197.65L356.03 196.73L358.55 194.89C365.14 189.79 370.84 183.54 375.36 176.53C375.97 175.68 376.46 174.75 376.97 173.84L378.51 171.12L379.85 168.29C380.28 167.34 380.77 166.41 381.1 165.42C381.82 163.46 382.66 161.54 383.17 159.51L384.05 156.51C384.3 155.49 384.49 154.47 384.71 153.45C386.46 145.28 386.63 136.82 385.48 128.57C383.17 112.07 375.39 96.37 363.47 84.69C357.53 78.85 350.55 74.04 342.93 70.64C341.02 69.79 339.07 69.03 337.1 68.35C335.11 67.74 333.13 67.08 331.09 66.63C329.08 66.09 327.02 65.76 324.97 65.37C323.95 65.21 322.91 65.1 321.88 64.97L320.33 64.78L318.77 64.67C310.45 64.02 302.02 64.83 293.96 66.94C289.91 67.96 285.99 69.45 282.17 71.11L279.34 72.46C278.4 72.89 277.51 73.44 276.59 73.93C275.67 74.43 274.75 74.93 273.88 75.5L272.46 76.4L261.64 60.71L255.92 52.24C254.98 50.83 254.05 49.41 253.15 47.99L252.71 47.27C252.71 47.27 252.7 47.25 252.7 47.24L252.78 47L253.56 44.56L256.66 34.79L258.22 29.91L258.41 29.29C258.45 29.17 258.61 28.71 258.61 28.27C258.65 27.34 258.06 26.34 257.33 25.94C256.61 25.5 255.79 25.35 254.94 25.57C254.08 25.77 253.3 26.54 253.05 27.31L247.12 45.85L222.43 45.83L196.65 45.9C179.47 46.02 162.28 46.28 145.09 46.98C140.04 47.2 134.99 47.45 129.94 47.78C127.42 47.93 124.89 48.15 122.37 48.34C121.11 48.42 119.85 48.57 118.58 48.69L117 48.84L122.9 29.68L126.14 19.04L127.76 13.72L128.56 11.06L128.97 9.73L129.17 9.07L129.22 8.9L129.24 8.82L129.26 8.76C129.32 8.77 129.25 8.75 128.98 8.67L128.39 8.48L128.14 8.39C128.3 8.43 128.53 8.49 128.85 8.57C129.08 8.63 129.21 8.66 129.27 8.67H129.29V8.61L129.32 8.53L129.35 8.39C129.37 8.29 129.37 8.2 129.38 8.1C129.52 6.7 128.75 5.28 127.5 4.64C127.34 4.56 127.18 4.48 127.02 4.43C126.93 4.4 126.84 4.36 126.74 4.34L126.57 4.3L125.96 4.17L124.73 3.89C123.1 3.52 121.46 3.18 119.81 2.87C116.52 2.24 113.21 1.72 109.89 1.29C103.24 0.45 96.54 0.01 89.84 0C88.15 0.01 86.6 -0.02 84.75 0.07C82.95 0.19 81.17 0.62 79.5 1.31C76.15 2.68 73.25 5.13 71.37 8.24C70.43 9.8 69.76 11.44 69.25 13.11C68.74 14.78 68.37 16.48 68.13 18.18C67.64 21.59 67.56 25.02 67.82 28.43C67.88 29.28 67.98 30.13 68.08 30.98L68.27 32.26C68.4 32.89 68.67 33.61 69.27 34.16C69.88 34.69 70.65 34.92 71.33 34.92C72.03 34.94 72.65 34.75 73.22 34.44C74.34 33.88 75.22 32.45 75.1 31.12L74.85 28.59C74.78 27.78 74.74 26.98 74.71 26.17C74.66 24.56 74.69 22.93 74.8 21.33C75.03 18.16 75.63 14.97 77.09 12.34C77.82 11.04 78.77 9.91 79.93 9.05C81.08 8.16 82.48 7.64 83.94 7.33C84.31 7.26 84.67 7.16 85.05 7.12L86.18 7.03C86.94 6.96 87.8 7.01 88.6 6.99C90.25 7 91.9 7.03 93.54 7.08C96.83 7.2 100.12 7.4 103.4 7.71C106.68 8.01 109.95 8.41 113.21 8.9C114.84 9.14 116.46 9.42 118.09 9.71L120.51 10.17L121.48 10.36L110.62 46.06L104.98 64.62L104.31 66.81L104.26 66.99C104.26 66.99 104.15 66.97 104.12 66.97L102.02 66.46C101.22 66.28 100.43 66.05 99.61 65.94C97.99 65.68 96.37 65.36 94.73 65.16L89.82 64.71C81.06 64.27 72.24 65.27 63.82 67.74C55.44 70.29 47.44 74.22 40.46 79.57L37.91 81.65C37.49 82.01 37.05 82.34 36.65 82.71L35.46 83.85L33.08 86.13C32.33 86.94 31.61 87.77 30.88 88.59C27.94 91.88 25.53 95.56 23.22 99.28C18.79 106.85 15.7 115.18 14.02 123.78C12.29 132.38 12.21 141.28 13.51 149.94C14.81 158.61 17.54 167.06 21.76 174.8C26.06 182.47 31.78 189.34 38.61 194.87C43.94 199.22 49.92 202.78 56.28 205.4L30.09 205.38H12.81L4.16 205.37H3.08H2.5C2.06 205.4 1.7 205.51 1.35 205.71C0.650004 206.1 0.160004 206.8 0.0300036 207.59C-0.0999964 208.37 0.140004 209.21 0.670004 209.8C0.930004 210.09 1.26 210.33 1.63 210.48C1.81 210.56 2 210.62 2.2 210.65C2.29 210.67 2.41 210.68 2.52 210.69H5.92L75.03 210.72L164.8 210.62L386.92 210.65C402.74 210.65 413.7 210.26 422.05 209.69C422.82 209.64 423.51 209.58 423.92 209.53H423.94C424.73 209.41 425.14 208.74 425.16 208.24C425.18 207.83 425.01 207.52 424.82 207.33ZM2.67 208.03H2.66L2.68 208.02H2.67V208.03ZM342.09 73.48C340.65 72.83 339.19 72.23 337.71 71.67C339.19 72.22 340.65 72.82 342.09 73.48ZM336.55 71.25C336.55 71.25 336.66 71.29 336.71 71.31C336.49 71.23 336.27 71.16 336.05 71.09C336.22 71.14 336.38 71.19 336.55 71.25ZM249.73 47.07L250.04 46.1L250.82 43.67L253.92 33.93L255.47 29.06L255.66 28.45C255.66 28.45 255.69 28.38 255.7 28.34H255.68C255.68 28.34 255.65 28.24 255.64 28.22C255.64 28.22 255.68 28.25 255.72 28.27C255.73 28.25 255.73 28.23 255.73 28.22C255.73 28.22 255.75 28.21 255.77 28.21H255.82C255.89 28.23 255.97 28.2 255.96 28.21C256 28.2 255.98 28.2 255.96 28.22C255.96 28.22 255.88 28.27 255.87 28.29C255.82 28.33 255.8 28.37 255.8 28.37C255.79 28.37 255.76 28.35 255.73 28.35L249.59 47.57H249.58L249.73 47.07ZM216.27 48.69H228.38C231.67 48.68 234.97 48.66 238.26 48.63C239.85 48.62 241.52 48.62 243.01 48.72L228.38 48.7C227.79 48.71 227.19 48.72 226.6 48.72C222.48 48.71 218.36 48.7 214.24 48.7C214.92 48.69 215.59 48.69 216.27 48.69ZM118.48 54.32L119.45 54.23C120.43 54.14 121.41 54.03 122.39 53.97L128.28 53.53L134.18 53.18C144.91 52.6 155.68 52.33 166.44 52.1C173.29 51.96 180.15 51.76 187.01 51.68C203.98 51.5 220.96 51.5 237.94 51.52C241.57 51.53 244.09 51.14 246 50.56C246.49 50.41 246.83 50.26 247.03 50.11H247.26C247.24 50.18 247.22 50.25 247.2 50.31C245.68 50.99 245.23 51.87 243.43 56.71C242.95 57.99 242.51 59.3 242.05 60.6C235.95 78.12 229.29 95.44 222.09 112.54L219.42 118.79L217.06 124.22C217.06 124.22 217.02 124.23 216.99 124.23C216.49 124.09 215.82 123.95 215.24 123.87C214.02 123.68 212.8 123.6 211.57 123.64C210.46 123.68 209.35 123.81 208.26 124.04C208.25 123.84 208.21 123.65 208.16 123.48C207.9 122.59 207.31 121.95 206.5 121.55C206.09 121.36 205.61 121.26 205.15 121.28C204.91 121.3 204.67 121.32 204.47 121.39L204.17 121.5L203.99 121.56C202.35 122.22 200.64 122.82 198.92 123.32C197.2 123.82 195.45 124.24 193.69 124.58C192.81 124.75 191.92 124.9 191.03 125.03C190.59 125.09 190.14 125.15 189.7 125.2L189.03 125.28L187.02 123.33L174.76 111.37C161.82 98.69 149 85.9 136.33 72.94C130.81 67.29 125.32 61.61 119.86 55.9L118.52 54.49C118.47 54.42 118.28 54.3 118.48 54.32ZM222.34 139.29C222.34 139.29 222.34 139.32 222.34 139.33C222.6 139.96 223.16 140.34 223.62 140.37C223.86 140.38 224.04 140.33 224.18 140.25C224.19 140.27 224.21 140.28 224.23 140.29C224.25 140.3 224.26 140.31 224.28 140.32C224.09 140.89 224.07 141.28 224.18 141.6C224.13 141.84 224.09 141.9 224.01 141.93H223.99L223.96 141.95C223.96 141.95 223.96 141.97 223.85 142.07L223.29 142.66C223.02 142.96 222.85 143.27 222.76 143.61C222.67 143.95 222.65 144.33 222.73 144.68C222.82 145.03 222.95 145.34 223.21 145.64L223.88 146.39L224.06 146.58H224.07C224.07 146.58 224.09 146.6 224.09 146.61H224.07L224.04 146.64L223.86 146.78L223.51 147.06L223.17 147.43C222.73 147.91 222.39 148.68 222.34 149.38C222.3 149.75 222.34 150.06 222.37 150.37C222.41 150.61 222.49 150.98 222.5 150.98C222.52 151.04 222.517 151.073 222.49 151.08H222.08C221.79 151.1 221.49 151.12 221.06 151.24C220.67 151.36 220.31 151.56 219.99 151.83C219.84 151.97 219.7 152.13 219.57 152.3C219.42 152.51 219.27 152.79 219.19 152.99C219.11 153.19 219.04 153.39 218.99 153.58C218.94 153.77 218.91 153.95 218.88 154.12L218.85 154.31V154.39L218.77 154.36L218.71 154.34C218.62 154.32 218.54 154.29 218.44 154.27C218.22 154.23 218.05 154.18 217.8 154.17C217.37 154.1 216.71 154.17 216.19 154.4C215.64 154.64 215.22 155.06 214.94 155.4C214.81 155.58 214.7 155.75 214.59 155.92L214.44 156.18L214.41 156.27L214.36 156.22L214.33 156.19L214.14 156.06C213.89 155.89 213.6 155.72 213.28 155.58C212.66 155.29 211.78 155.14 210.98 155.34C210.58 155.42 210.21 155.58 209.91 155.77C209.76 155.84 209.61 155.95 209.47 156.07C209.46 156.03 209.43 155.99 209.4 155.94C209.16 155.54 208.68 155.01 208.1 154.74C207.52 154.46 206.88 154.33 206.27 154.33C205.99 154.33 205.64 154.37 205.44 154.41C205.33 154.43 205.35 154.43 205.34 154.43H205.32L205.23 154.48C205.2 154.48 205.21 154.39 205.2 154.32V154.07C205.17 153.91 205.13 153.74 205.11 153.7C205.06 153.54 205.01 153.39 204.94 153.24C204.81 152.94 204.64 152.64 204.42 152.37C203.96 151.82 203.32 151.46 202.75 151.28C202.47 151.19 202.15 151.13 201.95 151.1H201.74C201.74 151.1 201.77 151 201.78 150.95V150.9L201.88 150.66C202.05 150.19 202.3 149.68 202.28 149.24C202.29 148.79 202.12 148.3 201.83 147.94C201.54 147.58 201.13 147.37 200.63 147.19C199.68 146.8 199.97 146.9 199.83 146.84C199.81 146.81 199.69 146.77 199.75 146.74C199.78 146.71 199.81 146.69 199.83 146.66L199.87 146.61L199.9 146.56L199.97 146.45L200.11 146.21C200.28 145.9 200.43 145.57 200.55 145.23C200.59 145.09 200.69 144.84 200.71 144.55C200.74 144.32 200.74 144.09 200.73 143.86C200.69 143.39 200.54 142.93 200.34 142.55C200.24 142.37 200.14 142.19 200.02 142.04L199.97 141.96C199.97 141.96 199.85 141.85 199.88 141.83C199.92 141.82 199.96 141.8 199.99 141.79H200.01L200.02 141.77L200.03 141.76L200.07 141.73C200.07 141.73 200.11 141.78 200.13 141.8L200.17 141.84L200.55 142.16C201.05 142.58 201.56 142.99 202.09 143.38C203.48 144.39 204.97 145.28 206.53 146.02L207.12 146.29L207.36 146.4H207.37C207.37 146.4 207.39 146.43 207.4 146.47V146.51L207.63 146.9C208.26 147.97 209.25 148.65 210.26 149.03C211.56 149.51 212.99 149.56 214.36 149C215.05 148.75 215.67 148.25 216.18 147.68C216.39 147.36 216.63 147.05 216.77 146.7L216.97 146.18L217.04 145.95V145.93C217.04 145.93 217.05 145.87 217.08 145.87H217.09L217.12 145.85L217.56 145.63C218.21 145.28 218.79 144.83 219.25 144.32C220.21 143.32 220.82 142.21 221.37 141.17C221.7 140.53 222.01 139.9 222.32 139.29H222.34ZM222.24 136.56C222.28 136.5 222.32 136.44 222.36 136.38L222.38 136.47C222.38 136.47 222.33 136.5 222.3 136.52C222.28 136.53 222.26 136.55 222.24 136.56ZM196.2 131.51L195.93 131.86L195.91 131.89L195.89 131.94C195.89 131.94 195.87 131.93 195.86 131.92L195.83 131.9C195.83 131.9 195.88 131.96 195.62 131.71L194.73 130.89L194.29 130.48L194.17 130.38C194.17 130.38 194.16 130.36 194.15 130.35H194.11C194.03 130.28 193.92 130.2 193.84 130.13C193.83 130.12 193.82 130.11 193.82 130.1C193.91 130.09 194.01 130.09 194.1 130.09C194.16 130.09 194.33 130.09 195.15 129.95C196.12 129.79 197.1 129.64 198.06 129.41C198.1 129.4 198.13 129.39 198.17 129.38C198.02 129.51 197.87 129.66 197.72 129.81C197.18 130.35 196.68 130.92 196.2 131.51ZM197.62 154.07H197.57L197.59 154.02C197.59 154.02 197.61 154.06 197.62 154.07ZM194.3 134.42L192.98 133.18L189.03 129.41C189.09 129.4 189.13 129.4 189.19 129.39C189.35 129.54 194.68 134.75 195.39 135.43C195.39 135.43 195.39 135.44 195.38 135.44L194.3 134.42ZM194.95 140.68C194.95 140.68 194.93 140.74 194.93 140.77L194.87 140.71C194.87 140.71 194.92 140.69 194.95 140.68ZM190.95 129.18C190.95 129.18 190.99 129.18 191.01 129.18L191.2 129.37L195.25 133.32L196.11 134.16C196.11 134.16 196.1 134.18 196.09 134.19C193.92 132.11 191.18 129.42 190.95 129.19V129.18ZM194.22 127.38C193.3 127.56 192.37 127.72 191.43 127.85C190.97 127.92 190.5 127.98 190.03 128.03L189.84 128.05H189.81L187.99 128.25L187.82 128.09H187.66L187.61 128.06L187.77 128.04L189.56 127.81L189.84 127.77C190.77 127.66 191.7 127.55 192.65 127.43L193.84 127.27L194.54 127.16C196.31 126.82 198.06 126.36 199.79 125.87C200.67 125.63 201.58 125.44 202.46 125.18C202.45 125.19 202.43 125.2 202.42 125.2C199.74 126.12 197 126.85 194.22 127.38ZM185.16 123.53L188.52 126.8H188.5C187.38 125.72 186.27 124.63 185.16 123.53ZM198.69 136.71C198.7 136.57 198.71 136.41 198.76 136.17C198.81 135.96 198.94 135.58 199.23 135.25C199.54 134.93 199.87 134.78 200.07 134.7C200.3 134.62 200.43 134.6 200.57 134.57L200.9 134.5C201.03 134.48 201.19 134.45 201.31 134.44L201.93 134.39C202.03 134.38 202.04 134.37 202.04 134.37C202.04 134.37 202.04 134.35 202.05 134.33C202.07 134.29 202.14 134.1 202.19 133.94L203.56 134.05C203.51 133.82 203.46 133.58 203.43 133.34C203.4 133.16 203.39 132.97 203.47 132.8C203.66 132.41 204.22 132.22 204.83 132.28V132.25H204.85C206.02 132.31 207.51 133.61 209.22 130.03C209.76 130.52 211.51 131.78 212.19 131.61C213.3 131.38 214.32 130.84 215.14 130.07C215.3 130.42 215.45 130.76 215.61 131.11C214.1 134.48 212.57 137.84 211 141.19C210.49 141.34 210.02 141.62 209.64 142C209.55 141.95 209.46 141.9 209.38 141.84C206.64 140.15 205.44 137.29 205.01 134.16L203.56 134.05C203.59 134.17 203.61 134.29 203.63 134.4C203.63 134.4 203.63 134.44 203.62 134.45C203.38 135.42 202.96 135.73 202.47 135.84C202.07 135.94 201.62 135.9 201.17 135.98C200.31 136.12 200.16 136.17 200.15 137.09C200.15 137.42 200.42 137.85 200.49 138.21L200.07 137.81L199.2 138.71C199.17 138.65 199.14 138.58 199.1 138.52C199.05 138.44 199.06 138.44 199.03 138.37C198.97 138.23 198.91 138.13 198.8 137.79C198.74 137.61 198.7 137.42 198.69 137.23C198.68 137.04 198.69 136.83 198.69 136.71ZM203.54 127.32V127.25L203.56 127.13L203.62 126.47L203.64 126.25C203.64 126.25 203.65 126.24 203.66 126.24C203.63 126.52 203.61 126.83 203.59 127.15C203.59 127.18 203.58 127.22 203.58 127.26V127.3H203.57C203.57 127.3 203.55 127.32 203.54 127.32ZM205.02 126.59C205.05 126.3 205.08 126 205.1 125.73H205.11V126.55C205.11 126.55 205.05 126.58 205.02 126.59ZM220.47 134.64V134.67C220.47 134.67 220.5 134.66 220.52 134.66C220.58 134.66 220.63 134.66 220.69 134.65L220.72 134.67V134.62C221.18 134.68 221.54 134.62 221.75 134.52C221.85 134.48 221.92 134.42 221.94 134.4L222 134.7C221.92 134.7 221.81 134.67 221.76 134.72L221.61 134.96L221.3 135.44L220.99 135.92L220.85 136.15L220.77 136.29C220.55 136.65 220.35 137.02 220.15 137.39L219.62 138.39L219.46 138.7C218.45 140.89 217.64 142.74 215.71 143.43C215.7 143.39 215.68 143.35 215.67 143.31C215.36 142.48 214.75 141.81 213.96 141.42C215.3 138.54 216.62 135.64 217.92 132.74C221.65 131.05 220.27 133.56 220.47 134.64ZM218.09 143.56L217.97 143.68C217.9 143.74 217.83 143.79 217.76 143.85C217.87 143.76 217.98 143.66 218.09 143.56ZM217.73 143.87C217.53 144.04 217.33 144.18 217.11 144.29C217.26 144.19 217.4 144.09 217.54 143.99C217.6 143.95 217.67 143.91 217.73 143.87ZM216.41 144.65C216.23 144.74 216.04 144.83 215.84 144.92C215.84 144.89 215.84 144.87 215.84 144.84C216.04 144.78 216.23 144.73 216.4 144.65H216.41ZM208.82 143.14C208.82 143.14 208.84 143.12 208.84 143.11C208.84 143.11 208.84 143.11 208.86 143.11V143.13C208.93 143.13 209 143.12 209.08 143.11L209.13 143.13L209.11 143.24C209.29 143.4 209.45 143.54 209.59 143.66C209.82 143.88 209.99 144.03 210.05 144.15L210.47 144.98L210.01 145.02L209.91 144.75L209.74 144.24C209.64 144.11 209.41 144.08 209.25 144L208.64 143.75C208.68 143.56 208.75 143.38 208.83 143.2C208.83 143.18 208.83 143.15 208.85 143.13H208.81L208.82 143.14ZM208.26 145.18L208.04 145.2C207.85 145.22 207.68 145.15 207.53 144.98C207.3 144.7 206.91 144.71 206.6 144.55C205.66 144.06 204.77 143.5 203.89 142.9C205.26 143.8 206.73 144.57 208.26 145.18ZM201.71 137.33L201.68 137.28L202.16 137.24C202.32 137.24 202.52 137.2 202.74 137.14C202.89 137.75 203.09 138.35 203.35 138.93C202.99 138.64 202.65 138.34 202.31 138.03L201.99 137.74L201.84 137.6H201.83L201.81 137.59L201.71 137.33ZM200.3 140.06L200.11 139.9H200.12C200.18 139.95 200.24 140 200.3 140.06ZM221.96 137.05C221.96 137.05 221.99 136.96 222.01 136.92C222.02 136.9 222.03 136.88 222.04 136.86C222.06 136.79 222.09 136.73 222.13 136.68C222.16 136.64 222.18 136.61 222.22 136.59C222.13 136.74 222.05 136.89 221.96 137.05ZM115.49 53.23L117.12 54.93L119.41 57.32C125.52 63.68 131.65 70.01 137.82 76.31C144.6 83.24 151.42 90.14 158.27 97C143.82 82.57 129.55 67.99 115.44 53.24C115.46 53.24 115.47 53.24 115.49 53.24V53.23ZM112.26 52.04L112.62 52.01L113.02 51.97L113.19 51.45L113.33 50.98L113.54 51.19L114.09 51.77L114.17 51.86L114.29 51.98L112.99 52.11L112.81 52.68L112.25 52.09L112.21 52.05C112.21 52.05 112.24 52.05 112.26 52.04ZM49.68 76.82C54.77 73.88 60.25 71.66 65.88 70.02L70.14 68.92L74.48 68.16C75.91 67.85 77.39 67.8 78.84 67.64L81.03 67.44C81.76 67.35 82.5 67.39 83.23 67.37C89.1 67.09 94.98 67.8 100.71 69L102.85 69.5L104.58 69.91L105.58 70.14L106.08 70.26C106.15 70.26 106.12 70.3 106.11 70.35L106.09 70.4C106.09 70.4 106.03 70.38 106 70.36L104.9 70.1L103.03 69.65C100.16 68.88 97.22 68.4 94.28 67.99C82.47 66.54 70.32 68.11 59.22 72.35C54.37 74.18 49.74 76.6 45.46 79.51C46.83 78.56 48.24 77.67 49.68 76.82ZM30.26 180.57L30 180.26L29.87 180.4V180.09C29.87 179.96 29.86 179.84 29.86 179.72C29.92 179.8 29.98 179.89 30.04 179.97V179.95C30.04 179.95 30.11 180.04 30.15 180.09L30.24 179.99H30.26V180.57ZM79.44 205C65.67 204.02 52.19 198.83 41.58 190.01C40.48 189.04 39.44 188.16 38.47 187.36C37.51 186.54 36.7 185.71 35.88 185.01C34.48 183.82 33.22 182.47 32.07 181.02C30.23 178.69 28.7 176.1 27.43 173.47C26.82 172.21 25.88 170.74 25.03 168.69C24.57 167.69 24.11 166.67 23.65 165.66C23.25 164.61 22.86 163.56 22.46 162.52C17.26 148.36 17.02 132.5 21.22 118.03C23.33 110.8 26.54 103.85 30.88 97.7C35.21 91.54 40.73 86.24 46.95 82C58.93 73.79 73.62 69.66 88.14 70.25L90.85 70.43C91.76 70.51 92.67 70.5 93.56 70.67C95.36 70.96 97.17 71.16 98.94 71.52L101.6 72.15L102.47 72.35C102.47 72.35 102.54 72.35 102.53 72.38L101.34 76.5C99.29 83.66 97.41 90.84 95.53 98.02L88.35 125.53L85.51 136.43L84.08 141.88L83.73 143.24C83.52 143.97 83.58 144.82 83.88 145.54C84.48 147 86.16 147.92 87.71 147.62C88.49 147.49 89.21 147.09 89.73 146.5C90 146.21 90.2 145.89 90.36 145.51C90.41 145.39 90.45 145.29 90.47 145.18L90.52 144.99L90.61 144.65L91.32 141.93L92.74 136.47L95.59 125.57L107.02 81.98L108.31 77.25L108.98 74.9L109.12 74.43C109.12 74.43 109.13 74.27 109.2 74.32L112.65 75.69C114.11 76.37 115.53 77.1 116.98 77.8C122.64 80.83 127.85 84.68 132.4 89.21C141.52 98.27 147.86 109.99 150.82 122.5L151.47 125.72L151.79 127.33L152 128.96L152.42 132.22C152.52 133.31 152.55 134.4 152.62 135.5C152.91 139.86 152.52 144.24 151.96 148.57C150.68 157.22 147.57 165.56 143.06 173.02C140.11 177.74 136.61 182.11 132.64 186.01C128.61 189.86 124.08 193.17 119.25 195.96C113.25 199.36 106.75 201.91 100.02 203.44C93.29 204.98 86.33 205.5 79.44 205ZM104.3 206.84H103.76C103.95 206.79 104.14 206.74 104.32 206.68C104.47 206.7 104.61 206.72 104.76 206.72C104.58 206.76 104.43 206.8 104.3 206.84ZM256.98 205.43H127.45C120.03 205.43 114.44 205.67 110.01 206.07C111.18 205.71 112.57 205.21 114.33 204.56C114.86 204.38 115.41 204.14 115.97 203.86C116.54 203.59 117.15 203.31 117.79 203.01C119.07 202.4 120.52 201.75 122.04 200.81C125.14 199.11 128.1 197.05 130.94 194.88C140.41 187.44 148.13 177.66 152.8 166.52C157.58 155.41 159.26 143.08 158.05 131.1C156.73 119.13 152.66 107.44 146.05 97.37C144.47 94.8 142.58 92.45 140.73 90.07L137.72 86.71C137.23 86.13 136.68 85.61 136.13 85.09L134.5 83.53C130.1 79.42 125.22 75.8 119.9 72.92C117.3 71.63 114.71 70.28 111.96 69.33L110.9 68.93C110.9 68.93 110.89 68.91 110.89 68.9L110.99 68.57L112.24 64.49L114.63 56.65L114.66 56.55C114.66 56.55 114.7 56.59 114.72 56.61L117.24 59.24C125.13 67.44 133.07 75.6 141.05 83.71C149.04 91.81 157.07 99.87 165.16 107.88L177.32 119.86L183.28 125.68L183.36 125.76L183.4 125.79H183.34L181.24 125.97L175.82 126.41L174.47 126.52L173.79 126.58L173.45 126.6H173.36L173.16 126.64C173.01 126.66 172.86 126.7 172.72 126.76C172.15 126.97 171.67 127.43 171.43 128C171.36 128.14 171.32 128.28 171.29 128.43C171.27 128.51 171.25 128.64 171.24 128.74C171.21 128.95 171.21 129.17 171.23 129.39C171.31 130.26 171.79 131.07 172.49 131.57C172.84 131.82 173.25 132 173.68 132.09C174.08 132.18 174.64 132.13 174.77 132.11L176.13 131.99L178.85 131.75L184.29 131.27L187.01 131.03L188.37 130.91L188.64 130.89C188.64 130.89 188.66 130.89 188.67 130.9L192.34 134.48L193.63 135.74C193.63 135.74 193.62 135.76 193.62 135.77L193.53 135.96C193.31 136.39 193.16 136.86 192.97 137.3C192.28 139.13 191.84 141.06 191.71 143.01C191.44 146.71 192.29 150.45 194.03 153.69C195.75 156.93 198.33 159.7 201.42 161.67C204.51 163.65 208.16 164.8 211.87 164.84C213.71 164.85 215.59 164.64 217.33 164.07C217.77 163.94 218.22 163.85 218.65 163.68L219.92 163.16C220.79 162.85 221.57 162.35 222.37 161.91C228.77 158.22 232.74 150.89 232.52 143.52C232.42 139.83 231.11 136.22 229.14 133.17C228.14 131.65 226.96 130.24 225.6 129C224.92 128.38 224.2 127.82 223.46 127.3C223.09 127.04 222.67 126.77 222.34 126.57L222.21 126.49L224.5 121.21L227.25 114.76C229.07 110.45 230.85 106.12 232.61 101.79C236.1 93.11 239.48 84.39 242.71 75.61C244.45 70.9 246.15 66.17 247.8 61.42L250.24 54.28L250.34 54.01C250.36 53.95 250.38 53.79 250.43 53.92L251.33 55.24L267.91 79.61C267.99 79.68 267.91 79.71 267.85 79.76L266.57 80.86L263.73 83.37C262.79 84.24 261.86 85.02 260.91 86.01C260.01 86.93 259.15 87.88 258.31 88.85C254.95 92.73 252.03 96.98 249.59 101.49C244.7 110.5 241.71 120.5 240.68 130.68C239.98 137.61 240.19 144.64 241.34 151.53C241.92 154.97 242.74 158.38 243.82 161.69C244.41 163.34 244.95 165 245.57 166.63C246.22 168.26 246.93 169.85 247.7 171.42C253.83 184 263.82 194.65 275.99 201.58C278.48 203.01 281.05 204.28 283.7 205.37L256.98 205.43ZM268.64 82.87C267.72 83.78 266.77 84.41 265.87 85.32C265 86.1 264.05 86.95 263.28 87.69C264.24 86.71 265.22 85.77 266.24 84.86C266.76 84.36 267.34 83.94 267.9 83.47L268.64 82.87ZM292.34 205.36C292.34 205.36 292.3 205.35 292.29 205.35C292.24 205.34 292.2 205.32 292.16 205.31C292.23 205.33 292.29 205.33 292.34 205.33V205.36ZM307.04 207.91L306.45 207.84L306.22 207.82H307.45C307.46 208.02 307.21 207.92 307.04 207.91ZM306.06 164.3C306.07 163.96 306.34 163.7 306.67 163.7C307 163.7 307.28 163.97 307.28 164.31H306.69H306.06V164.3ZM315.3 207.88C314.39 207.88 313.55 207.86 312.79 207.82H316.88C316.35 207.85 315.82 207.87 315.3 207.88ZM309.6 206.03C308.64 206.14 307.97 206.27 307.58 206.41C307.52 206.43 307.47 206.45 307.43 206.48V205.58C308.43 203.57 308.59 201.33 308.73 192.24C308.75 189.66 308.76 187.03 308.78 184.43L308.8 171.24V164.65L308.81 164.34C308.81 164.33 308.81 164.12 308.79 164.03C308.73 163.54 308.49 163.09 308.14 162.76C307.44 162.08 306.27 161.98 305.47 162.55C305.07 162.82 304.77 163.22 304.63 163.69C304.56 163.9 304.53 164.23 304.54 164.33V168.66L304.48 195.05V201.65L304.47 204.6C304.47 204.61 304.48 204.64 304.47 204.64L304.2 204.61L301 204.25L297.83 203.65C295.71 203.32 293.66 202.63 291.59 202.08C283.36 199.57 275.72 195.27 269.1 189.81C262.78 184.45 257.53 177.87 253.63 170.57C253.1 169.68 252.73 168.71 252.27 167.78C251.85 166.83 251.37 165.92 251 164.95L249.92 162.04L249.38 160.58L248.96 159.09L248.12 156.11C247.82 155.12 247.65 154.07 247.41 153.06C247.15 152.03 247.05 151.01 246.87 149.99C246.72 148.97 246.49 147.96 246.42 146.92C245.52 138.68 245.86 130.26 247.77 122.17C248.61 118.1 250.03 114.19 251.54 110.33L252.85 107.51L253.5 106.1C253.74 105.64 254 105.19 254.25 104.74L255.76 102.02C256.29 101.13 256.88 100.28 257.44 99.41L258.53 97.75L259.73 96.17L260.94 94.6L261.55 93.82L262.21 93.08L264.86 90.13L267.73 87.4C268.2 86.92 268.7 86.5 269.23 86.09L270.77 84.84L271.15 84.53L271.41 84.9L276.03 91.56C285.78 105.66 295.33 119.87 303.86 134.69C304.93 136.54 305.98 138.4 307 140.27C307.53 141.21 308.04 142.14 308.54 143.09L309.3 144.5L309.68 145.2C309.82 145.45 309.86 145.61 310.22 146.11C310.55 146.52 311.06 146.89 311.64 147.01C312.21 147.14 312.76 147.06 313.23 146.89C314.13 146.53 314.91 145.72 315.05 144.58C315.12 144.02 314.97 143.48 314.76 143.04L314.37 142.31L313.61 140.88C312.6 138.98 311.54 137.11 310.5 135.22C306.27 127.72 301.8 120.37 297.15 113.14C293.55 107.53 289.86 101.99 286.12 96.48L280.48 88.24L275.62 81.21L279.66 78.71L285.13 75.98C287.02 75.24 288.91 74.47 290.82 73.75C292.77 73.19 294.72 72.57 296.68 72.05C304.6 70.13 312.87 69.63 320.95 70.58L324.66 71.1L325.59 71.24L326.5 71.45L328.33 71.87C329.54 72.18 330.78 72.38 331.96 72.77L335.52 73.93C336.11 74.14 336.72 74.29 337.29 74.55L339.01 75.28L342.45 76.76L345.74 78.54L347.39 79.43C347.93 79.73 348.43 80.11 348.96 80.44L352.07 82.51C353.11 83.2 354.03 84.05 355.02 84.81L356.47 85.99C356.97 86.37 357.45 86.77 357.88 87.22L360.55 89.83C364.1 93.34 367.16 97.32 369.78 101.56C376.48 112.37 380.26 125.02 380.43 137.77C380.54 145.64 379.3 153.54 376.68 160.96C374.06 168.37 370.08 175.32 364.92 181.25C354.56 193.13 340.05 201.31 324.53 204.03C317.9 205.21 313.22 205.56 309.61 206.03H309.6Z" fill="black"/>
<path d="M267.9 83.47C267.34 83.94 266.76 84.36 266.24 84.86C265.22 85.77 264.24 86.71 263.28 87.69C264.05 86.95 265 86.1 265.87 85.32C266.77 84.41 267.72 83.78 268.64 82.87L267.9 83.47ZM292.16 205.31C292.16 205.31 292.24 205.34 292.29 205.35C292.3 205.35 292.32 205.36 292.34 205.36V205.33C292.29 205.33 292.23 205.33 292.16 205.31ZM306.67 163.7C306.34 163.7 306.07 163.96 306.06 164.3H306.66H306.69H307.28C307.28 163.96 307.01 163.69 306.67 163.69V163.7ZM306.22 207.82L306.45 207.84L307.04 207.91C307.21 207.92 307.46 208.02 307.45 207.82H306.22ZM312.79 207.82C313.55 207.86 314.39 207.88 315.3 207.88C315.82 207.87 316.35 207.85 316.88 207.82H312.79Z" fill="black"/>
<path d="M30.24 179.99L30.15 180.09C30.15 180.09 30.08 180 30.04 179.95V179.97C29.98 179.89 29.92 179.8 29.86 179.72C29.86 179.84 29.87 179.96 29.87 180.09V180.4L30 180.26L30.26 180.57V179.98H30.24V179.99ZM106.08 70.26L105.58 70.14L104.58 69.91L102.85 69.5L100.71 69C94.98 67.8 89.1 67.09 83.23 67.37C82.5 67.39 81.76 67.35 81.03 67.44L78.84 67.64C77.39 67.8 75.91 67.85 74.48 68.16L70.14 68.92L65.88 70.02C60.25 71.66 54.77 73.88 49.68 76.82C48.24 77.67 46.83 78.56 45.46 79.51C49.74 76.6 54.37 74.18 59.22 72.35C70.32 68.11 82.47 66.54 94.28 67.99C97.22 68.4 100.16 68.88 103.03 69.65L104.9 70.1L106 70.36C106 70.36 106.06 70.4 106.09 70.4L106.11 70.35C106.11 70.35 106.15 70.26 106.08 70.26ZM114.17 51.86L114.09 51.77L113.54 51.19L113.33 50.98L113.19 51.45L113.02 51.97L112.62 52.01L112.26 52.04C112.26 52.04 112.21 52.04 112.21 52.05L112.25 52.09L112.81 52.68L112.99 52.11L114.29 51.98L114.17 51.86ZM137.82 76.31C131.65 70.01 125.52 63.68 119.41 57.32L117.12 54.93L115.49 53.23C115.49 53.23 115.46 53.23 115.44 53.23C129.55 67.98 143.82 82.56 158.27 96.99C151.42 90.13 144.6 83.23 137.82 76.3V76.31ZM185.16 123.53C186.27 124.63 187.38 125.72 188.5 126.8H188.52L185.16 123.53ZM199.79 125.87C198.06 126.36 196.31 126.82 194.54 127.16L193.84 127.27L192.65 127.43C191.7 127.55 190.77 127.66 189.84 127.77L189.56 127.81L187.77 128.04L187.61 128.06L187.66 128.1H187.82L187.99 128.25L189.81 128.05H189.84L190.03 128.03C190.5 127.98 190.97 127.92 191.43 127.85C192.37 127.72 193.3 127.56 194.22 127.38C197 126.85 199.74 126.12 202.42 125.2C202.43 125.2 202.45 125.19 202.46 125.18C201.58 125.44 200.67 125.63 199.79 125.87ZM189.19 129.39C189.13 129.4 189.09 129.4 189.03 129.41L192.98 133.18L194.3 134.42L195.38 135.44L195.39 135.43C194.68 134.75 189.35 129.54 189.19 129.39ZM195.25 133.31L191.2 129.36L191.01 129.17C191.01 129.17 190.97 129.17 190.95 129.17C191.18 129.4 193.92 132.09 196.09 134.17C196.09 134.17 196.09 134.15 196.11 134.14L195.25 133.3V133.31ZM203.56 134.05L202.19 133.94C202.14 134.1 202.07 134.29 202.05 134.33C202.04 134.35 202.04 134.36 202.04 134.36C202.04 134.36 202.04 134.38 201.93 134.39L201.31 134.44C201.19 134.45 201.03 134.48 200.9 134.5L200.57 134.57C200.43 134.6 200.3 134.62 200.07 134.7C199.87 134.78 199.54 134.93 199.23 135.25C198.94 135.58 198.81 135.96 198.76 136.17C198.71 136.41 198.7 136.57 198.69 136.71C198.69 136.83 198.68 137.04 198.69 137.23C198.7 137.42 198.74 137.61 198.8 137.79C198.91 138.13 198.97 138.23 199.03 138.37C199.06 138.44 199.05 138.44 199.1 138.52C199.14 138.58 199.17 138.65 199.2 138.71L200.07 137.81L200.49 138.21C200.42 137.85 200.15 137.42 200.15 137.09C200.15 136.17 200.31 136.12 201.17 135.98C201.62 135.9 202.07 135.94 202.47 135.84C202.96 135.73 203.38 135.42 203.62 134.45C203.63 134.44 203.63 134.42 203.63 134.41C203.61 134.29 203.59 134.17 203.56 134.05ZM210.06 144.16C210 144.04 209.83 143.89 209.6 143.68C209.46 143.55 209.3 143.41 209.12 143.25L209.14 143.14L209.09 143.12C209.01 143.13 208.94 143.14 208.87 143.14C208.86 143.16 208.85 143.19 208.85 143.21C208.77 143.39 208.7 143.57 208.66 143.76L209.27 144.01C209.43 144.09 209.66 144.12 209.76 144.25L209.93 144.76L210.03 145.03L210.49 144.99L210.07 144.16H210.06Z" fill="black"/>
<path d="M292.16 205.31C292.16 205.31 292.24 205.34 292.29 205.35C292.3 205.35 292.32 205.36 292.34 205.36V205.33C292.29 205.33 292.23 205.33 292.16 205.31ZM267.9 83.47C267.34 83.94 266.76 84.36 266.24 84.86C265.22 85.77 264.24 86.71 263.28 87.69C264.05 86.95 265 86.1 265.87 85.32C266.77 84.41 267.72 83.78 268.64 82.87L267.9 83.47ZM197.59 154.02L197.57 154.07H197.62C197.62 154.07 197.6 154.04 197.59 154.02ZM114.17 51.86L114.09 51.77L113.54 51.19L113.33 50.98L113.19 51.45L113.03 51.97L112.99 52.11L114.29 51.98L114.17 51.86ZM185.16 123.53C186.27 124.63 187.38 125.72 188.5 126.8H188.52L185.16 123.53ZM137.82 76.31C131.65 70.01 125.52 63.68 119.41 57.32L117.12 54.93L115.49 53.23C115.49 53.23 115.46 53.23 115.44 53.23C129.55 67.98 143.82 82.56 158.27 96.99C151.42 90.13 144.6 83.23 137.82 76.3V76.31ZM189.74 127.98C189.74 127.98 189.69 127.94 189.67 127.92L189.56 127.81L187.77 128.04L187.61 128.06L187.66 128.1H187.82L187.99 128.25L189.81 128.05H189.84C189.84 128.05 189.77 128 189.74 127.98ZM189.19 129.39C189.13 129.4 189.09 129.4 189.03 129.41L192.98 133.18L194.3 134.42L195.38 135.44L195.39 135.43C194.68 134.75 189.35 129.54 189.19 129.39ZM195.25 133.31L191.2 129.36L191.01 129.17C191.01 129.17 190.97 129.17 190.95 129.17C191.18 129.4 193.92 132.09 196.09 134.17C196.09 134.17 196.09 134.15 196.11 134.14L195.25 133.3V133.31ZM194.87 140.71L194.93 140.77C194.93 140.77 194.94 140.71 194.95 140.68C194.92 140.69 194.9 140.7 194.87 140.71Z" fill="black"/>
<path d="M30.26 179.98V180.57L30 180.26L29.87 180.11C29.93 180.1 30 180.11 30.09 180.16L30.15 180.09L30.24 179.99H30.26V179.98Z" fill="black"/>
<path d="M106.11 70.35L106.09 70.4C106.09 70.4 106.03 70.38 106 70.36L104.9 70.1L103.03 69.65C100.16 68.88 97.22 68.4 94.28 67.99C82.47 66.54 70.32 68.11 59.22 72.35C54.37 74.18 49.74 76.6 45.46 79.51C46.83 78.56 48.24 77.67 49.68 76.82C54.77 73.88 60.25 71.66 65.88 70.02L70.14 68.92L74.48 68.16C75.91 67.85 77.39 67.8 78.84 67.64L81.03 67.44C81.76 67.35 82.5 67.39 83.23 67.37C89.1 67.09 94.98 67.8 100.71 69L102.85 69.5L104.58 69.91L105.58 70.14L106.08 70.26C106.15 70.26 106.12 70.3 106.11 70.35Z" fill="black"/>
<path d="M189.19 129.39C189.13 129.4 189.09 129.4 189.03 129.41L192.98 133.18L194.3 134.42L195.38 135.44L195.39 135.43C194.68 134.75 189.35 129.54 189.19 129.39ZM195.25 133.31L191.2 129.36L191.01 129.17C191.01 129.17 190.97 129.17 190.95 129.17C191.18 129.4 193.92 132.09 196.09 134.17C196.09 134.17 196.09 134.15 196.11 134.14L195.25 133.3V133.31ZM199.79 125.87C198.06 126.36 196.31 126.82 194.54 127.16L193.84 127.27L192.65 127.43C191.7 127.55 190.77 127.66 189.84 127.77L189.56 127.81L187.77 128.04L187.61 128.06L187.66 128.1H187.82L187.99 128.25L189.81 128.05H189.84L190.03 128.03C190.5 127.98 190.97 127.92 191.43 127.85C192.37 127.72 193.3 127.56 194.22 127.38C197 126.85 199.74 126.12 202.42 125.2C202.43 125.2 202.45 125.19 202.46 125.18C201.58 125.44 200.67 125.63 199.79 125.87ZM203.64 126.25L203.62 126.47L203.56 127.12L203.54 127.25V127.32C203.54 127.32 203.56 127.31 203.57 127.3H203.58V127.26C203.58 127.26 203.59 127.18 203.59 127.15C203.61 126.83 203.63 126.52 203.66 126.24C203.66 126.24 203.653 126.243 203.64 126.25ZM205.1 125.73C205.08 126 205.05 126.3 205.02 126.59C205.05 126.58 205.08 126.56 205.11 126.55V125.73H205.1Z" fill="black"/>
<path d="M200.12 139.89H200.11L200.3 140.06C200.24 140 200.18 139.95 200.12 139.89ZM203.56 134.05L202.19 133.94C202.14 134.1 202.07 134.29 202.05 134.33C202.04 134.35 202.04 134.36 202.04 134.36C202.04 134.36 202.04 134.38 201.93 134.39L201.31 134.44C201.19 134.45 201.03 134.48 200.9 134.5L200.57 134.57C200.43 134.6 200.3 134.62 200.07 134.7C199.87 134.78 199.54 134.93 199.23 135.25C198.94 135.58 198.81 135.96 198.76 136.17C198.71 136.41 198.7 136.57 198.69 136.71C198.69 136.83 198.68 137.04 198.69 137.23C198.7 137.42 198.74 137.61 198.8 137.79C198.91 138.13 198.97 138.23 199.03 138.37C199.06 138.44 199.05 138.44 199.1 138.52C199.14 138.58 199.17 138.65 199.2 138.71L200.07 137.81L200.49 138.21C200.42 137.85 200.15 137.42 200.15 137.09C200.15 136.17 200.31 136.12 201.17 135.98C201.62 135.9 202.07 135.94 202.47 135.84C202.96 135.73 203.38 135.42 203.62 134.45C203.63 134.44 203.63 134.42 203.63 134.41C203.61 134.29 203.59 134.17 203.56 134.05ZM203.89 142.9C204.77 143.5 205.66 144.06 206.6 144.55C206.91 144.71 207.3 144.7 207.53 144.98C207.68 145.15 207.85 145.22 208.04 145.2L208.26 145.18C206.73 144.57 205.26 143.8 203.89 142.9ZM209.16 141.53C208.94 141.38 208.67 141.28 208.48 141.09C207.95 140.59 207.53 140 207.1 139.42C206.26 138.3 205.62 137 205.32 135.61C205.21 135.14 205.2 134.65 205.19 134.17H205.01C205.44 137.29 206.64 140.15 209.38 141.84C209.39 141.82 209.38 141.81 209.38 141.79C209.35 141.65 209.25 141.59 209.16 141.53ZM210.06 144.16C210 144.04 209.83 143.89 209.6 143.68C209.46 143.55 209.3 143.41 209.12 143.25L209.14 143.14L209.09 143.12C209.01 143.13 208.94 143.14 208.87 143.14C208.86 143.16 208.85 143.19 208.85 143.21C208.77 143.39 208.7 143.57 208.66 143.76L209.27 144.01C209.43 144.09 209.66 144.12 209.76 144.25L209.93 144.76L210.03 145.03L210.49 144.99L210.07 144.16H210.06Z" fill="black"/>
<path d="M208.84 143.11C208.84 143.11 208.83 143.13 208.82 143.14H208.86V143.12C208.86 143.12 208.85 143.12 208.84 143.12V143.11ZM209.11 143.25L209.13 143.14L209.08 143.12C209 143.13 208.93 143.14 208.86 143.14C208.85 143.16 208.84 143.19 208.84 143.21L209.59 143.67C209.45 143.55 209.29 143.41 209.11 143.25ZM215.14 130.07C214.32 130.84 213.3 131.38 212.19 131.61C211.51 131.78 209.76 130.52 209.22 130.03C207.51 133.61 206.02 132.31 204.85 132.25V132.28H204.83C204.22 132.22 203.66 132.41 203.47 132.8C203.39 132.97 203.4 133.16 203.43 133.34C203.46 133.58 203.51 133.82 203.56 134.05L205.01 134.16C205.44 137.29 206.64 140.15 209.38 141.84C209.46 141.9 209.55 141.95 209.64 142C210.02 141.62 210.49 141.34 211 141.19C212.57 137.84 214.1 134.48 215.61 131.11C215.45 130.76 215.3 130.42 215.14 130.07ZM213.2 132.93V133.03L212.67 134.23L211.51 136.88L210.63 138.76L210.18 139.69L210.07 139.93L210.01 140.04V140.06L209.97 140.1H209.92L209.68 140.23H209.65L209.61 140.26C209.59 140.26 209.58 140.23 209.57 140.22C209.56 140.21 209.56 140.2 209.56 140.2L209.46 140.11C209.16 139.85 208.89 139.57 208.63 139.28C208.24 138.83 207.82 138.37 207.52 137.81C206.93 136.69 206.59 135.4 206.42 134.06C206.8 134.06 207.22 134.02 207.62 133.88C208.27 133.66 208.73 133.27 209.11 132.9C209.28 132.71 209.46 132.52 209.59 132.33L209.64 132.26H209.65V132.2L209.7 132.22C210.01 132.41 210.35 132.61 210.76 132.79C210.94 132.86 211.29 133 211.6 133.05C211.92 133.13 212.24 133.08 212.55 133.03C212.9 132.96 213.04 132.91 213.04 132.91H213.07L213.11 132.87C213.14 132.87 213.17 132.8 213.18 132.85C213.21 132.87 213.2 132.89 213.2 132.93Z" fill="black"/>
<path d="M200.3 140.06L200.11 139.9H200.12C200.18 139.95 200.24 140 200.3 140.06Z" fill="black"/>
<path d="M208.26 145.18L208.04 145.2C207.85 145.22 207.68 145.15 207.53 144.98C207.3 144.7 206.91 144.71 206.6 144.55C205.66 144.06 204.77 143.5 203.89 142.9C205.26 143.8 206.73 144.57 208.26 145.18Z" fill="black"/>
<path d="M216.41 144.65C216.23 144.74 216.04 144.83 215.84 144.92C215.84 144.89 215.84 144.87 215.84 144.84C216.04 144.78 216.23 144.73 216.4 144.65H216.41Z" fill="black"/>
<path d="M217.73 143.87C217.53 144.04 217.33 144.18 217.11 144.29C217.26 144.19 217.4 144.09 217.54 143.99C217.6 143.95 217.67 143.91 217.73 143.87Z" fill="black"/>
<path d="M218.09 143.56L217.97 143.68C217.9 143.74 217.83 143.79 217.76 143.85C217.87 143.76 217.98 143.66 218.09 143.56Z" fill="black"/>
<path d="M219.46 138.7C218.45 140.89 217.64 142.74 215.71 143.43C215.7 143.39 215.68 143.35 215.67 143.31L215.92 143.22L216.3 143.04L216.64 142.81C217.56 142.14 218.31 140.89 219.03 139.52L219.46 138.7Z" fill="black"/>
<path d="M222.22 136.59C222.13 136.74 222.05 136.89 221.96 137.05C221.98 137.01 221.99 136.96 222.01 136.92C222.02 136.9 222.03 136.88 222.04 136.86C222.06 136.79 222.09 136.73 222.13 136.68C222.16 136.64 222.18 136.61 222.22 136.59Z" fill="black"/>
<path d="M222.38 136.47C222.38 136.47 222.33 136.5 222.3 136.52C222.28 136.53 222.26 136.55 222.24 136.56C222.28 136.5 222.32 136.44 222.36 136.38L222.38 136.47Z" fill="black"/>
<path d="M194.95 140.68C194.95 140.68 194.93 140.74 194.93 140.77L194.87 140.71C194.87 140.71 194.92 140.69 194.95 140.68Z" fill="black"/>
<path d="M197.62 154.07H197.57L197.59 154.02C197.59 154.02 197.61 154.06 197.62 154.07Z" fill="black"/>
<path d="M216.41 144.65C216.23 144.74 216.04 144.83 215.84 144.92C215.84 144.89 215.84 144.87 215.84 144.84C216.04 144.78 216.23 144.73 216.4 144.65H216.41Z" fill="black"/>
<path d="M218.09 143.56L217.97 143.68C217.9 143.74 217.83 143.79 217.76 143.85C217.87 143.76 217.98 143.66 218.09 143.56Z" fill="black"/>
<path d="M222.38 136.47C222.38 136.47 222.33 136.5 222.3 136.52C222.28 136.53 222.26 136.55 222.24 136.56C222.28 136.5 222.32 136.44 222.36 136.38L222.38 136.47Z" fill="black"/>
<path d="M114.29 51.98L112.99 52.11L112.81 52.68L112.25 52.09L112.21 52.05C112.21 52.05 112.24 52.05 112.26 52.04L112.62 52.01L113.02 51.97H113.1L114.17 51.86L114.29 51.98Z" fill="black"/>
<path d="M188.52 126.8H188.5C187.38 125.72 186.27 124.63 185.16 123.53L188.52 126.8Z" fill="black"/>
<path d="M158.27 97C143.82 82.57 129.55 67.99 115.44 53.24C115.46 53.24 115.47 53.24 115.49 53.24L117.12 54.94L119.41 57.33C125.52 63.69 131.65 70.02 137.82 76.32C144.6 83.25 151.42 90.15 158.27 97.01V97Z" fill="black"/>
<path d="M202.46 125.18C202.46 125.18 202.43 125.2 202.42 125.2C199.74 126.12 197 126.85 194.22 127.38C193.3 127.56 192.37 127.72 191.43 127.85C190.97 127.92 190.5 127.98 190.03 128.03L189.84 128.05H189.81L187.99 128.25L187.82 128.09L187.77 128.04L189.56 127.81L189.84 127.77C190.77 127.66 191.7 127.55 192.65 127.43L193.84 127.27L194.54 127.16C196.31 126.82 198.06 126.36 199.79 125.87C200.67 125.63 201.58 125.44 202.46 125.18Z" fill="black"/>
<path d="M243.01 48.72L228.38 48.7C231.67 48.68 234.97 48.66 238.26 48.63C239.85 48.62 241.52 48.62 243.01 48.72Z" fill="black"/>
<path d="M203.66 126.24C203.63 126.52 203.61 126.83 203.59 127.15C203.59 127.18 203.58 127.22 203.58 127.26V127.3H203.57C203.57 127.3 203.55 127.32 203.54 127.32V127.25L203.56 127.13L203.62 126.47L203.64 126.25C203.64 126.25 203.65 126.24 203.66 126.24Z" fill="black"/>
<path d="M205.11 125.73V126.55C205.11 126.55 205.05 126.58 205.02 126.59C205.05 126.3 205.08 126 205.1 125.73H205.11Z" fill="black"/>
<path d="M106.11 70.35L106.09 70.4C106.09 70.4 106.03 70.38 106 70.36L104.9 70.1L103.03 69.65C100.16 68.88 97.22 68.4 94.28 67.99C82.47 66.54 70.32 68.11 59.22 72.35C54.37 74.18 49.74 76.6 45.46 79.51C46.83 78.56 48.24 77.67 49.68 76.82C54.77 73.88 60.25 71.66 65.88 70.02L70.14 68.92L74.48 68.16C75.91 67.85 77.39 67.8 78.84 67.64L81.03 67.44C81.76 67.35 82.5 67.39 83.23 67.37C89.1 67.09 94.98 67.8 100.71 69L102.85 69.5L104.58 69.91L105.58 70.14L106.08 70.26C106.15 70.26 106.12 70.3 106.11 70.35Z" fill="black"/>
<path d="M114.29 51.98L112.99 52.11H112.98L113.02 51.97L113.19 51.45L113.33 50.98L113.54 51.19L114.09 51.77L114.17 51.86L114.29 51.98Z" fill="black"/>
<path d="M243.01 48.72L228.38 48.7C231.67 48.68 234.97 48.66 238.26 48.63C239.85 48.62 241.52 48.62 243.01 48.72Z" fill="black"/>
<path d="M255.96 28.22C255.96 28.22 255.88 28.27 255.87 28.29C255.82 28.33 255.8 28.37 255.8 28.37C255.79 28.37 255.76 28.35 255.73 28.35L249.59 47.57H249.58L249.73 47.07L250.04 46.1L250.82 43.67L253.92 33.93L255.47 29.06L255.66 28.45C255.66 28.45 255.69 28.38 255.7 28.34H255.68C255.68 28.34 255.65 28.24 255.64 28.22C255.64 28.22 255.68 28.25 255.72 28.27C255.73 28.25 255.73 28.23 255.73 28.22C255.73 28.22 255.75 28.21 255.77 28.21H255.82C255.89 28.23 255.97 28.2 255.96 28.21C256 28.2 255.98 28.2 255.96 28.22Z" fill="black"/>
<path d="M307.45 207.82C307.46 208.02 307.21 207.92 307.04 207.91L306.45 207.84L306.22 207.82H307.45Z" fill="black"/>
<path d="M316.88 207.82C316.35 207.85 315.82 207.87 315.3 207.88C314.39 207.88 313.55 207.86 312.79 207.82H316.88Z" fill="black"/>
<path d="M310.71 82.96C310.71 82.96 310.69 83.01 310.69 83.03C310.67 83.14 310.7 83.06 310.64 82.97C310.64 82.96 310.63 82.95 310.63 82.95C310.64 82.94 310.67 82.95 310.71 82.96Z" fill="black"/>
<path d="M311.36 82.94V82.99C311.09 82.99 310.82 82.97 310.81 82.97C310.77 82.97 310.74 82.96 310.72 82.96C310.73 82.93 310.75 82.9 310.76 82.88C310.76 82.88 310.74 82.88 310.73 82.89C310.7 82.9 310.68 82.9 310.6 82.91C310.57 82.92 310.54 82.92 310.52 82.92H310.5C310.29 82.9 310.11 82.9 309.97 82.89C310.04 82.04 311.39 82.06 311.36 82.94Z" fill="black"/>
<path d="M313.6 123.12C313.66 122.44 313.64 121.75 313.6 121.05C313.28 114.36 313.1 107.66 313.05 100.96C313.03 97.6 313.04 94.25 313.08 90.9L313.17 85.87L313.23 83.37V83.05C313.23 83.05 313.24 82.82 313.23 82.65C313.22 82.48 313.17 82.26 313.1 82.07C312.97 81.67 312.69 81.27 312.36 80.99C312.03 80.72 311.66 80.54 311.31 80.46C310.6 80.3 309.9 80.39 309.24 80.81C308.55 81.22 308.09 82.11 308.08 82.8L307.96 87.93L307.9 92.99C307.87 96.37 307.88 99.74 307.92 103.12C308 109.87 308.21 116.62 308.55 123.36L308.6 124.43L308.63 124.97C308.64 125.09 308.62 125.04 308.67 125.43C308.71 125.72 308.83 126.06 309 126.35C309.31 126.86 309.78 127.2 310.2 127.34C310.64 127.5 311.04 127.51 311.39 127.44C312.72 127.2 313.04 125.73 313.34 124.63C313.48 124.13 313.55 123.63 313.59 123.12H313.6ZM310.63 82.95C310.63 82.95 310.67 82.95 310.71 82.96C310.7 82.98 310.69 83.01 310.69 83.03C310.67 83.14 310.7 83.06 310.64 82.97C310.64 82.96 310.63 82.95 310.63 82.95ZM309.97 82.89C310.04 82.04 311.39 82.06 311.36 82.94V82.99C311.09 82.99 310.82 82.97 310.81 82.97C310.77 82.97 310.74 82.96 310.72 82.96C310.73 82.93 310.75 82.9 310.76 82.88C310.76 82.88 310.74 82.88 310.73 82.89C310.7 82.9 310.68 82.9 310.6 82.91C310.57 82.92 310.54 82.92 310.52 82.92H310.5C310.29 82.9 310.11 82.9 309.97 82.89Z" fill="black"/>
<path d="M310.71 82.96C310.71 82.96 310.69 83.01 310.69 83.03C310.67 83.14 310.7 83.06 310.64 82.97C310.64 82.96 310.63 82.95 310.63 82.95C310.64 82.94 310.67 82.95 310.71 82.96Z" fill="#010101"/>
<path d="M311.36 82.94V82.99C311.09 82.99 310.82 82.97 310.81 82.97C310.77 82.97 310.74 82.96 310.72 82.96C310.73 82.93 310.75 82.9 310.76 82.88C310.76 82.88 310.74 82.88 310.73 82.89C310.7 82.9 310.68 82.9 310.6 82.91C310.57 82.92 310.54 82.92 310.52 82.92H310.5C310.29 82.9 310.11 82.9 309.97 82.89C310.04 82.04 311.39 82.06 311.36 82.94Z" fill="#010101"/>
<path d="M282.37 34.9C285.02 34.9 287.24 32.89 287.48 30.25L288.12 23.55C288.39 20.72 286.31 18.21 283.48 17.94C283.32 17.92 283.16 17.92 283 17.92C240.79 17.92 243.99 17.85 243.13 18.08L217.28 24.78C214.53 25.5 212.89 28.31 213.61 31.06C214.2 33.32 216.24 34.89 218.57 34.9H282.37Z" fill="#DB433B"/>
<path d="M94.33 141.02C94.33 151.96 76.2 148.43 80.57 138.28C83.54 131.4 94.33 133.56 94.33 141.02ZM317.59 141.02C317.59 151.96 299.46 148.43 303.84 138.28C306.81 131.4 317.59 133.56 317.59 141.02Z" fill="#DB433B"/>
<path d="M169.09 192.87C168.27 191.54 166.17 192.76 167 194.1C169.09 197.46 170.99 200.93 172.68 204.51C173.34 205.91 175.43 204.69 174.77 203.28C173.08 199.7 171.18 196.23 169.09 192.87Z" fill="#64A03D"/>
<path d="M175.05 182.09C174.72 180.57 172.37 181.2 172.71 182.73C174.23 189.66 176.25 196.46 178.76 203.1C179.05 203.79 179.85 204.12 180.54 203.84C183.28 202.45 179.05 200.17 175.05 182.1V182.09Z" fill="#64A03D"/>
<path d="M182.54 181.66C182.36 180.14 179.92 180.11 180.12 181.66C180.93 188.26 182.04 194.82 183.44 201.33C183.77 202.85 186.11 202.22 185.78 200.69C184.41 194.4 183.34 188.05 182.54 181.66Z" fill="#64A03D"/>
<path d="M187.53 180.8C188.07 187.55 188.55 194.29 188.92 201.05C189.01 202.6 191.43 202.61 191.34 201.05C190.97 194.29 190.51 187.54 189.95 180.8C189.83 179.25 187.4 179.24 187.53 180.8Z" fill="#64A03D"/>
<path d="M197.61 183.88C196.21 189.94 194.98 196.04 193.02 201.96C192.53 203.45 194.88 204.08 195.36 202.6C197.32 196.69 198.55 190.58 199.94 184.52C200.3 183.01 197.96 182.36 197.6 183.88H197.61Z" fill="#64A03D"/>
<path d="M206.16 186.24C206.63 184.73 204.37 184.16 203.82 185.6C201.72 191.05 199.62 196.5 197.53 201.95C196.97 203.41 199.31 204.04 199.87 202.59C207.81 181.97 205.25 188.95 206.16 186.24Z" fill="#64A03D"/>
<path d="M209.14 189.76L203.31 200.96C202.58 202.35 204.69 203.58 205.4 202.19C212.15 189.18 211.58 191.12 211.35 190.03C211.15 189.39 210.46 189.03 209.81 189.23C209.53 189.32 209.29 189.51 209.13 189.76H209.14Z" fill="#64A03D"/>
<path d="M381.28 191.51C380.83 190.02 378.49 190.65 378.94 192.15C379.69 194.62 380.39 197.09 381.04 199.57C380.91 200.11 381.04 200.27 381.63 201.55C382.22 202.83 384.19 201.91 383.84 200.61C383.04 197.56 382.18 194.52 381.27 191.5L381.28 191.51Z" fill="#64A03D"/>
<path d="M386.78 178.74C386.58 177.22 384.15 177.19 384.36 178.74C387.67 204.31 386.43 199.46 386.87 200.28C387.31 201.1 389.88 202.38 389.64 200.51C388.69 193.26 387.74 186 386.79 178.74H386.78Z" fill="#64A03D"/>
<path d="M391.89 177.5C392.44 185.07 392.89 192.64 393.27 200.21C393.34 201.76 395.78 201.77 395.69 200.21C395.32 192.64 394.86 185.07 394.31 177.5C394.2 175.95 391.78 175.94 391.89 177.5Z" fill="#64A03D"/>
<path d="M406.89 181.35C406.62 180.87 406.05 180.65 405.52 180.8C404.1 181.34 404.61 180.91 398.12 199.55C397.6 201.03 399.95 201.65 400.46 200.19C407.59 179.58 407.28 181.95 406.88 181.35H406.89Z" fill="#64A03D"/>
<path d="M411.06 185.8C411.24 185.15 410.86 184.49 410.21 184.31C409.56 184.13 408.9 184.51 408.72 185.16C408.62 185.39 405.31 193.36 402.56 199.95C401.96 201.39 404.3 202.02 404.9 200.59C411.78 184.05 410.98 186.15 411.06 185.8Z" fill="#64A03D"/>
<path d="M413.6 191.7C412.02 194.77 410.44 197.83 408.85 200.89C408.14 202.28 410.23 203.51 410.94 202.12C412.53 199.06 414.1 195.99 415.69 192.93C416.42 191.53 414.32 190.3 413.6 191.7Z" fill="#64A03D"/>
<path d="M419.06 197.03C418.69 198.74 417.76 200.29 416.43 201.43C415.26 202.46 416.97 204.17 418.15 203.15C419.79 201.72 420.93 199.8 421.41 197.68C421.74 196.16 419.4 195.5 419.06 197.03Z" fill="#64A03D"/>
<path d="M371.68 192.17C371.34 191.59 370.6 191.4 370.02 191.74C369.44 192.08 369.25 192.82 369.59 193.4C371.14 196.09 372.52 198.87 373.72 201.73C374.31 203.16 376.66 202.53 376.06 201.09C374.79 198.02 373.33 195.04 371.68 192.17Z" fill="#64A03D"/>
<path d="M5.4 176.77C4.87 175.31 2.53 175.93 3.06 177.41L10.03 196.84C10.56 198.3 12.9 197.68 12.37 196.2C10.05 189.72 7.72 183.25 5.4 176.77Z" fill="#64A03D"/>
<path d="M14.45 178.35L14.85 195.29C14.85 195.96 15.39 196.5 16.06 196.5C16.73 196.5 17.27 195.96 17.27 195.29L16.86 178.35C16.83 177.68 16.26 177.16 15.6 177.19C14.97 177.22 14.47 177.72 14.44 178.35H14.45Z" fill="#64A03D"/>
<path d="M19.95 186.19V197.35C19.98 198.02 20.55 198.54 21.21 198.51C21.84 198.48 22.34 197.98 22.37 197.35V186.2C22.34 185.53 21.78 185.01 21.11 185.04C20.48 185.06 19.98 185.56 19.95 186.19Z" fill="#64A03D"/>
<path d="M26.42 198.83C27.66 196.78 28.73 194.62 29.6 192.39C30.17 190.94 27.83 190.3 27.26 191.75C26.45 193.79 25.47 195.75 24.32 197.61C23.51 198.94 25.61 200.16 26.41 198.83H26.42Z" fill="#64A03D"/>
<path d="M31.02 196.01C29.48 198.06 27.96 200.11 26.42 202.17C25.48 203.42 27.59 204.63 28.51 203.4C30.04 201.35 31.57 199.29 33.11 197.24C34.05 195.98 31.94 194.78 31.02 196.01Z" fill="#64A03D"/>
<path d="M361.58 112.43C361.58 112.43 361.53 112.43 361.51 112.45C361.41 112.49 361.49 112.47 361.54 112.38L361.55 112.36C361.56 112.36 361.57 112.39 361.58 112.43Z" fill="black"/>
<path d="M361.93 112.98L361.89 113.01C361.76 112.77 361.63 112.54 361.63 112.53C361.61 112.5 361.6 112.46 361.59 112.45C361.62 112.45 361.66 112.45 361.68 112.45C361.68 112.45 361.67 112.43 361.66 112.43C361.64 112.41 361.63 112.39 361.58 112.33C361.56 112.31 361.54 112.28 361.53 112.27V112.25C361.43 112.06 361.34 111.91 361.27 111.78C362.04 111.41 362.71 112.58 361.94 113L361.93 112.98Z" fill="black"/>
<path d="M328.54 135.43C329.16 135.13 329.74 134.77 330.32 134.38C335.91 130.69 341.57 127.11 347.31 123.64C350.19 121.91 353.07 120.2 355.97 118.53L360.34 116.04L362.52 114.81L362.8 114.66C362.8 114.66 363 114.54 363.14 114.45C363.28 114.36 363.44 114.2 363.57 114.04C363.85 113.72 364.05 113.28 364.12 112.85C364.18 112.43 364.15 112.02 364.04 111.68C363.81 110.99 363.38 110.43 362.68 110.08C361.97 109.7 360.97 109.76 360.38 110.1L355.91 112.62L351.53 115.15C348.61 116.85 345.72 118.58 342.83 120.34C337.07 123.86 331.37 127.49 325.75 131.22L324.86 131.81L324.41 132.11C324.31 132.18 324.34 132.14 324.04 132.38C323.81 132.56 323.58 132.84 323.42 133.13C323.14 133.66 323.09 134.23 323.18 134.67C323.27 135.13 323.46 135.48 323.7 135.74C324.59 136.76 326.02 136.28 327.11 135.98C327.61 135.84 328.08 135.65 328.54 135.43ZM361.55 112.36C361.55 112.36 361.57 112.39 361.58 112.43C361.56 112.43 361.53 112.43 361.51 112.45C361.41 112.49 361.49 112.47 361.54 112.38L361.55 112.36ZM361.27 111.76C362.04 111.39 362.71 112.56 361.94 112.98L361.9 113.01C361.77 112.77 361.64 112.54 361.64 112.53C361.62 112.5 361.61 112.46 361.6 112.45C361.63 112.45 361.67 112.45 361.69 112.45C361.69 112.45 361.68 112.43 361.67 112.43C361.65 112.41 361.64 112.39 361.59 112.33C361.57 112.31 361.55 112.28 361.54 112.27V112.25C361.44 112.06 361.35 111.91 361.28 111.78L361.27 111.76Z" fill="black"/>
<path d="M361.58 112.43C361.58 112.43 361.53 112.43 361.51 112.45C361.41 112.49 361.49 112.47 361.54 112.38L361.55 112.36C361.56 112.36 361.57 112.39 361.58 112.43Z" fill="#010101"/>
<path d="M361.93 112.98L361.89 113.01C361.76 112.77 361.63 112.54 361.63 112.53C361.61 112.5 361.6 112.46 361.59 112.45C361.62 112.45 361.66 112.45 361.68 112.45C361.68 112.45 361.67 112.43 361.66 112.43C361.64 112.41 361.63 112.39 361.58 112.33C361.56 112.31 361.54 112.28 361.53 112.27V112.25C361.43 112.06 361.34 111.91 361.27 111.78C362.04 111.41 362.71 112.58 361.94 113L361.93 112.98Z" fill="#010101"/>
<path d="M353.57 179.02C353.57 179.02 353.54 178.97 353.53 178.96C353.46 178.87 353.5 178.95 353.61 178.96H353.63C353.63 178.97 353.6 178.99 353.57 179.02Z" fill="black"/>
<path d="M353.18 179.54L353.14 179.51C353.32 179.31 353.5 179.1 353.5 179.1C353.53 179.07 353.55 179.05 353.56 179.04C353.58 179.07 353.59 179.1 353.6 179.12C353.6 179.12 353.61 179.1 353.61 179.09C353.62 179.06 353.63 179.04 353.68 178.98C353.69 178.95 353.71 178.93 353.72 178.91H353.74C353.88 178.74 353.99 178.61 354.09 178.5C354.7 179.09 353.83 180.12 353.17 179.54H353.18Z" fill="black"/>
<path d="M320.68 155.81C321.17 156.29 321.71 156.71 322.28 157.13C327.66 161.12 332.96 165.23 338.17 169.43C340.78 171.54 343.37 173.67 345.93 175.83L349.76 179.09L351.66 180.72L351.9 180.93C351.9 180.93 352.08 181.08 352.22 181.18C352.36 181.28 352.56 181.38 352.75 181.45C353.14 181.6 353.63 181.64 354.05 181.56C354.47 181.48 354.84 181.3 355.13 181.08C355.7 180.63 356.08 180.03 356.17 179.26C356.29 178.47 355.89 177.55 355.37 177.1L351.48 173.76L347.6 170.51C345 168.35 342.39 166.22 339.75 164.11C334.48 159.9 329.12 155.78 323.69 151.77L322.83 151.13L322.39 150.81C322.29 150.74 322.34 150.76 322.01 150.55C321.76 150.4 321.42 150.27 321.09 150.22C320.5 150.14 319.94 150.28 319.56 150.52C319.16 150.76 318.9 151.06 318.73 151.38C318.08 152.56 319.01 153.74 319.67 154.67C319.97 155.09 320.31 155.47 320.68 155.82V155.81ZM353.63 178.97C353.63 178.97 353.6 179 353.57 179.03C353.57 179.01 353.54 178.98 353.53 178.97C353.46 178.88 353.5 178.96 353.61 178.97H353.63ZM354.1 178.49C354.71 179.08 353.84 180.11 353.18 179.53L353.14 179.5C353.32 179.3 353.5 179.09 353.5 179.09C353.53 179.06 353.55 179.04 353.56 179.03C353.58 179.06 353.59 179.09 353.6 179.11C353.6 179.11 353.61 179.09 353.61 179.08C353.62 179.05 353.63 179.03 353.68 178.97C353.69 178.94 353.71 178.92 353.72 178.9H353.74C353.88 178.73 353.99 178.6 354.09 178.49H354.1Z" fill="black"/>
<path d="M353.57 179.02C353.57 179.02 353.54 178.97 353.53 178.96C353.46 178.87 353.5 178.95 353.61 178.96H353.63C353.63 178.97 353.6 178.99 353.57 179.02Z" fill="#010101"/>
<path d="M353.18 179.54L353.14 179.51C353.32 179.31 353.5 179.1 353.5 179.1C353.53 179.07 353.55 179.05 353.56 179.04C353.58 179.07 353.59 179.1 353.6 179.12C353.6 179.12 353.61 179.1 353.61 179.09C353.62 179.06 353.63 179.04 353.68 178.98C353.69 178.95 353.71 178.93 353.72 178.91H353.74C353.88 178.74 353.99 178.61 354.09 178.5C354.7 179.09 353.83 180.12 353.17 179.54H353.18Z" fill="#010101"/>
<path d="M255.07 112.43C255.07 112.43 255.12 112.43 255.14 112.45C255.24 112.49 255.16 112.47 255.11 112.38L255.1 112.36C255.09 112.36 255.08 112.39 255.07 112.43Z" fill="black"/>
<path d="M254.73 112.98L254.77 113.01C254.9 112.77 255.03 112.54 255.03 112.53C255.05 112.5 255.06 112.46 255.07 112.45C255.04 112.45 255 112.45 254.98 112.45C254.98 112.45 254.99 112.43 255 112.43C255.02 112.41 255.03 112.39 255.08 112.33C255.1 112.31 255.12 112.28 255.13 112.27V112.25C255.23 112.06 255.32 111.91 255.39 111.78C254.62 111.41 253.95 112.58 254.72 113L254.73 112.98Z" fill="black"/>
<path d="M289.55 135.98C290.65 136.29 292.08 136.76 292.96 135.74C293.2 135.47 293.39 135.13 293.48 134.67C293.57 134.24 293.52 133.66 293.24 133.13C293.08 132.84 292.85 132.56 292.62 132.38C292.31 132.14 292.34 132.18 292.25 132.11L291.8 131.81L290.91 131.22C285.29 127.48 279.59 123.85 273.83 120.34C270.94 118.58 268.05 116.85 265.13 115.15L260.75 112.62L256.28 110.1C255.68 109.76 254.68 109.7 253.98 110.08C253.28 110.43 252.85 110.99 252.62 111.68C252.51 112.02 252.48 112.43 252.54 112.85C252.61 113.28 252.81 113.72 253.09 114.04C253.22 114.2 253.38 114.35 253.52 114.45C253.66 114.55 253.86 114.66 253.86 114.66L254.14 114.81L256.32 116.04L260.69 118.53C263.59 120.21 266.47 121.91 269.35 123.64C275.08 127.11 280.75 130.68 286.34 134.38C286.92 134.77 287.51 135.13 288.12 135.43C288.57 135.65 289.05 135.84 289.55 135.98ZM255.12 112.37C255.17 112.47 255.25 112.48 255.15 112.44C255.13 112.43 255.1 112.42 255.08 112.42C255.09 112.38 255.1 112.35 255.11 112.35C255.11 112.35 255.11 112.36 255.12 112.37ZM255.14 112.22V112.24C255.14 112.24 255.11 112.28 255.09 112.3C255.04 112.36 255.03 112.38 255.01 112.4C255 112.4 254.99 112.42 254.99 112.42C255.01 112.42 255.05 112.42 255.08 112.42C255.07 112.44 255.06 112.47 255.04 112.5C255.04 112.5 254.91 112.75 254.78 112.98L254.74 112.95C253.97 112.53 254.64 111.36 255.41 111.73C255.35 111.86 255.26 112.01 255.16 112.2L255.14 112.22Z" fill="black"/>
<path d="M255.07 112.43C255.07 112.43 255.12 112.43 255.14 112.45C255.24 112.49 255.16 112.47 255.11 112.38L255.1 112.36C255.09 112.36 255.08 112.39 255.07 112.43Z" fill="#010101"/>
<path d="M254.73 112.98L254.77 113.01C254.9 112.77 255.03 112.54 255.03 112.53C255.05 112.5 255.06 112.46 255.07 112.45C255.04 112.45 255 112.45 254.98 112.45C254.98 112.45 254.99 112.43 255 112.43C255.02 112.41 255.03 112.39 255.08 112.33C255.1 112.31 255.12 112.28 255.13 112.27V112.25C255.23 112.06 255.32 111.91 255.39 111.78C254.62 111.41 253.95 112.58 254.72 113L254.73 112.98Z" fill="#010101"/>
<path d="M266.09 177.02C266.09 177.02 266.12 176.97 266.13 176.96C266.2 176.87 266.16 176.95 266.05 176.96H266.03C266.03 176.97 266.06 176.99 266.09 177.02Z" fill="black"/>
<path d="M266.48 177.54L266.52 177.51C266.34 177.31 266.16 177.1 266.16 177.1C266.13 177.07 266.11 177.05 266.1 177.04C266.08 177.07 266.07 177.1 266.06 177.12C266.06 177.12 266.05 177.1 266.05 177.09C266.04 177.06 266.03 177.04 265.98 176.98C265.97 176.95 265.95 176.93 265.94 176.91H265.92C265.78 176.74 265.67 176.61 265.57 176.5C264.96 177.09 265.83 178.12 266.49 177.54H266.48Z" fill="black"/>
<path d="M299.99 152.66C300.65 151.73 301.58 150.55 300.93 149.37C300.76 149.05 300.5 148.75 300.1 148.51C299.73 148.27 299.16 148.13 298.57 148.21C298.24 148.26 297.9 148.38 297.65 148.54C297.32 148.75 297.37 148.73 297.27 148.8L296.83 149.12L295.97 149.76C290.54 153.77 285.18 157.88 279.91 162.1C277.27 164.21 274.66 166.34 272.06 168.5L268.18 171.75L264.29 175.09C263.76 175.53 263.37 176.45 263.49 177.25C263.58 178.03 263.96 178.63 264.53 179.07C264.81 179.29 265.19 179.46 265.61 179.55C266.04 179.63 266.52 179.59 266.91 179.44C267.1 179.37 267.3 179.27 267.44 179.17C267.58 179.07 267.76 178.92 267.76 178.92L268 178.71L269.9 177.08L273.73 173.82C276.3 171.67 278.88 169.54 281.49 167.42C286.71 163.21 292 159.11 297.38 155.12C297.94 154.7 298.48 154.28 298.98 153.8C299.34 153.45 299.68 153.07 299.99 152.65V152.66ZM266.05 176.96C266.16 176.95 266.2 176.88 266.13 176.96C266.11 176.97 266.1 177 266.09 177.02C266.06 177 266.03 176.98 266.03 176.96C266.03 176.96 266.04 176.96 266.05 176.96ZM265.92 176.89H265.94C265.94 176.89 265.97 176.94 265.98 176.97C266.02 177.04 266.04 177.05 266.05 177.08C266.05 177.09 266.06 177.11 266.06 177.11C266.06 177.09 266.08 177.06 266.1 177.03C266.11 177.05 266.14 177.06 266.16 177.09C266.16 177.09 266.35 177.3 266.52 177.5L266.48 177.53C265.82 178.11 264.95 177.08 265.56 176.49C265.66 176.59 265.77 176.73 265.91 176.89H265.92Z" fill="black"/>
<path d="M266.09 177.02C266.09 177.02 266.12 176.97 266.13 176.96C266.2 176.87 266.16 176.95 266.05 176.96H266.03C266.03 176.97 266.06 176.99 266.09 177.02Z" fill="#010101"/>
<path d="M266.48 177.54L266.52 177.51C266.34 177.31 266.16 177.1 266.16 177.1C266.13 177.07 266.11 177.05 266.1 177.04C266.08 177.07 266.07 177.1 266.06 177.12C266.06 177.12 266.05 177.1 266.05 177.09C266.04 177.06 266.03 177.04 265.98 176.98C265.97 176.95 265.95 176.93 265.94 176.91H265.92C265.78 176.74 265.67 176.61 265.57 176.5C264.96 177.09 265.83 178.12 266.49 177.54H266.48Z" fill="#010101"/>
<path d="M77.99 83.14C77.99 83.14 77.98 83.19 77.98 83.21C77.98 83.32 77.99 83.24 77.92 83.16L77.91 83.14C77.91 83.13 77.95 83.14 77.99 83.14Z" fill="black"/>
<path d="M78.64 83.04V83.09C78.38 83.12 78.11 83.14 78.1 83.14C78.06 83.14 78.03 83.14 78.01 83.14C78.01 83.11 78.03 83.08 78.04 83.06C78.04 83.06 78.02 83.06 78.01 83.07C77.98 83.08 77.96 83.09 77.88 83.11C77.85 83.12 77.82 83.13 77.8 83.13H77.78C77.57 83.13 77.39 83.16 77.25 83.17C77.21 82.32 78.55 82.16 78.63 83.04H78.64Z" fill="black"/>
<path d="M86.06 122.59C86.03 121.91 85.92 121.23 85.8 120.54C84.62 113.95 83.57 107.33 82.65 100.69C82.19 97.36 81.77 94.04 81.37 90.71L80.81 85.71L80.55 83.22L80.52 82.9C80.52 82.9 80.49 82.67 80.46 82.5C80.43 82.33 80.35 82.12 80.26 81.94C80.08 81.56 79.75 81.2 79.39 80.97C79.03 80.75 78.64 80.61 78.28 80.58C77.56 80.51 76.87 80.69 76.27 81.2C75.64 81.7 75.3 82.64 75.38 83.32L75.93 88.42L76.53 93.45C76.94 96.81 77.39 100.15 77.86 103.49C78.81 110.17 79.9 116.84 81.11 123.48L81.3 124.53L81.4 125.06C81.43 125.18 81.4 125.13 81.5 125.51C81.58 125.79 81.74 126.11 81.95 126.38C82.32 126.85 82.83 127.12 83.27 127.21C83.73 127.31 84.12 127.27 84.46 127.15C85.74 126.74 85.88 125.24 86.03 124.11C86.1 123.59 86.11 123.09 86.09 122.58L86.06 122.59ZM77.91 83.14C77.91 83.14 77.95 83.14 77.99 83.14C77.99 83.16 77.98 83.19 77.98 83.21C77.98 83.32 77.99 83.24 77.92 83.16L77.91 83.14ZM77.25 83.17C77.21 82.32 78.55 82.16 78.63 83.04V83.09C78.37 83.12 78.1 83.14 78.09 83.14C78.05 83.14 78.02 83.14 78 83.14C78 83.11 78.02 83.08 78.03 83.06C78.03 83.06 78.01 83.06 78 83.07C77.97 83.08 77.95 83.09 77.87 83.11C77.84 83.12 77.81 83.13 77.79 83.13H77.77C77.56 83.13 77.38 83.16 77.24 83.17H77.25Z" fill="black"/>
<path d="M77.99 83.14C77.99 83.14 77.98 83.19 77.98 83.21C77.98 83.32 77.99 83.24 77.92 83.16L77.91 83.14C77.91 83.13 77.95 83.14 77.99 83.14Z" fill="#010101"/>
<path d="M78.64 83.04V83.09C78.38 83.12 78.11 83.14 78.1 83.14C78.06 83.14 78.03 83.14 78.01 83.14C78.01 83.11 78.03 83.08 78.04 83.06C78.04 83.06 78.02 83.06 78.01 83.07C77.98 83.08 77.96 83.09 77.88 83.11C77.85 83.12 77.82 83.13 77.8 83.13H77.78C77.57 83.13 77.39 83.16 77.25 83.17C77.21 82.32 78.55 82.16 78.63 83.04H78.64Z" fill="#010101"/>
<path d="M85.71 162.96C85.71 162.96 85.69 163.01 85.69 163.03C85.67 163.14 85.7 163.06 85.64 162.97C85.64 162.96 85.63 162.95 85.63 162.95C85.64 162.94 85.67 162.95 85.71 162.96Z" fill="black"/>
<path d="M86.36 162.94V162.99C86.09 162.99 85.82 162.97 85.81 162.97C85.77 162.97 85.74 162.96 85.72 162.96C85.73 162.93 85.75 162.9 85.76 162.88C85.76 162.88 85.74 162.88 85.73 162.89C85.7 162.9 85.68 162.9 85.6 162.91C85.57 162.92 85.54 162.92 85.52 162.92H85.5C85.29 162.9 85.11 162.9 84.97 162.89C85.04 162.04 86.39 162.06 86.36 162.94Z" fill="black"/>
<path d="M88.6 203.12C88.66 202.44 88.64 201.75 88.6 201.05C88.28 194.36 88.1 187.66 88.05 180.96C88.03 177.6 88.04 174.25 88.08 170.9L88.17 165.87L88.23 163.37V163.05C88.23 163.05 88.24 162.82 88.23 162.65C88.22 162.48 88.17 162.26 88.1 162.07C87.97 161.67 87.69 161.27 87.36 160.99C87.03 160.72 86.66 160.54 86.31 160.46C85.6 160.3 84.9 160.39 84.24 160.81C83.55 161.22 83.09 162.11 83.08 162.8L82.96 167.93L82.9 172.99C82.87 176.37 82.88 179.74 82.92 183.12C83 189.87 83.21 196.62 83.55 203.36L83.6 204.43L83.63 204.97C83.64 205.09 83.62 205.04 83.67 205.43C83.71 205.72 83.83 206.06 84 206.35C84.31 206.86 84.78 207.2 85.2 207.34C85.64 207.5 86.04 207.51 86.39 207.44C87.72 207.2 88.04 205.73 88.34 204.63C88.48 204.13 88.55 203.63 88.59 203.12H88.6ZM85.63 162.95C85.63 162.95 85.67 162.95 85.71 162.96C85.7 162.98 85.69 163.01 85.69 163.03C85.67 163.14 85.7 163.06 85.64 162.97C85.64 162.96 85.63 162.95 85.63 162.95ZM84.97 162.89C85.04 162.04 86.39 162.06 86.36 162.94V162.99C86.09 162.99 85.82 162.97 85.81 162.97C85.77 162.97 85.74 162.96 85.72 162.96C85.73 162.93 85.75 162.9 85.76 162.88C85.76 162.88 85.74 162.88 85.73 162.89C85.7 162.9 85.68 162.9 85.6 162.91C85.57 162.92 85.54 162.92 85.52 162.92H85.5C85.29 162.9 85.11 162.9 84.97 162.89Z" fill="black"/>
<path d="M85.71 162.96C85.71 162.96 85.69 163.01 85.69 163.03C85.67 163.14 85.7 163.06 85.64 162.97C85.64 162.96 85.63 162.95 85.63 162.95C85.64 162.94 85.67 162.95 85.71 162.96Z" fill="#010101"/>
<path d="M86.36 162.94V162.99C86.09 162.99 85.82 162.97 85.81 162.97C85.77 162.97 85.74 162.96 85.72 162.96C85.73 162.93 85.75 162.9 85.76 162.88C85.76 162.88 85.74 162.88 85.73 162.89C85.7 162.9 85.68 162.9 85.6 162.91C85.57 162.92 85.54 162.92 85.52 162.92H85.5C85.29 162.9 85.11 162.9 84.97 162.89C85.04 162.04 86.39 162.06 86.36 162.94Z" fill="#010101"/>
<path d="M136.58 112.43C136.58 112.43 136.53 112.43 136.51 112.45C136.41 112.49 136.49 112.47 136.54 112.38L136.55 112.36C136.56 112.36 136.57 112.39 136.58 112.43Z" fill="black"/>
<path d="M136.93 112.98L136.89 113.01C136.76 112.77 136.63 112.54 136.63 112.53C136.61 112.5 136.6 112.46 136.59 112.45C136.62 112.45 136.66 112.45 136.68 112.45C136.68 112.45 136.67 112.43 136.66 112.43C136.64 112.41 136.63 112.39 136.58 112.33C136.56 112.31 136.54 112.28 136.53 112.27V112.25C136.43 112.06 136.34 111.91 136.27 111.78C137.04 111.41 137.71 112.58 136.94 113L136.93 112.98Z" fill="black"/>
<path d="M103.54 135.43C104.16 135.13 104.74 134.77 105.32 134.38C110.91 130.69 116.57 127.11 122.31 123.64C125.19 121.91 128.07 120.2 130.97 118.53L135.34 116.04L137.52 114.81L137.8 114.66C137.8 114.66 138 114.54 138.14 114.45C138.28 114.36 138.44 114.2 138.57 114.04C138.85 113.72 139.05 113.28 139.12 112.85C139.18 112.43 139.15 112.02 139.04 111.68C138.81 110.99 138.38 110.43 137.68 110.08C136.97 109.7 135.97 109.76 135.38 110.1L130.91 112.62L126.53 115.15C123.61 116.85 120.72 118.58 117.83 120.34C112.07 123.86 106.37 127.49 100.75 131.22L99.86 131.81L99.41 132.11C99.31 132.18 99.34 132.14 99.04 132.38C98.81 132.56 98.58 132.84 98.42 133.13C98.14 133.66 98.09 134.23 98.18 134.67C98.27 135.13 98.46 135.48 98.7 135.74C99.59 136.76 101.02 136.28 102.11 135.98C102.61 135.84 103.08 135.65 103.54 135.43ZM136.55 112.36C136.55 112.36 136.57 112.39 136.58 112.43C136.56 112.43 136.53 112.43 136.51 112.45C136.41 112.49 136.49 112.47 136.54 112.38L136.55 112.36ZM136.27 111.76C137.04 111.39 137.71 112.56 136.94 112.98L136.9 113.01C136.77 112.77 136.64 112.54 136.64 112.53C136.62 112.5 136.61 112.46 136.6 112.45C136.63 112.45 136.67 112.45 136.69 112.45C136.69 112.45 136.68 112.43 136.67 112.43C136.65 112.41 136.64 112.39 136.59 112.33C136.57 112.31 136.55 112.28 136.54 112.27V112.25C136.44 112.06 136.35 111.91 136.28 111.78L136.27 111.76Z" fill="black"/>
<path d="M136.58 112.43C136.58 112.43 136.53 112.43 136.51 112.45C136.41 112.49 136.49 112.47 136.54 112.38L136.55 112.36C136.56 112.36 136.57 112.39 136.58 112.43Z" fill="#010101"/>
<path d="M136.93 112.98L136.89 113.01C136.76 112.77 136.63 112.54 136.63 112.53C136.61 112.5 136.6 112.46 136.59 112.45C136.62 112.45 136.66 112.45 136.68 112.45C136.68 112.45 136.67 112.43 136.66 112.43C136.64 112.41 136.63 112.39 136.58 112.33C136.56 112.31 136.54 112.28 136.53 112.27V112.25C136.43 112.06 136.34 111.91 136.27 111.78C137.04 111.41 137.71 112.58 136.94 113L136.93 112.98Z" fill="#010101"/>
<path d="M128.57 179.02C128.57 179.02 128.54 178.97 128.53 178.96C128.46 178.87 128.5 178.95 128.61 178.96H128.63C128.63 178.97 128.6 178.99 128.57 179.02Z" fill="black"/>
<path d="M128.18 179.54L128.14 179.51C128.32 179.31 128.5 179.1 128.5 179.1C128.53 179.07 128.55 179.05 128.56 179.04C128.58 179.07 128.59 179.1 128.6 179.12C128.6 179.12 128.61 179.1 128.61 179.09C128.62 179.06 128.63 179.04 128.68 178.98C128.69 178.95 128.71 178.93 128.72 178.91H128.74C128.88 178.74 128.99 178.61 129.09 178.5C129.7 179.09 128.83 180.12 128.17 179.54H128.18Z" fill="black"/>
<path d="M95.68 155.81C96.17 156.29 96.71 156.71 97.28 157.13C102.66 161.12 107.96 165.23 113.17 169.43C115.78 171.54 118.37 173.67 120.93 175.83L124.76 179.09L126.66 180.72L126.9 180.93C126.9 180.93 127.08 181.08 127.22 181.18C127.36 181.28 127.56 181.38 127.75 181.45C128.14 181.6 128.63 181.64 129.05 181.56C129.47 181.48 129.84 181.3 130.13 181.08C130.7 180.63 131.08 180.03 131.17 179.26C131.29 178.47 130.89 177.55 130.37 177.1L126.48 173.76L122.6 170.51C120 168.35 117.39 166.22 114.75 164.11C109.48 159.9 104.12 155.78 98.69 151.77L97.83 151.13L97.39 150.81C97.29 150.74 97.34 150.76 97.01 150.55C96.76 150.4 96.42 150.27 96.09 150.22C95.5 150.14 94.94 150.28 94.56 150.52C94.16 150.76 93.9 151.06 93.73 151.38C93.08 152.56 94.01 153.74 94.67 154.67C94.97 155.09 95.31 155.47 95.68 155.82V155.81ZM128.63 178.97C128.63 178.97 128.6 179 128.57 179.03C128.57 179.01 128.54 178.98 128.53 178.97C128.46 178.88 128.5 178.96 128.61 178.97H128.63ZM129.1 178.49C129.71 179.08 128.84 180.11 128.18 179.53L128.14 179.5C128.32 179.3 128.5 179.09 128.5 179.09C128.53 179.06 128.55 179.04 128.56 179.03C128.58 179.06 128.59 179.09 128.6 179.11C128.6 179.11 128.61 179.09 128.61 179.08C128.62 179.05 128.63 179.03 128.68 178.97C128.69 178.94 128.71 178.92 128.72 178.9H128.74C128.88 178.73 128.99 178.6 129.09 178.49H129.1Z" fill="black"/>
<path d="M128.57 179.02C128.57 179.02 128.54 178.97 128.53 178.96C128.46 178.87 128.5 178.95 128.61 178.96H128.63C128.63 178.97 128.6 178.99 128.57 179.02Z" fill="#010101"/>
<path d="M128.18 179.54L128.14 179.51C128.32 179.31 128.5 179.1 128.5 179.1C128.53 179.07 128.55 179.05 128.56 179.04C128.58 179.07 128.59 179.1 128.6 179.12C128.6 179.12 128.61 179.1 128.61 179.09C128.62 179.06 128.63 179.04 128.68 178.98C128.69 178.95 128.71 178.93 128.72 178.91H128.74C128.88 178.74 128.99 178.61 129.09 178.5C129.7 179.09 128.83 180.12 128.17 179.54H128.18Z" fill="#010101"/>
<path d="M30.07 112.43C30.07 112.43 30.12 112.43 30.14 112.45C30.24 112.49 30.16 112.47 30.11 112.38L30.1 112.36C30.09 112.36 30.08 112.39 30.07 112.43Z" fill="black"/>
<path d="M29.73 112.98L29.77 113.01C29.9 112.77 30.03 112.54 30.03 112.53C30.05 112.5 30.06 112.46 30.07 112.45C30.04 112.45 30 112.45 29.98 112.45C29.98 112.45 29.99 112.43 30 112.43C30.02 112.41 30.03 112.39 30.08 112.33C30.1 112.31 30.12 112.28 30.13 112.27V112.25C30.23 112.06 30.32 111.91 30.39 111.78C29.62 111.41 28.95 112.58 29.72 113L29.73 112.98Z" fill="black"/>
<path d="M64.55 135.98C65.65 136.29 67.08 136.76 67.96 135.74C68.2 135.47 68.39 135.13 68.48 134.67C68.57 134.24 68.52 133.66 68.24 133.13C68.08 132.84 67.85 132.56 67.62 132.38C67.31 132.14 67.34 132.18 67.25 132.11L66.8 131.81L65.91 131.22C60.29 127.48 54.59 123.85 48.83 120.34C45.94 118.58 43.05 116.85 40.13 115.15L35.75 112.62L31.28 110.1C30.68 109.76 29.68 109.7 28.98 110.08C28.28 110.43 27.85 110.99 27.62 111.68C27.51 112.02 27.48 112.43 27.54 112.85C27.61 113.28 27.81 113.72 28.09 114.04C28.22 114.2 28.38 114.35 28.52 114.45C28.66 114.55 28.86 114.66 28.86 114.66L29.14 114.81L31.32 116.04L35.69 118.53C38.59 120.21 41.47 121.91 44.35 123.64C50.08 127.11 55.75 130.68 61.34 134.38C61.92 134.77 62.51 135.13 63.12 135.43C63.57 135.65 64.05 135.84 64.55 135.98ZM30.12 112.37C30.17 112.47 30.25 112.48 30.15 112.44C30.13 112.43 30.1 112.42 30.08 112.42C30.09 112.38 30.1 112.35 30.11 112.35C30.11 112.35 30.11 112.36 30.12 112.37ZM30.14 112.22V112.24C30.14 112.24 30.11 112.28 30.09 112.3C30.04 112.36 30.03 112.38 30.01 112.4C30 112.4 29.99 112.42 29.99 112.42C30.01 112.42 30.05 112.42 30.08 112.42C30.07 112.44 30.06 112.47 30.04 112.5C30.04 112.5 29.91 112.75 29.78 112.98L29.74 112.95C28.97 112.53 29.64 111.36 30.41 111.73C30.35 111.86 30.26 112.01 30.16 112.2L30.14 112.22Z" fill="black"/>
<path d="M30.07 112.43C30.07 112.43 30.12 112.43 30.14 112.45C30.24 112.49 30.16 112.47 30.11 112.38L30.1 112.36C30.09 112.36 30.08 112.39 30.07 112.43Z" fill="#010101"/>
<path d="M29.73 112.98L29.77 113.01C29.9 112.77 30.03 112.54 30.03 112.53C30.05 112.5 30.06 112.46 30.07 112.45C30.04 112.45 30 112.45 29.98 112.45C29.98 112.45 29.99 112.43 30 112.43C30.02 112.41 30.03 112.39 30.08 112.33C30.1 112.31 30.12 112.28 30.13 112.27V112.25C30.23 112.06 30.32 111.91 30.39 111.78C29.62 111.41 28.95 112.58 29.72 113L29.73 112.98Z" fill="#010101"/>
<path d="M41.09 177.02C41.09 177.02 41.12 176.97 41.13 176.96C41.2 176.87 41.16 176.95 41.05 176.96H41.03C41.03 176.97 41.06 176.99 41.09 177.02Z" fill="black"/>
<path d="M41.48 177.54L41.52 177.51C41.34 177.31 41.16 177.1 41.16 177.1C41.13 177.07 41.11 177.05 41.1 177.04C41.08 177.07 41.07 177.1 41.06 177.12C41.06 177.12 41.05 177.1 41.05 177.09C41.04 177.06 41.03 177.04 40.98 176.98C40.97 176.95 40.95 176.93 40.94 176.91H40.92C40.78 176.74 40.67 176.61 40.57 176.5C39.96 177.09 40.83 178.12 41.49 177.54H41.48Z" fill="black"/>
<path d="M74.99 152.66C75.65 151.73 76.58 150.55 75.93 149.37C75.76 149.05 75.5 148.75 75.1 148.51C74.73 148.27 74.16 148.13 73.57 148.21C73.24 148.26 72.9 148.38 72.65 148.54C72.32 148.75 72.37 148.73 72.27 148.8L71.83 149.12L70.97 149.76C65.54 153.77 60.18 157.88 54.91 162.1C52.27 164.21 49.66 166.34 47.06 168.5L43.18 171.75L39.29 175.09C38.76 175.53 38.37 176.45 38.49 177.25C38.58 178.03 38.96 178.63 39.53 179.07C39.81 179.29 40.19 179.46 40.61 179.55C41.04 179.63 41.52 179.59 41.91 179.44C42.1 179.37 42.3 179.27 42.44 179.17C42.58 179.07 42.76 178.92 42.76 178.92L43 178.71L44.9 177.08L48.73 173.82C51.3 171.67 53.88 169.54 56.49 167.42C61.71 163.21 67 159.11 72.38 155.12C72.94 154.7 73.48 154.28 73.98 153.8C74.34 153.45 74.68 153.07 74.99 152.65V152.66ZM41.05 176.96C41.16 176.95 41.2 176.88 41.13 176.96C41.11 176.97 41.1 177 41.09 177.02C41.06 177 41.03 176.98 41.03 176.96C41.03 176.96 41.04 176.96 41.05 176.96ZM40.92 176.89H40.94C40.94 176.89 40.97 176.94 40.98 176.97C41.02 177.04 41.04 177.05 41.05 177.08C41.05 177.09 41.06 177.11 41.06 177.11C41.06 177.09 41.08 177.06 41.1 177.03C41.11 177.05 41.14 177.06 41.16 177.09C41.16 177.09 41.35 177.3 41.52 177.5L41.48 177.53C40.82 178.11 39.95 177.08 40.56 176.49C40.66 176.59 40.77 176.73 40.91 176.89H40.92Z" fill="black"/>
<path d="M41.09 177.02C41.09 177.02 41.12 176.97 41.13 176.96C41.2 176.87 41.16 176.95 41.05 176.96H41.03C41.03 176.97 41.06 176.99 41.09 177.02Z" fill="#010101"/>
<path d="M41.48 177.54L41.52 177.51C41.34 177.31 41.16 177.1 41.16 177.1C41.13 177.07 41.11 177.05 41.1 177.04C41.08 177.07 41.07 177.1 41.06 177.12C41.06 177.12 41.05 177.1 41.05 177.09C41.04 177.06 41.03 177.04 40.98 176.98C40.97 176.95 40.95 176.93 40.94 176.91H40.92C40.78 176.74 40.67 176.61 40.57 176.5C39.96 177.09 40.83 178.12 41.49 177.54H41.48Z" fill="#010101"/>
<path d="M248.33 34.19C248.53 33.82 248.83 33.53 249.29 33.43C249.5 33.38 249.75 33.37 249.89 33.25C250.1 33.05 250.38 32.76 250.37 32.52C250.36 32.26 250.1 31.93 249.86 31.77C249.29 31.39 248.58 31.51 248.14 31.98C247.71 32.44 247.35 32.99 246.86 33.36C246.65 33.52 246.44 33.68 246.23 33.84C246.93 33.94 247.63 34.06 248.33 34.19Z" fill="black"/>
<path d="M254.68 35.74C254.68 35.74 254.7 35.71 254.7 35.69C254.84 34.76 255.37 34.2 256.24 33.91C256.54 33.81 256.85 33.73 257.12 33.58C257.7 33.26 257.93 31.98 257.56 31.32C257.38 31 257.07 30.93 256.76 30.97C255.88 31.1 255.18 31.49 254.82 32.35C254.7 32.64 254.56 32.92 254.47 33.22C254.27 33.9 253.76 34.23 253.14 34.41C252.74 34.53 252.33 34.6 251.93 34.71C251.85 34.73 251.79 34.82 251.74 34.92C252.73 35.17 253.71 35.45 254.69 35.73L254.68 35.74Z" fill="black"/>
<path d="M245.02 26.28C245.35 26.92 246.03 26.97 246.6 27.21C247.25 27.48 247.53 28.05 247.55 28.72C247.58 29.49 247.46 30.27 246.66 30.58C245.61 30.98 244.87 31.6 244.49 32.68C244.36 33.03 243.75 33.2 243.38 33.05C242.99 32.9 242.56 32.75 242.47 32.27C242.43 32.09 242.47 31.75 242.57 31.7C243.12 31.41 243.71 31.18 244.29 30.93C244.71 30.75 244.96 30.42 244.96 29.97C244.96 29.34 244.86 28.71 244.88 28.08C244.9 27.45 245.03 26.83 245.11 26.21L245.03 26.28H245.02Z" fill="black"/>
<path d="M281.07 24.14C280.62 23.95 280.13 23.77 279.66 23.54C279.38 23.4 279.13 23.19 278.89 23C278.55 22.72 278.46 21.95 278.71 21.53C278.96 21.11 279.66 20.87 280.09 21.12C280.45 21.33 280.91 21.53 281.08 21.86C281.61 22.95 282.46 23.69 283.38 24.42C283.91 24.83 283.98 25.5 283.78 26.17C283.63 26.66 283.33 26.96 282.95 26.98C282.57 27 282.34 26.76 282.2 26.5C281.8 25.76 281.46 24.99 281.06 24.17L281.07 24.14Z" fill="black"/>
<path d="M247.97 23.26C248.17 23.33 248.38 23.36 248.56 23.47C249.55 24.04 250.4 23.82 251.1 22.99C251.5 22.51 251.79 21.93 252.4 21.65C252.74 21.5 253.01 21.58 253.26 21.81C253.54 22.06 253.6 22.43 253.44 22.66C253.32 22.83 253.25 23.06 253.1 23.18C252.28 23.85 251.53 24.55 251.06 25.54C250.86 25.97 250.32 26.28 249.89 26.56C249 27.13 248.12 26.72 248.06 25.72C248.01 24.88 248.03 24.03 248.02 23.19L247.96 23.26H247.97Z" fill="black"/>
<path d="M281.03 30.28C281.82 30.91 282.82 30.8 283.73 31.03C284.69 31.28 284.99 32.07 284.43 32.98C284.27 33.24 284.07 33.51 283.81 33.66C283.26 33.99 282.63 34.09 281.99 33.93C281.68 33.85 281.42 33.63 281.4 33.28C281.34 32.24 281.55 31.19 281.12 30.18L281.02 30.27L281.03 30.28Z" fill="black"/>
<path d="M264.31 31.98C264.25 32.74 263.59 33.39 262.88 33.39C261.98 33.39 261.34 32.62 261.48 31.7C261.6 30.93 262.25 30.41 263.04 30.47C263.78 30.52 264.38 31.23 264.32 31.99L264.31 31.98Z" fill="black"/>
<path d="M273.93 20.51C274.39 20.53 274.74 20.86 274.73 21.28C274.73 21.59 274.73 21.9 274.67 22.2C274.51 23 273.89 23.46 273.11 23.35C272.81 23.31 272.5 23.21 272.23 23.08C271.62 22.79 271.47 22.05 271.84 21.52C272.36 20.78 273.04 20.42 273.93 20.51Z" fill="black"/>
<path d="M241.09 28.33C241.12 28.84 241 29.34 240.65 29.76C240.28 30.19 239.82 30.36 239.26 30.23C238.8 30.12 238.46 29.64 238.44 29.05C238.4 27.91 238.92 27.28 240.01 27.13C240.41 27.07 240.9 27.36 240.97 27.7C241.01 27.9 241.04 28.11 241.08 28.34L241.09 28.33Z" fill="black"/>
<path d="M243.79 24.04C243.43 24.23 243.07 24.42 242.73 24.64C242.32 24.89 241.92 25.16 241.52 25.44C241.53 25.93 241.85 26.35 242.29 26.39C243.2 26.47 244.1 26.47 244.99 26.24C244.7 25.6 244.43 24.94 244.11 24.31C244.05 24.2 243.93 24.11 243.79 24.04Z" fill="black"/>
<path d="M267.77 22C267.73 22.16 267.7 22.47 267.58 22.74C267.29 23.43 266.38 23.75 265.79 23.4C265.15 23.02 264.89 22.15 265.27 21.54C265.43 21.28 265.64 21.04 265.88 20.86C266.21 20.62 266.59 20.48 267.03 20.63C267.49 20.79 267.77 21.23 267.76 21.99L267.77 22Z" fill="black"/>
<path d="M276.96 24.14C277.26 24.17 277.78 24.63 277.85 24.93C277.96 25.37 277.85 25.76 277.51 26.06C276.86 26.63 275.94 26.66 275.2 26.14C274.91 25.94 274.84 25.32 275.06 25.01C275.52 24.35 276.18 24.11 276.95 24.13L276.96 24.14Z" fill="black"/>
<path d="M254.41 28.13C254.41 29.22 253.54 29.87 252.49 29.57C252.11 29.46 251.83 28.96 251.92 28.58C252.09 27.91 252.52 27.49 253.13 27.23C253.75 26.96 254.42 27.43 254.41 28.13Z" fill="black"/>
<path d="M281.13 30.19C280.5 30.33 279.9 30.18 279.31 29.97C278.52 29.69 278.34 28.86 278.95 28.24C279.34 27.84 279.8 27.68 280.35 27.86C280.79 28 281.06 28.35 281.1 28.76C281.16 29.26 281.06 29.78 281.04 30.29L281.14 30.2L281.13 30.19Z" fill="black"/>
<path d="M273.9 29.12C273.84 29.55 273.67 29.96 273.28 30.14C272.91 30.31 272.49 30.38 272.09 30.42C271.94 30.43 271.67 30.26 271.63 30.12C271.45 29.5 271.49 28.89 271.93 28.36C272.19 28.05 272.7 27.85 273.04 27.95C273.52 28.09 273.94 28.67 273.91 29.12H273.9Z" fill="black"/>
<path d="M275.36 32.21C275.33 31.19 275.69 30.66 276.44 30.48C276.8 30.39 277.38 30.59 277.5 30.91C277.6 31.18 277.66 31.53 277.58 31.79C277.36 32.51 276.64 32.91 275.88 32.71C275.65 32.65 275.48 32.33 275.36 32.2V32.21Z" fill="black"/>
<path d="M267.13 28.72C267.13 29.35 266.6 29.92 266.17 29.91C265.87 29.91 265.33 29.47 265.27 29.14C265.23 28.94 265.15 28.71 265.22 28.53C265.32 28.25 265.48 27.97 265.7 27.78C265.96 27.55 266.58 27.7 266.81 28.02C266.98 28.26 267.06 28.56 267.13 28.71V28.72Z" fill="black"/>
<path d="M259.22 27.83C259.71 27.79 260.07 28.04 260.19 28.47C260.29 28.85 260.09 29.35 259.73 29.51C259.54 29.6 259.33 29.65 259.13 29.67C258.82 29.69 258.45 29.72 258.33 29.36C258.24 29.09 258.21 28.75 258.3 28.48C258.43 28.05 258.8 27.84 259.23 27.84L259.22 27.83Z" fill="black"/>
<path d="M237.74 31.99C237.69 32.52 237.15 32.93 236.63 32.85C236.1 32.76 235.66 32.27 235.67 31.79C235.68 31.32 236.23 30.93 236.82 30.96C237.41 30.99 237.8 31.43 237.74 31.99Z" fill="black"/>
<path d="M257.01 25.11C257.04 25.81 256.62 26.31 255.95 26.36C255.41 26.4 254.97 26.02 254.91 25.45C254.86 24.83 255.39 24.38 256.14 24.4C256.6 24.41 257 24.73 257.01 25.11Z" fill="black"/>
<path d="M262.86 26.04C262.67 25.94 262.38 25.82 262.13 25.65C261.91 25.51 261.85 25.03 261.99 24.79C262.25 24.34 262.87 24.09 263.34 24.26C263.77 24.41 264.07 24.78 264.07 25.18C264.07 25.67 263.53 26.1 262.87 26.04H262.86Z" fill="black"/>
<path d="M270.8 31.43C270.91 31.89 270.72 32.26 270.36 32.46C270.14 32.59 269.8 32.57 269.53 32.51C269.41 32.49 269.25 32.18 269.28 32.03C269.39 31.47 269.81 31.19 270.35 31.14C270.49 31.13 270.66 31.32 270.8 31.42V31.43Z" fill="black"/>
<path d="M259.92 21.48C260.32 21.45 260.74 21.8 260.79 22.22C260.84 22.65 260.52 23.1 260.15 23.13C259.65 23.17 259.05 22.69 259.04 22.26C259.04 21.95 259.53 21.51 259.92 21.48Z" fill="black"/>
<path d="M263.47 19.37C263.31 19.44 263.15 19.51 262.98 19.58C262.92 19.4 262.79 19.22 262.81 19.05C262.83 18.79 263.05 18.71 263.24 18.89C263.36 19 263.39 19.21 263.47 19.37Z" fill="black"/>
<path d="M286.87 22.15C286.75 22.28 286.63 22.51 286.52 22.51C286.36 22.51 286.09 22.36 286.06 22.23C286.02 22.07 286.13 21.81 286.26 21.69C286.48 21.51 286.85 21.8 286.87 22.15Z" fill="black"/>
<path d="M276.47 18.62C276.44 18.7 276.44 18.81 276.38 18.85C276.23 18.94 276.13 18.84 276.15 18.6C276.15 18.54 276.26 18.48 276.31 18.42C276.36 18.49 276.41 18.56 276.46 18.62H276.47Z" fill="black"/>
<path d="M269.83 25.43L270.01 25.37L269.98 25.53L269.83 25.43Z" fill="black"/>
</g>
<defs>
<clipPath id="clip0_296_4363">
<rect width="425.17" height="210.72" fill="white"/>
</clipPath>
</defs>
</svg>
