<svg width="162" height="201" viewBox="0 0 162 201" fill="none" xmlns="http://www.w3.org/2000/svg">
<g clip-path="url(#clip0_259_4380)">
<path d="M79.49 34.29C51.48 35.85 40.37 54.21 44.24 68.4C47.08 78.8 60.07 88.64 65.41 99.52C73.29 115.59 72.07 117.42 79.82 117.42C89.55 117.42 92.12 109.98 98.15 93.18C101.81 83.17 114.6 81.7 117.73 72.52C123.27 56.06 105.09 32.93 79.5 34.28L79.49 34.29Z" fill="#E7BB43"/>
<path d="M55.4 187.74C56.89 192.79 57.69 195.84 60.64 195.84C63.59 195.84 65.36 193.54 72.09 169.97C73.59 169.6 75.13 169.4 76.67 169.35C77.4 185.42 81 197.83 93.19 200.98C94.44 201.14 95.59 200.25 95.76 199C95.9 197.96 95.31 196.96 94.34 196.57C84.72 194.09 81.76 183.51 81.19 169.03C102.77 169.03 99.08 155.65 81.37 148.65C81.58 143.23 81.83 137.77 82.01 132.33C107.41 127.74 96.55 111.86 115.15 99.72C122.96 93.41 131.44 86.89 131.02 69.45C130.26 37.89 102.78 24.37 78.4 25.2C46.13 26.3 32.2 47.51 32.29 66.79C32.43 94.33 61.15 99.29 61.31 117.7C61.21 118.97 62.15 120.08 63.42 120.18C64.69 120.28 65.79 119.34 65.89 118.07C66.67 108.55 60.14 102.42 53.24 95.92C20.99 70.42 39.75 30.23 78.53 29.75C100.7 28.95 125.88 41.23 126.63 69.69C127 84.84 119.76 90.35 112.43 96.29C92.62 109.3 103.68 123.44 82.15 127.8C82.47 109.07 81.49 91.47 73.29 78.41C77.41 76.18 80.51 72.45 81.97 67.99C85.34 69.27 88.83 70.17 92.39 70.7C88.56 76.02 81.76 101.41 90.1 101.34C91.3 100.96 91.97 99.7 91.61 98.49C89.32 90.69 92.53 79.51 97.36 71.2C108.29 71.57 118.89 68.19 111.49 56.14C106.38 52.54 99.12 60.32 94.95 66.47C90.87 65.96 86.86 64.92 83.04 63.39C84.35 54.55 81.23 45.03 76.33 43.67C73.74 43.03 70.19 44.11 67.92 53.06C67.64 58.25 71.43 62.61 77.79 66C76.76 69.76 74.17 72.89 70.69 74.61C60.29 60.27 38.62 55.84 50.99 78.4C56.76 81.96 65.17 80.81 69.04 80.05C77.29 92.65 78 109.89 77.68 128.66C55.51 130.73 57.29 143.62 76.86 151.61C76.7 156.2 76.61 160.58 76.68 164.83C72.72 165.27 69.46 165.08 68.07 167.86C66.07 175.35 63.66 182.73 60.88 189.96C57.44 179.84 54.19 161.36 36.35 165.75C35.19 166.26 34.65 167.61 35.16 168.77C35.56 169.7 36.53 170.26 37.54 170.13C48.31 167.15 52.13 176.76 55.38 187.73L55.4 187.74ZM108.47 59.83C111.45 65.18 106.43 66.3 100.32 66.72C102.28 63.65 105.12 61.25 108.47 59.83ZM72.44 53.93C73.84 48.72 75.23 48.17 75.23 48.17C78 49.91 79.19 57.35 78.74 61.39C74.98 59.19 72.74 56.5 72.44 53.93ZM54.39 75.23C51.16 69.52 51.66 67.43 51.92 67.29C53.34 66.44 59.96 69.1 65.92 75.99C62.06 76.45 58.16 76.2 54.4 75.23H54.39ZM81.28 153.75C86.48 156.34 91.61 159.28 91.54 161.92C91.54 163.94 85.54 164.4 81.14 164.58C81.09 161.14 81.16 157.49 81.28 153.75ZM77.59 133.3C77.45 137.23 77.29 141.17 77.09 146.59C64.4 140.69 60.92 135.21 77.59 133.3Z" fill="black"/>
<path d="M21.45 60.79C22.72 60.84 23.79 59.86 23.84 58.59C23.89 57.32 22.92 56.25 21.66 56.2C15.33 55.94 9.04 55.17 2.83 53.9C1.61 53.62 0.399999 54.38 0.0999994 55.6C-1.55 60.33 17.49 60.03 21.45 60.79Z" fill="black"/>
<path d="M142.37 112.96C143.49 113.55 144.88 113.11 145.46 111.99C146.01 110.93 145.67 109.63 144.66 108.99C140.49 106.63 136.64 103.75 133.21 100.41C132.36 99.49 130.94 99.42 130 100.25C126.4 104.01 139.55 110.88 142.37 112.97V112.96Z" fill="black"/>
<path d="M35.4 98.16C33.45 95.73 31.02 98.78 29.19 99.84C27.22 101.56 14.03 109.14 21.45 111.45C25.28 109.66 27.96 105.53 31.78 103.58C33.45 102.25 37.16 100.83 35.4 98.16Z" fill="black"/>
<path d="M142.07 63.76C147.86 62.35 153.76 61.45 159.71 61.05C160.98 61.05 162 60.02 162 58.75C162 57.48 160.98 56.45 159.71 56.45C153.53 56.85 147.4 57.78 141.38 59.25C140.17 59.64 139.52 60.94 139.91 62.14C140.23 63.12 141.15 63.76 142.18 63.72L142.07 63.74V63.76Z" fill="black"/>
<path d="M108.49 18.54C113.85 15.99 116.94 8.1 121.43 3.51C122.1 2.43 121.77 1.02 120.7 0.349998C119.83 -0.190002 118.71 -0.0900016 117.95 0.589998C114.24 4.95 110.51 11.03 106.91 14.61C106.01 15.51 106.01 16.96 106.89 17.85C107.31 18.28 107.88 18.52 108.49 18.53V18.54Z" fill="black"/>
<path d="M43.94 10.44C47.33 14.2 51.2 23.64 54.98 20.79C55.85 19.89 55.85 18.47 54.98 17.58C51.78 13.74 48.8 9.74 46.02 5.58C45.15 4.66 43.7 4.62 42.78 5.5C42.02 6.23 41.85 7.39 42.37 8.31L43.93 10.44H43.94Z" fill="black"/>
<path d="M116.76 60.82C116.99 60.17 117.2 59.46 117.47 58.79C117.7 58.22 118.47 57.92 119.06 58.12C119.76 58.36 120.15 59.23 119.85 59.93C119.77 60.12 119.66 60.34 119.5 60.43C119.14 60.64 118.75 60.86 118.35 60.93C117.41 61.1 116.87 61.63 116.57 62.51C116.51 62.69 116.31 62.83 116.16 62.98C115.92 63.23 115.26 63.18 115.02 62.9C114.78 62.62 114.79 61.96 115.09 61.77C115.61 61.43 116.16 61.15 116.75 60.81L116.76 60.82Z" fill="black"/>
<path d="M92.2 54.28C91.91 54.19 91.68 54.18 91.52 54.06C90.88 53.57 90.61 52.92 90.8 52.11C90.97 51.37 92.02 51.02 92.57 51.53C93.18 52.09 93.36 53.1 92.9 53.84C92.76 54.07 92.4 54.16 92.2 54.29V54.28Z" fill="black"/>
<path d="M105.59 67.71C105.19 67.75 104.72 67.43 104.64 67.05C104.43 66.12 104.87 65.35 105.76 65.09C106.2 64.96 106.91 65.41 106.97 65.87C107.08 66.69 106.38 67.63 105.6 67.71H105.59Z" fill="black"/>
<path d="M109.35 57.76C109.25 57.74 109.14 57.74 109.05 57.71C108.52 57.55 108.2 57.15 107.98 56.68C107.71 56.1 108.16 55.42 108.83 55.37C109.38 55.32 109.91 55.59 110.11 56.02C110.38 56.58 110.19 57.21 109.62 57.61C109.54 57.67 109.44 57.71 109.35 57.76Z" fill="black"/>
<path d="M79.98 66.34C79.89 67.08 79.23 67.72 78.48 67.69C78.23 67.69 77.88 67.43 77.76 67.19C77.35 66.35 77.84 65.43 78.73 65.24C79.34 65.1 80.05 65.73 79.97 66.34H79.98Z" fill="black"/>
<path d="M109.18 48.76C109.84 48.73 110.28 49.16 110.3 49.55C110.33 50.29 109.52 51.01 108.86 50.77C108.49 50.63 108.18 50.33 107.87 50.06C107.69 49.9 107.81 49.34 108.04 49.24C108.5 49.03 108.98 48.85 109.18 48.77V48.76Z" fill="black"/>
<path d="M82.84 56.53C82.68 56.72 82.53 57.01 82.29 57.13C82.04 57.26 81.7 57.27 81.4 57.27C80.92 57.27 80.58 56.98 80.52 56.61C80.45 56.15 80.68 55.82 81.02 55.59C81.54 55.24 82.26 55.38 82.64 55.89C82.75 56.04 82.76 56.26 82.83 56.52L82.84 56.53Z" fill="black"/>
<path d="M109.46 63.77C108.32 63.76 107.87 63.04 108.26 62.1C108.5 61.53 109.05 61.17 109.43 61.33C110.18 61.64 110.57 62.75 110.1 63.39C109.94 63.6 109.6 63.68 109.46 63.77Z" fill="black"/>
<path d="M122.11 63.59C121.68 63.54 121.18 63.08 121.09 62.59C121.02 62.18 121.07 61.79 121.42 61.49C121.77 61.18 122.44 61.21 122.79 61.56C123.33 62.11 123.29 62.96 122.68 63.41C122.53 63.52 122.31 63.53 122.12 63.59H122.11Z" fill="black"/>
<path d="M99.58 78.91C99.56 79.46 99.27 79.85 98.75 80.1C98.23 80.35 97.64 80.1 97.55 79.52C97.5 79.22 97.52 78.9 97.58 78.6C97.67 78.18 98.1 77.9 98.51 77.93C99.06 77.96 99.57 78.42 99.58 78.91Z" fill="black"/>
<path d="M103.04 55.85C103.08 56.29 102.56 56.8 102.04 56.82C101.51 56.85 101.01 56.45 100.94 55.96C100.87 55.47 101.27 54.89 101.73 54.8C102.27 54.7 102.98 55.26 103.04 55.85Z" fill="black"/>
<path d="M92.97 59.51C92.85 59.66 92.69 59.93 92.47 60.15C92.17 60.46 91.66 60.41 91.34 60.09C91.04 59.79 90.98 59.3 91.2 58.92C91.42 58.53 91.71 58.22 92.18 58.23C92.65 58.23 93.12 58.94 92.96 59.51H92.97Z" fill="black"/>
<path d="M58.52 45.7C58.99 45.69 59.44 46.16 59.48 46.71C59.52 47.31 59.13 47.79 58.63 47.74C58.08 47.69 57.68 47.29 57.63 46.75C57.59 46.23 58.03 45.71 58.52 45.7Z" fill="black"/>
<path d="M95.09 42.37C95.3 42.6 95.59 42.78 95.65 43.02C95.71 43.28 95.61 43.64 95.46 43.88C95.13 44.42 94.51 44.52 94.17 44.15C93.8 43.74 93.78 43.12 94.2 42.78C94.43 42.6 94.74 42.52 95.09 42.36V42.37Z" fill="black"/>
<path d="M106.22 78.81C106.44 79.01 106.71 79.17 106.85 79.4C106.93 79.53 106.86 79.83 106.76 79.97C106.58 80.19 106.33 80.39 106.07 80.52C105.74 80.68 105.27 80.4 105.12 79.97C105.01 79.66 105.07 79.34 105.35 79.16C105.6 79.01 105.9 78.94 106.23 78.82L106.22 78.81Z" fill="black"/>
<path d="M113.02 52.95C112.93 53.55 112.21 54.04 111.65 53.88C111.22 53.76 110.95 53.39 110.98 52.96C111.01 52.35 111.67 51.92 112.35 52.05C112.78 52.13 113.08 52.54 113.03 52.95H113.02Z" fill="black"/>
<path d="M68.85 54.72C69.3 54.67 69.82 55.22 69.8 55.72C69.78 56.23 69.28 56.76 68.85 56.74C68.37 56.71 67.85 56.19 67.86 55.74C67.86 55.29 68.37 54.78 68.86 54.73L68.85 54.72Z" fill="black"/>
<path d="M67.11 50.99C66.91 50.14 67.31 49.59 68.01 49.19C68.34 49 68.88 49.15 69.11 49.48C69.39 49.89 69.27 50.65 68.85 50.85C68.27 51.13 67.67 51.27 67.05 50.93L67.11 50.98V50.99Z" fill="black"/>
<path d="M79.23 58.18C79.35 58.38 79.62 58.63 79.6 58.85C79.52 59.66 79 60.08 78.15 60.13C77.85 60.15 77.47 59.9 77.47 59.64C77.47 59.45 77.48 59.19 77.6 59.09C77.98 58.76 78.41 58.48 78.83 58.19C78.9 58.14 79.03 58.19 79.23 58.19V58.18Z" fill="black"/>
<path d="M92.81 39.51C92.91 39.98 92.49 40.5 91.97 40.53C91.62 40.56 91.22 40.16 91.2 39.76C91.18 39.36 91.52 38.96 91.9 38.93C92.4 38.9 92.73 39.11 92.82 39.51H92.81Z" fill="black"/>
<path d="M105.62 73.84C105.13 73.91 104.65 73.47 104.65 72.94C104.65 72.55 104.99 72.1 105.34 72.06C105.8 72.01 106.28 72.45 106.32 72.99C106.35 73.35 106 73.8 105.61 73.84H105.62Z" fill="black"/>
<path d="M85.35 79.98C85.01 79.95 84.61 79.51 84.57 79.15C84.52 78.66 85.07 78.22 85.58 78.33C86 78.42 86.21 78.77 86.15 79.24C86.1 79.64 85.7 80 85.34 79.97L85.35 79.98Z" fill="black"/>
<path d="M76.35 83.35C76.41 83.61 75.99 83.99 75.74 83.86C75.38 83.68 75.02 83.48 74.72 83.22C74.6 83.12 74.55 82.83 74.6 82.66C74.65 82.51 74.88 82.33 75.03 82.32C75.68 82.28 76.21 82.72 76.34 83.34L76.35 83.35Z" fill="black"/>
<path d="M86.09 59.75C86.13 60.22 85.68 60.77 85.19 60.85C84.86 60.9 84.36 60.51 84.29 60.16C84.16 59.52 84.68 58.89 85.3 58.93C85.68 58.96 86.05 59.35 86.09 59.75Z" fill="black"/>
<path d="M106.42 52.4C106.39 52.94 105.88 53.37 105.4 53.26C105.01 53.17 104.72 52.82 104.69 52.38C104.66 51.92 105.17 51.28 105.56 51.28C105.95 51.28 106.45 51.93 106.42 52.39V52.4Z" fill="black"/>
<path d="M75.56 61.92C75.83 61.95 76.09 62.28 76.08 62.56C76.07 63 75.86 63.32 75.47 63.51C75.15 63.67 74.52 63.53 74.41 63.2C74.33 62.96 74.37 62.59 74.51 62.37C74.73 62.03 75.11 61.84 75.56 61.92Z" fill="black"/>
<path d="M89.39 62.81C89.37 63.33 88.9 63.75 88.37 63.69C87.96 63.64 87.6 63.21 87.66 62.86C87.76 62.32 88.2 61.94 88.7 61.94C89.04 61.94 89.39 62.41 89.38 62.81H89.39Z" fill="black"/>
<path d="M102.6 49.56C102.53 50.03 102.01 50.29 101.71 50.01C101.49 49.81 101.3 49.56 101.14 49.3C100.96 48.99 101.06 48.63 101.31 48.5C101.59 48.36 101.89 48.29 102.17 48.5C102.52 48.77 102.71 49.11 102.6 49.55V49.56Z" fill="black"/>
<path d="M103.16 43.06C103.21 43.38 102.82 43.83 102.43 43.89C101.86 43.98 101.49 43.71 101.35 43.11C101.26 42.73 101.51 42.22 101.83 42.14C102.4 42 103.08 42.47 103.16 43.06Z" fill="black"/>
<path d="M115.32 54.88C115.41 54.91 115.52 54.93 115.6 54.98C116.1 55.28 116.17 55.77 116.11 56.28C116.09 56.42 115.86 56.6 115.7 56.64C115.1 56.78 114.51 56.25 114.52 55.63C114.52 55.27 114.97 54.86 115.32 54.88Z" fill="black"/>
<path d="M85.4 65.77C85.75 65.8 86.09 66.2 86.12 66.61C86.15 67.03 85.78 67.46 85.43 67.43C85.1 67.4 84.71 66.96 84.69 66.6C84.67 66.23 85.08 65.75 85.4 65.77Z" fill="black"/>
<path d="M112.92 66.53C112.81 66.7 112.7 67.03 112.48 67.15C112.07 67.37 111.53 66.91 111.45 66.28C111.43 66.12 111.58 65.84 111.72 65.78C112.26 65.55 112.81 65.87 112.93 66.53H112.92Z" fill="black"/>
<path d="M96.29 76.25C96.25 76.64 95.86 76.94 95.43 76.89C95.07 76.85 94.7 76.39 94.76 76.05C94.82 75.69 95.24 75.38 95.64 75.39C96.01 75.4 96.33 75.83 96.29 76.24V76.25Z" fill="black"/>
<path d="M62.63 49.63C62.73 49.99 62.23 50.4 61.78 50.3C61.36 50.2 61.04 49.95 60.85 49.53C60.68 49.16 60.95 48.64 61.36 48.59C62.03 48.52 62.59 48.97 62.63 49.62V49.63Z" fill="black"/>
<path d="M86.17 39.46C86.12 39.87 85.75 40.16 85.32 40.11C84.96 40.07 84.54 39.62 84.56 39.3C84.6 38.82 85.2 38.37 85.64 38.51C86.03 38.63 86.23 38.99 86.17 39.46Z" fill="black"/>
<path d="M98.51 45.53C99.01 45.45 99.46 45.82 99.48 46.2C99.49 46.45 99.2 46.8 98.92 46.85C98.55 46.93 98.02 46.54 98.1 46.17C98.15 45.91 98.4 45.69 98.51 45.52V45.53Z" fill="black"/>
<path d="M66.42 51.6C66.6 52.28 66.38 52.78 65.78 53.13C65.53 53.28 65.19 53.22 64.98 52.95C64.79 52.69 64.71 52.41 64.92 52.12C65.32 51.58 65.8 51.3 66.47 51.64L66.41 51.59L66.42 51.6Z" fill="black"/>
<path d="M88.46 50.02C88.36 49.84 88.12 49.61 88.11 49.36C88.09 48.98 88.68 48.61 89 48.77C89.15 48.85 89.3 49.08 89.32 49.26C89.36 49.71 88.96 50.1 88.46 50.02Z" fill="black"/>
<path d="M79.1 52.83C78.94 52.96 78.76 53.2 78.51 53.3C78.23 53.42 77.86 53.12 77.9 52.8C77.93 52.53 78.07 52.2 78.27 52.05C78.54 51.86 79.09 52.33 79.1 52.84V52.83Z" fill="black"/>
<path d="M78.27 40.55C78.12 40.18 77.95 39.92 77.94 39.66C77.93 39.34 78.35 39.09 78.62 39.17C78.93 39.27 79.17 39.63 79.02 39.88C78.87 40.12 78.59 40.27 78.27 40.55Z" fill="black"/>
<path d="M72.23 60.07C72.05 59.98 71.84 59.91 71.69 59.78C71.45 59.58 71.48 59.18 71.7 58.95C71.91 58.73 72.29 58.74 72.53 59.01C72.66 59.15 72.75 59.35 72.81 59.54C72.9 59.85 72.56 60.15 72.23 60.08V60.07Z" fill="black"/>
<path d="M91.72 67.05C91.43 66.99 91.25 66.64 91.36 66.32C91.47 66 91.83 65.83 92.09 66.03C92.24 66.14 92.35 66.35 92.39 66.53C92.44 66.81 92.01 67.1 91.72 67.04V67.05Z" fill="black"/>
<path d="M82.22 62.62C82.09 62.71 81.96 62.89 81.84 62.88C81.52 62.84 81.37 62.53 81.5 62.26C81.53 62.19 81.63 62.12 81.71 62.09C81.97 61.99 82.25 62.29 82.21 62.62H82.22Z" fill="black"/>
<path d="M102.56 69.4C102.56 69.74 102.25 70.03 101.95 69.9C101.8 69.84 101.64 69.65 101.62 69.49C101.57 69.16 101.93 68.86 102.22 68.98C102.37 69.04 102.45 69.25 102.56 69.39V69.4Z" fill="black"/>
<path d="M98.93 73.02C98.77 72.93 98.52 72.87 98.46 72.74C98.33 72.44 98.46 72.17 98.76 72.01C99.03 71.86 99.37 72.07 99.41 72.39C99.45 72.73 99.26 72.98 98.92 73.03L98.93 73.02Z" fill="black"/>
<path d="M81.8 70.62C81.55 70.72 81.39 70.64 81.29 70.39C81.07 69.87 81.17 69.64 81.68 69.43C81.93 69.33 82.1 69.39 82.2 69.64C82.4 70.14 82.29 70.41 81.81 70.61L81.8 70.62Z" fill="black"/>
<path d="M78.72 79.96C78.53 80.03 78.34 80.17 78.17 80.15C77.92 80.11 77.88 79.89 77.99 79.65C78.1 79.41 78.28 79.29 78.48 79.45C78.61 79.55 78.65 79.79 78.72 79.97V79.96Z" fill="black"/>
<path d="M99.04 59.28C98.96 59.45 98.92 59.67 98.79 59.77C98.57 59.94 98.2 59.67 98.21 59.34C98.21 59.16 98.31 58.95 98.44 58.82C98.61 58.65 98.99 58.95 99.04 59.28Z" fill="black"/>
<path d="M98.79 86.03C98.92 86.14 99.14 86.23 99.17 86.37C99.24 86.62 98.74 87 98.55 86.84C98.42 86.74 98.34 86.48 98.37 86.31C98.39 86.2 98.64 86.12 98.78 86.03H98.79Z" fill="black"/>
<path d="M85.18 72.28C85.25 72.29 85.36 72.28 85.39 72.32C85.43 72.38 85.45 72.49 85.42 72.56C85.39 72.64 85.3 72.69 85.23 72.76C85.18 72.68 85.11 72.6 85.1 72.52C85.09 72.45 85.15 72.36 85.17 72.29L85.18 72.28Z" fill="black"/>
<path d="M112.12 72.61C112.12 72.7 112.16 72.81 112.12 72.88C112.08 72.95 111.97 72.99 111.9 73.04C111.85 72.88 111.77 72.72 111.75 72.56C111.75 72.51 111.88 72.44 111.95 72.39C112.01 72.46 112.06 72.54 112.12 72.61Z" fill="black"/>
<path d="M101.84 75.88C101.92 75.94 102.08 76.05 102.07 76.07C101.99 76.24 101.87 76.4 101.76 76.56C101.69 76.48 101.59 76.42 101.56 76.33C101.46 76.07 101.56 75.92 101.84 75.88Z" fill="black"/>
<path d="M78.29 73.18C78.22 73.1 78.09 72.98 78.11 72.93C78.21 72.7 78.41 72.63 78.64 72.74C78.73 72.78 78.78 72.89 78.85 72.97C78.66 73.04 78.48 73.11 78.29 73.18Z" fill="black"/>
<path d="M115.39 69.76C115.3 69.81 115.2 69.91 115.13 69.89C114.89 69.82 114.82 69.64 114.94 69.42C114.99 69.34 115.09 69.3 115.17 69.25C115.24 69.42 115.31 69.59 115.38 69.76H115.39Z" fill="black"/>
<path d="M101.94 83.05C102.02 83.02 102.1 82.96 102.17 82.98C102.41 83.03 102.44 83.15 102.23 83.27C102.18 83.3 102.06 83.27 102 83.22C101.96 83.2 101.96 83.11 101.94 83.05Z" fill="black"/>
<path d="M95.7 56.14C95.81 56.24 95.92 56.35 96.02 56.45C95.95 56.51 95.86 56.62 95.8 56.61C95.63 56.57 95.47 56.48 95.31 56.41C95.44 56.32 95.57 56.23 95.7 56.14Z" fill="black"/>
<path d="M102.52 62.8C102.46 62.87 102.38 63.02 102.34 63.01C102.17 62.96 102.01 62.86 101.85 62.78C102.02 62.71 102.18 62.62 102.35 62.58C102.39 62.58 102.46 62.72 102.52 62.8Z" fill="black"/>
<path d="M67.06 50.94C67.06 51.37 66.79 51.53 66.42 51.6L66.48 51.65C66.48 51.22 66.75 51.06 67.12 50.99L67.06 50.94Z" fill="black"/>
<path d="M88.46 56.24L88.53 56.44L88.33 56.41L88.46 56.24Z" fill="black"/>
<path d="M105.78 59.58C105.72 59.63 105.62 59.73 105.59 59.72C105.36 59.6 105.38 59.47 105.63 59.41C105.66 59.41 105.73 59.53 105.78 59.59V59.58Z" fill="black"/>
</g>
<defs>
<clipPath id="clip0_259_4380">
<rect width="162" height="201" fill="white"/>
</clipPath>
</defs>
</svg>
