<svg width="206" height="203" viewBox="0 0 206 203" fill="none" xmlns="http://www.w3.org/2000/svg">
<g clip-path="url(#clip0_280_584)">
<path d="M27.78 84.13L31.78 107.13L34.78 125.13L40.78 134.13L59.78 137.13L74.78 114.13L82.78 105.13L81.78 98.13L83.26 82.45L69.14 89.04L55.06 89.38L35.78 85.98L27.78 84.13Z" fill="white"/>
<path d="M96.78 102.13L102.27 58.26L114.78 58.13L117.78 71.13L123.73 52.33L136.78 55.13L133.78 70.13L137.74 75.8L145.78 57.13L156.5 63L153.83 68.98L154.78 70.13L162.33 74.48L161.78 84.13L163.78 89.13L161.78 104.13L152.78 137.13H138.78L136.78 119.13L119.78 105.13L96.78 102.13Z" fill="white"/>
<path d="M55.78 91.13C75.11 91.13 90.78 80.161 90.78 66.63C90.78 53.099 75.11 42.13 55.78 42.13C36.45 42.13 20.78 53.099 20.78 66.63C20.78 80.161 36.45 91.13 55.78 91.13Z" fill="white"/>
<path d="M72.78 167.13L72.76 160.62L79.68 165.7L93.52 166.12L108.78 170.13L126.78 166.13L138.78 158.13L137.78 169.13L117.78 179.13H96.78L77.78 174.13L72.78 167.13Z" fill="#E7BB43"/>
<path d="M70.78 153.13L64.78 149.13L58.78 142.13L63.02 130.83L72.78 125.13L102.78 132.13L144.62 138.73L150.78 146.13L147.78 154.13L136.78 158.13L127.78 167.13L111.78 168.13L94.78 166.13L83.78 167.13L73.78 162.13L70.78 153.13Z" fill="#64A03D"/>
<path d="M105.28 145.13C123.782 145.13 138.78 137.071 138.78 127.13C138.78 117.189 123.782 109.13 105.28 109.13C86.7785 109.13 71.78 117.189 71.78 127.13C71.78 137.071 86.7785 145.13 105.28 145.13Z" fill="#E7BB43"/>
<path d="M145.5 77.5L152.5 60L156.5 63L155 69.5L149.5 80L145.5 88.5L136.5 95L135 92L145.5 77.5Z" fill="#F39745"/>
<path d="M135 73L128.5 95L134 96.5L140.5 76.5L135 73Z" fill="#F39745"/>
<path d="M93.66 136C93.66 139.63 105.9 140.08 103.86 135.55C102.04 130.79 93.66 132.15 93.66 136Z" fill="black"/>
<path d="M87.08 110.83C83.45 112.87 91.62 117.63 94.11 116.73C96.6 115.82 92.52 107.66 87.08 110.83Z" fill="black"/>
<path d="M78.47 122.17C76.21 124.43 81.42 131.01 84.82 128.97C89.35 126.25 81.19 119.9 78.47 122.17Z" fill="black"/>
<path d="M116.11 138.27C121.09 139.18 125.18 133.06 123.36 131.92C118.37 128.74 112.03 137.36 116.11 138.27Z" fill="black"/>
<path d="M138.43 133.05C134.57 138.72 126.64 145.52 109.86 147.11C92.63 148.93 76.76 141.89 71.55 133.27C65.65 137.81 69.96 145.97 73.37 149.14C82.67 157.99 96.27 160.03 110.78 158.89C128.92 157.53 136.85 151.18 140.03 147.78C145.92 141.88 145.47 131.68 138.44 133.04L138.43 133.05Z" fill="#DB433B"/>
<path d="M73.19 111.6L74.78 85.75C74.78 85.75 69.34 88.47 55.05 89.38C40.99 90.29 35.78 85.98 35.78 85.98C35.78 85.98 37.14 117.51 40.09 126.58C43.04 135.65 50.52 137.7 57.32 138.37C57.55 128.62 67.75 127.26 67.75 127.26C67.75 114.56 73.19 111.61 73.19 111.61V111.6Z" fill="#5FBFFA"/>
<path d="M100.91 118.77C97.96 120.59 101.82 128.29 106.13 126.93C110.67 125.57 103.87 116.96 100.91 118.77Z" fill="black"/>
<path d="M130.84 125.34C134.01 122.61 128.57 120.34 124.71 121.02C120.86 121.93 126.98 128.51 130.84 125.34Z" fill="black"/>
<path d="M109.9 87.26L111.94 88.4L115.79 80.46L112.87 59.31L108.09 58C108.09 58 109.91 87.04 109.91 87.26H109.9Z" fill="#F39745"/>
<path d="M108.62 111.51C105.67 114.46 110.44 116.73 114.29 116.28C119.96 115.6 112.03 108.11 108.62 111.51Z" fill="black"/>
<path d="M8.68 108.96C1.43 115.76 -2.95 125.87 2.31 135.08C9.55 147.38 84.61 195.69 103.93 201.61C111.77 204.01 120.44 202.97 128.23 200.88C135.15 199.02 142.3 196.22 148.06 191.87C153.07 188.09 156.73 181.83 160.57 176.94C164.99 171.3 169.41 165.67 173.83 160.03C177.02 155.97 180.2 151.9 183.39 147.84C184.99 145.8 186.49 143.51 188.27 141.63C189.79 140.03 191.67 138.69 193.35 137.27C195.76 135.23 198.28 133.31 200.61 131.18C201.77 130.11 202.9 128.98 203.91 127.76C204.42 127.15 204.9 126.51 205.35 125.86C207.08 123.28 204.87 120.66 202.99 118.8C202.42 118.23 201.81 117.69 201.17 117.17C199.87 116.11 198.46 115.14 197.07 114.23C194.27 112.38 191.36 110.71 188.41 109.09C181.64 105.39 174.66 102.06 167.62 98.9C167.1 98.67 166.57 98.42 166.03 98.19C167.57 84.58 166.47 84.13 164.71 82.82C168.67 74.7 170.64 70.3 158.58 68.55C163.18 61.51 152.87 53.62 146.93 54.27C141.02 55.37 140.8 63.71 137.28 68.33C137.72 64.38 142.55 55.15 137.51 53.4C125.21 49.01 120.61 50.33 119.29 63.07C119.73 57.14 117.32 55.6 108.09 55.6C96.68 55.6 101.72 64.17 101.29 71.85C91.19 70.97 94.26 91.83 95.14 99.29C91.84 99.73 88.6 100.54 85.48 101.7C86.36 92.7 87.24 85.23 87.46 82.6C101.47 69.25 90.61 50.68 74.24 42.51C72.53 41.98 70.81 41.33 69.08 40.59C69.06 40.61 69.04 40.63 69.03 40.66C64.52 39.49 59.84 39.12 55.2 39.56C53.21 16.29 42.9 11.24 26.44 1.13997C17 -4.57002 11.51 12.56 18.54 17.39C34.13 27.71 36.1 27.49 38.08 43.52C34.18 45.11 30.89 47.87 28.64 51.43C28.49 51.66 27.61 51.91 27.35 52.05C26.9 52.29 26.46 52.56 26.04 52.84C25.2 53.4 24.41 54.05 23.69 54.77C22.18 56.28 20.57 58.56 20.11 60.67C20.05 60.96 19.82 61.89 19.5 63.17C18.83 65.87 19.19 69.08 19.87 71.74C20.49 74.15 21.69 76.21 22.78 78.4C23.17 79.21 23.61 79.97 23.92 80.82C24.37 82.04 25.29 83.31 25.44 84.62C25.64 86.28 25.76 87.9 26.05 89.55C26.16 90.22 27.57 96.56 27.33 96.67C22.27 98.99 13.04 105.15 13.04 105.11M156.4 72.95C158.41 73.32 160.4 73.84 162.33 74.49C161.14 76.97 160.11 79.55 159.26 82.17C156.46 82.49 153.72 83.23 151.14 84.37C152.89 80.86 154.87 76.47 156.4 72.95ZM141.91 72.07H141.92C143.9 67.24 146.31 63.29 147.85 59.99C148.73 59.33 154.87 62.41 154.65 63.94C150.48 70.98 145.87 87.87 138.41 92.05C140.38 84.14 144.54 76.02 141.91 72.07ZM137.74 75.8C136.22 79.76 133.36 90.07 132.27 94.02C129.97 94.21 127.67 93.98 125.46 93.36C126.78 88.75 129.42 78.65 130.08 74.7C130.93 73.82 137.09 74.92 137.74 75.8ZM125.68 56.26C138.4 54.94 132.91 61.31 131.6 69C123.7 68.14 123.92 82.83 120.19 90.95C119.31 90.29 118.22 89.41 117.34 88.76C119.09 81.95 124.8 60.43 125.68 56.26ZM113.17 60.65C114.26 68.12 115.8 79.32 113.17 83.92C111.19 81.51 109.21 79.09 107.46 76.89C106.82 71.5 106.46 66.07 106.36 60.64C107.02 59.55 112.73 59.98 113.17 60.64V60.65ZM100.87 77.78C110.09 90.3 127 107.42 142.35 96.01C142.9 97.33 142.9 101.61 143.06 105.65C143.23 109.68 143.56 113.47 144.76 113.8C149.37 115.12 148.94 99.09 148.06 91.84C152.89 89.42 158.38 87.23 161.44 87.45C162.32 93.82 155.96 128.07 154.2 132.02C153.55 133.56 149.16 134.22 145.42 134.66C144.81 132.64 143.37 130.97 141.48 130.04C144.54 111.16 122.16 100.18 100.87 99.31C99.55 90.74 99.55 80.42 100.87 77.79V77.78ZM132.47 158.8H132.49C123.92 166.71 109.66 166.92 98.25 163.85C91.45 161.87 85.74 165.83 79.15 161.65C74.54 159.02 74.32 154.41 71.25 150.89C65.32 144.74 55.89 138.59 68.61 130.03C68.81 130.73 69.11 131.39 69.49 132.01C56.98 167.57 136.44 168.67 145.22 142.11C155.08 152 138.18 153.76 132.47 158.8ZM137.31 162.31C134.46 181.42 80.47 181.86 74.1 164.95C83.1 173.07 91.88 167.58 97.37 169.34C114.26 174.84 127.64 171.32 137.31 162.31ZM67.52 124.54C62.94 126.22 59.33 129.84 57.64 134.42C47.98 134.19 38.32 130.25 37 123.44C34.59 110.92 33.05 98.41 31.07 85.9C43.8 94.68 68.17 94.24 81.55 87.21C81.32 91.61 80.44 97.98 79.79 105C72.55 109.62 67.5 116.42 67.5 124.55L67.52 124.54ZM72.78 137.06C88.8 154.41 126.34 152.21 138.85 135.08C146.08 160.11 70.8 162.53 72.77 137.06H72.78ZM129.19 137.06C119.31 147.38 70.14 146.5 73.44 121.69C79.13 89.42 159.89 110.94 129.19 137.06ZM35.46 23.77H35.47C29.32 18.27 17.47 13.22 20.55 7.28998C21.21 6.18998 22.08 5.08998 23.4 5.74998C31.08 9.26998 46.67 18.71 49.3 30.56C50.96 37.9 51.7 45.43 51.49 52.96C51.27 55.6 47.32 56.69 44.69 54.06C42.48 51.88 43.8 31.44 35.45 23.77H35.46ZM33.27 54.72C34.41 52.22 36.45 50.26 38.98 49.22C40.52 60.2 41.62 61.96 51.27 61.08C57.64 60.42 56.32 51.19 55.88 45.49C68.6 45.05 83.76 49.23 78.71 62.18C72.11 74.93 28.87 73.39 33.26 54.73L33.27 54.72ZM24.71 64.39C25.08 62.35 25.99 60.46 27.35 58.89C26.91 80.42 85.96 81.73 85.29 58.68C105.69 92.05 22.95 99.07 24.71 64.39ZM186.97 135.61C184.37 137.53 181.85 139.49 179.88 142.13C178.43 144.06 176.98 146 175.53 147.93C171.72 153.03 167.89 158.13 164.07 163.23C160.95 167.4 157.83 171.57 154.71 175.74C151.95 179.42 149.65 183.51 145.99 186.4C143.64 188.25 141.09 189.92 138.48 191.38C131.17 195.47 122.9 197.94 114.48 197.69C111.37 197.6 108.28 197.13 105.27 196.35C85.08 191.08 12.42 142.77 7.16 132.24C0.360001 118.84 13.53 110.28 28.46 101.94C30.87 119.73 30.43 139.7 56.99 139.7C57.65 147.39 62.26 150.46 66.43 153.76C60.28 190.21 144.13 191.97 143.26 159.04C149.4 156.4 151.37 154.86 152.69 151.13C154.13 147.11 153.2 142.61 150.28 139.49C161.47 137.29 158.84 134.66 165.43 104.14C181.23 111.17 196.81 119.29 199.89 123.25C200.58 124.15 191.88 131.87 190.93 132.62C189.64 133.66 188.3 134.63 186.99 135.61H186.98H186.97Z" fill="black"/>
<path d="M100.44 171.33C100.41 172.02 100.42 172.75 100.35 173.48C100.3 174.1 99.64 174.6 99.02 174.58C98.28 174.56 97.66 173.84 97.74 173.08C97.76 172.88 97.8 172.63 97.93 172.5C98.21 172.19 98.52 171.87 98.88 171.68C99.74 171.25 100.09 170.57 100.12 169.65C100.12 169.46 100.28 169.27 100.37 169.08C100.53 168.77 101.17 168.63 101.48 168.82C101.79 169.02 101.98 169.65 101.75 169.92C101.36 170.4 100.9 170.83 100.44 171.32V171.33Z" fill="black"/>
<path d="M89.07 181.06C88.75 180.06 88.77 179.25 89.17 178.46C89.43 177.94 89.99 177.63 90.43 177.8C91.09 178.05 91.53 178.64 91.45 179.21C91.31 180.23 90.72 180.9 89.78 181.29C89.53 181.39 89.1 181.18 89.08 181.07L89.07 181.06Z" fill="black"/>
<path d="M125.84 170.41C126.14 170.41 126.37 170.36 126.55 170.42C127.3 170.7 127.75 171.24 127.81 172.07C127.86 172.83 126.96 173.47 126.29 173.15C125.54 172.79 125.07 171.88 125.3 171.04C125.37 170.78 125.68 170.59 125.84 170.41Z" fill="black"/>
<path d="M102.87 134.28C102.92 133.96 102.89 133.52 103.07 133.19C103.51 132.37 104.71 132.17 105.48 132.72C106.07 133.13 106.04 133.91 105.44 134.22C104.8 134.55 104.14 134.84 103.4 134.73C103.24 134.71 103.11 134.49 102.86 134.28H102.87Z" fill="black"/>
<path d="M110.7 121.87C110.3 122.02 109.78 121.93 109.57 121.58C109.42 121.33 109.39 121.01 109.33 120.71C109.31 120.62 109.36 120.5 109.4 120.4C109.65 119.75 110.33 119.29 110.85 119.42C111.14 119.49 111.54 120.01 111.58 120.37C111.66 121.05 111.32 121.63 110.69 121.86L110.7 121.87Z" fill="black"/>
<path d="M109.12 161.47C109.49 161.31 110.03 161.49 110.22 161.82C110.69 162.65 110.5 163.51 109.73 164.02C109.35 164.27 108.54 164.04 108.34 163.63C107.99 162.87 108.39 161.78 109.12 161.47Z" fill="black"/>
<path d="M108.43 172.09C108.53 172.08 108.63 172.05 108.73 172.05C109.28 172.05 109.7 172.33 110.05 172.72C110.47 173.19 110.25 173.97 109.62 174.22C109.11 174.42 108.53 174.32 108.2 173.97C107.78 173.51 107.78 172.85 108.2 172.3C108.26 172.22 108.34 172.15 108.41 172.08L108.43 172.09Z" fill="black"/>
<path d="M134.01 155.3C133.88 154.57 134.32 153.76 135.05 153.57C135.29 153.51 135.7 153.65 135.88 153.84C136.52 154.52 136.32 155.54 135.52 155.99C134.98 156.3 134.11 155.9 134.01 155.3Z" fill="black"/>
<path d="M95.59 107.48C95.43 106.77 95.89 105.99 96.58 105.84C97.13 105.72 97.76 106.21 97.87 106.86C97.98 107.51 97.63 108.06 96.98 108.26C96.33 108.47 95.74 108.14 95.59 107.47V107.48Z" fill="black"/>
<path d="M108.68 112.69C109.17 112.57 109.77 112.99 109.82 113.49C109.88 114.08 109.64 114.57 109.18 114.8C108.78 115 108.14 114.69 107.91 114.18C107.67 113.68 108.12 112.82 108.69 112.69H108.68Z" fill="black"/>
<path d="M111.22 180.65C110.6 180.87 110.05 180.59 109.92 180.22C109.67 179.52 110.23 178.59 110.94 178.63C111.33 178.65 111.72 178.85 112.09 179.02C112.31 179.12 112.36 179.69 112.17 179.85C111.79 180.19 111.39 180.5 111.21 180.64L111.22 180.65Z" fill="black"/>
<path d="M142.64 138.56C142.58 137.95 143.14 137.27 143.69 137.29C144.18 137.31 144.71 137.75 144.79 138.21C144.9 138.83 144.36 139.48 143.75 139.45C143.2 139.42 142.68 139 142.63 138.56H142.64Z" fill="black"/>
<path d="M164.07 132.14C164.23 132.57 163.98 133.27 163.57 133.51C163.09 133.79 162.28 133.45 162.02 132.87C161.82 132.42 162.07 131.75 162.51 131.53C163.06 131.26 163.86 131.57 164.08 132.14H164.07Z" fill="black"/>
<path d="M134.15 165.52C134.25 165.29 134.31 164.97 134.5 164.78C134.7 164.58 135.02 164.48 135.31 164.39C135.76 164.25 136.18 164.43 136.34 164.77C136.54 165.19 136.42 165.57 136.16 165.89C135.77 166.37 135.04 166.45 134.52 166.07C134.37 165.96 134.3 165.75 134.15 165.52Z" fill="black"/>
<path d="M106.56 166.37C107.66 166.05 108.3 166.6 108.2 167.62C108.14 168.23 107.72 168.74 107.3 168.7C106.49 168.62 105.8 167.67 106.06 166.92C106.15 166.67 106.45 166.49 106.57 166.37H106.56Z" fill="black"/>
<path d="M94.52 170.23C94.95 170.15 95.56 170.45 95.79 170.89C95.98 171.26 96.04 171.65 95.79 172.04C95.54 172.44 94.9 172.61 94.46 172.37C93.78 172.01 93.57 171.18 94.03 170.57C94.14 170.42 94.35 170.34 94.52 170.23Z" fill="black"/>
<path d="M153.43 149.64C153.25 149.11 153.41 148.64 153.67 148.19C153.92 147.76 154.61 147.56 154.99 147.79C155.5 148.09 155.73 148.9 155.43 149.38C155.1 149.91 154.46 150.19 153.86 150.01C153.69 149.96 153.57 149.76 153.43 149.64Z" fill="black"/>
<path d="M92.91 133.32C92.66 132.68 92.91 132.04 93.49 131.78C93.96 131.58 94.58 131.78 94.82 132.23C95.17 132.88 94.82 133.79 94.13 133.99C93.66 134.12 93.11 133.82 92.91 133.32Z" fill="black"/>
<path d="M164.63 138.94C164.65 138.74 164.63 138.51 164.7 138.34C164.78 138.16 164.94 138 165.11 137.88C165.54 137.57 166.27 137.58 166.58 137.87C166.91 138.17 166.87 138.98 166.5 139.29C165.99 139.73 165.27 139.7 164.81 139.21C164.74 139.13 164.69 139.04 164.63 138.95V138.94Z" fill="black"/>
<path d="M111.6 149.01C111.46 148.48 111.62 148.02 112.05 147.63C112.48 147.24 113.11 147.31 113.37 147.83C113.5 148.1 113.58 148.41 113.61 148.71C113.65 149.13 113.32 149.53 112.91 149.63C112.37 149.76 111.75 149.47 111.6 149.01Z" fill="black"/>
<path d="M115.02 172.07C114.85 171.66 115.2 171.02 115.69 170.85C116.19 170.67 116.78 170.9 116.99 171.35C117.2 171.8 116.99 172.47 116.58 172.69C116.09 172.95 115.25 172.61 115.02 172.07Z" fill="black"/>
<path d="M162.21 142.48C163.15 142.24 163.77 142.64 163.96 143.49C164.05 143.91 163.72 144.43 163.34 144.4C162.93 144.36 162.52 144.27 162.14 144.11C161.73 143.94 161.48 143.38 161.67 143.06C161.82 142.81 162.08 142.62 162.23 142.48H162.21Z" fill="black"/>
<path d="M181.97 116.19C181.81 115.75 181.97 115.36 182.2 115.02C182.4 114.73 183.03 114.63 183.34 114.83C183.61 115 183.84 115.23 183.79 115.58C183.74 115.88 183.69 116.21 183.52 116.45C183.35 116.68 183.07 116.87 182.8 116.96C182.5 117.06 182.1 116.66 181.97 116.2V116.19Z" fill="black"/>
<path d="M123.59 165.63C123.66 165.45 123.74 165.14 123.88 164.87C124.08 164.49 124.58 164.38 124.97 164.6C125.34 164.8 125.54 165.25 125.45 165.68C125.36 166.11 125.16 166.49 124.71 166.63C124.26 166.76 123.61 166.23 123.59 165.63Z" fill="black"/>
<path d="M170.19 140.63C170.34 140.93 170.14 141.51 169.83 141.69C169.13 142.08 168.4 141.8 168.16 141.03C168.06 140.71 168.33 140.14 168.64 140.02C169.18 139.81 169.95 140.11 170.19 140.64V140.63Z" fill="black"/>
<path d="M92.92 112.02C92.81 111.57 93.21 110.91 93.66 110.79C94.24 110.64 94.94 111.09 95.07 111.72C95.17 112.22 94.81 112.84 94.35 112.94C93.75 113.07 93.07 112.64 92.92 112.02Z" fill="black"/>
<path d="M160.57 168.78C160.13 168.93 159.56 168.6 159.36 168.09C159.14 167.53 159.38 166.96 159.87 166.85C160.41 166.74 160.91 167 161.11 167.5C161.3 167.98 161.03 168.61 160.57 168.77V168.78Z" fill="black"/>
<path d="M96.78 135.03C96.84 134.7 96.81 134.46 96.93 134.32C97.04 134.19 97.3 134.09 97.47 134.12C98.25 134.24 98.77 134.74 99.15 135.39C99.22 135.52 99.14 135.76 99.08 135.94C99.06 136.01 98.91 136.06 98.81 136.07C97.86 136.17 97.28 135.64 96.79 135.03H96.78Z" fill="black"/>
<path d="M126.55 182.64C126.29 182.48 125.95 182.39 125.83 182.18C125.7 181.95 125.69 181.58 125.76 181.3C125.92 180.69 126.48 180.41 126.91 180.66C127.39 180.94 127.58 181.53 127.28 181.98C127.12 182.22 126.84 182.38 126.55 182.64Z" fill="black"/>
<path d="M105.28 151.04C105.01 150.92 104.71 150.84 104.51 150.66C104.4 150.56 104.37 150.25 104.44 150.09C104.55 149.82 104.73 149.56 104.94 149.36C105.21 149.11 105.74 149.25 106.01 149.61C106.21 149.88 106.24 150.2 106.02 150.45C105.83 150.67 105.56 150.82 105.28 151.03V151.04Z" fill="black"/>
<path d="M139.53 145.19C140.04 145.1 140.49 145.5 140.53 146.06C140.57 146.58 140.13 147.08 139.66 147.06C139.25 147.04 138.9 146.74 138.83 146.34C138.74 145.8 139.06 145.27 139.53 145.19Z" fill="black"/>
<path d="M100.95 98.39C101.44 98.28 101.99 98.6 102.16 99.11C102.32 99.57 101.87 100.2 101.36 100.23C100.78 100.26 100.37 99.9 100.31 99.33C100.27 98.9 100.55 98.48 100.95 98.39Z" fill="black"/>
<path d="M92.69 121.98C92.71 121.8 92.71 121.47 92.82 121.2C92.88 121.05 93.12 120.91 93.3 120.88C93.93 120.78 94.55 121.52 94.31 122.12C94.21 122.37 93.94 122.62 93.69 122.74C93.36 122.91 92.91 122.57 92.69 121.99V121.98Z" fill="black"/>
<path d="M106.32 177.76C106.23 177.16 106.77 176.48 107.36 176.47C107.8 176.47 108.17 176.73 108.27 177.15C108.41 177.74 107.92 178.35 107.23 178.42C106.8 178.46 106.38 178.17 106.32 177.76Z" fill="black"/>
<path d="M148.05 163.17C147.63 163.35 146.98 162.98 146.85 162.5C146.72 162.01 147.04 161.35 147.47 161.25C147.94 161.14 148.59 161.48 148.71 161.92C148.84 162.35 148.51 162.99 148.05 163.18V163.17Z" fill="black"/>
<path d="M116.77 188.53C116.56 187.99 116.81 187.4 117.3 187.24C117.75 187.1 118.36 187.42 118.58 187.91C118.72 188.21 118.46 188.81 118.11 188.98C117.64 189.22 116.94 188.98 116.77 188.53Z" fill="black"/>
<path d="M150.8 166.23C151.24 166.98 151.02 167.63 150.47 168.22C150.21 168.5 149.65 168.52 149.33 168.26C148.94 167.95 148.84 167.19 149.18 166.87C149.65 166.44 150.19 166.12 150.87 166.27L150.8 166.24V166.23Z" fill="black"/>
<path d="M84.94 177.06C84.81 176.54 85.14 175.86 85.56 175.8C86.01 175.73 86.63 176.22 86.69 176.69C86.74 177.07 86.47 177.57 86.13 177.73C85.67 177.94 85.07 177.61 84.94 177.07V177.06Z" fill="black"/>
<path d="M137.11 162.89C136.94 162.73 136.61 162.57 136.56 162.35C136.4 161.55 136.78 161 137.57 160.71C137.85 160.6 138.29 160.73 138.37 160.98C138.43 161.16 138.49 161.42 138.41 161.55C138.14 161.98 137.81 162.37 137.49 162.77C137.44 162.83 137.31 162.83 137.11 162.89Z" fill="black"/>
<path d="M129.57 184.71C129.34 184.29 129.59 183.67 130.07 183.49C130.4 183.36 130.9 183.63 131.04 184C131.18 184.37 130.97 184.86 130.62 184.99C130.15 185.17 129.77 185.06 129.58 184.71H129.57Z" fill="black"/>
<path d="M107.31 155.62C107.76 155.41 108.34 155.69 108.5 156.2C108.61 156.57 108.42 157.1 108.09 157.24C107.66 157.42 107.08 157.14 106.88 156.64C106.74 156.3 106.95 155.77 107.31 155.62Z" fill="black"/>
<path d="M124.9 143.83C125.23 143.76 125.74 144.06 125.88 144.39C126.07 144.84 125.67 145.43 125.15 145.47C124.73 145.5 124.42 145.24 124.34 144.76C124.27 144.36 124.55 143.9 124.9 143.83Z" fill="black"/>
<path d="M175.45 140.11C175.08 140.21 174.59 139.94 174.5 139.58C174.4 139.21 174.65 138.68 174.97 138.57C175.5 138.4 176.08 138.62 176.26 139.04C176.42 139.43 176.04 139.94 175.45 140.11Z" fill="black"/>
<path d="M132.52 137.98C132.39 137.75 132.68 137.27 132.95 137.31C133.34 137.37 133.75 137.47 134.11 137.62C134.25 137.68 134.39 137.95 134.38 138.12C134.38 138.28 134.21 138.51 134.06 138.57C133.45 138.8 132.82 138.53 132.51 137.98H132.52Z" fill="black"/>
<path d="M81.33 174.56C81.41 174.14 81.81 173.84 82.25 173.87C82.69 173.9 83.03 174.31 82.96 174.73C82.89 175.21 82.51 175.5 82.08 175.42C81.6 175.33 81.27 174.95 81.34 174.56H81.33Z" fill="black"/>
<path d="M171.66 115.27C172.1 115.08 172.51 115.22 172.68 115.62C172.92 116.17 172.68 116.81 172.23 116.86C171.85 116.9 171.4 116.64 171.23 116.28C171.07 115.93 171.28 115.44 171.66 115.27Z" fill="black"/>
<path d="M130.09 163.39C129.91 162.96 130.19 162.29 130.63 162.08C130.93 161.94 131.52 162.16 131.69 162.48C132 163.05 131.69 163.81 131.09 163.95C130.72 164.04 130.25 163.77 130.1 163.4L130.09 163.39Z" fill="black"/>
<path d="M170.75 147.84C170.65 147.3 171.02 146.82 171.55 146.8C172.02 146.78 172.46 147.2 172.54 147.74C172.6 148.14 172.29 148.55 171.88 148.59C171.35 148.65 170.84 148.31 170.74 147.83L170.75 147.84Z" fill="black"/>
<path d="M112.8 176.35C112.67 175.82 113.03 175.27 113.52 175.23C113.92 175.2 114.3 175.45 114.46 175.86C114.63 176.29 114.32 177.05 113.95 177.16C113.58 177.27 112.91 176.8 112.8 176.35Z" fill="black"/>
<path d="M139.53 158.24C139.26 158.29 138.92 158.05 138.85 157.78C138.73 157.35 138.85 156.99 139.16 156.69C139.42 156.44 140.07 156.39 140.27 156.69C140.42 156.9 140.49 157.26 140.42 157.51C140.31 157.9 140 158.2 139.55 158.25L139.53 158.24Z" fill="black"/>
<path d="M126.04 161.43C125.9 160.92 126.24 160.39 126.76 160.29C127.16 160.21 127.64 160.52 127.68 160.88C127.74 161.42 127.43 161.91 126.95 162.06C126.62 162.16 126.15 161.82 126.05 161.42L126.04 161.43Z" fill="black"/>
<path d="M117.27 177.95C117.2 177.48 117.62 177.08 117.99 177.26C118.26 177.39 118.52 177.57 118.74 177.77C119 178.01 119.01 178.39 118.81 178.58C118.58 178.8 118.31 178.95 117.99 178.83C117.58 178.68 117.29 178.4 117.27 177.95Z" fill="black"/>
<path d="M118.64 184.34C118.5 184.05 118.74 183.5 119.09 183.34C119.61 183.09 120.04 183.23 120.35 183.77C120.55 184.11 120.45 184.67 120.17 184.84C119.66 185.14 118.88 184.89 118.63 184.35L118.64 184.34Z" fill="black"/>
<path d="M81.33 184.76C81.98 184.68 82.49 185.09 82.46 185.61C82.44 185.92 82.37 186.22 82.02 186.34C81.44 186.53 80.75 185.99 80.85 185.34C80.88 185.11 81.2 184.91 81.33 184.76Z" fill="black"/>
<path d="M84.44 171.73C84.1 171.88 83.53 171.62 83.47 171.27C83.41 170.92 83.71 170.32 84.03 170.33C84.29 170.34 84.61 170.51 84.77 170.71C85.02 171.03 84.8 171.56 84.44 171.72V171.73Z" fill="black"/>
<path d="M103.56 176.58C103.46 176.58 103.35 176.59 103.26 176.57C102.7 176.43 102.49 175.98 102.39 175.48C102.37 175.34 102.54 175.1 102.68 175.02C103.21 174.71 103.93 175.04 104.1 175.64C104.2 175.99 103.9 176.51 103.56 176.59V176.58Z" fill="black"/>
<path d="M129 157.43C128.66 157.51 128.21 157.22 128.07 156.83C127.92 156.44 128.15 155.91 128.49 155.85C128.81 155.79 129.31 156.09 129.44 156.43C129.57 156.78 129.31 157.36 129 157.43Z" fill="black"/>
<path d="M102.46 164.74C102.52 164.55 102.52 164.2 102.7 164.02C103.03 163.69 103.68 163.97 103.94 164.55C104 164.7 103.94 165.01 103.83 165.11C103.38 165.49 102.76 165.35 102.46 164.74Z" fill="black"/>
<path d="M102.47 136.47C102.56 136.93 102.41 137.32 102.06 137.49C101.63 137.7 101.09 137.46 100.87 136.94C100.83 136.85 100.81 136.73 100.84 136.65C101.01 136.15 102 135.86 102.34 136.21C102.41 136.28 102.43 136.39 102.47 136.48V136.47Z" fill="black"/>
<path d="M101.87 116.76C101.73 116.4 101.95 115.91 102.32 115.75C102.82 115.53 103.43 115.79 103.55 116.26C103.64 116.63 103.43 117.13 103.1 117.3C102.68 117.52 102.07 117.25 101.87 116.75V116.76Z" fill="black"/>
<path d="M115.53 150.59C115.45 150.21 115.74 149.81 116.16 149.73C116.51 149.66 117 149.99 117.05 150.34C117.1 150.7 116.79 151.12 116.4 151.22C116.05 151.31 115.62 151 115.53 150.59Z" fill="black"/>
<path d="M155.49 166.22C155.29 165.91 155.64 165.36 156.11 165.33C156.54 165.3 156.92 165.45 157.22 165.79C157.49 166.1 157.38 166.67 157.01 166.83C156.39 167.1 155.72 166.83 155.49 166.21V166.22Z" fill="black"/>
<path d="M135.94 182.82C135.86 182.41 136.14 182.03 136.56 181.95C136.92 181.88 137.45 182.19 137.52 182.51C137.62 182.98 137.18 183.58 136.72 183.58C136.32 183.58 136.02 183.3 135.93 182.83L135.94 182.82Z" fill="black"/>
<path d="M154.63 127.75C154.9 127.9 155.24 127.98 155.32 128.17C155.42 128.4 155.39 128.77 155.26 128.99C155.13 129.21 154.82 129.39 154.56 129.46C154.33 129.52 153.95 128.82 154.07 128.5C154.17 128.25 154.4 128.05 154.63 127.75Z" fill="black"/>
<path d="M122.37 180.62C121.92 180.84 121.37 180.62 121.25 180.26C121.17 180.02 121.35 179.61 121.59 179.47C121.92 179.29 122.54 179.51 122.58 179.88C122.61 180.14 122.43 180.42 122.37 180.62Z" fill="black"/>
<path d="M97.59 124.73C97.53 124.41 97.5 124.1 97.81 123.9C98.07 123.73 98.34 123.57 98.63 123.46C99.01 123.32 99.44 123.76 99.38 124.19C99.29 124.8 98.68 125.25 98.02 125.12C97.86 125.09 97.73 124.86 97.6 124.73H97.59Z" fill="black"/>
<path d="M97.65 104.39C97.32 103.72 97.84 103.01 98.51 103.03C98.76 103.03 99.02 103.35 99.05 103.68C99.08 104.07 98.82 104.49 98.38 104.56C98.13 104.6 97.84 104.44 97.66 104.38L97.65 104.39Z" fill="black"/>
<path d="M167.58 145.86C167.29 145.71 167 145.64 166.83 145.45C166.64 145.25 166.86 144.87 167.18 144.75C167.65 144.57 168.19 144.8 168.09 145.14C168.02 145.38 167.78 145.58 167.58 145.85V145.86Z" fill="black"/>
<path d="M169.36 130.93C169.4 130.76 169.41 130.45 169.54 130.21C169.66 129.99 170.16 130.03 170.35 130.24C170.65 130.55 170.67 131.08 170.41 131.35C170.15 131.61 169.57 131.44 169.36 130.93Z" fill="black"/>
<path d="M103.35 143.16C103.67 143.33 103.99 143.39 104.13 143.59C104.3 143.84 104.17 144.16 103.91 144.35C103.59 144.59 102.99 144.38 102.97 144C102.97 143.75 103.18 143.5 103.35 143.16Z" fill="black"/>
<path d="M171.52 137.52C171.32 137.48 171.1 137.47 170.91 137.39C170.62 137.27 170.6 136.79 170.87 136.58C171.15 136.36 171.44 136.37 171.74 136.56C171.95 136.69 172.06 136.88 171.94 137.09C171.85 137.26 171.66 137.37 171.52 137.51V137.52Z" fill="black"/>
<path d="M151.28 165.44C150.91 164.85 150.97 164.3 151.45 163.79C151.65 163.57 151.99 163.53 152.26 163.73C152.52 163.92 152.67 164.17 152.56 164.5C152.34 165.13 151.96 165.54 151.22 165.41L151.29 165.44H151.28Z" fill="black"/>
<path d="M145.45 155.85C145.56 155.65 145.66 155.35 145.86 155.18C146.03 155.04 146.53 155.32 146.58 155.59C146.62 155.87 146.58 156.17 146.52 156.45C146.46 156.71 146.26 156.76 146.03 156.63C145.94 156.58 145.84 156.53 145.79 156.46C145.68 156.3 145.6 156.11 145.46 155.85H145.45Z" fill="black"/>
<path d="M80.09 179.38C79.58 179.57 79.11 179.3 79.04 178.89C78.99 178.57 79.2 178.27 79.52 178.2C79.79 178.14 80.24 178.35 80.26 178.63C80.28 178.89 80.14 179.17 80.09 179.37V179.38Z" fill="black"/>
<path d="M130.66 173.39C130.81 173.53 131.1 173.69 131.19 173.92C131.32 174.28 130.87 174.8 130.51 174.74C130.34 174.71 130.13 174.53 130.06 174.37C129.89 173.95 130.16 173.46 130.66 173.39Z" fill="black"/>
<path d="M95.63 118.47C95.5 118.05 95.79 117.54 96.15 117.53C96.65 117.52 96.89 117.7 97.03 118.21C97.11 118.51 96.94 118.81 96.63 118.94C96.25 119.1 95.76 118.87 95.63 118.48V118.47Z" fill="black"/>
<path d="M116.91 108.08C116.76 107.54 117.04 107.14 117.49 107.09C117.81 107.06 118.13 107.27 118.18 107.56C118.26 107.98 117.97 108.46 117.56 108.43C117.31 108.41 117.07 108.18 116.91 108.08Z" fill="black"/>
<path d="M113.45 185.18C113.57 185.3 113.82 185.45 113.94 185.67C114.07 185.9 113.76 186.3 113.49 186.37C113.22 186.44 112.95 186.22 112.88 185.88C112.81 185.53 113 185.23 113.45 185.18Z" fill="black"/>
<path d="M138.8 167.97C138.91 167.8 139.02 167.52 139.23 167.35C139.46 167.16 139.91 167.33 139.96 167.65C140.01 167.92 139.97 168.27 139.82 168.48C139.62 168.74 138.95 168.45 138.8 167.97Z" fill="black"/>
<path d="M143.18 179.47C143.43 179.78 143.67 179.98 143.75 180.22C143.85 180.52 143.53 180.89 143.24 180.88C142.92 180.88 142.58 180.61 142.65 180.32C142.72 180.05 142.94 179.82 143.17 179.46L143.18 179.47Z" fill="black"/>
<path d="M87.87 172.82C87.89 172.52 87.85 172.3 87.93 172.15C88.01 171.99 88.21 171.83 88.37 171.8C88.69 171.75 89.04 172.26 88.95 172.65C88.91 172.8 88.72 173.04 88.6 173.03C88.35 173.03 88.1 172.88 87.87 172.81V172.82Z" fill="black"/>
<path d="M143.25 159.04C143.45 159.08 143.67 159.08 143.85 159.16C144.13 159.28 144.23 159.67 144.08 159.96C143.94 160.23 143.58 160.33 143.27 160.14C143.1 160.04 142.96 159.88 142.85 159.72C142.68 159.45 142.91 159.06 143.25 159.04Z" fill="black"/>
<path d="M122.58 158.05C122.88 158.02 123.15 158.31 123.13 158.64C123.12 158.98 122.82 159.24 122.52 159.13C122.35 159.06 122.17 158.9 122.09 158.73C121.97 158.48 122.28 158.07 122.58 158.05Z" fill="black"/>
<path d="M101.5 147.7C101.63 147.84 101.82 148.02 101.94 148.23C101.96 148.26 101.7 148.53 101.53 148.57C101.39 148.61 101.16 148.54 101.04 148.43C100.85 148.25 101.08 147.81 101.5 147.69V147.7Z" fill="black"/>
<path d="M157.9 151.7C158.13 151.54 158.35 151.37 158.59 151.24C158.63 151.21 158.83 151.33 158.84 151.39C158.87 151.67 158.86 151.96 158.86 152.24C158.67 152.24 158.44 152.3 158.29 152.22C158.14 152.14 158.05 151.92 157.9 151.7Z" fill="black"/>
<path d="M132.96 159.52C133.05 159.39 133.13 159.18 133.24 159.16C133.55 159.11 133.79 159.36 133.75 159.65C133.74 159.73 133.66 159.82 133.59 159.87C133.38 160.04 133.02 159.84 132.96 159.51V159.52Z" fill="black"/>
<path d="M144.18 149.41C143.97 149.21 143.79 149.1 143.73 148.94C143.63 148.67 143.88 148.39 144.21 148.44C144.35 148.46 144.59 148.69 144.57 148.75C144.5 148.98 144.33 149.18 144.19 149.41H144.18Z" fill="black"/>
<path d="M111.52 158.97C111.41 158.65 111.64 158.28 111.95 158.31C112.11 158.33 112.32 158.46 112.38 158.6C112.53 158.9 112.27 159.3 111.96 159.26C111.8 159.24 111.66 159.07 111.52 158.96V158.97Z" fill="black"/>
<path d="M121.34 191.35C121.19 191.02 121.33 190.66 121.64 190.66C121.8 190.66 122.01 190.75 122.12 190.87C122.3 191.07 122.09 191.54 121.79 191.57C121.65 191.59 121.49 191.43 121.34 191.35Z" fill="black"/>
<path d="M167.11 124.73C166.97 124.52 166.99 124.34 167.18 124.18C167.46 123.94 167.82 123.94 167.91 124.21C167.96 124.38 167.94 124.63 167.86 124.79C167.72 125.03 167.32 124.98 167.11 124.73Z" fill="black"/>
<path d="M127.91 188.39C128.05 188.27 128.18 188.07 128.33 188.05C128.56 188.02 128.73 188.24 128.64 188.46C128.58 188.62 128.37 188.72 128.23 188.84C128.12 188.69 128.02 188.54 127.91 188.39Z" fill="black"/>
<path d="M113.94 154.45C114.12 154.49 114.37 154.47 114.47 154.59C114.68 154.84 114.63 155.14 114.4 155.38C114.19 155.6 113.79 155.5 113.67 155.21C113.53 154.9 113.64 154.6 113.95 154.45H113.94Z" fill="black"/>
<path d="M146.67 145.53C146.31 145.33 146.04 145.25 145.86 145.07C145.78 144.99 145.82 144.66 145.92 144.57C146.15 144.35 146.53 144.35 146.69 144.59C146.81 144.76 146.69 145.1 146.66 145.53H146.67Z" fill="black"/>
<path d="M158.56 140.86C158.71 140.75 158.9 140.51 159.13 140.44C159.4 140.36 159.68 140.75 159.59 141.04C159.54 141.2 159.37 141.38 159.21 141.43C158.89 141.54 158.57 141.29 158.56 140.85V140.86Z" fill="black"/>
<path d="M131.02 151.74C131.23 151.57 131.41 151.6 131.58 151.81C131.94 152.24 131.92 152.5 131.49 152.84C131.28 153.01 131.1 153 130.94 152.79C130.61 152.37 130.63 152.08 131.03 151.75L131.02 151.74Z" fill="black"/>
<path d="M108.31 124.51C108.32 124.13 108.47 123.89 108.82 123.81C109.14 123.73 109.44 123.97 109.43 124.3C109.43 124.75 109.28 124.96 108.96 124.97C108.56 124.98 108.31 124.79 108.31 124.51Z" fill="black"/>
<path d="M164.65 149.35C164.76 149.2 164.83 148.98 164.97 148.92C165.24 148.82 165.51 149.11 165.5 149.46C165.5 149.71 165.31 149.84 165.06 149.74C164.9 149.67 164.78 149.49 164.65 149.35Z" fill="black"/>
<path d="M131.25 141.91C131.41 141.79 131.55 141.6 131.73 141.57C131.98 141.53 132.08 141.73 132.05 141.99C132.02 142.25 131.88 142.42 131.64 142.33C131.48 142.27 131.38 142.06 131.26 141.91H131.25Z" fill="black"/>
<path d="M167.63 135.17C167.43 135.14 167.23 135.12 167.03 135.09C167.07 134.9 167.07 134.67 167.18 134.53C167.34 134.32 167.6 134.36 167.69 134.61C167.75 134.77 167.66 134.98 167.63 135.17Z" fill="black"/>
<path d="M117.84 167.62C117.87 167.44 117.84 167.22 117.94 167.08C118.1 166.85 118.53 167 118.62 167.32C118.66 167.49 118.64 167.73 118.55 167.88C118.44 168.09 117.99 167.92 117.84 167.61V167.62Z" fill="black"/>
<path d="M147.76 151.63C147.74 151.32 147.95 151.14 148.3 151.19C148.55 151.22 148.65 151.36 148.61 151.61C148.55 151.96 148.28 152.23 148.08 152.1C147.93 152 147.86 151.79 147.75 151.64L147.76 151.63Z" fill="black"/>
<path d="M110.28 141.97C110.12 141.9 109.89 141.88 109.81 141.76C109.67 141.54 110.04 141.04 110.26 141.13C110.41 141.19 110.57 141.42 110.59 141.59C110.6 141.71 110.39 141.85 110.28 141.98V141.97Z" fill="black"/>
<path d="M127.31 151.14C127.24 151.15 127.14 151.2 127.1 151.17C127.04 151.12 126.99 151.02 127 150.95C127 150.87 127.08 150.79 127.12 150.71C127.19 150.77 127.28 150.82 127.32 150.9C127.35 150.97 127.32 151.06 127.32 151.15L127.31 151.14Z" fill="black"/>
<path d="M101.45 158.69C101.42 158.6 101.35 158.51 101.37 158.43C101.38 158.35 101.48 158.29 101.54 158.21C101.64 158.35 101.75 158.47 101.83 158.62C101.85 158.66 101.74 158.77 101.69 158.85C101.62 158.8 101.54 158.74 101.47 158.69H101.45Z" fill="black"/>
<path d="M155.14 138.6C155.01 138.73 154.89 138.86 154.76 138.97C154.74 138.99 154.58 138.88 154.55 138.8C154.52 138.72 154.59 138.54 154.61 138.54C154.79 138.54 154.96 138.58 155.14 138.61V138.6Z" fill="black"/>
<path d="M147.82 140.8C147.8 140.71 147.75 140.61 147.76 140.52C147.77 140.43 147.85 140.35 147.89 140.26C148.01 140.4 148.15 140.53 148.24 140.68C148.26 140.71 148.15 140.88 148.08 140.9C148.01 140.92 147.91 140.84 147.82 140.8Z" fill="black"/>
<path d="M110.32 152.56C110.22 152.52 110.04 152.47 110.05 152.45C110.08 152.26 110.15 152.08 110.2 151.89C110.29 151.94 110.4 151.98 110.46 152.05C110.63 152.27 110.57 152.44 110.32 152.56Z" fill="black"/>
<path d="M133.64 148.27C133.73 148.33 133.89 148.4 133.89 148.45C133.86 148.7 133.69 148.83 133.44 148.79C133.34 148.78 133.26 148.69 133.17 148.63C133.33 148.51 133.49 148.39 133.65 148.27H133.64Z" fill="black"/>
<path d="M99.14 162.37C99.21 162.3 99.28 162.18 99.35 162.17C99.6 162.17 99.72 162.32 99.66 162.56C99.64 162.65 99.55 162.72 99.49 162.79C99.37 162.65 99.26 162.5 99.14 162.36V162.37Z" fill="black"/>
<path d="M153.12 132.13C153.03 132.13 152.88 132.15 152.85 132.1C152.75 131.94 152.85 131.8 153.12 131.76C153.18 131.76 153.25 131.86 153.32 131.92C153.25 131.99 153.19 132.06 153.12 132.13Z" fill="black"/>
<path d="M108.13 145.73C108.06 145.78 108 145.86 107.94 145.87C107.69 145.89 107.63 145.78 107.79 145.61C107.83 145.56 107.95 145.57 108.03 145.59C108.07 145.59 108.1 145.68 108.13 145.73Z" fill="black"/>
<path d="M97.4 145.26C97.53 145.37 97.74 145.46 97.76 145.58C97.8 145.83 97.61 145.99 97.35 145.92C97.2 145.88 97.08 145.73 96.95 145.63C97.1 145.51 97.24 145.38 97.39 145.26H97.4Z" fill="black"/>
<path d="M161.57 125.9L161.37 125.96L161.4 125.69L161.57 125.9Z" fill="black"/>
<path d="M99.64 151.91C99.42 152.03 99.22 151.99 99.11 151.77C99.08 151.71 99.15 151.56 99.22 151.5C99.43 151.31 99.62 151.36 99.71 151.62C99.74 151.7 99.67 151.82 99.64 151.92V151.91Z" fill="black"/>
<path d="M112.63 116.7C112.63 116.61 112.61 116.46 112.66 116.42C112.84 116.31 112.98 116.41 113 116.68C113 116.74 112.9 116.82 112.84 116.88C112.77 116.82 112.7 116.76 112.63 116.69V116.7Z" fill="black"/>
<path d="M121.96 169.65C121.83 169.58 121.69 169.52 121.56 169.45C121.61 169.37 121.66 169.24 121.72 169.23C121.89 169.22 122.07 169.26 122.25 169.28C122.15 169.4 122.06 169.53 121.96 169.65Z" fill="black"/>
<path d="M113.49 165.27C113.53 165.18 113.56 165.02 113.6 165.02C113.78 165.02 113.96 165.06 114.14 165.09C114 165.21 113.87 165.34 113.72 165.43C113.69 165.45 113.57 165.33 113.49 165.27Z" fill="black"/>
<path d="M88.33 182.87L88.47 183.03L88.27 183.07L88.33 182.87Z" fill="black"/>
<path d="M150.87 166.26C150.74 165.85 150.96 165.62 151.29 165.44L151.22 165.41C151.35 165.82 151.13 166.05 150.8 166.23L150.87 166.27V166.26Z" fill="black"/>
<path d="M180.98 120.23L180.84 120.05L181.05 120.02L180.98 120.23Z" fill="black"/>
<path d="M128.85 167.44L128.73 167.27L128.92 167.24L128.85 167.44Z" fill="black"/>
<path d="M111.31 169.3C111.36 169.23 111.42 169.11 111.45 169.11C111.7 169.16 111.72 169.29 111.51 169.42C111.48 169.44 111.38 169.34 111.32 169.29L111.31 169.3Z" fill="black"/>
<path d="M124.16 186.84C124.09 186.79 123.95 186.74 123.95 186.7C123.99 186.43 124.12 186.4 124.28 186.62C124.3 186.65 124.2 186.76 124.16 186.84Z" fill="black"/>
<path d="M100.23 130.85C100.25 130.78 100.26 130.72 100.28 130.65C100.38 130.69 100.49 130.72 100.59 130.76C100.54 130.83 100.51 130.95 100.45 130.96C100.39 130.98 100.31 130.89 100.23 130.85Z" fill="black"/>
<path d="M71.34 156.55C71.62 157.18 71.94 157.84 72.2 158.52C72.42 159.1 72.06 159.84 71.49 160.09C70.81 160.39 69.94 160.02 69.68 159.3C69.61 159.11 69.54 158.87 69.6 158.69C69.72 158.29 69.85 157.86 70.1 157.54C70.68 156.78 70.71 156.01 70.32 155.17C70.24 155 70.3 154.76 70.3 154.55C70.3 154.2 70.83 153.79 71.19 153.83C71.56 153.87 72 154.36 71.91 154.71C71.77 155.31 71.55 155.9 71.34 156.54V156.55Z" fill="black"/>
<path d="M65.37 170.28C64.64 169.52 64.31 168.78 64.32 167.9C64.32 167.32 64.7 166.79 65.16 166.75C65.86 166.68 66.51 167.02 66.69 167.57C67.01 168.55 66.78 169.41 66.09 170.17C65.91 170.37 65.44 170.37 65.36 170.28H65.37Z" fill="black"/>
<path d="M93.79 144.62C94.06 144.49 94.24 144.34 94.44 144.32C95.24 144.24 95.88 144.53 96.29 145.25C96.67 145.91 96.13 146.88 95.39 146.88C94.56 146.88 93.74 146.27 93.58 145.42C93.53 145.16 93.73 144.85 93.79 144.61V144.62Z" fill="black"/>
<path d="M57.32 122.17C57.23 121.86 57.01 121.47 57.02 121.1C57.06 120.17 58.05 119.47 58.99 119.62C59.7 119.74 60.01 120.44 59.61 120.98C59.18 121.56 58.71 122.11 58 122.33C57.85 122.38 57.64 122.24 57.32 122.16V122.17Z" fill="black"/>
<path d="M58.94 107.59C58.65 107.9 58.14 108.04 57.8 107.83C57.56 107.67 57.39 107.39 57.21 107.15C57.15 107.07 57.15 106.95 57.14 106.85C57.08 106.16 57.5 105.44 58.01 105.33C58.3 105.27 58.89 105.56 59.09 105.87C59.46 106.45 59.4 107.12 58.94 107.6V107.59Z" fill="black"/>
<path d="M74.83 143.9C75.09 143.6 75.66 143.52 75.98 143.73C76.77 144.27 76.97 145.13 76.5 145.93C76.27 146.33 75.44 146.47 75.08 146.18C74.44 145.65 74.31 144.49 74.83 143.9Z" fill="black"/>
<path d="M78.86 153.74C78.94 153.68 79.02 153.61 79.12 153.57C79.62 153.33 80.12 153.4 80.6 153.6C81.19 153.84 81.33 154.64 80.87 155.14C80.5 155.55 79.93 155.71 79.49 155.54C78.91 155.32 78.62 154.72 78.77 154.04C78.79 153.94 78.83 153.85 78.86 153.75V153.74Z" fill="black"/>
<path d="M94.52 127.46C94.09 126.86 94.13 125.94 94.7 125.45C94.89 125.29 95.32 125.23 95.56 125.33C96.43 125.66 96.7 126.67 96.18 127.43C95.83 127.94 94.88 127.97 94.52 127.47V127.46Z" fill="black"/>
<path d="M39.06 101.25C38.6 100.68 38.68 99.78 39.24 99.34C39.68 98.99 40.47 99.16 40.85 99.7C41.23 100.24 41.16 100.88 40.66 101.35C40.16 101.82 39.49 101.78 39.06 101.25Z" fill="black"/>
<path d="M53.11 100.22C53.5 99.9 54.22 100.02 54.48 100.44C54.79 100.94 54.79 101.5 54.48 101.9C54.2 102.25 53.5 102.26 53.06 101.9C52.63 101.55 52.66 100.59 53.11 100.22Z" fill="black"/>
<path d="M85.11 160.22C84.65 160.69 84.04 160.68 83.76 160.4C83.23 159.88 83.33 158.8 83.99 158.53C84.35 158.38 84.79 158.39 85.2 158.38C85.45 158.38 85.73 158.86 85.64 159.09C85.44 159.56 85.22 160.01 85.12 160.21L85.11 160.22Z" fill="black"/>
<path d="M94.96 108.64C94.64 108.12 94.85 107.26 95.35 107.04C95.8 106.84 96.47 107.01 96.75 107.39C97.12 107.9 96.92 108.72 96.36 108.95C95.85 109.16 95.2 109.01 94.97 108.64H94.96Z" fill="black"/>
<path d="M111.43 93.49C111.77 93.81 111.84 94.54 111.58 94.94C111.27 95.4 110.4 95.45 109.9 95.04C109.52 94.72 109.45 94.01 109.76 93.62C110.14 93.13 110.99 93.07 111.44 93.49H111.43Z" fill="black"/>
<path d="M99.12 136.6C99.12 136.35 99.02 136.04 99.12 135.78C99.22 135.51 99.46 135.28 99.67 135.07C100.01 134.74 100.47 134.72 100.76 134.96C101.12 135.25 101.18 135.65 101.09 136.05C100.95 136.66 100.33 137.05 99.69 136.93C99.51 136.9 99.35 136.74 99.12 136.6Z" fill="black"/>
<path d="M74.68 149.42C75.53 148.65 76.34 148.87 76.7 149.83C76.91 150.41 76.76 151.04 76.36 151.19C75.6 151.47 74.56 150.92 74.46 150.13C74.43 149.87 74.62 149.58 74.68 149.42Z" fill="black"/>
<path d="M65.54 158.15C65.89 157.89 66.57 157.89 66.97 158.18C67.3 158.43 67.53 158.76 67.48 159.21C67.43 159.68 66.93 160.11 66.43 160.09C65.66 160.06 65.11 159.41 65.25 158.66C65.29 158.48 65.44 158.32 65.54 158.14V158.15Z" fill="black"/>
<path d="M109.51 113.88C109.12 113.48 109.06 112.98 109.09 112.47C109.12 111.97 109.66 111.5 110.1 111.53C110.69 111.58 111.25 112.21 111.19 112.77C111.12 113.39 110.67 113.92 110.06 114.02C109.89 114.05 109.69 113.93 109.51 113.87V113.88Z" fill="black"/>
<path d="M47.95 125.67C47.44 125.2 47.38 124.52 47.8 124.03C48.14 123.64 48.78 123.56 49.19 123.86C49.79 124.29 49.87 125.27 49.34 125.74C48.97 126.07 48.34 126.03 47.95 125.67Z" fill="black"/>
<path d="M114.9 99.36C114.83 99.17 114.71 98.98 114.7 98.78C114.7 98.58 114.77 98.36 114.86 98.18C115.11 97.71 115.77 97.4 116.17 97.52C116.6 97.65 116.91 98.4 116.72 98.84C116.45 99.46 115.79 99.74 115.17 99.51C115.07 99.47 114.99 99.41 114.9 99.36Z" fill="black"/>
<path d="M71.62 131.6C71.26 131.18 71.21 130.7 71.42 130.16C71.63 129.62 72.24 129.41 72.69 129.77C72.93 129.95 73.14 130.2 73.29 130.46C73.51 130.82 73.38 131.32 73.06 131.59C72.64 131.94 71.95 131.96 71.61 131.6H71.62Z" fill="black"/>
<path d="M84.78 150.84C84.45 150.55 84.48 149.82 84.85 149.45C85.22 149.07 85.86 149.01 86.24 149.33C86.62 149.64 86.73 150.34 86.45 150.72C86.12 151.17 85.22 151.23 84.78 150.85V150.84Z" fill="black"/>
<path d="M114.28 103.6C115.02 102.98 115.75 103.06 116.29 103.74C116.56 104.08 116.49 104.69 116.12 104.83C115.74 104.98 115.32 105.07 114.91 105.1C114.47 105.13 114 104.73 114.03 104.37C114.05 104.08 114.21 103.8 114.28 103.61V103.6Z" fill="black"/>
<path d="M120.56 71.31C120.23 70.99 120.19 70.57 120.25 70.15C120.3 69.8 120.83 69.43 121.19 69.48C121.51 69.52 121.82 69.62 121.92 69.96C122.01 70.25 122.1 70.57 122.06 70.86C122.01 71.14 121.84 71.44 121.63 71.64C121.4 71.87 120.87 71.67 120.55 71.32L120.56 71.31Z" fill="black"/>
<path d="M89.67 141.31C89.65 141.12 89.59 140.81 89.6 140.5C89.61 140.07 90.02 139.76 90.46 139.78C90.88 139.8 91.26 140.11 91.36 140.54C91.47 140.97 91.46 141.4 91.11 141.71C90.76 142.02 89.94 141.83 89.66 141.31H89.67Z" fill="black"/>
<path d="M120.65 98.45C120.91 98.66 120.99 99.27 120.79 99.56C120.33 100.22 119.55 100.28 119 99.7C118.77 99.45 118.76 98.82 119 98.58C119.39 98.15 120.22 98.09 120.67 98.46L120.65 98.45Z" fill="black"/>
<path d="M38.64 106.5C38.35 106.15 38.42 105.37 38.77 105.07C39.23 104.68 40.05 104.78 40.44 105.29C40.75 105.69 40.69 106.41 40.33 106.7C39.85 107.08 39.05 106.99 38.64 106.5Z" fill="black"/>
<path d="M124.3 127.98C123.97 128.31 123.31 128.27 122.91 127.89C122.47 127.48 122.43 126.86 122.83 126.55C123.27 126.21 123.83 126.23 124.23 126.59C124.61 126.94 124.65 127.63 124.29 127.97L124.3 127.98Z" fill="black"/>
<path d="M52.18 125.51C52.09 125.19 51.96 124.98 52 124.81C52.04 124.64 52.23 124.44 52.4 124.39C53.15 124.16 53.84 124.38 54.47 124.8C54.59 124.88 54.62 125.14 54.64 125.32C54.64 125.39 54.54 125.5 54.45 125.55C53.64 126.05 52.88 125.83 52.18 125.5V125.51Z" fill="black"/>
<path d="M99.78 155.31C99.48 155.28 99.13 155.35 98.93 155.21C98.71 155.06 98.54 154.73 98.48 154.45C98.35 153.83 98.74 153.33 99.24 153.37C99.79 153.41 100.22 153.86 100.15 154.39C100.11 154.68 99.93 154.95 99.78 155.3V155.31Z" fill="black"/>
<path d="M66.82 136.19C66.52 136.19 66.22 136.26 65.96 136.19C65.82 136.15 65.66 135.88 65.64 135.71C65.62 135.42 65.67 135.11 65.77 134.84C65.9 134.49 66.44 134.39 66.84 134.59C67.13 134.75 67.31 135.02 67.22 135.34C67.14 135.62 66.97 135.88 66.81 136.19H66.82Z" fill="black"/>
<path d="M95.06 115.95C95.48 115.65 96.06 115.81 96.34 116.29C96.6 116.75 96.43 117.38 95.99 117.57C95.61 117.73 95.16 117.61 94.93 117.29C94.61 116.85 94.67 116.23 95.06 115.95Z" fill="black"/>
<path d="M39.91 90.74C40.3 90.43 40.94 90.48 41.32 90.86C41.67 91.21 41.54 91.96 41.09 92.21C40.58 92.49 40.05 92.35 39.75 91.86C39.52 91.49 39.59 90.99 39.91 90.74Z" fill="black"/>
<path d="M42.79 115.56C42.73 115.38 42.58 115.1 42.56 114.8C42.55 114.64 42.7 114.4 42.85 114.3C43.37 113.93 44.25 114.33 44.3 114.97C44.32 115.24 44.18 115.58 44.01 115.8C43.78 116.09 43.23 115.99 42.78 115.56H42.79Z" fill="black"/>
<path d="M79.44 159.76C79.09 159.26 79.29 158.41 79.81 158.15C80.21 157.95 80.65 158.03 80.93 158.36C81.32 158.83 81.13 159.59 80.55 159.96C80.18 160.19 79.68 160.1 79.44 159.76Z" fill="black"/>
<path d="M110.59 128.4C110.29 128.74 109.54 128.7 109.21 128.32C108.88 127.94 108.88 127.2 109.21 126.93C109.58 126.62 110.32 126.65 110.62 126.99C110.92 127.32 110.9 128.04 110.58 128.41L110.59 128.4Z" fill="black"/>
<path d="M93.55 164.89C93.13 164.5 93.09 163.85 93.46 163.5C93.8 163.18 94.49 163.2 94.9 163.54C95.15 163.75 95.18 164.4 94.95 164.71C94.63 165.13 93.9 165.22 93.54 164.89H93.55Z" fill="black"/>
<path d="M114.4 129.95C115.12 130.44 115.21 131.12 114.97 131.88C114.85 132.25 114.36 132.51 113.96 132.42C113.48 132.31 113.05 131.67 113.22 131.24C113.46 130.64 113.8 130.13 114.48 129.96H114.4V129.95Z" fill="black"/>
<path d="M59.91 168.49C59.56 168.08 59.57 167.33 59.91 167.09C60.28 166.83 61.05 167 61.32 167.39C61.53 167.71 61.51 168.27 61.27 168.57C60.95 168.96 60.27 168.92 59.91 168.5V168.49Z" fill="black"/>
<path d="M100.63 132.93C100.41 132.86 100.04 132.86 99.9 132.69C99.41 132.04 99.51 131.38 100.09 130.77C100.3 130.55 100.75 130.48 100.92 130.66C101.05 130.8 101.22 131 101.2 131.15C101.15 131.65 101.02 132.15 100.91 132.65C100.89 132.73 100.77 132.79 100.62 132.93H100.63Z" fill="black"/>
<path d="M103.4 155.85C103.01 155.57 102.97 154.91 103.32 154.53C103.56 154.27 104.12 154.29 104.41 154.57C104.69 154.85 104.72 155.38 104.46 155.65C104.12 156.01 103.73 156.09 103.4 155.85Z" fill="black"/>
<path d="M70.65 139.42C70.96 139.03 71.61 139.03 71.98 139.42C72.25 139.7 72.3 140.27 72.07 140.53C71.77 140.88 71.12 140.88 70.72 140.52C70.45 140.27 70.4 139.7 70.66 139.42H70.65Z" fill="black"/>
<path d="M81.31 121.13C81.58 120.93 82.17 120.97 82.44 121.21C82.8 121.54 82.7 122.23 82.25 122.5C81.88 122.71 81.49 122.61 81.21 122.22C80.97 121.89 81.02 121.35 81.31 121.14V121.13Z" fill="black"/>
<path d="M125.15 95.68C124.86 95.93 124.3 95.9 124.06 95.62C123.81 95.33 123.8 94.74 124.04 94.51C124.44 94.13 125.06 94.07 125.41 94.37C125.73 94.65 125.6 95.28 125.15 95.68Z" fill="black"/>
<path d="M85.61 112.53C85.39 112.38 85.44 111.82 85.71 111.74C86.09 111.63 86.49 111.53 86.89 111.51C87.05 111.51 87.28 111.68 87.35 111.84C87.42 111.98 87.37 112.27 87.26 112.38C86.81 112.85 86.13 112.89 85.61 112.53Z" fill="black"/>
<path d="M55.57 167.81C55.46 167.4 55.68 166.95 56.09 166.79C56.5 166.63 56.98 166.84 57.1 167.26C57.24 167.72 57.03 168.15 56.61 168.26C56.14 168.39 55.67 168.19 55.56 167.81H55.57Z" fill="black"/>
<path d="M110.89 75C111.21 74.64 111.63 74.58 111.96 74.86C112.42 75.25 112.49 75.92 112.1 76.17C111.78 76.38 111.26 76.34 110.94 76.09C110.64 75.85 110.61 75.31 110.89 75Z" fill="black"/>
<path d="M94.54 136.45C94.19 136.14 94.15 135.42 94.45 135.04C94.65 134.78 95.29 134.72 95.58 134.93C96.11 135.31 96.16 136.13 95.68 136.52C95.39 136.76 94.85 136.73 94.54 136.46V136.45Z" fill="black"/>
<path d="M124.3 104.69C123.97 104.25 124.1 103.65 124.57 103.4C124.99 103.18 125.56 103.36 125.87 103.82C126.1 104.15 125.99 104.66 125.65 104.88C125.2 105.17 124.59 105.08 124.3 104.69Z" fill="black"/>
<path d="M84.65 155.67C84.3 155.25 84.38 154.6 84.81 154.34C85.16 154.13 85.61 154.2 85.93 154.5C86.26 154.81 86.33 155.63 86.04 155.9C85.75 156.16 84.95 156.03 84.65 155.67Z" fill="black"/>
<path d="M100.77 127.69C100.55 127.85 100.14 127.79 99.95 127.58C99.66 127.25 99.6 126.88 99.75 126.47C99.88 126.14 100.44 125.81 100.74 125.98C100.96 126.11 101.19 126.4 101.23 126.65C101.3 127.05 101.15 127.45 100.77 127.7V127.69Z" fill="black"/>
<path d="M90.04 136.46C89.7 136.06 89.76 135.44 90.19 135.13C90.52 134.89 91.08 134.95 91.27 135.26C91.56 135.72 91.5 136.3 91.13 136.64C90.88 136.87 90.3 136.77 90.04 136.46Z" fill="black"/>
<path d="M89.38 155.15C89.12 154.76 89.31 154.21 89.73 154.21C90.03 154.21 90.34 154.26 90.63 154.34C90.97 154.44 91.15 154.78 91.05 155.04C90.94 155.34 90.77 155.59 90.42 155.62C89.99 155.66 89.61 155.54 89.39 155.14L89.38 155.15Z" fill="black"/>
<path d="M93.39 160.3C93.14 160.1 93.12 159.5 93.36 159.2C93.72 158.75 94.17 158.69 94.68 159.03C95.01 159.25 95.17 159.79 94.99 160.07C94.67 160.56 93.85 160.68 93.39 160.3Z" fill="black"/>
<path d="M60.03 176.99C60.58 176.63 61.22 176.78 61.42 177.25C61.54 177.53 61.6 177.84 61.34 178.1C60.91 178.53 60.05 178.34 59.85 177.71C59.78 177.48 59.98 177.17 60.03 176.98V176.99Z" fill="black"/>
<path d="M57.13 163.91C56.89 164.2 56.26 164.2 56.06 163.92C55.85 163.63 55.86 162.96 56.15 162.83C56.39 162.73 56.75 162.74 56.99 162.85C57.35 163.03 57.39 163.6 57.14 163.91H57.13Z" fill="black"/>
<path d="M76.44 159.91C76.35 159.95 76.26 160.01 76.17 160.03C75.6 160.15 75.21 159.83 74.91 159.43C74.83 159.32 74.88 159.03 74.97 158.89C75.31 158.38 76.1 158.37 76.52 158.83C76.76 159.1 76.72 159.7 76.45 159.92L76.44 159.91Z" fill="black"/>
<path d="M90.95 131.57C90.68 131.79 90.15 131.73 89.85 131.44C89.55 131.15 89.52 130.58 89.8 130.37C90.06 130.17 90.65 130.23 90.91 130.48C91.18 130.74 91.2 131.37 90.95 131.57Z" fill="black"/>
<path d="M70.27 149.75C70.24 149.55 70.09 149.23 70.17 149C70.32 148.56 71.03 148.53 71.52 148.94C71.64 149.04 71.72 149.35 71.66 149.49C71.42 150.03 70.8 150.17 70.27 149.76V149.75Z" fill="black"/>
<path d="M57.92 124.32C58.2 124.7 58.23 125.11 58 125.42C57.71 125.8 57.11 125.81 56.69 125.44C56.62 125.38 56.54 125.28 56.53 125.19C56.47 124.66 57.23 123.97 57.68 124.14C57.77 124.17 57.84 124.26 57.91 124.32H57.92Z" fill="black"/>
<path d="M48.77 106.85C48.49 106.59 48.47 106.05 48.74 105.75C49.09 105.34 49.75 105.3 50.07 105.68C50.32 105.97 50.34 106.51 50.12 106.82C49.84 107.2 49.17 107.23 48.78 106.86L48.77 106.85Z" fill="black"/>
<path d="M75.84 131.31C75.6 131 75.69 130.52 76.03 130.26C76.32 130.04 76.9 130.13 77.09 130.42C77.29 130.72 77.2 131.24 76.89 131.5C76.61 131.74 76.09 131.65 75.84 131.32V131.31Z" fill="black"/>
<path d="M118.62 127.89C118.3 127.7 118.38 127.05 118.79 126.82C119.16 126.61 119.57 126.57 119.99 126.75C120.37 126.91 120.52 127.47 120.25 127.78C119.81 128.29 119.09 128.34 118.61 127.89H118.62Z" fill="black"/>
<path d="M108.29 151.36C108.04 151.03 108.12 150.56 108.47 150.3C108.76 150.08 109.38 150.13 109.58 150.38C109.88 150.76 109.74 151.5 109.33 151.69C108.97 151.86 108.58 151.74 108.29 151.36Z" fill="black"/>
<path d="M101.02 93.67C101.33 93.69 101.67 93.61 101.83 93.74C102.02 93.9 102.15 94.25 102.13 94.51C102.11 94.77 101.91 95.06 101.71 95.24C101.53 95.4 100.88 94.94 100.85 94.59C100.83 94.32 100.95 94.04 101.02 93.67Z" fill="black"/>
<path d="M95.12 155.32C94.81 155.72 94.22 155.76 93.95 155.49C93.77 155.31 93.75 154.86 93.91 154.63C94.13 154.32 94.78 154.25 94.98 154.57C95.12 154.79 95.09 155.12 95.12 155.33V155.32Z" fill="black"/>
<path d="M48.4 115.89C48.2 115.63 48.04 115.36 48.23 115.04C48.39 114.78 48.56 114.51 48.77 114.29C49.05 114 49.63 114.21 49.76 114.62C49.95 115.21 49.6 115.87 48.94 116.05C48.78 116.09 48.57 115.94 48.39 115.89H48.4Z" fill="black"/>
<path d="M39.57 97.57C38.98 97.11 39.14 96.24 39.75 95.97C39.98 95.87 40.35 96.03 40.52 96.32C40.72 96.65 40.67 97.16 40.3 97.41C40.09 97.56 39.76 97.53 39.57 97.57Z" fill="black"/>
<path d="M120.59 104.29C120.26 104.29 119.97 104.34 119.74 104.25C119.48 104.15 119.51 103.72 119.74 103.47C120.08 103.11 120.67 103.07 120.73 103.43C120.77 103.68 120.65 103.96 120.58 104.29H120.59Z" fill="black"/>
<path d="M115.66 90.09C115.62 89.92 115.5 89.64 115.51 89.36C115.51 89.11 115.99 88.93 116.25 89.03C116.65 89.18 116.91 89.65 116.79 90.01C116.67 90.36 116.07 90.46 115.66 90.09Z" fill="black"/>
<path d="M61.64 129.95C62 129.95 62.32 129.88 62.53 130C62.79 130.15 62.82 130.5 62.67 130.78C62.49 131.13 61.86 131.21 61.67 130.87C61.56 130.65 61.64 130.33 61.64 129.95Z" fill="black"/>
<path d="M120.48 95.07C120.28 95.12 120.08 95.21 119.88 95.22C119.57 95.24 119.34 94.82 119.49 94.51C119.65 94.19 119.91 94.07 120.26 94.11C120.51 94.14 120.69 94.25 120.68 94.5C120.67 94.69 120.55 94.88 120.48 95.06V95.07Z" fill="black"/>
<path d="M114.49 129.03C113.9 128.66 113.71 128.14 113.92 127.47C114.01 127.19 114.29 127 114.62 127.06C114.93 127.12 115.18 127.27 115.23 127.63C115.31 128.3 115.14 128.83 114.42 129.03H114.5H114.49Z" fill="black"/>
<path d="M105.05 122.96C105.07 122.73 105.02 122.42 105.12 122.18C105.21 121.98 105.78 122.01 105.94 122.24C106.1 122.47 106.19 122.76 106.26 123.04C106.32 123.3 106.16 123.44 105.9 123.42C105.8 123.42 105.69 123.42 105.61 123.37C105.44 123.27 105.29 123.14 105.05 122.96Z" fill="black"/>
<path d="M56.57 172.7C56.19 173.09 55.65 173.06 55.42 172.72C55.24 172.46 55.29 172.09 55.55 171.89C55.77 171.72 56.26 171.71 56.4 171.95C56.53 172.18 56.53 172.49 56.57 172.7Z" fill="black"/>
<path d="M99.42 145.19C99.61 145.25 99.95 145.26 100.12 145.43C100.39 145.7 100.21 146.36 99.87 146.46C99.71 146.51 99.44 146.44 99.31 146.32C98.97 146.02 99.01 145.46 99.42 145.18V145.19Z" fill="black"/>
<path d="M43.91 111.12C43.61 110.8 43.64 110.21 43.97 110.04C44.42 109.81 44.72 109.87 45.05 110.26C45.25 110.49 45.23 110.84 45.01 111.09C44.73 111.4 44.19 111.41 43.91 111.11V111.12Z" fill="black"/>
<path d="M58.5 92.47C58.13 92.05 58.21 91.57 58.59 91.33C58.86 91.16 59.24 91.22 59.42 91.45C59.68 91.8 59.63 92.35 59.25 92.5C59.02 92.59 58.7 92.48 58.51 92.47H58.5Z" fill="black"/>
<path d="M89.1 163.32C89.26 163.37 89.55 163.4 89.76 163.55C89.98 163.7 89.88 164.19 89.66 164.37C89.44 164.55 89.1 164.47 88.9 164.19C88.69 163.9 88.73 163.55 89.11 163.32H89.1Z" fill="black"/>
<path d="M104.37 136.76C104.4 136.56 104.37 136.26 104.48 136.02C104.61 135.75 105.08 135.71 105.27 135.97C105.43 136.19 105.56 136.53 105.51 136.77C105.45 137.09 104.72 137.12 104.37 136.76Z" fill="black"/>
<path d="M113.33 145.19C113.69 145.36 113.99 145.43 114.17 145.61C114.39 145.84 114.26 146.31 114 146.43C113.71 146.57 113.28 146.47 113.23 146.19C113.18 145.92 113.28 145.62 113.33 145.19Z" fill="black"/>
<path d="M60.68 163.39C60.57 163.11 60.43 162.94 60.44 162.76C60.44 162.58 60.55 162.35 60.68 162.26C60.95 162.08 61.48 162.38 61.58 162.77C61.62 162.92 61.54 163.22 61.43 163.27C61.2 163.37 60.91 163.36 60.68 163.39Z" fill="black"/>
<path d="M104.47 126.78C104.67 126.72 104.86 126.63 105.06 126.62C105.37 126.6 105.63 126.92 105.62 127.24C105.62 127.54 105.33 127.79 104.97 127.76C104.78 127.74 104.58 127.66 104.41 127.56C104.13 127.39 104.18 126.94 104.47 126.77V126.78Z" fill="black"/>
<path d="M85.45 134.94C85.71 134.79 86.07 134.93 86.21 135.23C86.35 135.54 86.2 135.91 85.87 135.94C85.69 135.96 85.46 135.88 85.31 135.77C85.09 135.6 85.2 135.09 85.45 134.94Z" fill="black"/>
<path d="M61.96 134.85C62.14 134.92 62.38 135 62.59 135.14C62.62 135.16 62.5 135.52 62.37 135.63C62.26 135.73 62.02 135.76 61.87 135.72C61.62 135.64 61.63 135.14 61.96 134.86V134.85Z" fill="black"/>
<path d="M114.43 113.78C114.57 113.54 114.69 113.29 114.85 113.06C114.88 113.02 115.1 113.03 115.14 113.08C115.29 113.32 115.41 113.58 115.54 113.84C115.37 113.92 115.19 114.08 115.02 114.07C114.85 114.07 114.68 113.91 114.44 113.78H114.43Z" fill="black"/>
<path d="M95.43 131.71C95.46 131.56 95.43 131.33 95.53 131.26C95.79 131.07 96.11 131.2 96.2 131.48C96.22 131.56 96.2 131.67 96.16 131.75C96.04 132 95.63 131.97 95.43 131.71Z" fill="black"/>
<path d="M101.1 117.71C100.83 117.62 100.61 117.6 100.49 117.49C100.28 117.3 100.39 116.93 100.7 116.83C100.83 116.78 101.15 116.88 101.16 116.95C101.19 117.19 101.13 117.44 101.11 117.71H101.1Z" fill="black"/>
<path d="M75.91 140.6C75.67 140.36 75.71 139.93 76.01 139.82C76.16 139.77 76.41 139.8 76.53 139.89C76.79 140.09 76.73 140.57 76.44 140.67C76.29 140.72 76.09 140.63 75.91 140.6Z" fill="black"/>
<path d="M98.89 165.42C98.61 165.19 98.58 164.81 98.85 164.67C99 164.6 99.22 164.59 99.37 164.65C99.62 164.75 99.63 165.26 99.38 165.42C99.26 165.5 99.05 165.42 98.88 165.42H98.89Z" fill="black"/>
<path d="M110.92 85.49C110.7 85.37 110.64 85.19 110.74 84.96C110.89 84.62 111.21 84.46 111.41 84.67C111.54 84.8 111.63 85.04 111.61 85.21C111.59 85.49 111.21 85.62 110.91 85.49H110.92Z" fill="black"/>
<path d="M103.51 159.88C103.58 159.71 103.61 159.47 103.74 159.39C103.94 159.26 104.18 159.39 104.19 159.63C104.2 159.8 104.06 159.98 103.99 160.15C103.83 160.06 103.67 159.97 103.51 159.88Z" fill="black"/>
<path d="M76.1 135.47C76.28 135.43 76.5 135.3 76.64 135.36C76.94 135.49 77.02 135.78 76.92 136.1C76.83 136.39 76.43 136.47 76.19 136.27C75.93 136.05 75.9 135.73 76.11 135.47H76.1Z" fill="black"/>
<path d="M101.63 113.14C101.22 113.12 100.94 113.16 100.71 113.08C100.6 113.04 100.49 112.73 100.54 112.6C100.65 112.3 100.99 112.14 101.24 112.28C101.42 112.38 101.46 112.74 101.63 113.14Z" fill="black"/>
<path d="M110.29 103.74C110.37 103.57 110.44 103.28 110.62 103.12C110.83 102.94 111.25 103.15 111.3 103.46C111.33 103.63 111.25 103.86 111.13 103.98C110.89 104.22 110.5 104.13 110.29 103.74Z" fill="black"/>
<path d="M90.28 125.57C90.39 125.33 90.57 125.28 90.81 125.39C91.32 125.62 91.41 125.86 91.18 126.35C91.06 126.59 90.9 126.66 90.66 126.55C90.17 126.32 90.07 126.04 90.29 125.57H90.28Z" fill="black"/>
<path d="M57.95 111.01C57.8 110.67 57.82 110.38 58.1 110.15C58.35 109.94 58.72 110.02 58.87 110.32C59.06 110.73 59.03 110.98 58.74 111.13C58.39 111.32 58.08 111.26 57.95 111V111.01Z" fill="black"/>
<path d="M119.48 108.71C119.51 108.53 119.48 108.29 119.58 108.18C119.77 107.97 120.14 108.11 120.29 108.44C120.39 108.66 120.29 108.86 120.02 108.88C119.84 108.89 119.66 108.77 119.48 108.71Z" fill="black"/>
<path d="M86.19 116.63C86.28 116.45 86.33 116.21 86.47 116.12C86.68 115.98 86.85 116.12 86.94 116.36C87.03 116.61 86.97 116.82 86.72 116.84C86.55 116.85 86.37 116.71 86.19 116.63Z" fill="black"/>
<path d="M115.96 94.65C115.77 94.71 115.58 94.77 115.39 94.84C115.35 94.65 115.24 94.44 115.28 94.27C115.33 94.01 115.58 93.93 115.77 94.12C115.89 94.24 115.9 94.47 115.96 94.65Z" fill="black"/>
<path d="M85.37 145.61C85.32 145.43 85.19 145.25 85.22 145.08C85.26 144.8 85.72 144.75 85.94 145C86.05 145.14 86.13 145.36 86.13 145.54C86.13 145.78 85.64 145.82 85.38 145.61H85.37Z" fill="black"/>
<path d="M105.28 118.15C105.12 117.88 105.24 117.63 105.58 117.51C105.82 117.43 105.97 117.51 106.04 117.75C106.14 118.09 106.01 118.45 105.78 118.42C105.61 118.4 105.45 118.24 105.28 118.14V118.15Z" fill="black"/>
<path d="M67.35 125.85C67.18 125.85 66.96 125.94 66.84 125.86C66.62 125.72 66.73 125.11 66.97 125.09C67.13 125.08 67.37 125.21 67.46 125.36C67.52 125.46 67.39 125.68 67.35 125.85Z" fill="black"/>
<path d="M86.68 126.65C86.62 126.69 86.55 126.78 86.5 126.77C86.43 126.75 86.34 126.68 86.31 126.61C86.28 126.53 86.31 126.43 86.31 126.34C86.4 126.37 86.5 126.37 86.57 126.43C86.63 126.48 86.64 126.58 86.68 126.65Z" fill="black"/>
<path d="M66.72 144.75C66.65 144.69 66.55 144.63 66.53 144.55C66.51 144.47 66.56 144.37 66.59 144.28C66.74 144.36 66.9 144.42 67.03 144.53C67.07 144.56 67.01 144.7 67 144.8C66.91 144.78 66.82 144.77 66.73 144.75H66.72Z" fill="black"/>
<path d="M106.22 103.2C106.16 103.37 106.11 103.54 106.03 103.7C106.02 103.72 105.82 103.7 105.77 103.64C105.71 103.58 105.69 103.39 105.71 103.38C105.87 103.31 106.04 103.26 106.22 103.21V103.2Z" fill="black"/>
<path d="M100.61 108.38C100.55 108.31 100.46 108.24 100.43 108.16C100.4 108.07 100.43 107.97 100.43 107.87C100.6 107.94 100.78 108 100.93 108.09C100.96 108.11 100.93 108.3 100.88 108.36C100.82 108.41 100.7 108.38 100.6 108.38H100.61Z" fill="black"/>
<path d="M72.02 135.36C71.92 135.36 71.73 135.4 71.73 135.38C71.68 135.2 71.65 135 71.62 134.81C71.72 134.81 71.84 134.81 71.92 134.84C72.16 134.96 72.19 135.14 72.02 135.36Z" fill="black"/>
<path d="M91.12 121.31C91.23 121.33 91.4 121.31 91.42 121.37C91.51 121.61 91.41 121.8 91.16 121.87C91.07 121.9 90.95 121.86 90.85 121.85C90.94 121.67 91.03 121.49 91.12 121.31Z" fill="black"/>
<path d="M66.26 149.06C66.29 148.97 66.3 148.82 66.36 148.79C66.58 148.67 66.76 148.76 66.81 149.01C66.83 149.1 66.78 149.2 66.76 149.3C66.59 149.22 66.43 149.14 66.26 149.07V149.06Z" fill="black"/>
<path d="M101.57 98.27C101.48 98.3 101.36 98.39 101.31 98.36C101.15 98.26 101.18 98.09 101.41 97.94C101.46 97.91 101.57 97.97 101.66 97.99C101.63 98.08 101.6 98.17 101.58 98.26L101.57 98.27Z" fill="black"/>
<path d="M67.07 130.17C67.03 130.24 67.01 130.34 66.96 130.38C66.74 130.51 66.64 130.44 66.72 130.21C66.74 130.15 66.85 130.1 66.92 130.09C66.96 130.08 67.02 130.14 67.08 130.17H67.07Z" fill="black"/>
<path d="M57.21 134.43C57.37 134.47 57.61 134.46 57.68 134.56C57.83 134.77 57.72 134.99 57.46 135.04C57.31 135.07 57.14 134.99 56.97 134.96C57.05 134.78 57.12 134.61 57.2 134.43H57.21Z" fill="black"/>
<path d="M106.46 88.97L106.3 89.11L106.21 88.86L106.46 88.97Z" fill="black"/>
<path d="M62.13 139.44C61.98 139.64 61.79 139.7 61.59 139.54C61.54 139.5 61.53 139.33 61.57 139.25C61.68 138.99 61.87 138.95 62.07 139.14C62.13 139.2 62.12 139.34 62.14 139.43L62.13 139.44Z" fill="black"/>
<path d="M58.42 102.1C58.39 102.01 58.3 101.89 58.33 101.84C58.44 101.66 58.61 101.69 58.75 101.92C58.78 101.98 58.72 102.09 58.7 102.17C58.61 102.15 58.52 102.12 58.43 102.1H58.42Z" fill="black"/>
<path d="M89.96 145.64C89.81 145.64 89.66 145.64 89.51 145.64C89.53 145.55 89.51 145.4 89.56 145.38C89.71 145.29 89.89 145.25 90.06 145.19C90.03 145.34 89.99 145.5 89.96 145.65V145.64Z" fill="black"/>
<path d="M80.43 145.4C80.43 145.3 80.38 145.14 80.42 145.12C80.58 145.04 80.76 145 80.94 144.95C80.87 145.11 80.81 145.29 80.71 145.44C80.69 145.47 80.53 145.41 80.44 145.4H80.43Z" fill="black"/>
<path d="M65.5 172.23L65.69 172.32L65.53 172.44L65.5 172.23Z" fill="black"/>
<path d="M114.48 129.95C114.19 129.64 114.28 129.33 114.5 129.03H114.42C114.72 129.34 114.62 129.64 114.4 129.95H114.48Z" fill="black"/>
<path d="M121.43 75.39L121.23 75.28L121.4 75.16L121.43 75.39Z" fill="black"/>
<path d="M95.19 140.63L95.01 140.53L95.17 140.42L95.19 140.63Z" fill="black"/>
<path d="M80.24 149.98C80.25 149.9 80.25 149.76 80.28 149.75C80.53 149.69 80.6 149.79 80.47 150.01C80.45 150.04 80.32 149.99 80.24 149.98Z" fill="black"/>
<path d="M99.46 160.13C99.37 160.12 99.22 160.13 99.21 160.1C99.13 159.84 99.23 159.75 99.47 159.88C99.5 159.9 99.47 160.04 99.45 160.13H99.46Z" fill="black"/>
<path d="M53.45 120.25C53.44 120.18 53.42 120.12 53.41 120.05C53.52 120.04 53.63 120.02 53.73 120.01C53.73 120.1 53.74 120.22 53.7 120.25C53.65 120.29 53.54 120.25 53.45 120.25Z" fill="black"/>
</g>
<defs>
<clipPath id="clip0_280_584">
<rect width="205.99" height="203" fill="white"/>
</clipPath>
</defs>
</svg>
