<svg viewBox="0 0 100 100" fill="none" xmlns="http://www.w3.org/2000/svg">
<g clip-path="url(#clip0_154_5345)">
<path fill-rule="evenodd" clip-rule="evenodd" d="M32.328 21.2189C33.174 21.1648 33.948 20.6242 34.218 19.8132C34.938 17.7947 35.82 15.8664 36.522 14.4607C37.836 11.8114 40.338 9.82901 43.452 9.39648C45 9.18022 47.052 9 49.5 9C51.948 9 54 9.18022 55.548 9.39648C58.662 9.82901 61.164 11.8114 62.478 14.4607C63.18 15.8664 64.062 17.7947 64.782 19.8132C65.07 20.6242 65.826 21.1648 66.672 21.2189C72.486 21.5974 76.788 22.12 79.866 22.6246C84.996 23.4716 88.434 27.6527 88.92 32.5908C89.424 37.709 89.982 45.7108 89.982 55.8571C89.982 66.0035 89.424 74.0053 88.92 79.1235C88.434 84.0615 84.996 88.2426 79.866 89.0897C74.322 90.0088 64.782 91 49.5 91C34.218 91 24.678 90.0088 19.134 89.0897C14.004 88.2426 10.566 84.0615 10.08 79.1235C9.57601 74.0053 9.01801 66.0035 9.01801 55.8571C9.01801 45.7108 9.57601 37.709 10.08 32.5908C10.566 27.6527 14.004 23.4716 19.134 22.6246C22.212 22.12 26.496 21.5793 32.328 21.2189ZM44.424 16.5332C45.684 16.353 47.394 16.2088 49.5 16.2088C51.606 16.2088 53.316 16.371 54.576 16.5332C55.134 16.6053 55.692 16.9837 56.034 17.6686C56.376 18.3354 56.718 19.0923 57.06 19.8673C57.258 20.3178 56.934 20.8044 56.448 20.7864C54.27 20.7323 51.966 20.7143 49.5 20.7143C47.034 20.7143 44.73 20.7323 42.552 20.7864C42.066 20.7864 41.742 20.2998 41.94 19.8673C42.282 19.0923 42.624 18.3534 42.966 17.6686C43.308 16.9837 43.866 16.6053 44.424 16.5332ZM66.312 37.8892C68.076 38.1776 69.3 39.8356 69.3 41.6378V70.0945C69.3 71.8967 68.076 73.5547 66.312 73.8431C64.062 74.2035 62.1 72.4734 62.1 70.2927V41.4576C62.1 39.2769 64.044 37.5288 66.312 37.9073V37.8892ZM29.7 41.4396C29.7 39.2589 31.644 37.5108 33.912 37.8892C35.676 38.1776 36.9 39.8356 36.9 41.6378V70.0945C36.9 71.8967 35.676 73.5547 33.912 73.8431C31.662 74.2035 29.7 72.4734 29.7 70.2927V41.4576V41.4396Z" fill="black"/>
</g>
<defs>
<clipPath id="clip0_154_5345">
<rect width="81" height="82" fill="white" transform="translate(9 9)"/>
</clipPath>
</defs>
</svg>
