<svg viewBox="0 0 100 100" fill="none" xmlns="http://www.w3.org/2000/svg">
<g clip-path="url(#clip0_154_5312)">
<path d="M33.6056 78.4166C34.1691 79.6353 34.7325 80.8738 35.3355 82.152L36.4427 84.53C37.3422 86.4621 38.7459 88.087 40.5054 89.2363C42.2748 90.3857 44.3111 91 46.4068 91H53.6624C55.758 91 57.7943 90.3857 59.5637 89.2363C61.3233 88.087 62.727 86.4621 63.6265 84.53L64.7336 82.152C65.3267 80.8937 65.8902 79.675 66.4338 78.4662C53.3856 69.9947 41.1479 72.7194 33.5958 78.4067L33.6056 78.4166ZM48.1465 82.2313C48.1465 83.3212 47.2569 84.2129 46.1695 84.2129C45.0822 84.2129 44.1925 83.3212 44.1925 82.2313V78.3572C44.1925 77.2673 45.0822 76.3755 46.1695 76.3755C47.2569 76.3755 48.1465 77.2673 48.1465 78.3572V82.2313ZM51.9325 78.3572C51.9325 77.2673 52.8222 76.3755 53.9095 76.3755C54.9969 76.3755 55.8865 77.2673 55.8865 78.3572V82.2313C55.8865 83.3212 54.9969 84.2129 53.9095 84.2129C52.8222 84.2129 51.9325 83.3212 51.9325 82.2313V78.3572Z" fill="black"/>
<path d="M95.5849 52.6851C93.3607 47.0474 88.2304 42.8562 80.3323 40.2206C79.5118 39.9531 78.6814 39.6856 77.8412 39.428C83.0012 37.8922 87.6867 35.3755 90.7906 32.1653C94.6458 28.202 95.9506 23.5254 94.5667 18.6506C93.1433 13.6172 88.8927 9.84219 83.7426 9.01982C82.932 8.90092 82.1412 9.2477 81.6964 9.93137C81.2516 10.6051 81.2417 11.4869 81.6766 12.1706C83.3274 14.7765 83.8513 16.8968 83.1495 18.1452C82.418 19.4729 80.0357 20.2557 77.0702 20.226C74.5594 20.1962 72.0387 19.0865 69.3698 17.9074C65.5541 16.233 61.6001 14.499 57.2112 15.7475C54.2852 16.5797 51.8139 18.4029 50.173 20.9195C48.5914 18.492 46.1597 16.5996 43.1546 15.7475C38.7558 14.499 34.8018 16.233 30.9862 17.9074C28.3172 19.0865 25.8064 20.1962 23.2956 20.226C20.2609 20.2557 17.9379 19.463 17.2064 18.1452C16.5046 16.8968 17.0285 14.7765 18.6793 12.1706C19.1142 11.4869 19.1044 10.6051 18.6595 9.93137C18.2147 9.2477 17.414 8.90092 16.6232 9.01982C11.4632 9.84219 7.21267 13.6172 5.78922 18.6506C2.98187 28.5785 11.74 36.0592 21.9611 39.2893C14.6264 41.8555 7.20278 45.6107 4.38555 53.022C3.53543 55.2612 4.13842 57.8076 5.89796 59.3434C10.6131 63.485 18.7979 64.892 27.2793 59.5515C28.2579 65.209 29.9087 69.9154 31.9747 74.7209C37.194 71.1242 51.0429 64.0399 68.0748 74.8101C70.1606 69.965 71.8212 65.2289 72.8097 59.5218C79.1065 63.376 87.321 64.7632 93.6079 59.8289C95.7727 58.1346 96.5833 55.2018 95.5849 52.6851ZM9.75312 19.7801C10.2968 17.8381 11.4533 16.1636 12.9855 14.9746C12.5605 16.9166 12.7681 18.6506 13.6083 20.1566C15.1306 22.8913 18.6793 24.3874 23.345 24.3577C26.6961 24.3081 29.7209 22.9804 32.6469 21.6924C35.9386 20.2458 39.0524 18.8685 42.0278 19.7206C45.6951 20.761 48.107 24.1298 48.1169 27.776V27.7958C48.1169 28.5488 48.0181 29.3117 47.8006 30.0747C46.219 35.6629 36.937 39.2695 24.1457 35.6332C16.0795 33.3444 7.47956 27.8156 9.75312 19.7801ZM39.3983 54.2506C37.7376 54.2506 36.3735 52.8833 36.3735 51.2088C36.3735 49.5343 37.7376 48.1769 39.3983 48.1769C41.059 48.1769 42.4231 49.5442 42.4231 51.2088C42.4231 52.8734 41.0689 54.2506 39.3983 54.2506ZM60.6808 54.2506C59.0102 54.2506 57.656 52.8833 57.656 51.2088C57.656 49.5343 59.0102 48.1769 60.6808 48.1769C62.3514 48.1769 63.7056 49.5442 63.7056 51.2088C63.7056 52.8734 62.3415 54.2506 60.6808 54.2506ZM60.2854 36.3168C58.8224 35.9502 57.1617 35.3458 55.7284 34.355C54.2951 33.3642 53.099 31.9869 52.5553 30.0747C52.3477 29.3217 52.239 28.5587 52.239 27.7958C52.239 26.3789 52.6047 24.972 53.3066 23.7037C54.3939 21.7419 56.1831 20.325 58.3282 19.7206C58.9608 19.5423 59.6033 19.463 60.2459 19.463C62.638 19.463 65.1192 20.5529 67.7091 21.6924C70.635 22.9804 73.6697 24.3081 77.0109 24.3577C81.6964 24.3973 85.2352 22.8913 86.7476 20.1566C87.5978 18.6506 87.7954 16.9166 87.3704 14.9746C88.9026 16.1636 90.0591 17.8381 90.6028 19.7801C91.5715 23.1984 90.6423 26.3987 87.835 29.2919C82.0325 35.2765 69.1523 38.566 60.2854 36.3168Z" fill="black"/>
</g>
<defs>
<clipPath id="clip0_154_5312">
<rect width="92" height="82" fill="white" transform="translate(4 9)"/>
</clipPath>
</defs>
</svg>
