<svg viewBox="0 0 100 100" fill="none" xmlns="http://www.w3.org/2000/svg">
<g clip-path="url(#clip0_154_5336)">
<path fill-rule="evenodd" clip-rule="evenodd" d="M9 50C9 72.6502 27.3498 91 50 91C72.6502 91 91 72.6502 91 50C91 27.3498 72.6502 9 50 9C27.3498 9 9 27.3498 9 50ZM72.9964 32.2151C73.5796 29.1173 70.8827 26.4387 67.7849 27.0218C63.8307 27.7689 57.3436 29.0991 51.312 30.7573C48.2871 31.5956 45.3533 32.5249 42.8751 33.5271C40.4698 34.4929 38.2649 35.6227 36.9529 36.9529C35.6227 38.2831 34.5111 40.4698 33.5271 42.8751C32.5249 45.3533 31.5956 48.2871 30.7573 51.312C29.0809 57.3436 27.7689 63.8307 27.0036 67.7849C26.4204 70.8827 29.0991 73.5796 32.1969 72.9964C36.1329 72.2676 42.6018 70.9738 48.6151 69.2973C51.6218 68.4591 54.5738 67.5298 57.052 66.5276C59.4756 65.5436 61.6804 64.3956 63.0289 63.0471C64.3773 61.6987 65.5253 59.4938 66.5093 57.0702C67.5116 54.592 68.4591 51.64 69.2791 48.6333C70.9373 42.6018 72.2493 36.1511 72.9782 32.2151H72.9964ZM50 57.2889C54.0271 57.2889 57.2889 54.0271 57.2889 50C57.2889 45.9729 54.0271 42.7111 50 42.7111C45.9729 42.7111 42.7111 45.9729 42.7111 50C42.7111 54.0271 45.9729 57.2889 50 57.2889Z" fill="#DB433B"/>
</g>
<defs>
<clipPath id="clip0_154_5336">
<rect width="82" height="82" fill="white" transform="translate(9 9)"/>
</clipPath>
</defs>
</svg>
