<svg viewBox="0 0 100 100" fill="none" xmlns="http://www.w3.org/2000/svg">
<g clip-path="url(#clip0_154_5305)">
<path d="M63.2134 26.5844C63.5792 30.3929 66.5061 33.3084 70.1463 33.6547C73.3841 33.9644 78.4878 34.092 82.8597 34.1284C83.5 34.1284 84.1402 34.1284 84.7256 34.1284C85.9695 34.1284 86.7744 32.8164 86.189 31.7231C84.6524 28.9169 81.8536 24.8716 76.7317 19.9151C72.0488 15.3596 68.1707 12.6991 65.3353 11.1502C64.1463 10.4942 62.7195 11.3324 62.7195 12.6809C62.7195 13.1182 62.7195 13.5556 62.7195 14.0111C62.7561 18.3298 62.8658 23.3773 63.1768 26.5844H63.2134Z" fill="#DB433B"/>
<path d="M87.9268 42.4196C87.8902 40.8524 86.6463 39.6133 85.0732 39.6133C84.3598 39.6133 83.5915 39.6133 82.8049 39.6133C78.4329 39.5769 73.1281 39.4493 69.6159 39.1031C63.2866 38.5018 58.3476 33.4542 57.7439 27.1129C57.4146 23.6324 57.2866 18.3662 57.25 14.0658C57.25 13.3004 57.25 12.5351 57.25 11.7698C57.25 10.2938 56.061 9.07289 54.561 9.05467C53.2073 9 51.8537 9 50.5 9C38.0244 9 29.5 9.63778 24.25 10.2573C18.9634 10.8769 14.939 14.8676 14.3354 20.152C13.6951 25.7644 13 35.2218 13 50C13 64.7782 13.6951 74.2538 14.3354 79.848C14.939 85.1324 18.9634 89.1231 24.25 89.7427C29.5183 90.3622 38.0244 91 50.5 91C62.9756 91 71.4817 90.3622 76.75 89.7427C82.0366 89.1231 86.061 85.1324 86.6646 79.848C87.3049 74.2356 88 64.7782 88 50C88 47.3031 87.9817 44.7702 87.9268 42.4196ZM73.8232 72.9782H24.5793C22.5671 72.9782 20.9207 71.3382 20.9207 69.3338C20.9207 67.3293 22.5671 65.6893 24.5793 65.6893H73.8232C75.8354 65.6893 77.4817 67.3293 77.4817 69.3338C77.4817 71.3382 75.8354 72.9782 73.8232 72.9782ZM73.8232 54.756H24.5793C22.5671 54.756 20.9207 53.116 20.9207 51.1116C20.9207 49.1071 22.5671 47.4671 24.5793 47.4671H73.8232C75.8354 47.4671 77.4817 49.1071 77.4817 51.1116C77.4817 53.116 75.8354 54.756 73.8232 54.756Z" fill="#DB433B"/>
</g>
<defs>
<clipPath id="clip0_154_5305">
<rect width="75" height="82" fill="white" transform="translate(13 9)"/>
</clipPath>
</defs>
</svg>
