<svg viewBox="0 0 100 100" fill="none" xmlns="http://www.w3.org/2000/svg">
<g clip-path="url(#clip0_154_5292)">
<path d="M46.112 9.72477C48.9834 8.75841 52.057 8.75841 54.9285 9.72477C58.9323 11.0938 66.3536 13.7513 77.172 18.2409C84.9572 21.4621 90.4777 23.9786 94.1984 25.7503C96.6249 26.8979 98.0202 29.1728 98.0202 31.6089C98.0202 34.0449 96.6249 36.2998 94.1984 37.4675C90.4777 39.2391 84.9572 41.7356 77.172 44.9769C66.3536 49.4665 58.9525 52.124 54.9285 53.493C52.057 54.4594 48.9834 54.4594 46.112 53.493C42.1081 52.124 34.6869 49.4665 23.8685 44.9769C20.5522 43.6079 17.6605 42.3597 15.1328 41.2524V73.4041C18.6716 74.6523 21.1992 77.9943 21.1992 81.9403C21.1992 86.9533 17.1347 91 12.0996 91C7.0645 91 3 86.9533 3 81.9403C3 77.9943 5.52767 74.6322 9.06641 73.4041V38.4942C8.25756 38.1318 7.52959 37.7695 6.84206 37.4473C4.4155 36.2998 3.04044 34.0248 3.04044 31.6089C3.04044 29.193 4.43572 26.918 6.86228 25.7503C10.583 23.9786 16.1034 21.4822 23.8887 18.2409C34.6869 13.7714 42.1081 11.0938 46.112 9.72477Z" fill="black"/>
<path d="M44.1505 58.1839C40.1871 56.835 36.2642 55.4257 32.3412 53.9359C30.4808 53.2313 23.6258 49.2652 21.8463 50.3926C19.7635 51.7012 21.543 60.6602 21.8463 62.9553C22.2507 65.9349 23.9898 68.532 26.7399 69.9615C30.7235 72.0351 38.4076 74.8939 50.5 74.8939C62.5924 74.8939 70.2967 72.0351 74.2601 69.9615C77.0102 68.532 78.7493 65.9148 79.1537 62.9553C79.4772 60.5193 81.0545 53.6742 79.3761 51.8421C76.8687 49.1444 71.9953 52.6474 69.1441 53.7547C65.0796 55.3049 60.9949 56.7746 56.8697 58.1839C52.7446 59.5932 48.2756 59.5932 44.1303 58.1839H44.1505Z" fill="black"/>
</g>
<defs>
<clipPath id="clip0_154_5292">
<rect width="95" height="82" fill="white" transform="translate(3 9)"/>
</clipPath>
</defs>
</svg>
