<svg viewBox="0 0 100 100" fill="none" xmlns="http://www.w3.org/2000/svg">
<g clip-path="url(#clip0_154_5282)">
<path fill-rule="evenodd" clip-rule="evenodd" d="M52.5917 9.05238C50.8869 9.3317 49.7159 10.9553 49.7159 12.7011V17.4322C49.7159 19.6843 51.5413 21.5348 53.7455 21.2031C55.5881 20.9238 56.6214 19.2653 56.6214 17.5544V12.509C56.6214 10.3792 54.7443 8.70322 52.5917 9.05238ZM23.8158 45.7664C21.1466 45.7664 19.459 42.8161 20.8366 40.4767C21.491 39.3594 22.7481 38.7658 24.0053 38.7658H28.2071C30.8936 38.7658 32.719 40.6164 32.3918 42.851C32.1162 44.719 30.4803 45.7664 28.7926 45.7664H23.8158ZM82.5214 45.7664C85.1906 45.7664 86.8783 42.8161 85.5006 40.4767C84.8462 39.3594 83.5891 38.7658 82.332 38.7658H78.1301C75.4437 38.7658 73.6183 40.6164 73.9455 42.851C74.221 44.719 75.857 45.7664 77.5446 45.7664H82.5214ZM29.9636 23.6996C28.0866 21.7967 28.9476 18.532 31.5135 17.8337C32.7017 17.502 33.9761 17.8512 34.8543 18.7415L38.5224 22.4601C40.3994 24.363 39.5384 27.6276 36.9725 28.326C35.7843 28.6577 34.5099 28.3085 33.6317 27.4181L29.9636 23.6996ZM76.3736 18.7415C77.7168 20.1033 77.7168 22.3204 76.3736 23.6996L72.7056 27.4181C70.8629 29.356 67.6254 28.5354 66.9022 25.9517C66.5578 24.7122 66.9022 23.3679 67.8149 22.4601L71.4829 18.7415C72.8261 17.3798 75.0132 17.3798 76.3736 18.7415ZM52.3851 25.7073C53.4355 24.7296 55.0715 24.7994 56.0531 25.8818H56.0703L56.122 25.9517L56.2942 26.1612C56.4492 26.3357 56.6558 26.5976 56.9314 26.9468C57.4824 27.6451 58.2918 28.71 59.3423 30.2289C61.4604 33.2491 64.5946 38.0849 68.7448 45.3824C72.895 52.6798 75.4609 57.8473 76.9935 61.2167C77.5618 62.4562 78.0957 63.7132 78.5951 64.9702C78.7501 65.3717 78.8878 65.7733 79.0256 66.1748V66.2446L79.06 66.2621V66.9429C79.06 68.3745 77.9751 69.7013 76.563 69.6838C75.7881 69.6838 75.082 69.3172 74.5998 68.7586C74.1866 68.2697 73.4977 68.1301 72.895 68.3396C71.6723 68.7586 70.4324 69.1601 69.1925 69.5616C68.2798 69.8584 67.3155 69.3871 66.9366 68.4967C66.4544 67.327 65.9378 66.1748 65.4212 65.0226C63.2858 60.3788 60.961 55.8222 58.4296 51.3879C55.8981 46.9536 53.1772 42.624 50.2841 38.4341C49.6125 37.4565 48.9237 36.4963 48.2177 35.5535C47.5633 34.6806 47.6666 33.4411 48.476 32.7079C49.2165 32.027 49.9742 31.3462 50.7147 30.6653C51.4552 29.9845 51.6962 28.9894 51.5413 27.9943C51.4207 27.1563 51.6962 26.3008 52.3506 25.6898L52.3851 25.7073ZM61.8393 70.9757C61.6843 71.5868 61.1504 72.1105 60.0139 72.4597C57.3791 73.2627 54.7443 74.0833 52.1095 74.8863C53.8316 78.9366 53.005 83.9819 50.0775 87.2465C47.15 90.5112 42.2765 91.8205 38.1435 90.4763C34.0105 89.132 30.8075 85.1865 30.2908 80.8046C27.2083 81.8346 23.7297 82.8471 20.8194 81.3807C18.7357 80.3332 17.4097 78.2208 16.2387 76.1782C14.8094 73.6643 13.4317 70.7313 14.2411 67.9555C14.7233 66.297 15.9115 64.9702 17.0481 63.7132C20.8366 59.5408 24.6596 55.4032 28.5171 51.3006C32.1335 47.4424 35.8015 43.6017 39.9172 40.2847C42.1043 38.5214 43.1547 37.3692 45.1868 39.7958C48.5793 43.8286 51.0591 48.9787 53.6766 53.5527C56.2253 58.0045 58.5673 62.561 60.7027 67.2397C61.3399 68.6189 62.0976 69.9457 61.822 70.9757H61.8393ZM36.9553 79.0588L37.3513 80.5252C38.1779 83.6502 41.2605 85.1516 44.0158 83.4931C45.7895 82.4281 46.5645 80.3332 46.0651 78.4128L45.6173 76.7019C42.5348 77.5748 39.6245 78.3604 36.9725 79.0762L36.9553 79.0588Z" fill="#DB433B"/>
</g>
<defs>
<clipPath id="clip0_154_5282">
<rect width="72" height="82" fill="white" transform="translate(14 9)"/>
</clipPath>
</defs>
</svg>
