<svg viewBox="0 0 100 100" fill="none" xmlns="http://www.w3.org/2000/svg">
<g clip-path="url(#clip0_154_5298)">
<path fill-rule="evenodd" clip-rule="evenodd" d="M17.528 11.4236C22.5573 10.2938 32.1604 9 50 9C67.8396 9 77.4427 10.2938 82.472 11.4236C86.7907 12.4076 89.2324 16.0338 89.7062 19.9151C90.2711 24.7258 91 32.7982 91 42.3284C91 49.6173 90.5627 56.0498 90.1253 60.824C89.524 67.1471 86.1529 72.796 80.9413 76.3858C76.7867 79.2467 71.2471 82.8364 65.744 85.7338C62.9924 87.1733 60.2044 88.4671 57.5804 89.4147C54.9929 90.344 52.3689 90.9818 50.0182 90.9818C47.6676 90.9818 45.0436 90.344 42.456 89.4147C39.832 88.4853 37.044 87.1916 34.2924 85.7338C28.7893 82.8364 23.2498 79.2467 19.0951 76.3858C13.8836 72.796 10.5124 67.1471 9.91111 60.824C9.29156 54.7013 9 48.524 9 42.3467C9 32.8164 9.72889 24.744 10.2938 19.9333C10.7493 16.0338 13.2093 12.4076 17.528 11.4236ZM53.5716 26.3111C53.5533 25.7644 53.4987 25.1631 53.1707 24.5618C52.4418 23.1951 50.7653 22.4298 49.2529 22.7396C47.7404 23.0493 46.5196 24.4524 46.4102 25.9831C46.3373 26.876 46.5196 27.9693 45.8089 28.4978C45.5356 28.6982 45.2076 28.7529 44.8796 28.8258C41.5084 29.5 38.2467 31.1036 36.06 33.7458C33.8733 36.388 32.9258 40.16 34.1102 43.3853C35.6227 47.4489 39.9778 49.7267 44.2053 50.7471C48.4329 51.7676 52.8791 51.968 56.8516 53.6991C57.8356 54.1364 58.8742 54.7742 59.0929 55.8311C59.348 57.1249 58.2364 58.2729 57.1067 58.9653C52.3689 61.8627 46.1187 61.2978 41.1076 58.9107C39.6316 58.2182 38.0827 57.3436 36.4791 57.6169C34.5111 57.9631 33.1444 60.2773 33.8187 62.1542C34.3653 63.6849 35.8778 64.6324 37.3356 65.3249C39.7409 66.4729 42.3102 67.2929 44.9342 67.7484C45.244 67.8031 45.5538 67.8578 45.8089 68.04C46.5013 68.532 46.3556 69.5707 46.4284 70.4271C46.5742 72.1582 48.1596 73.6524 49.8907 73.7071C51.6218 73.7618 53.2982 72.3769 53.5533 70.664C53.6991 69.7347 53.5169 68.6413 54.2093 67.9853C54.5738 67.6391 55.084 67.548 55.5578 67.4387C58.7831 66.6916 61.8809 65.1244 63.9764 62.5733C66.072 60.0222 67.0196 56.4324 65.9809 53.2982C64.6142 49.1982 60.3138 46.7929 56.1227 45.7178C51.9316 44.6427 47.5036 44.4604 43.4764 42.8751C42.3831 42.4378 41.1987 41.7453 40.9436 40.5973C40.6338 39.1213 42.0187 37.8276 43.3671 37.1351C47.9773 34.7298 53.6991 35.0578 58.3822 37.2991C60.0951 38.1191 61.9356 39.2124 63.776 38.7387C65.7622 38.2467 66.9467 35.6956 66.0356 33.8551C65.4707 32.7071 64.3227 31.9782 63.1747 31.3769C60.5871 30.0284 57.9084 29.2449 55.084 28.6253C53.5169 28.2791 53.608 27.4227 53.5533 26.3476L53.5716 26.3111Z" fill="black"/>
</g>
<defs>
<clipPath id="clip0_154_5298">
<rect width="82" height="82" fill="white" transform="translate(9 9)"/>
</clipPath>
</defs>
</svg>
