<svg viewBox="0 0 100 100" fill="none" xmlns="http://www.w3.org/2000/svg">
<g clip-path="url(#clip0_154_5351)">
<path fill-rule="evenodd" clip-rule="evenodd" d="M9.58313 27.2222C9.71069 24.8716 9.85646 22.8307 10.0022 21.0996C10.476 15.1044 15.1045 10.476 21.0996 9.984C27.0582 9.492 36.5156 9 50 9C63.4845 9 72.9418 9.51022 78.9005 9.984C84.8956 10.476 89.524 15.0862 89.9978 21.0813C90.1436 22.8124 90.2894 24.8533 90.4169 27.204H9.58313V27.2222ZM19.9334 19.0222C19.9334 17.5098 21.1542 16.2889 22.6667 16.2889H26.3111C27.8236 16.2889 29.0445 17.5098 29.0445 19.0222C29.0445 20.5347 27.8236 21.7556 26.3111 21.7556H22.6667C21.1542 21.7556 19.9334 20.5347 19.9334 19.0222ZM37.2445 16.2889C35.732 16.2889 34.5111 17.5098 34.5111 19.0222C34.5111 20.5347 35.732 21.7556 37.2445 21.7556H40.8889C42.4014 21.7556 43.6222 20.5347 43.6222 19.0222C43.6222 17.5098 42.4014 16.2889 40.8889 16.2889H37.2445Z" fill="black"/>
<path fill-rule="evenodd" clip-rule="evenodd" d="M21.0996 90.016C27.0582 90.508 36.5156 91 50 91C63.4844 91 72.9418 90.4898 78.9004 90.016C84.8956 89.524 89.524 84.9138 89.9978 78.9187C90.4898 72.96 90.9818 63.5027 90.9818 50.0182C90.9818 43.2578 90.8542 37.5178 90.672 32.7071H9.30978C9.09111 38.4653 9 44.2236 9 50C9 63.4844 9.51022 72.9418 9.984 78.9004C10.476 84.8955 15.0862 89.524 21.0813 89.9978L21.0996 90.016ZM27.0764 53.5533C29.2631 54.6831 31.3951 55.904 33.4907 57.1978C35.2582 58.3093 37.0804 59.4573 38.5747 60.9333C37.0804 62.4093 35.2582 63.5755 33.4907 64.6689C31.2129 66.072 28.8804 67.384 26.5116 68.6049C24.7076 69.516 23.9787 71.6844 24.8716 73.4884C25.7644 75.2924 27.9511 76.0213 29.7551 75.1284L30.4293 74.7822C32.78 73.5613 35.0942 72.2493 37.3538 70.8644C39.2307 69.68 41.2533 68.3133 42.8387 66.9284C44.588 65.3978 46.3556 63.4116 46.3556 60.9333C46.3556 58.4551 44.588 56.4689 42.8387 54.9382C41.2533 53.5533 39.2489 52.1867 37.3538 51.0022C34.8938 49.4715 32.3609 48.0502 29.7733 46.7382C27.9876 45.8271 25.8009 46.556 24.8898 48.36C23.9969 50.164 24.7258 52.3507 26.5116 53.2436L27.0947 53.5351L27.0764 53.5533ZM53.6444 68.2222C51.64 68.2222 50 69.8622 50 71.8667C50 73.8711 51.64 75.5111 53.6444 75.5111H71.8667C73.8711 75.5111 75.5111 73.8711 75.5111 71.8667C75.5111 69.8622 73.8711 68.2222 71.8667 68.2222H53.6444Z" fill="black"/>
</g>
<defs>
<clipPath id="clip0_154_5351">
<rect width="82" height="82" fill="white" transform="translate(9 9)"/>
</clipPath>
</defs>
</svg>
