<svg width="1600" height="760" viewBox="0 0 1600 760" fill="none" xmlns="http://www.w3.org/2000/svg">
<path d="M1596.63 673.23V629.415H1593.26V567.063H1589.89V514.823H1588.21V471.008H1584.84V440.675H1581.47V359.786H1577.89V336.194H1575.36V310.916H1572.83V292.379H1571.15V275.527H1567.78V292.379H1566.1V310.916H1563.57V336.194H1561.04V359.786H1552.84V349.675H1542.74V359.786H1536V332.823H1530.95V359.786H1524.21V349.675H1514.11V359.786H1510.52V336.194H1507.99V310.916H1505.47V292.379H1503.78V275.527H1500.41V292.379H1498.73V310.916H1496.2V336.194H1493.68V359.786H1490.53V396.86H1485.47V440.675H1478.74V471.008H1477.05V514.823H1472V567.063H1466.95V629.415H1461.89V654.693H1453.42V528.304H1429.84V351.36H1417.21V307.546H1366.69V280.583H1356.58V268.786H1347.32V262.046H1338.9V256.99H1329.63V248.564H1320.37V241.824H1310.27V233.398H1300.16V226.657H1292.58V218.231H1285V213.175H1280.79V209.805H1276.58V206.435H1273.21V203.064H1269.84V206.435H1266.48V209.805H1262.27V213.175H1258.05V218.231H1250.48V226.657H1242.9V233.398H1232.79V241.824H1222.69V248.564H1213.42V256.99H1204.16V262.046H1195.74V268.786H1186.48V280.583H1176.37V307.546H1125.84V351.36H1113.21V528.304H1089.63V604.137H1066.11V449.101H1045.89V388.434H976.842V373.268H922.947V312.601H885.895V373.268H835.368V388.434H759.579V482.804H741.053V673.23H725.895V240.138H718.484L717.474 189.583L597.491 139.836L591.158 0L584.876 139.027H583.764L461.474 189.583L460.463 240.138H453.053V535.045H429.474V349.675H412.632V334.508H372.211V349.675H353.684V417.082H272.842V627.73H261.996L238.787 415.532L238.063 408.859C237.928 407.662 237.743 406.651 237.524 405.842C240.724 401.393 242.745 396.034 243.099 390.221H243.705C246.686 390.221 249.128 387.794 249.128 384.794V382.957C249.128 379.958 246.686 377.531 243.705 377.531H243.149V322.004H243.857C244.952 322.004 245.912 321.33 246.282 320.302C246.653 319.258 246.333 318.145 245.491 317.454L214.787 292.227V283.279C214.787 282.386 214.063 281.661 213.171 281.661C212.278 281.661 211.554 282.386 211.554 283.279V292.227L180.851 317.454C180.008 318.145 179.705 319.258 180.076 320.302C180.446 321.33 181.389 322.004 182.484 322.004H183.192V377.531H182.653C179.655 377.531 177.229 379.958 177.229 382.957V384.794C177.229 387.794 179.655 390.221 182.653 390.221H183.259C183.596 395.815 185.482 400.989 188.48 405.353V405.37C188.261 406.179 188.076 407.173 187.941 408.37L187.2 415.06L182.434 458.791L182.383 459.128L175.309 524.024L175.259 524.462L166.939 600.767H78.5684L67.4526 217.911C67.4358 217.169 67.8737 216.495 68.5642 216.226C68.901 216.091 69.2379 215.973 69.4737 215.889C70.1137 215.653 70.6358 215.467 71.0232 215.265C73.9537 213.732 76.6147 201.295 76.4295 196.509C76.3958 195.582 76.2779 192.768 74.1558 191.858C68.7663 189.6 56.1347 188.1 44.8674 189.667C40.5221 190.122 36.8842 190.897 34.6105 191.858C32.4716 192.768 32.3537 195.582 32.32 196.509C32.1347 201.295 34.7958 213.732 37.7263 215.265C38.1137 215.467 38.6358 215.653 39.2758 215.889C39.5958 216.007 40.0337 216.175 40.4716 216.344C40.9768 216.563 41.3137 217.068 41.2968 217.624C36.7832 373.436 31.5284 554.425 30.1811 600.767H0V759.174H1600V673.23H1596.63ZM160.994 655.148V654.963H161.011V655.148H160.994ZM190.316 415.397L191.04 408.707C191.04 408.707 191.04 408.64 191.057 408.606C193.549 411.319 196.514 413.577 199.832 415.229C199.629 416.088 199.478 417.217 199.444 418.616L199.242 425.138L198.417 451.662L185.735 457.308L190.316 415.397ZM193.836 600.767H170.072L171.032 592.021L194.189 589.156L193.836 600.767ZM194.291 585.887L171.385 588.701L178.173 526.535L196.295 520.906L194.291 585.887ZM178.56 523.013L185.331 461.049L198.316 455.269L196.396 517.485L178.56 523.013ZM210.274 600.767H196.952L197.305 589.089L210.274 589.173V600.767ZM210.274 585.938L197.406 585.853L199.427 520.367L210.274 520.687V585.938ZM210.274 517.469L199.528 517.148L201.465 454.325L210.274 454.662V517.469ZM210.274 420.773V451.409L201.566 451.089L202.358 425.239L202.56 418.717C202.594 417.841 202.56 417.065 202.509 416.391C205.019 417.352 207.697 417.992 210.476 418.228H210.493C210.358 418.953 210.274 419.795 210.274 420.773ZM246.905 518.547L229.608 518.042L227.672 455.302L240.051 455.757L246.905 518.547ZM228.581 586.039L214.821 585.954V520.839L226.577 521.176L228.581 586.039ZM234.931 408.977C234.931 408.977 234.931 409.128 234.947 409.196L235.688 415.886L239.697 452.505L227.571 452.067L226.728 424.885L226.526 418.363C226.493 417.167 226.375 416.155 226.223 415.347C229.507 413.779 232.455 411.606 234.931 408.977ZM226.476 517.94L214.821 517.603V454.83L224.522 455.184L226.476 517.94ZM214.636 418.329C217.701 418.178 220.648 417.571 223.411 416.56C223.377 417.116 223.377 417.756 223.394 418.464L223.596 424.986L224.421 451.949L214.821 451.578V420.773C214.821 419.846 214.754 419.02 214.619 418.329H214.636ZM225.684 627.73V600.767H214.821V589.19L228.682 589.291L229.861 627.73H225.684ZM229.709 521.277L247.276 521.8L254.316 586.207L231.714 586.072L229.709 521.277ZM232.994 627.73L231.815 589.308L254.669 589.443L258.846 627.73H232.994Z" fill="white"/>
<path d="M1596.63 673.23V629.415H1593.26V567.063H1589.89V514.823H1588.21V471.008H1584.84V440.675H1581.47V359.786H1577.89V336.194H1575.36V310.916H1572.83V292.379H1571.15V275.527H1567.78V292.379H1566.1V310.916H1563.57V336.194H1561.04V359.786H1552.84V349.675H1542.74V359.786H1536V332.823H1530.95V359.786H1524.21V349.675H1514.11V359.786H1510.52V336.194H1507.99V310.916H1505.47V292.379H1503.78V275.527H1500.41V292.379H1498.73V310.916H1496.2V336.194H1493.68V359.786H1490.53V396.86H1485.47V440.675H1478.74V471.008H1477.05V514.823H1472V567.063H1466.95V629.415H1461.89V654.693H1453.42V528.304H1429.84V351.36H1417.21V307.546H1366.69V280.583H1356.58V268.786H1347.32V262.046H1338.9V256.99H1329.63V248.564H1320.37V241.824H1310.27V233.398H1300.16V226.657H1292.58V218.231H1285V213.175H1280.79V209.805H1276.58V206.435H1273.21V203.064H1269.84V206.435H1266.48V209.805H1262.27V213.175H1258.05V218.231H1250.48V226.657H1242.9V233.398H1232.79V241.824H1222.69V248.564H1213.42V256.99H1204.16V262.046H1195.74V268.786H1186.48V280.583H1176.37V307.546H1125.84V351.36H1113.21V528.304H1089.63V604.138H1066.11V449.101H1045.89V388.434H976.842V373.268H922.947V312.601H885.895V373.268H835.368V388.434H759.579V482.804H741.053V673.23H725.895V240.138H718.484L717.474 189.583L597.491 139.836L591.158 0L584.876 139.027H583.764L461.474 189.583L460.463 240.138H453.053V535.045H429.474V349.675H412.632V334.509H372.211V349.675H353.684V417.082H272.842V627.73H261.996L238.787 415.532L238.063 408.859C237.928 407.662 237.743 406.651 237.524 405.842C240.724 401.393 242.745 396.034 243.099 390.221H243.705C246.686 390.221 249.128 387.794 249.128 384.794V382.957C249.128 379.958 246.686 377.531 243.705 377.531H243.149V322.004H243.857C244.952 322.004 245.912 321.33 246.282 320.302C246.653 319.258 246.333 318.145 245.491 317.454L214.787 292.227V283.279C214.787 282.386 214.063 281.661 213.171 281.661C212.278 281.661 211.554 282.386 211.554 283.279V292.227L180.851 317.454C180.008 318.145 179.705 319.258 180.076 320.302C180.446 321.33 181.389 322.004 182.484 322.004H183.192V377.531H182.653C179.655 377.531 177.229 379.958 177.229 382.957V384.794C177.229 387.794 179.655 390.221 182.653 390.221H183.259C183.596 395.815 185.482 400.989 188.48 405.353V405.37C188.261 406.179 188.076 407.174 187.941 408.37L187.2 415.06L182.434 458.791L182.383 459.128L175.309 524.024L175.259 524.462L166.939 600.767H78.5684L67.4526 217.911C67.4358 217.169 67.8737 216.495 68.5642 216.226C68.9011 216.091 69.2379 215.973 69.4737 215.889C70.1137 215.653 70.6358 215.467 71.0232 215.265C73.9537 213.732 76.6147 201.295 76.4295 196.509C76.3958 195.582 76.2779 192.768 74.1558 191.858C68.7663 189.6 56.1347 188.1 44.8674 189.667C40.5221 190.122 36.8842 190.897 34.6105 191.858C32.4716 192.768 32.3537 195.582 32.32 196.509C32.1347 201.295 34.7958 213.732 37.7263 215.265C38.1137 215.467 38.6358 215.653 39.2758 215.889C39.5958 216.007 40.0337 216.175 40.4716 216.344C40.9768 216.563 41.3137 217.068 41.2968 217.624C36.7832 373.436 31.5284 554.425 30.1811 600.767H0V759.174H1600V673.23H1596.63ZM160.994 655.148V654.963H161.011V655.148H160.994ZM190.316 415.397L191.04 408.707C191.04 408.707 191.04 408.64 191.057 408.606C193.549 411.319 196.514 413.577 199.832 415.229C199.629 416.088 199.478 417.217 199.444 418.616L199.242 425.138L198.417 451.662L185.735 457.308L190.316 415.397ZM193.836 600.767H170.072L171.032 592.021L194.189 589.156L193.836 600.767ZM194.291 585.887L171.385 588.701L178.173 526.535L196.295 520.906L194.291 585.887ZM178.56 523.013L185.331 461.049L198.316 455.269L196.396 517.485L178.56 523.013ZM210.274 600.767H196.952L197.305 589.089L210.274 589.173V600.767ZM210.274 585.938L197.406 585.853L199.427 520.367L210.274 520.687V585.938ZM210.274 517.469L199.528 517.148L201.465 454.325L210.274 454.662V517.469ZM210.274 420.773V451.409L201.566 451.089L202.358 425.239L202.56 418.717C202.594 417.841 202.56 417.065 202.509 416.391C205.019 417.352 207.697 417.992 210.476 418.228H210.493C210.358 418.953 210.274 419.795 210.274 420.773ZM246.905 518.547L229.608 518.042L227.672 455.302L240.051 455.757L246.905 518.547ZM228.581 586.039L214.821 585.954V520.839L226.577 521.176L228.581 586.039ZM234.931 408.977C234.931 408.977 234.931 409.128 234.947 409.196L235.688 415.886L239.697 452.505L227.571 452.067L226.728 424.885L226.526 418.363C226.493 417.167 226.375 416.156 226.223 415.347C229.507 413.779 232.455 411.606 234.931 408.977ZM226.476 517.94L214.821 517.603V454.83L224.522 455.184L226.476 517.94ZM214.636 418.329C217.701 418.178 220.648 417.571 223.411 416.56C223.377 417.116 223.377 417.756 223.394 418.464L223.596 424.986L224.421 451.949L214.821 451.578V420.773C214.821 419.846 214.754 419.02 214.619 418.329H214.636ZM225.684 627.73V600.767H214.821V589.19L228.682 589.291L229.861 627.73H225.684ZM229.709 521.277L247.276 521.8L254.316 586.207L231.714 586.072L229.709 521.277ZM232.994 627.73L231.815 589.308L254.669 589.443L258.846 627.73H232.994Z" fill="black"/>
<path d="M175.309 524.023L175.259 524.462L175.141 524.074L175.309 524.023Z" fill="black"/>
<path d="M182.434 458.791L182.383 459.128L182.265 458.858L182.434 458.791Z" fill="black"/>
<path d="M213.188 295.109H213.154L213.171 295.092L213.188 295.109Z" fill="black"/>
<path d="M213.188 295.109H213.154L213.171 295.092L213.188 295.109Z" fill="black"/>
</svg>
