<svg width="294" height="30" viewBox="0 0 294 30" fill="none" xmlns="http://www.w3.org/2000/svg">
<g clip-path="url(#clip0_202_42)">
<path d="M283.486 2.63153C283.176 2.64813 282.849 2.63983 282.522 2.63983C280.302 2.65643 278.148 2.48211 275.626 2.20818C273.129 1.94254 270.524 1.5939 267.717 1.30336C264.927 1.01283 261.919 0.796999 258.735 0.830203C257.134 0.871709 255.509 0.946418 253.867 1.13734C253.054 1.22035 252.25 1.36977 251.445 1.48599C250.641 1.6105 249.87 1.80143 249.091 1.95915C245.999 2.67304 243.209 3.67746 240.737 4.81471C238.257 5.95195 236.07 7.20541 234.06 8.48377C230.038 11.0571 226.695 13.6968 223.276 16.129C219.933 18.5197 216.598 20.6531 213.088 21.7821C211.345 22.3548 209.585 22.6869 207.742 22.7699C206.82 22.8114 205.865 22.8031 204.893 22.7284C203.921 22.6786 202.857 22.5292 201.852 22.3714C197.746 21.6824 193.683 20.2381 189.728 18.445C185.773 16.6686 181.894 14.502 177.554 12.377C175.392 11.3144 173.105 10.2685 170.633 9.31388C168.17 8.35096 165.522 7.47104 162.64 6.79866C161.215 6.43341 159.741 6.18438 158.266 5.91875C156.783 5.71122 155.291 5.49539 153.783 5.37918C150.775 5.12185 147.726 5.03884 144.718 5.20486C141.71 5.35428 138.718 5.67802 135.819 6.20928C132.92 6.74885 130.105 7.47104 127.416 8.36756C124.743 9.28067 122.221 10.4096 119.933 11.6631C117.688 12.9165 115.778 14.2198 114.001 15.4318C110.457 17.8723 107.248 19.9724 103.83 20.9104C102.129 21.4168 100.319 21.6492 98.4253 21.6907C96.5317 21.7073 94.5292 21.5164 92.5016 21.1097C88.4379 20.3128 84.3742 18.7688 80.6038 16.9176C78.7102 15.9879 76.8837 14.9835 75.1241 13.9127L69.502 10.4594C67.5666 9.28897 65.5557 8.11022 63.4275 6.96468C61.2742 5.82744 58.9952 4.7234 56.5067 3.71897C54.0434 2.70624 51.2784 1.82633 48.3207 1.15394C45.363 0.514763 42.154 0.0582057 38.8947 0.0167005C35.6437 -0.0746111 32.4179 0.224227 29.4016 0.738892C21.9781 2.00065 14.0183 4.57398 7.95216 9.14786C4.9107 11.4472 -0.560591 17.0588 0.0510535 21.2259C0.495124 24.2475 2.27141 22.7118 4.48338 21.3255C11.7812 16.7599 18.7858 11.6797 27.0807 9.02334C31.513 7.60386 36.113 6.91487 40.4615 7.32993C42.6567 7.52085 44.8435 7.96081 47.0053 8.62489C49.167 9.29728 51.2951 10.1689 53.3814 11.165C57.5708 13.1656 61.5339 15.6559 65.6981 18.2292C66.7036 18.8601 67.8682 19.5657 69.0077 20.2132C70.164 20.8689 71.337 21.5164 72.5686 22.1307C75.0236 23.3676 77.621 24.5463 80.453 25.5673C83.285 26.5967 86.3348 27.5015 89.6947 28.1158C93.0378 28.73 96.7244 29.0538 100.486 28.8296C102.363 28.7217 104.232 28.481 106.033 28.1075C107.826 27.7339 109.544 27.2192 111.136 26.6465C114.278 25.4594 116.833 24.0067 119.02 22.6039C121.232 21.1927 123.126 19.8147 125.011 18.6028C125.949 17.9968 126.871 17.4406 127.793 16.9259C128.262 16.6769 128.731 16.4528 129.2 16.2121C129.653 15.963 130.189 15.7804 130.675 15.5563C138.693 12.1694 149.77 11.3559 158.702 13.5723C163.218 14.6515 167.55 16.5773 171.923 18.7771L178.693 22.222C181.048 23.4008 183.536 24.5712 186.209 25.6586C191.554 27.8086 197.855 29.6847 205.22 29.9752C208.923 30.1329 212.861 29.693 216.297 28.7798C219.749 27.875 222.69 26.5718 225.178 25.1938C227.667 23.8158 229.786 22.3631 231.772 20.952C233.741 19.5491 235.635 18.1379 237.495 16.8014C241.198 14.1285 244.902 11.6631 248.932 10.0693C251.244 9.13955 253.297 8.59169 253.925 8.30115C254.428 8.06872 254.956 7.86949 255.501 7.64537C256.054 7.46274 256.632 7.25522 257.243 7.0975C258.266 6.81526 258.701 6.59943 258.375 6.37531C258.031 6.15118 257.662 5.90215 257.294 5.69462C257.193 5.63651 257.562 5.5452 258.333 5.47879C260.603 5.27127 262.983 5.27127 265.388 5.34597C267.357 5.42068 268.412 5.39578 268.303 5.22976C268.161 5.01393 269.2 4.93092 271.16 4.99733C273.113 5.04714 276.012 5.32107 279.48 5.43729C279.975 5.45389 280.469 5.47049 280.972 5.46219C281.466 5.46219 281.961 5.46219 282.455 5.44559C284.575 5.38748 286.133 5.17165 286.778 4.98073C287.432 4.80641 287.155 4.69849 286.075 4.69019C285.103 4.65699 285.496 4.53247 286.921 4.32495C288.437 4.08422 289.208 3.80198 289.367 3.66916C289.518 3.52804 289.041 3.50314 287.918 3.58615C287.139 3.62766 286.351 3.64426 285.547 3.64426C284.776 3.62766 284.558 3.56125 284.96 3.46164C285.362 3.37033 286.318 3.25411 287.457 3.07149C288.002 2.99678 288.496 2.88056 289.007 2.78925C289.476 2.66474 289.987 2.56512 290.415 2.4157C291.32 2.15837 292.09 1.81803 292.752 1.45278C293.816 0.846806 294.135 0.290635 293.992 0.24913C293.791 0.191023 293.205 0.630978 292.141 1.11244C291.353 1.47769 290.39 1.77652 289.292 2.00895C288.479 2.19988 287.532 2.30779 286.577 2.42401C285.589 2.50702 284.575 2.59833 283.511 2.60663" fill="black"/>
</g>
<defs>
<clipPath id="clip0_202_42">
<rect width="294" height="30" fill="white"/>
</clipPath>
</defs>
</svg>
